<svg xmlns="http://www.w3.org/2000/svg" viewBox="0 0 1200 420" width="1200" height="420" role="img" aria-label="Modular Kitchen Finishes"><rect width="1200" height="420" fill="#2E6E8E"/><rect x="380" y="70" width="70" height="90" rx="4" fill="#1E4A5F" opacity="0.7" stroke="#122E3A" stroke-opacity="0.4"/><rect x="460" y="70" width="70" height="90" rx="4" fill="#1E4A5F" opacity="0.7" stroke="#122E3A" stroke-opacity="0.4"/><rect x="540" y="70" width="70" height="90" rx="4" fill="#1E4A5F" opacity="0.7" stroke="#122E3A" stroke-opacity="0.4"/><rect x="620" y="70" width="70" height="90" rx="4" fill="#1E4A5F" opacity="0.7" stroke="#122E3A" stroke-opacity="0.4"/><rect x="700" y="70" width="70" height="90" rx="4" fill="#1E4A5F" opacity="0.7" stroke="#122E3A" stroke-opacity="0.4"/><rect x="780" y="70" width="70" height="90" rx="4" fill="#1E4A5F" opacity="0.7" stroke="#122E3A" stroke-opacity="0.4"/><rect x="360" y="220" width="480" height="16" fill="#122E3A" opacity="0.6"/><rect x="380" y="240" width="70" height="120" rx="4" fill="#1E4A5F" opacity="0.75" stroke="#122E3A" stroke-opacity="0.4"/><rect x="408" y="250" width="14" height="4" rx="2" fill="#122E3A"/><rect x="460" y="240" width="70" height="120" rx="4" fill="#1E4A5F" opacity="0.75" stroke="#122E3A" stroke-opacity="0.4"/><rect x="488" y="250" width="14" height="4" rx="2" fill="#122E3A"/><rect x="540" y="240" width="70" height="120" rx="4" fill="#1E4A5F" opacity="0.75" stroke="#122E3A" stroke-opacity="0.4"/><rect x="568" y="250" width="14" height="4" rx="2" fill="#122E3A"/><rect x="620" y="240" width="70" height="120" rx="4" fill="#1E4A5F" opacity="0.75" stroke="#122E3A" stroke-opacity="0.4"/><rect x="648" y="250" width="14" height="4" rx="2" fill="#122E3A"/><rect x="700" y="240" width="70" height="120" rx="4" fill="#1E4A5F" opacity="0.75" stroke="#122E3A" stroke-opacity="0.4"/><rect x="728" y="250" width="14" height="4" rx="2" fill="#122E3A"/><rect x="780" y="240" width="70" height="120" rx="4" fill="#1E4A5F" opacity="0.75" stroke="#122E3A" stroke-opacity="0.4"/><rect x="808" y="250" width="14" height="4" rx="2" fill="#122E3A"/><rect x="24" y="302" width="340" height="42" rx="8" fill="#160F09" opacity="0.85"/><text x="40" y="330" font-family="Arial" font-size="19" font-weight="bold" fill="#E8A33D" letter-spacing="2">MODULAR KITCHEN FINISHES</text></svg>