<svg xmlns="http://www.w3.org/2000/svg" viewBox="0 0 1200 420" width="1200" height="420" role="img" aria-label="Block Board"><rect width="1200" height="420" fill="#B98F57"/><rect x="0" y="356" width="43" height="64" fill="#96703C" opacity="0.5"/><rect x="46" y="356" width="43" height="64" fill="#6D5023" opacity="0.5"/><rect x="92" y="356" width="43" height="64" fill="#96703C" opacity="0.5"/><rect x="138" y="356" width="43" height="64" fill="#6D5023" opacity="0.5"/><rect x="185" y="356" width="43" height="64" fill="#96703C" opacity="0.5"/><rect x="231" y="356" width="43" height="64" fill="#6D5023" opacity="0.5"/><rect x="277" y="356" width="43" height="64" fill="#96703C" opacity="0.5"/><rect x="323" y="356" width="43" height="64" fill="#6D5023" opacity="0.5"/><rect x="369" y="356" width="43" height="64" fill="#96703C" opacity="0.5"/><rect x="415" y="356" width="43" height="64" fill="#6D5023" opacity="0.5"/><rect x="462" y="356" width="43" height="64" fill="#96703C" opacity="0.5"/><rect x="508" y="356" width="43" height="64" fill="#6D5023" opacity="0.5"/><rect x="554" y="356" width="43" height="64" fill="#96703C" opacity="0.5"/><rect x="600" y="356" width="43" height="64" fill="#6D5023" opacity="0.5"/><rect x="646" y="356" width="43" height="64" fill="#96703C" opacity="0.5"/><rect x="692" y="356" width="43" height="64" fill="#6D5023" opacity="0.5"/><rect x="738" y="356" width="43" height="64" fill="#96703C" opacity="0.5"/><rect x="785" y="356" width="43" height="64" fill="#6D5023" opacity="0.5"/><rect x="831" y="356" width="43" height="64" fill="#96703C" opacity="0.5"/><rect x="877" y="356" width="43" height="64" fill="#6D5023" opacity="0.5"/><rect x="923" y="356" width="43" height="64" fill="#96703C" opacity="0.5"/><rect x="969" y="356" width="43" height="64" fill="#6D5023" opacity="0.5"/><rect x="1015" y="356" width="43" height="64" fill="#96703C" opacity="0.5"/><rect x="1062" y="356" width="43" height="64" fill="#6D5023" opacity="0.5"/><rect x="1108" y="356" width="43" height="64" fill="#96703C" opacity="0.5"/><rect x="1154" y="356" width="43" height="64" fill="#6D5023" opacity="0.5"/><line x1="-10" y1="229" x2="1200" y2="231" stroke="#96703C" stroke-width="0.6" opacity="0.30"/><line x1="-10" y1="191" x2="1200" y2="189" stroke="#96703C" stroke-width="0.6" opacity="0.30"/><line x1="-10" y1="191" x2="1200" y2="190" stroke="#96703C" stroke-width="1.4" opacity="0.15"/><line x1="-10" y1="109" x2="1200" y2="106" stroke="#96703C" stroke-width="1.4" opacity="0.27"/><line x1="-10" y1="219" x2="1200" y2="221" stroke="#96703C" stroke-width="0.9" opacity="0.14"/><line x1="-10" y1="303" x2="1200" y2="304" stroke="#96703C" stroke-width="0.6" opacity="0.16"/><line x1="-10" y1="101" x2="1200" y2="99" stroke="#96703C" stroke-width="1.3" opacity="0.13"/><line x1="-10" y1="135" x2="1200" y2="132" stroke="#96703C" stroke-width="0.8" opacity="0.30"/><line x1="-10" y1="229" x2="1200" y2="231" stroke="#96703C" stroke-width="0.6" opacity="0.30"/><line x1="-10" y1="191" x2="1200" y2="189" stroke="#96703C" stroke-width="0.6" opacity="0.30"/><line x1="-10" y1="191" x2="1200" y2="190" stroke="#96703C" stroke-width="1.4" opacity="0.15"/><line x1="-10" y1="109" x2="1200" y2="106" stroke="#96703C" stroke-width="1.4" opacity="0.27"/><line x1="-10" y1="219" x2="1200" y2="221" stroke="#96703C" stroke-width="0.9" opacity="0.14"/><line x1="-10" y1="303" x2="1200" y2="304" stroke="#96703C" stroke-width="0.6" opacity="0.16"/><line x1="-10" y1="101" x2="1200" y2="99" stroke="#96703C" stroke-width="1.3" opacity="0.13"/><line x1="-10" y1="135" x2="1200" y2="132" stroke="#96703C" stroke-width="0.8" opacity="0.30"/><line x1="-10" y1="229" x2="1200" y2="231" stroke="#96703C" stroke-width="0.6" opacity="0.30"/><line x1="-10" y1="191" x2="1200" y2="189" stroke="#96703C" stroke-width="0.6" opacity="0.30"/><line x1="-10" y1="191" x2="1200" y2="190" stroke="#96703C" stroke-width="1.4" opacity="0.15"/><line x1="-10" y1="109" x2="1200" y2="106" stroke="#96703C" stroke-width="1.4" opacity="0.27"/><line x1="-10" y1="219" x2="1200" y2="221" stroke="#96703C" stroke-width="0.9" opacity="0.14"/><line x1="-10" y1="303" x2="1200" y2="304" stroke="#96703C" stroke-width="0.6" opacity="0.16"/><line x1="-10" y1="101" x2="1200" y2="99" stroke="#96703C" stroke-width="1.3" opacity="0.13"/><line x1="-10" y1="135" x2="1200" y2="132" stroke="#96703C" stroke-width="0.8" opacity="0.30"/><line x1="-10" y1="229" x2="1200" y2="231" stroke="#96703C" stroke-width="0.6" opacity="0.30"/><line x1="-10" y1="191" x2="1200" y2="189" stroke="#96703C" stroke-width="0.6" opacity="0.30"/><line x1="-10" y1="191" x2="1200" y2="190" stroke="#96703C" stroke-width="1.4" opacity="0.15"/><line x1="-10" y1="109" x2="1200" y2="106" stroke="#96703C" stroke-width="1.4" opacity="0.27"/><line x1="-10" y1="219" x2="1200" y2="221" stroke="#96703C" stroke-width="0.9" opacity="0.14"/><line x1="-10" y1="303" x2="1200" y2="304" stroke="#96703C" stroke-width="0.6" opacity="0.16"/><line x1="-10" y1="101" x2="1200" y2="99" stroke="#96703C" stroke-width="1.3" opacity="0.13"/><line x1="-10" y1="135" x2="1200" y2="132" stroke="#96703C" stroke-width="0.8" opacity="0.30"/><line x1="-10" y1="229" x2="1200" y2="231" stroke="#96703C" stroke-width="0.6" opacity="0.30"/><line x1="-10" y1="191" x2="1200" y2="189" stroke="#96703C" stroke-width="0.6" opacity="0.30"/><line x1="-10" y1="191" x2="1200" y2="190" stroke="#96703C" stroke-width="1.4" opacity="0.15"/><line x1="-10" y1="109" x2="1200" y2="106" stroke="#96703C" stroke-width="1.4" opacity="0.27"/><line x1="-10" y1="219" x2="1200" y2="221" stroke="#96703C" stroke-width="0.9" opacity="0.14"/><line x1="-10" y1="303" x2="1200" y2="304" stroke="#96703C" stroke-width="0.6" opacity="0.16"/><line x1="-10" y1="101" x2="1200" y2="99" stroke="#96703C" stroke-width="1.3" opacity="0.13"/><line x1="-10" y1="135" x2="1200" y2="132" stroke="#96703C" stroke-width="0.8" opacity="0.30"/><rect x="24" y="302" width="171" height="42" rx="8" fill="#160F09" opacity="0.85"/><text x="40" y="330" font-family="Arial" font-size="21" font-weight="bold" fill="#E8A33D" letter-spacing="2">BLOCK BOARD</text></svg>