<svg xmlns="http://www.w3.org/2000/svg" viewBox="0 0 1200 420" width="1200" height="420" role="img" aria-label="Flush Doors"><rect width="1200" height="420" fill="#9A6A38"/><line x1="-10" y1="71" x2="1200" y2="72" stroke="#764E24" stroke-width="0.9" opacity="0.18"/><line x1="-10" y1="399" x2="1200" y2="402" stroke="#764E24" stroke-width="1.1" opacity="0.35"/><line x1="-10" y1="323" x2="1200" y2="322" stroke="#764E24" stroke-width="0.8" opacity="0.21"/><line x1="-10" y1="356" x2="1200" y2="356" stroke="#764E24" stroke-width="1.4" opacity="0.34"/><line x1="-10" y1="84" x2="1200" y2="87" stroke="#764E24" stroke-width="0.5" opacity="0.28"/><line x1="-10" y1="102" x2="1200" y2="103" stroke="#764E24" stroke-width="1.5" opacity="0.39"/><line x1="-10" y1="242" x2="1200" y2="244" stroke="#764E24" stroke-width="1.6" opacity="0.29"/><line x1="-10" y1="212" x2="1200" y2="213" stroke="#764E24" stroke-width="0.9" opacity="0.20"/><line x1="-10" y1="71" x2="1200" y2="72" stroke="#764E24" stroke-width="0.9" opacity="0.18"/><line x1="-10" y1="399" x2="1200" y2="402" stroke="#764E24" stroke-width="1.1" opacity="0.35"/><line x1="-10" y1="323" x2="1200" y2="322" stroke="#764E24" stroke-width="0.8" opacity="0.21"/><line x1="-10" y1="356" x2="1200" y2="356" stroke="#764E24" stroke-width="1.4" opacity="0.34"/><line x1="-10" y1="84" x2="1200" y2="87" stroke="#764E24" stroke-width="0.5" opacity="0.28"/><line x1="-10" y1="102" x2="1200" y2="103" stroke="#764E24" stroke-width="1.5" opacity="0.39"/><line x1="-10" y1="242" x2="1200" y2="244" stroke="#764E24" stroke-width="1.6" opacity="0.29"/><line x1="-10" y1="212" x2="1200" y2="213" stroke="#764E24" stroke-width="0.9" opacity="0.20"/><line x1="-10" y1="71" x2="1200" y2="72" stroke="#764E24" stroke-width="0.9" opacity="0.18"/><line x1="-10" y1="399" x2="1200" y2="402" stroke="#764E24" stroke-width="1.1" opacity="0.35"/><line x1="-10" y1="323" x2="1200" y2="322" stroke="#764E24" stroke-width="0.8" opacity="0.21"/><line x1="-10" y1="356" x2="1200" y2="356" stroke="#764E24" stroke-width="1.4" opacity="0.34"/><line x1="-10" y1="84" x2="1200" y2="87" stroke="#764E24" stroke-width="0.5" opacity="0.28"/><line x1="-10" y1="102" x2="1200" y2="103" stroke="#764E24" stroke-width="1.5" opacity="0.39"/><line x1="-10" y1="242" x2="1200" y2="244" stroke="#764E24" stroke-width="1.6" opacity="0.29"/><line x1="-10" y1="212" x2="1200" y2="213" stroke="#764E24" stroke-width="0.9" opacity="0.20"/><line x1="-10" y1="71" x2="1200" y2="72" stroke="#764E24" stroke-width="0.9" opacity="0.18"/><line x1="-10" y1="399" x2="1200" y2="402" stroke="#764E24" stroke-width="1.1" opacity="0.35"/><line x1="-10" y1="323" x2="1200" y2="322" stroke="#764E24" stroke-width="0.8" opacity="0.21"/><line x1="-10" y1="356" x2="1200" y2="356" stroke="#764E24" stroke-width="1.4" opacity="0.34"/><line x1="-10" y1="84" x2="1200" y2="87" stroke="#764E24" stroke-width="0.5" opacity="0.28"/><line x1="-10" y1="102" x2="1200" y2="103" stroke="#764E24" stroke-width="1.5" opacity="0.39"/><line x1="-10" y1="242" x2="1200" y2="244" stroke="#764E24" stroke-width="1.6" opacity="0.29"/><line x1="-10" y1="212" x2="1200" y2="213" stroke="#764E24" stroke-width="0.9" opacity="0.20"/><line x1="-10" y1="71" x2="1200" y2="72" stroke="#764E24" stroke-width="0.9" opacity="0.18"/><line x1="-10" y1="399" x2="1200" y2="402" stroke="#764E24" stroke-width="1.1" opacity="0.35"/><line x1="-10" y1="323" x2="1200" y2="322" stroke="#764E24" stroke-width="0.8" opacity="0.21"/><line x1="-10" y1="356" x2="1200" y2="356" stroke="#764E24" stroke-width="1.4" opacity="0.34"/><line x1="-10" y1="84" x2="1200" y2="87" stroke="#764E24" stroke-width="0.5" opacity="0.28"/><line x1="-10" y1="102" x2="1200" y2="103" stroke="#764E24" stroke-width="1.5" opacity="0.39"/><line x1="-10" y1="242" x2="1200" y2="244" stroke="#764E24" stroke-width="1.6" opacity="0.29"/><line x1="-10" y1="212" x2="1200" y2="213" stroke="#764E24" stroke-width="0.9" opacity="0.20"/><line x1="-10" y1="71" x2="1200" y2="72" stroke="#764E24" stroke-width="0.9" opacity="0.18"/><line x1="-10" y1="399" x2="1200" y2="402" stroke="#764E24" stroke-width="1.1" opacity="0.35"/><line x1="-10" y1="323" x2="1200" y2="322" stroke="#764E24" stroke-width="0.8" opacity="0.21"/><line x1="-10" y1="356" x2="1200" y2="356" stroke="#764E24" stroke-width="1.4" opacity="0.34"/><line x1="-10" y1="84" x2="1200" y2="87" stroke="#764E24" stroke-width="0.5" opacity="0.28"/><line x1="-10" y1="102" x2="1200" y2="103" stroke="#764E24" stroke-width="1.5" opacity="0.39"/><line x1="-10" y1="242" x2="1200" y2="244" stroke="#764E24" stroke-width="1.6" opacity="0.29"/><line x1="-10" y1="212" x2="1200" y2="213" stroke="#764E24" stroke-width="0.9" opacity="0.20"/><line x1="-10" y1="71" x2="1200" y2="72" stroke="#764E24" stroke-width="0.9" opacity="0.18"/><line x1="-10" y1="399" x2="1200" y2="402" stroke="#764E24" stroke-width="1.1" opacity="0.35"/><line x1="-10" y1="323" x2="1200" y2="322" stroke="#764E24" stroke-width="0.8" opacity="0.21"/><line x1="-10" y1="356" x2="1200" y2="356" stroke="#764E24" stroke-width="1.4" opacity="0.34"/><line x1="-10" y1="84" x2="1200" y2="87" stroke="#764E24" stroke-width="0.5" opacity="0.28"/><line x1="-10" y1="102" x2="1200" y2="103" stroke="#764E24" stroke-width="1.5" opacity="0.39"/><line x1="-10" y1="242" x2="1200" y2="244" stroke="#764E24" stroke-width="1.6" opacity="0.29"/><line x1="-10" y1="212" x2="1200" y2="213" stroke="#764E24" stroke-width="0.9" opacity="0.20"/><line x1="-10" y1="71" x2="1200" y2="72" stroke="#764E24" stroke-width="0.9" opacity="0.18"/><line x1="-10" y1="399" x2="1200" y2="402" stroke="#764E24" stroke-width="1.1" opacity="0.35"/><line x1="-10" y1="323" x2="1200" y2="322" stroke="#764E24" stroke-width="0.8" opacity="0.21"/><line x1="-10" y1="356" x2="1200" y2="356" stroke="#764E24" stroke-width="1.4" opacity="0.34"/><rect x="470" y="36" width="260" height="348" rx="6" fill="#563715" opacity="0.4"/><rect x="470" y="36" width="260" height="348" rx="6" fill="none" stroke="#764E24" stroke-width="3" opacity="0.6"/><circle cx="700" cy="210" r="7" fill="#764E24"/><rect x="24" y="302" width="171" height="42" rx="8" fill="#160F09" opacity="0.85"/><text x="40" y="330" font-family="Arial" font-size="21" font-weight="bold" fill="#E8A33D" letter-spacing="2">FLUSH DOORS</text></svg>