<svg xmlns="http://www.w3.org/2000/svg" viewBox="0 0 1200 420" width="1200" height="420" role="img" aria-label="HDHMR &amp; High-Density Boards"><rect width="1200" height="420" fill="#C7A877"/><line x1="-10" y1="12" x2="1200" y2="8" stroke="#A2854F" stroke-width="1.0" opacity="0.31"/><line x1="-10" y1="23" x2="1200" y2="22" stroke="#A2854F" stroke-width="1.4" opacity="0.31"/><line x1="-10" y1="37" x2="1200" y2="43" stroke="#A2854F" stroke-width="1.5" opacity="0.25"/><line x1="-10" y1="54" x2="1200" y2="55" stroke="#A2854F" stroke-width="1.2" opacity="0.29"/><line x1="-10" y1="68" x2="1200" y2="68" stroke="#A2854F" stroke-width="1.5" opacity="0.23"/><line x1="-10" y1="82" x2="1200" y2="78" stroke="#A2854F" stroke-width="0.6" opacity="0.28"/><line x1="-10" y1="93" x2="1200" y2="97" stroke="#A2854F" stroke-width="1.7" opacity="0.34"/><line x1="-10" y1="104" x2="1200" y2="102" stroke="#A2854F" stroke-width="1.6" opacity="0.38"/><line x1="-10" y1="112" x2="1200" y2="107" stroke="#A2854F" stroke-width="1.0" opacity="0.31"/><line x1="-10" y1="123" x2="1200" y2="122" stroke="#A2854F" stroke-width="1.4" opacity="0.31"/><line x1="-10" y1="137" x2="1200" y2="142" stroke="#A2854F" stroke-width="1.5" opacity="0.25"/><line x1="-10" y1="154" x2="1200" y2="155" stroke="#A2854F" stroke-width="1.2" opacity="0.29"/><line x1="-10" y1="168" x2="1200" y2="167" stroke="#A2854F" stroke-width="1.5" opacity="0.23"/><line x1="-10" y1="181" x2="1200" y2="177" stroke="#A2854F" stroke-width="0.6" opacity="0.28"/><line x1="-10" y1="193" x2="1200" y2="197" stroke="#A2854F" stroke-width="1.7" opacity="0.34"/><line x1="-10" y1="203" x2="1200" y2="202" stroke="#A2854F" stroke-width="1.6" opacity="0.38"/><line x1="-10" y1="212" x2="1200" y2="207" stroke="#A2854F" stroke-width="1.0" opacity="0.31"/><line x1="-10" y1="222" x2="1200" y2="221" stroke="#A2854F" stroke-width="1.4" opacity="0.31"/><line x1="-10" y1="237" x2="1200" y2="242" stroke="#A2854F" stroke-width="1.5" opacity="0.25"/><line x1="-10" y1="254" x2="1200" y2="255" stroke="#A2854F" stroke-width="1.2" opacity="0.29"/><line x1="-10" y1="267" x2="1200" y2="267" stroke="#A2854F" stroke-width="1.5" opacity="0.23"/><line x1="-10" y1="281" x2="1200" y2="277" stroke="#A2854F" stroke-width="0.6" opacity="0.28"/><line x1="-10" y1="293" x2="1200" y2="297" stroke="#A2854F" stroke-width="1.7" opacity="0.34"/><line x1="-10" y1="303" x2="1200" y2="302" stroke="#A2854F" stroke-width="1.6" opacity="0.38"/><line x1="-10" y1="311" x2="1200" y2="307" stroke="#A2854F" stroke-width="1.0" opacity="0.31"/><line x1="-10" y1="322" x2="1200" y2="321" stroke="#A2854F" stroke-width="1.4" opacity="0.31"/><line x1="-10" y1="336" x2="1200" y2="342" stroke="#A2854F" stroke-width="1.5" opacity="0.25"/><line x1="-10" y1="354" x2="1200" y2="354" stroke="#A2854F" stroke-width="1.2" opacity="0.29"/><rect x="0" y="362" width="1200" height="58" fill="#78602F" opacity="0.30"/><rect x="24" y="302" width="379" height="42" rx="8" fill="#160F09" opacity="0.85"/><text x="40" y="330" font-family="Arial" font-size="21" font-weight="bold" fill="#E8A33D" letter-spacing="2">HDHMR &amp; HIGH-DENSITY BOARDS</text></svg>