<svg xmlns="http://www.w3.org/2000/svg" viewBox="0 0 1200 420" width="1200" height="420" role="img" aria-label="MDF Board"><rect width="1200" height="420" fill="#B9925F"/><line x1="-10" y1="12" x2="1200" y2="9" stroke="#977340" stroke-width="1.5" opacity="0.19"/><line x1="-10" y1="30" x2="1200" y2="30" stroke="#977340" stroke-width="1.0" opacity="0.22"/><line x1="-10" y1="38" x2="1200" y2="43" stroke="#977340" stroke-width="1.1" opacity="0.23"/><line x1="-10" y1="46" x2="1200" y2="42" stroke="#977340" stroke-width="0.7" opacity="0.26"/><line x1="-10" y1="58" x2="1200" y2="57" stroke="#977340" stroke-width="1.1" opacity="0.34"/><line x1="-10" y1="69" x2="1200" y2="63" stroke="#977340" stroke-width="0.8" opacity="0.16"/><line x1="-10" y1="78" x2="1200" y2="76" stroke="#977340" stroke-width="1.4" opacity="0.22"/><line x1="-10" y1="95" x2="1200" y2="96" stroke="#977340" stroke-width="0.6" opacity="0.34"/><line x1="-10" y1="107" x2="1200" y2="104" stroke="#977340" stroke-width="1.5" opacity="0.19"/><line x1="-10" y1="125" x2="1200" y2="125" stroke="#977340" stroke-width="1.0" opacity="0.22"/><line x1="-10" y1="133" x2="1200" y2="138" stroke="#977340" stroke-width="1.1" opacity="0.23"/><line x1="-10" y1="141" x2="1200" y2="137" stroke="#977340" stroke-width="0.7" opacity="0.26"/><line x1="-10" y1="153" x2="1200" y2="152" stroke="#977340" stroke-width="1.1" opacity="0.34"/><line x1="-10" y1="164" x2="1200" y2="158" stroke="#977340" stroke-width="0.8" opacity="0.16"/><line x1="-10" y1="173" x2="1200" y2="171" stroke="#977340" stroke-width="1.4" opacity="0.22"/><line x1="-10" y1="191" x2="1200" y2="191" stroke="#977340" stroke-width="0.6" opacity="0.34"/><line x1="-10" y1="203" x2="1200" y2="200" stroke="#977340" stroke-width="1.5" opacity="0.19"/><line x1="-10" y1="220" x2="1200" y2="220" stroke="#977340" stroke-width="1.0" opacity="0.22"/><line x1="-10" y1="229" x2="1200" y2="234" stroke="#977340" stroke-width="1.1" opacity="0.23"/><line x1="-10" y1="237" x2="1200" y2="233" stroke="#977340" stroke-width="0.7" opacity="0.26"/><line x1="-10" y1="248" x2="1200" y2="247" stroke="#977340" stroke-width="1.1" opacity="0.34"/><line x1="-10" y1="259" x2="1200" y2="253" stroke="#977340" stroke-width="0.8" opacity="0.16"/><line x1="-10" y1="269" x2="1200" y2="267" stroke="#977340" stroke-width="1.4" opacity="0.22"/><line x1="-10" y1="286" x2="1200" y2="287" stroke="#977340" stroke-width="0.6" opacity="0.34"/><line x1="-10" y1="298" x2="1200" y2="295" stroke="#977340" stroke-width="1.5" opacity="0.19"/><line x1="-10" y1="316" x2="1200" y2="316" stroke="#977340" stroke-width="1.0" opacity="0.22"/><line x1="-10" y1="324" x2="1200" y2="329" stroke="#977340" stroke-width="1.1" opacity="0.23"/><line x1="-10" y1="332" x2="1200" y2="328" stroke="#977340" stroke-width="0.7" opacity="0.26"/><line x1="-10" y1="344" x2="1200" y2="343" stroke="#977340" stroke-width="1.1" opacity="0.34"/><line x1="-10" y1="355" x2="1200" y2="349" stroke="#977340" stroke-width="0.8" opacity="0.16"/><rect x="0" y="362" width="1200" height="58" fill="#6E5122" opacity="0.30"/><rect x="24" y="302" width="145" height="42" rx="8" fill="#160F09" opacity="0.85"/><text x="40" y="330" font-family="Arial" font-size="21" font-weight="bold" fill="#E8A33D" letter-spacing="2">MDF BOARD</text></svg>