<svg xmlns="http://www.w3.org/2000/svg" viewBox="0 0 1200 420" width="1200" height="420" role="img" aria-label="WPC Door Frame"><rect width="1200" height="420" fill="#C6BCA8"/><rect x="0" y="0" width="10" height="420" fill="#9E9480" opacity="0.08"/><rect x="11" y="0" width="6" height="420" fill="#9E9480" opacity="0.07"/><rect x="22" y="0" width="9" height="420" fill="#9E9480" opacity="0.10"/><rect x="38" y="0" width="9" height="420" fill="#9E9480" opacity="0.04"/><rect x="51" y="0" width="15" height="420" fill="#9E9480" opacity="0.08"/><rect x="76" y="0" width="8" height="420" fill="#9E9480" opacity="0.04"/><rect x="91" y="0" width="6" height="420" fill="#9E9480" opacity="0.04"/><rect x="110" y="0" width="12" height="420" fill="#9E9480" opacity="0.03"/><rect x="120" y="0" width="15" height="420" fill="#9E9480" opacity="0.10"/><rect x="141" y="0" width="9" height="420" fill="#9E9480" opacity="0.06"/><rect x="155" y="0" width="15" height="420" fill="#9E9480" opacity="0.04"/><rect x="177" y="0" width="6" height="420" fill="#9E9480" opacity="0.05"/><rect x="197" y="0" width="7" height="420" fill="#9E9480" opacity="0.02"/><rect x="223" y="0" width="10" height="420" fill="#9E9480" opacity="0.04"/><rect x="237" y="0" width="8" height="420" fill="#9E9480" opacity="0.04"/><rect x="259" y="0" width="15" height="420" fill="#9E9480" opacity="0.09"/><rect x="273" y="0" width="9" height="420" fill="#9E9480" opacity="0.04"/><rect x="287" y="0" width="12" height="420" fill="#9E9480" opacity="0.02"/><rect x="300" y="0" width="6" height="420" fill="#9E9480" opacity="0.07"/><rect x="325" y="0" width="12" height="420" fill="#9E9480" opacity="0.09"/><rect x="343" y="0" width="8" height="420" fill="#9E9480" opacity="0.04"/><rect x="358" y="0" width="14" height="420" fill="#9E9480" opacity="0.10"/><rect x="375" y="0" width="13" height="420" fill="#9E9480" opacity="0.02"/><rect x="385" y="0" width="16" height="420" fill="#9E9480" opacity="0.03"/><rect x="399" y="0" width="9" height="420" fill="#9E9480" opacity="0.05"/><rect x="414" y="0" width="13" height="420" fill="#9E9480" opacity="0.04"/><rect x="439" y="0" width="9" height="420" fill="#9E9480" opacity="0.09"/><rect x="452" y="0" width="9" height="420" fill="#9E9480" opacity="0.04"/><rect x="463" y="0" width="7" height="420" fill="#9E9480" opacity="0.07"/><rect x="482" y="0" width="15" height="420" fill="#9E9480" opacity="0.02"/><rect x="506" y="0" width="11" height="420" fill="#9E9480" opacity="0.07"/><rect x="521" y="0" width="9" height="420" fill="#9E9480" opacity="0.04"/><rect x="546" y="0" width="10" height="420" fill="#9E9480" opacity="0.08"/><rect x="556" y="0" width="6" height="420" fill="#9E9480" opacity="0.07"/><rect x="568" y="0" width="9" height="420" fill="#9E9480" opacity="0.10"/><rect x="584" y="0" width="9" height="420" fill="#9E9480" opacity="0.04"/><rect x="597" y="0" width="15" height="420" fill="#9E9480" opacity="0.08"/><rect x="622" y="0" width="8" height="420" fill="#9E9480" opacity="0.04"/><rect x="637" y="0" width="6" height="420" fill="#9E9480" opacity="0.04"/><rect x="656" y="0" width="12" height="420" fill="#9E9480" opacity="0.03"/><rect x="666" y="0" width="15" height="420" fill="#9E9480" opacity="0.10"/><rect x="687" y="0" width="9" height="420" fill="#9E9480" opacity="0.06"/><rect x="700" y="0" width="15" height="420" fill="#9E9480" opacity="0.04"/><rect x="723" y="0" width="6" height="420" fill="#9E9480" opacity="0.05"/><rect x="743" y="0" width="7" height="420" fill="#9E9480" opacity="0.02"/><rect x="769" y="0" width="10" height="420" fill="#9E9480" opacity="0.04"/><rect x="783" y="0" width="8" height="420" fill="#9E9480" opacity="0.04"/><rect x="804" y="0" width="15" height="420" fill="#9E9480" opacity="0.09"/><rect x="819" y="0" width="9" height="420" fill="#9E9480" opacity="0.04"/><rect x="833" y="0" width="12" height="420" fill="#9E9480" opacity="0.02"/><rect x="846" y="0" width="6" height="420" fill="#9E9480" opacity="0.07"/><rect x="871" y="0" width="12" height="420" fill="#9E9480" opacity="0.09"/><rect x="889" y="0" width="8" height="420" fill="#9E9480" opacity="0.04"/><rect x="904" y="0" width="14" height="420" fill="#9E9480" opacity="0.10"/><rect x="921" y="0" width="13" height="420" fill="#9E9480" opacity="0.02"/><rect x="931" y="0" width="16" height="420" fill="#9E9480" opacity="0.03"/><rect x="945" y="0" width="9" height="420" fill="#9E9480" opacity="0.05"/><rect x="960" y="0" width="13" height="420" fill="#9E9480" opacity="0.04"/><rect x="985" y="0" width="9" height="420" fill="#9E9480" opacity="0.09"/><rect x="998" y="0" width="9" height="420" fill="#9E9480" opacity="0.04"/><rect x="1009" y="0" width="7" height="420" fill="#9E9480" opacity="0.07"/><rect x="1028" y="0" width="15" height="420" fill="#9E9480" opacity="0.02"/><rect x="1052" y="0" width="11" height="420" fill="#9E9480" opacity="0.07"/><rect x="1067" y="0" width="9" height="420" fill="#9E9480" opacity="0.04"/><rect x="1092" y="0" width="10" height="420" fill="#9E9480" opacity="0.08"/><rect x="1102" y="0" width="6" height="420" fill="#9E9480" opacity="0.07"/><rect x="1113" y="0" width="9" height="420" fill="#9E9480" opacity="0.10"/><rect x="1130" y="0" width="9" height="420" fill="#9E9480" opacity="0.04"/><rect x="1143" y="0" width="15" height="420" fill="#9E9480" opacity="0.08"/><rect x="1168" y="0" width="8" height="420" fill="#9E9480" opacity="0.04"/><rect x="1183" y="0" width="6" height="420" fill="#9E9480" opacity="0.04"/><rect x="90" y="60" width="70" height="300" fill="#746A57" opacity="0.5"/><rect x="90" y="60" width="260" height="70" fill="#746A57" opacity="0.5"/><rect x="24" y="302" width="210" height="42" rx="8" fill="#160F09" opacity="0.85"/><text x="40" y="330" font-family="Arial" font-size="21" font-weight="bold" fill="#E8A33D" letter-spacing="2">WPC DOOR FRAME</text></svg>