<svg xmlns="http://www.w3.org/2000/svg" viewBox="0 0 1200 420" width="1200" height="420" role="img" aria-label="WPC Door"><rect width="1200" height="420" fill="#CFC7B6"/><rect x="0" y="0" width="9" height="420" fill="#A89F8B" opacity="0.03"/><rect x="24" y="0" width="8" height="420" fill="#A89F8B" opacity="0.04"/><rect x="48" y="0" width="11" height="420" fill="#A89F8B" opacity="0.09"/><rect x="64" y="0" width="15" height="420" fill="#A89F8B" opacity="0.02"/><rect x="82" y="0" width="15" height="420" fill="#A89F8B" opacity="0.05"/><rect x="106" y="0" width="11" height="420" fill="#A89F8B" opacity="0.09"/><rect x="120" y="0" width="13" height="420" fill="#A89F8B" opacity="0.03"/><rect x="131" y="0" width="6" height="420" fill="#A89F8B" opacity="0.04"/><rect x="148" y="0" width="7" height="420" fill="#A89F8B" opacity="0.02"/><rect x="166" y="0" width="8" height="420" fill="#A89F8B" opacity="0.08"/><rect x="184" y="0" width="9" height="420" fill="#A89F8B" opacity="0.06"/><rect x="196" y="0" width="15" height="420" fill="#A89F8B" opacity="0.05"/><rect x="210" y="0" width="15" height="420" fill="#A89F8B" opacity="0.04"/><rect x="235" y="0" width="9" height="420" fill="#A89F8B" opacity="0.06"/><rect x="246" y="0" width="11" height="420" fill="#A89F8B" opacity="0.10"/><rect x="262" y="0" width="15" height="420" fill="#A89F8B" opacity="0.09"/><rect x="286" y="0" width="9" height="420" fill="#A89F8B" opacity="0.06"/><rect x="298" y="0" width="6" height="420" fill="#A89F8B" opacity="0.08"/><rect x="313" y="0" width="10" height="420" fill="#A89F8B" opacity="0.02"/><rect x="323" y="0" width="11" height="420" fill="#A89F8B" opacity="0.03"/><rect x="346" y="0" width="11" height="420" fill="#A89F8B" opacity="0.04"/><rect x="365" y="0" width="7" height="420" fill="#A89F8B" opacity="0.05"/><rect x="380" y="0" width="9" height="420" fill="#A89F8B" opacity="0.09"/><rect x="393" y="0" width="15" height="420" fill="#A89F8B" opacity="0.09"/><rect x="412" y="0" width="6" height="420" fill="#A89F8B" opacity="0.05"/><rect x="437" y="0" width="9" height="420" fill="#A89F8B" opacity="0.06"/><rect x="461" y="0" width="15" height="420" fill="#A89F8B" opacity="0.09"/><rect x="479" y="0" width="7" height="420" fill="#A89F8B" opacity="0.04"/><rect x="500" y="0" width="9" height="420" fill="#A89F8B" opacity="0.02"/><rect x="511" y="0" width="6" height="420" fill="#A89F8B" opacity="0.05"/><rect x="522" y="0" width="14" height="420" fill="#A89F8B" opacity="0.06"/><rect x="536" y="0" width="12" height="420" fill="#A89F8B" opacity="0.06"/><rect x="551" y="0" width="9" height="420" fill="#A89F8B" opacity="0.03"/><rect x="576" y="0" width="8" height="420" fill="#A89F8B" opacity="0.04"/><rect x="600" y="0" width="11" height="420" fill="#A89F8B" opacity="0.09"/><rect x="615" y="0" width="15" height="420" fill="#A89F8B" opacity="0.02"/><rect x="633" y="0" width="15" height="420" fill="#A89F8B" opacity="0.05"/><rect x="657" y="0" width="11" height="420" fill="#A89F8B" opacity="0.09"/><rect x="672" y="0" width="13" height="420" fill="#A89F8B" opacity="0.03"/><rect x="682" y="0" width="6" height="420" fill="#A89F8B" opacity="0.04"/><rect x="699" y="0" width="7" height="420" fill="#A89F8B" opacity="0.02"/><rect x="718" y="0" width="8" height="420" fill="#A89F8B" opacity="0.08"/><rect x="735" y="0" width="9" height="420" fill="#A89F8B" opacity="0.06"/><rect x="747" y="0" width="15" height="420" fill="#A89F8B" opacity="0.05"/><rect x="762" y="0" width="15" height="420" fill="#A89F8B" opacity="0.04"/><rect x="787" y="0" width="9" height="420" fill="#A89F8B" opacity="0.06"/><rect x="798" y="0" width="11" height="420" fill="#A89F8B" opacity="0.10"/><rect x="813" y="0" width="15" height="420" fill="#A89F8B" opacity="0.09"/><rect x="838" y="0" width="9" height="420" fill="#A89F8B" opacity="0.06"/><rect x="849" y="0" width="6" height="420" fill="#A89F8B" opacity="0.08"/><rect x="864" y="0" width="10" height="420" fill="#A89F8B" opacity="0.02"/><rect x="874" y="0" width="11" height="420" fill="#A89F8B" opacity="0.03"/><rect x="897" y="0" width="11" height="420" fill="#A89F8B" opacity="0.04"/><rect x="916" y="0" width="7" height="420" fill="#A89F8B" opacity="0.05"/><rect x="931" y="0" width="9" height="420" fill="#A89F8B" opacity="0.09"/><rect x="944" y="0" width="15" height="420" fill="#A89F8B" opacity="0.09"/><rect x="963" y="0" width="6" height="420" fill="#A89F8B" opacity="0.05"/><rect x="988" y="0" width="9" height="420" fill="#A89F8B" opacity="0.06"/><rect x="1012" y="0" width="15" height="420" fill="#A89F8B" opacity="0.09"/><rect x="1030" y="0" width="7" height="420" fill="#A89F8B" opacity="0.04"/><rect x="1051" y="0" width="9" height="420" fill="#A89F8B" opacity="0.02"/><rect x="1062" y="0" width="6" height="420" fill="#A89F8B" opacity="0.05"/><rect x="1073" y="0" width="14" height="420" fill="#A89F8B" opacity="0.06"/><rect x="1087" y="0" width="12" height="420" fill="#A89F8B" opacity="0.06"/><rect x="1103" y="0" width="9" height="420" fill="#A89F8B" opacity="0.03"/><rect x="1127" y="0" width="8" height="420" fill="#A89F8B" opacity="0.04"/><rect x="1151" y="0" width="11" height="420" fill="#A89F8B" opacity="0.09"/><rect x="1166" y="0" width="15" height="420" fill="#A89F8B" opacity="0.02"/><rect x="1184" y="0" width="15" height="420" fill="#A89F8B" opacity="0.05"/><rect x="430" y="40" width="340" height="340" rx="6" fill="#7E7563" opacity="0.35"/><rect x="470" y="80" width="120" height="140" rx="4" fill="#A89F8B" opacity="0.5"/><rect x="610" y="80" width="120" height="140" rx="4" fill="#A89F8B" opacity="0.5"/><rect x="24" y="302" width="132" height="42" rx="8" fill="#160F09" opacity="0.85"/><text x="40" y="330" font-family="Arial" font-size="21" font-weight="bold" fill="#E8A33D" letter-spacing="2">WPC DOOR</text></svg>