<svg xmlns="http://www.w3.org/2000/svg" viewBox="0 0 1200 420" width="1200" height="420" role="img" aria-label="WPC Board"><rect width="1200" height="420" fill="#D8D2C6"/><rect x="0" y="0" width="12" height="420" fill="#B4AD9E" opacity="0.09"/><rect x="18" y="0" width="9" height="420" fill="#B4AD9E" opacity="0.08"/><rect x="35" y="0" width="12" height="420" fill="#B4AD9E" opacity="0.05"/><rect x="52" y="0" width="6" height="420" fill="#B4AD9E" opacity="0.07"/><rect x="70" y="0" width="6" height="420" fill="#B4AD9E" opacity="0.06"/><rect x="91" y="0" width="13" height="420" fill="#B4AD9E" opacity="0.08"/><rect x="102" y="0" width="8" height="420" fill="#B4AD9E" opacity="0.06"/><rect x="126" y="0" width="14" height="420" fill="#B4AD9E" opacity="0.04"/><rect x="151" y="0" width="12" height="420" fill="#B4AD9E" opacity="0.04"/><rect x="163" y="0" width="15" height="420" fill="#B4AD9E" opacity="0.04"/><rect x="183" y="0" width="13" height="420" fill="#B4AD9E" opacity="0.03"/><rect x="206" y="0" width="11" height="420" fill="#B4AD9E" opacity="0.07"/><rect x="228" y="0" width="10" height="420" fill="#B4AD9E" opacity="0.04"/><rect x="244" y="0" width="11" height="420" fill="#B4AD9E" opacity="0.07"/><rect x="264" y="0" width="11" height="420" fill="#B4AD9E" opacity="0.02"/><rect x="281" y="0" width="13" height="420" fill="#B4AD9E" opacity="0.02"/><rect x="302" y="0" width="7" height="420" fill="#B4AD9E" opacity="0.08"/><rect x="319" y="0" width="15" height="420" fill="#B4AD9E" opacity="0.04"/><rect x="333" y="0" width="16" height="420" fill="#B4AD9E" opacity="0.08"/><rect x="348" y="0" width="7" height="420" fill="#B4AD9E" opacity="0.07"/><rect x="362" y="0" width="12" height="420" fill="#B4AD9E" opacity="0.09"/><rect x="375" y="0" width="14" height="420" fill="#B4AD9E" opacity="0.08"/><rect x="394" y="0" width="14" height="420" fill="#B4AD9E" opacity="0.06"/><rect x="409" y="0" width="10" height="420" fill="#B4AD9E" opacity="0.05"/><rect x="429" y="0" width="12" height="420" fill="#B4AD9E" opacity="0.06"/><rect x="439" y="0" width="10" height="420" fill="#B4AD9E" opacity="0.06"/><rect x="449" y="0" width="13" height="420" fill="#B4AD9E" opacity="0.07"/><rect x="471" y="0" width="10" height="420" fill="#B4AD9E" opacity="0.03"/><rect x="485" y="0" width="9" height="420" fill="#B4AD9E" opacity="0.09"/><rect x="508" y="0" width="9" height="420" fill="#B4AD9E" opacity="0.10"/><rect x="528" y="0" width="8" height="420" fill="#B4AD9E" opacity="0.03"/><rect x="552" y="0" width="8" height="420" fill="#B4AD9E" opacity="0.07"/><rect x="573" y="0" width="12" height="420" fill="#B4AD9E" opacity="0.09"/><rect x="591" y="0" width="9" height="420" fill="#B4AD9E" opacity="0.08"/><rect x="608" y="0" width="12" height="420" fill="#B4AD9E" opacity="0.05"/><rect x="625" y="0" width="6" height="420" fill="#B4AD9E" opacity="0.07"/><rect x="643" y="0" width="6" height="420" fill="#B4AD9E" opacity="0.06"/><rect x="664" y="0" width="13" height="420" fill="#B4AD9E" opacity="0.08"/><rect x="675" y="0" width="8" height="420" fill="#B4AD9E" opacity="0.06"/><rect x="699" y="0" width="14" height="420" fill="#B4AD9E" opacity="0.04"/><rect x="725" y="0" width="12" height="420" fill="#B4AD9E" opacity="0.04"/><rect x="736" y="0" width="15" height="420" fill="#B4AD9E" opacity="0.04"/><rect x="756" y="0" width="13" height="420" fill="#B4AD9E" opacity="0.03"/><rect x="779" y="0" width="11" height="420" fill="#B4AD9E" opacity="0.07"/><rect x="801" y="0" width="10" height="420" fill="#B4AD9E" opacity="0.04"/><rect x="817" y="0" width="11" height="420" fill="#B4AD9E" opacity="0.07"/><rect x="837" y="0" width="11" height="420" fill="#B4AD9E" opacity="0.02"/><rect x="854" y="0" width="13" height="420" fill="#B4AD9E" opacity="0.02"/><rect x="875" y="0" width="7" height="420" fill="#B4AD9E" opacity="0.08"/><rect x="892" y="0" width="15" height="420" fill="#B4AD9E" opacity="0.04"/><rect x="906" y="0" width="16" height="420" fill="#B4AD9E" opacity="0.08"/><rect x="921" y="0" width="7" height="420" fill="#B4AD9E" opacity="0.07"/><rect x="935" y="0" width="12" height="420" fill="#B4AD9E" opacity="0.09"/><rect x="948" y="0" width="14" height="420" fill="#B4AD9E" opacity="0.08"/><rect x="967" y="0" width="14" height="420" fill="#B4AD9E" opacity="0.06"/><rect x="982" y="0" width="10" height="420" fill="#B4AD9E" opacity="0.05"/><rect x="1002" y="0" width="12" height="420" fill="#B4AD9E" opacity="0.06"/><rect x="1012" y="0" width="10" height="420" fill="#B4AD9E" opacity="0.06"/><rect x="1023" y="0" width="13" height="420" fill="#B4AD9E" opacity="0.07"/><rect x="1044" y="0" width="10" height="420" fill="#B4AD9E" opacity="0.03"/><rect x="1058" y="0" width="9" height="420" fill="#B4AD9E" opacity="0.09"/><rect x="1081" y="0" width="9" height="420" fill="#B4AD9E" opacity="0.10"/><rect x="1101" y="0" width="8" height="420" fill="#B4AD9E" opacity="0.03"/><rect x="1125" y="0" width="8" height="420" fill="#B4AD9E" opacity="0.07"/><rect x="1147" y="0" width="12" height="420" fill="#B4AD9E" opacity="0.09"/><rect x="1164" y="0" width="9" height="420" fill="#B4AD9E" opacity="0.08"/><rect x="1181" y="0" width="12" height="420" fill="#B4AD9E" opacity="0.05"/><rect x="1199" y="0" width="6" height="420" fill="#B4AD9E" opacity="0.07"/><rect x="24" y="302" width="145" height="42" rx="8" fill="#160F09" opacity="0.85"/><text x="40" y="330" font-family="Arial" font-size="21" font-weight="bold" fill="#E8A33D" letter-spacing="2">WPC BOARD</text></svg>