<svg xmlns="http://www.w3.org/2000/svg" viewBox="0 0 1200 420" width="1200" height="420" role="img" aria-label="AD Royal Ply"><rect width="1200" height="420" fill="#BE9A63"/><rect x="0" y="0" width="134" height="420" fill="#9C7840" opacity="0.06"/><rect x="133" y="0" width="134" height="420" fill="#6F521F" opacity="0.06"/><rect x="267" y="0" width="134" height="420" fill="#9C7840" opacity="0.06"/><rect x="400" y="0" width="134" height="420" fill="#6F521F" opacity="0.06"/><rect x="533" y="0" width="134" height="420" fill="#9C7840" opacity="0.06"/><rect x="667" y="0" width="134" height="420" fill="#6F521F" opacity="0.06"/><rect x="800" y="0" width="134" height="420" fill="#9C7840" opacity="0.06"/><rect x="933" y="0" width="134" height="420" fill="#6F521F" opacity="0.06"/><rect x="1067" y="0" width="134" height="420" fill="#9C7840" opacity="0.06"/><path d="M -20 14 Q 83 9 158 12 Q 267 20 404 14 Q 483 20 573 15 Q 656 15 795 12 Q 901 17 977 12 Q 1051 13 1140 11 Q 1281 18 1409 14" fill="none" stroke="#9C7840" stroke-width="3.2" opacity="0.31"/><path d="M -20 38 Q 83 33 158 35 Q 267 44 404 38 Q 483 44 573 39 Q 656 39 795 36 Q 901 41 977 36 Q 1051 37 1140 35 Q 1281 41 1409 38" fill="none" stroke="#9C7840" stroke-width="3.2" opacity="0.31"/><path d="M -20 61 Q 83 57 158 59 Q 267 68 404 62 Q 483 67 573 63 Q 656 62 795 60 Q 901 64 977 59 Q 1051 61 1140 58 Q 1281 65 1409 62" fill="none" stroke="#9C7840" stroke-width="3.2" opacity="0.31"/><path d="M -20 85 Q 83 81 158 83 Q 267 91 404 85 Q 483 91 573 86 Q 656 86 795 84 Q 901 88 977 83 Q 1051 85 1140 82 Q 1281 89 1409 86" fill="none" stroke="#9C7840" stroke-width="3.2" opacity="0.31"/><path d="M -20 109 Q 83 104 158 106 Q 267 115 404 109 Q 483 115 573 110 Q 656 110 795 107 Q 901 112 977 107 Q 1051 108 1140 106 Q 1281 112 1409 109" fill="none" stroke="#9C7840" stroke-width="3.2" opacity="0.31"/><path d="M -20 133 Q 83 128 158 130 Q 267 139 404 133 Q 483 138 573 134 Q 656 134 795 131 Q 901 135 977 131 Q 1051 132 1140 129 Q 1281 136 1409 133" fill="none" stroke="#9C7840" stroke-width="3.2" opacity="0.31"/><path d="M -20 156 Q 83 152 158 154 Q 267 162 404 156 Q 483 162 573 158 Q 656 157 795 155 Q 901 159 977 154 Q 1051 156 1140 153 Q 1281 160 1409 157" fill="none" stroke="#9C7840" stroke-width="3.2" opacity="0.31"/><path d="M -20 180 Q 83 175 158 178 Q 267 186 404 180 Q 483 186 573 181 Q 656 181 795 178 Q 901 183 977 178 Q 1051 179 1140 177 Q 1281 184 1409 180" fill="none" stroke="#9C7840" stroke-width="3.2" opacity="0.31"/><path d="M -20 204 Q 83 199 158 201 Q 267 210 404 204 Q 483 210 573 205 Q 656 205 795 202 Q 901 207 977 202 Q 1051 203 1140 201 Q 1281 207 1409 204" fill="none" stroke="#9C7840" stroke-width="3.2" opacity="0.31"/><path d="M -20 228 Q 83 223 158 225 Q 267 234 404 228 Q 483 233 573 229 Q 656 229 795 226 Q 901 230 977 225 Q 1051 227 1140 224 Q 1281 231 1409 228" fill="none" stroke="#9C7840" stroke-width="3.2" opacity="0.31"/><path d="M -20 251 Q 83 247 158 249 Q 267 257 404 251 Q 483 257 573 253 Q 656 252 795 250 Q 901 254 977 249 Q 1051 251 1140 248 Q 1281 255 1409 252" fill="none" stroke="#9C7840" stroke-width="3.2" opacity="0.31"/><path d="M -20 275 Q 83 270 158 272 Q 267 281 404 275 Q 483 281 573 276 Q 656 276 795 273 Q 901 278 977 273 Q 1051 274 1140 272 Q 1281 279 1409 275" fill="none" stroke="#9C7840" stroke-width="3.2" opacity="0.31"/><path d="M -20 299 Q 83 294 158 296 Q 267 305 404 299 Q 483 305 573 300 Q 656 300 795 297 Q 901 302 977 297 Q 1051 298 1140 296 Q 1281 302 1409 299" fill="none" stroke="#9C7840" stroke-width="3.2" opacity="0.31"/><path d="M -20 322 Q 83 318 158 320 Q 267 329 404 322 Q 483 328 573 324 Q 656 323 795 321 Q 901 325 977 320 Q 1051 322 1140 319 Q 1281 326 1409 323" fill="none" stroke="#9C7840" stroke-width="3.2" opacity="0.31"/><path d="M -20 346 Q 83 342 158 344 Q 267 352 404 346 Q 483 352 573 347 Q 656 347 795 345 Q 901 349 977 344 Q 1051 346 1140 343 Q 1281 350 1409 347" fill="none" stroke="#9C7840" stroke-width="3.2" opacity="0.31"/><path d="M -20 370 Q 83 365 158 367 Q 267 376 404 370 Q 483 376 573 371 Q 656 371 795 368 Q 901 373 977 368 Q 1051 369 1140 367 Q 1281 373 1409 370" fill="none" stroke="#9C7840" stroke-width="3.2" opacity="0.31"/><rect x="0" y="374" width="1200" height="46" fill="#160F09" opacity="0.15"/><line x1="0" y1="374" x2="1200" y2="374" stroke="#6F521F" stroke-width="1" opacity="0.4"/><line x1="0" y1="389" x2="1200" y2="389" stroke="#6F521F" stroke-width="1" opacity="0.4"/><line x1="0" y1="405" x2="1200" y2="405" stroke="#6F521F" stroke-width="1" opacity="0.4"/><line x1="0" y1="374" x2="1200" y2="374" stroke="#6F521F" stroke-width="1" opacity="0.4"/><line x1="0" y1="389" x2="1200" y2="389" stroke="#6F521F" stroke-width="1" opacity="0.4"/><line x1="0" y1="405" x2="1200" y2="405" stroke="#6F521F" stroke-width="1" opacity="0.4"/><line x1="0" y1="374" x2="1200" y2="374" stroke="#6F521F" stroke-width="1" opacity="0.4"/><line x1="0" y1="389" x2="1200" y2="389" stroke="#6F521F" stroke-width="1" opacity="0.4"/><line x1="0" y1="405" x2="1200" y2="405" stroke="#6F521F" stroke-width="1" opacity="0.4"/><line x1="0" y1="374" x2="1200" y2="374" stroke="#6F521F" stroke-width="1" opacity="0.4"/><line x1="0" y1="389" x2="1200" y2="389" stroke="#6F521F" stroke-width="1" opacity="0.4"/><line x1="0" y1="405" x2="1200" y2="405" stroke="#6F521F" stroke-width="1" opacity="0.4"/><line x1="0" y1="374" x2="1200" y2="374" stroke="#6F521F" stroke-width="1" opacity="0.4"/><line x1="0" y1="389" x2="1200" y2="389" stroke="#6F521F" stroke-width="1" opacity="0.4"/><line x1="0" y1="405" x2="1200" y2="405" stroke="#6F521F" stroke-width="1" opacity="0.4"/><line x1="0" y1="374" x2="1200" y2="374" stroke="#6F521F" stroke-width="1" opacity="0.4"/><line x1="0" y1="389" x2="1200" y2="389" stroke="#6F521F" stroke-width="1" opacity="0.4"/><line x1="0" y1="405" x2="1200" y2="405" stroke="#6F521F" stroke-width="1" opacity="0.4"/><line x1="0" y1="374" x2="1200" y2="374" stroke="#6F521F" stroke-width="1" opacity="0.4"/><line x1="0" y1="389" x2="1200" y2="389" stroke="#6F521F" stroke-width="1" opacity="0.4"/><line x1="0" y1="405" x2="1200" y2="405" stroke="#6F521F" stroke-width="1" opacity="0.4"/><line x1="0" y1="374" x2="1200" y2="374" stroke="#6F521F" stroke-width="1" opacity="0.4"/><line x1="0" y1="389" x2="1200" y2="389" stroke="#6F521F" stroke-width="1" opacity="0.4"/><line x1="0" y1="405" x2="1200" y2="405" stroke="#6F521F" stroke-width="1" opacity="0.4"/><line x1="0" y1="374" x2="1200" y2="374" stroke="#6F521F" stroke-width="1" opacity="0.4"/><line x1="0" y1="389" x2="1200" y2="389" stroke="#6F521F" stroke-width="1" opacity="0.4"/><line x1="0" y1="405" x2="1200" y2="405" stroke="#6F521F" stroke-width="1" opacity="0.4"/><rect x="24" y="302" width="184" height="42" rx="8" fill="#160F09" opacity="0.85"/><text x="40" y="330" font-family="Arial" font-size="21" font-weight="bold" fill="#E8A33D" letter-spacing="2">AD ROYAL PLY</text></svg>