<svg xmlns="http://www.w3.org/2000/svg" viewBox="0 0 1200 420" width="1200" height="420" role="img" aria-label="Canva Ply"><rect width="1200" height="420" fill="#C4A578"/><rect x="0" y="0" width="134" height="420" fill="#A2814F" opacity="0.06"/><rect x="133" y="0" width="134" height="420" fill="#755828" opacity="0.06"/><rect x="267" y="0" width="134" height="420" fill="#A2814F" opacity="0.06"/><rect x="400" y="0" width="134" height="420" fill="#755828" opacity="0.06"/><rect x="533" y="0" width="134" height="420" fill="#A2814F" opacity="0.06"/><rect x="667" y="0" width="134" height="420" fill="#755828" opacity="0.06"/><rect x="800" y="0" width="134" height="420" fill="#A2814F" opacity="0.06"/><rect x="933" y="0" width="134" height="420" fill="#755828" opacity="0.06"/><rect x="1067" y="0" width="134" height="420" fill="#A2814F" opacity="0.06"/><path d="M -20 14 Q 132 5 222 19 Q 308 1 446 11 Q 525 22 666 13 Q 743 24 836 16 Q 932 10 1069 11 Q 1158 4 1237 17 Q 1338 24 1478 17" fill="none" stroke="#A2814F" stroke-width="1.3" opacity="0.50"/><path d="M -20 38 Q 132 29 222 43 Q 308 25 446 35 Q 525 46 666 37 Q 743 48 836 40 Q 932 34 1069 35 Q 1158 28 1237 41 Q 1338 48 1478 41" fill="none" stroke="#A2814F" stroke-width="1.3" opacity="0.50"/><path d="M -20 62 Q 132 53 222 67 Q 308 49 446 59 Q 525 70 666 61 Q 743 72 836 64 Q 932 58 1069 59 Q 1158 52 1237 65 Q 1338 72 1478 64" fill="none" stroke="#A2814F" stroke-width="1.3" opacity="0.50"/><path d="M -20 86 Q 132 77 222 91 Q 308 73 446 83 Q 525 94 666 84 Q 743 96 836 88 Q 932 82 1069 83 Q 1158 76 1237 89 Q 1338 96 1478 88" fill="none" stroke="#A2814F" stroke-width="1.3" opacity="0.50"/><path d="M -20 110 Q 132 101 222 115 Q 308 97 446 107 Q 525 118 666 108 Q 743 120 836 112 Q 932 106 1069 107 Q 1158 100 1237 113 Q 1338 120 1478 112" fill="none" stroke="#A2814F" stroke-width="1.3" opacity="0.50"/><path d="M -20 134 Q 132 125 222 139 Q 308 121 446 131 Q 525 142 666 132 Q 743 144 836 136 Q 932 130 1069 131 Q 1158 124 1237 137 Q 1338 144 1478 136" fill="none" stroke="#A2814F" stroke-width="1.3" opacity="0.50"/><path d="M -20 158 Q 132 149 222 163 Q 308 145 446 155 Q 525 166 666 156 Q 743 168 836 160 Q 932 154 1069 155 Q 1158 148 1237 161 Q 1338 168 1478 160" fill="none" stroke="#A2814F" stroke-width="1.3" opacity="0.50"/><path d="M -20 182 Q 132 173 222 187 Q 308 169 446 179 Q 525 190 666 180 Q 743 192 836 184 Q 932 178 1069 179 Q 1158 172 1237 185 Q 1338 192 1478 184" fill="none" stroke="#A2814F" stroke-width="1.3" opacity="0.50"/><path d="M -20 206 Q 132 197 222 211 Q 308 193 446 203 Q 525 214 666 204 Q 743 216 836 208 Q 932 202 1069 203 Q 1158 196 1237 209 Q 1338 216 1478 208" fill="none" stroke="#A2814F" stroke-width="1.3" opacity="0.50"/><path d="M -20 230 Q 132 221 222 235 Q 308 217 446 226 Q 525 238 666 228 Q 743 240 836 232 Q 932 226 1069 227 Q 1158 220 1237 233 Q 1338 240 1478 232" fill="none" stroke="#A2814F" stroke-width="1.3" opacity="0.50"/><path d="M -20 254 Q 132 245 222 259 Q 308 241 446 250 Q 525 262 666 252 Q 743 264 836 256 Q 932 249 1069 251 Q 1158 244 1237 257 Q 1338 264 1478 256" fill="none" stroke="#A2814F" stroke-width="1.3" opacity="0.50"/><path d="M -20 278 Q 132 269 222 283 Q 308 265 446 274 Q 525 286 666 276 Q 743 288 836 280 Q 932 273 1069 275 Q 1158 268 1237 281 Q 1338 288 1478 280" fill="none" stroke="#A2814F" stroke-width="1.3" opacity="0.50"/><path d="M -20 302 Q 132 293 222 306 Q 308 289 446 298 Q 525 310 666 300 Q 743 312 836 304 Q 932 297 1069 299 Q 1158 292 1237 305 Q 1338 312 1478 304" fill="none" stroke="#A2814F" stroke-width="1.3" opacity="0.50"/><path d="M -20 326 Q 132 317 222 330 Q 308 313 446 322 Q 525 334 666 324 Q 743 336 836 328 Q 932 321 1069 323 Q 1158 316 1237 329 Q 1338 336 1478 328" fill="none" stroke="#A2814F" stroke-width="1.3" opacity="0.50"/><path d="M -20 350 Q 132 341 222 354 Q 308 337 446 346 Q 525 358 666 348 Q 743 360 836 352 Q 932 345 1069 347 Q 1158 340 1237 353 Q 1338 360 1478 352" fill="none" stroke="#A2814F" stroke-width="1.3" opacity="0.50"/><path d="M -20 374 Q 132 365 222 378 Q 308 361 446 370 Q 525 382 666 372 Q 743 384 836 376 Q 932 369 1069 371 Q 1158 364 1237 377 Q 1338 384 1478 376" fill="none" stroke="#A2814F" stroke-width="1.3" opacity="0.50"/><rect x="0" y="374" width="1200" height="46" fill="#160F09" opacity="0.15"/><line x1="0" y1="374" x2="1200" y2="374" stroke="#755828" stroke-width="1" opacity="0.4"/><line x1="0" y1="389" x2="1200" y2="389" stroke="#755828" stroke-width="1" opacity="0.4"/><line x1="0" y1="405" x2="1200" y2="405" stroke="#755828" stroke-width="1" opacity="0.4"/><line x1="0" y1="374" x2="1200" y2="374" stroke="#755828" stroke-width="1" opacity="0.4"/><line x1="0" y1="389" x2="1200" y2="389" stroke="#755828" stroke-width="1" opacity="0.4"/><line x1="0" y1="405" x2="1200" y2="405" stroke="#755828" stroke-width="1" opacity="0.4"/><line x1="0" y1="374" x2="1200" y2="374" stroke="#755828" stroke-width="1" opacity="0.4"/><line x1="0" y1="389" x2="1200" y2="389" stroke="#755828" stroke-width="1" opacity="0.4"/><line x1="0" y1="405" x2="1200" y2="405" stroke="#755828" stroke-width="1" opacity="0.4"/><line x1="0" y1="374" x2="1200" y2="374" stroke="#755828" stroke-width="1" opacity="0.4"/><line x1="0" y1="389" x2="1200" y2="389" stroke="#755828" stroke-width="1" opacity="0.4"/><line x1="0" y1="405" x2="1200" y2="405" stroke="#755828" stroke-width="1" opacity="0.4"/><line x1="0" y1="374" x2="1200" y2="374" stroke="#755828" stroke-width="1" opacity="0.4"/><line x1="0" y1="389" x2="1200" y2="389" stroke="#755828" stroke-width="1" opacity="0.4"/><line x1="0" y1="405" x2="1200" y2="405" stroke="#755828" stroke-width="1" opacity="0.4"/><line x1="0" y1="374" x2="1200" y2="374" stroke="#755828" stroke-width="1" opacity="0.4"/><line x1="0" y1="389" x2="1200" y2="389" stroke="#755828" stroke-width="1" opacity="0.4"/><line x1="0" y1="405" x2="1200" y2="405" stroke="#755828" stroke-width="1" opacity="0.4"/><line x1="0" y1="374" x2="1200" y2="374" stroke="#755828" stroke-width="1" opacity="0.4"/><line x1="0" y1="389" x2="1200" y2="389" stroke="#755828" stroke-width="1" opacity="0.4"/><line x1="0" y1="405" x2="1200" y2="405" stroke="#755828" stroke-width="1" opacity="0.4"/><line x1="0" y1="374" x2="1200" y2="374" stroke="#755828" stroke-width="1" opacity="0.4"/><line x1="0" y1="389" x2="1200" y2="389" stroke="#755828" stroke-width="1" opacity="0.4"/><line x1="0" y1="405" x2="1200" y2="405" stroke="#755828" stroke-width="1" opacity="0.4"/><line x1="0" y1="374" x2="1200" y2="374" stroke="#755828" stroke-width="1" opacity="0.4"/><line x1="0" y1="389" x2="1200" y2="389" stroke="#755828" stroke-width="1" opacity="0.4"/><line x1="0" y1="405" x2="1200" y2="405" stroke="#755828" stroke-width="1" opacity="0.4"/><rect x="24" y="302" width="145" height="42" rx="8" fill="#160F09" opacity="0.85"/><text x="40" y="330" font-family="Arial" font-size="21" font-weight="bold" fill="#E8A33D" letter-spacing="2">CANVA PLY</text></svg>