<svg xmlns="http://www.w3.org/2000/svg" viewBox="0 0 1200 420" width="1200" height="420" role="img" aria-label="Century Ply"><rect width="1200" height="420" fill="#C9A36A"/><rect x="0" y="0" width="134" height="420" fill="#A67C42" opacity="0.06"/><rect x="133" y="0" width="134" height="420" fill="#7A551F" opacity="0.06"/><rect x="267" y="0" width="134" height="420" fill="#A67C42" opacity="0.06"/><rect x="400" y="0" width="134" height="420" fill="#7A551F" opacity="0.06"/><rect x="533" y="0" width="134" height="420" fill="#A67C42" opacity="0.06"/><rect x="667" y="0" width="134" height="420" fill="#7A551F" opacity="0.06"/><rect x="800" y="0" width="134" height="420" fill="#A67C42" opacity="0.06"/><rect x="933" y="0" width="134" height="420" fill="#7A551F" opacity="0.06"/><rect x="1067" y="0" width="134" height="420" fill="#A67C42" opacity="0.06"/><path d="M -20 14 Q 83 14 175 13 Q 288 17 434 15 Q 556 16 686 16 Q 776 14 867 14 Q 1002 15 1149 15 Q 1256 17 1364 13" fill="none" stroke="#A67C42" stroke-width="1.2" opacity="0.37"/><path d="M -20 36 Q 99 32 172 35 Q 255 36 347 35 Q 460 40 605 38 Q 727 39 858 38 Q 948 36 1039 35 Q 1174 37 1320 38" fill="none" stroke="#A67C42" stroke-width="2.4" opacity="0.59"/><path d="M -20 57 Q 109 58 189 61 Q 289 49 361 56 Q 444 58 536 55 Q 649 65 795 61 Q 917 63 1047 61 Q 1137 58 1228 57 Q 1363 59 1510 61" fill="none" stroke="#A67C42" stroke-width="3.3" opacity="0.33"/><path d="M -20 79 Q 109 79 189 83 Q 289 71 361 78 Q 444 79 536 76 Q 649 86 795 82 Q 917 84 1047 83 Q 1137 79 1228 78 Q 1363 81 1510 82" fill="none" stroke="#A67C42" stroke-width="3.3" opacity="0.33"/><path d="M -20 100 Q 109 101 189 104 Q 289 92 361 99 Q 444 101 536 98 Q 649 108 795 104 Q 917 105 1047 104 Q 1137 101 1228 99 Q 1363 102 1510 103" fill="none" stroke="#A67C42" stroke-width="3.3" opacity="0.33"/><path d="M -20 121 Q 109 122 189 126 Q 289 113 361 121 Q 444 122 536 119 Q 649 129 795 125 Q 917 127 1047 126 Q 1137 122 1228 121 Q 1363 124 1510 125" fill="none" stroke="#A67C42" stroke-width="3.3" opacity="0.33"/><path d="M -20 143 Q 109 144 189 147 Q 289 135 361 142 Q 444 143 536 141 Q 649 150 795 147 Q 917 148 1047 147 Q 1137 144 1228 142 Q 1363 145 1510 146" fill="none" stroke="#A67C42" stroke-width="3.3" opacity="0.33"/><path d="M -20 164 Q 109 165 189 168 Q 289 156 361 163 Q 444 165 536 162 Q 649 172 795 168 Q 917 170 1047 169 Q 1137 165 1228 164 Q 1363 166 1510 168" fill="none" stroke="#A67C42" stroke-width="3.3" opacity="0.33"/><path d="M -20 186 Q 109 187 189 190 Q 289 178 361 185 Q 444 186 536 184 Q 649 193 795 189 Q 917 191 1047 190 Q 1137 187 1228 185 Q 1363 188 1510 189" fill="none" stroke="#A67C42" stroke-width="3.3" opacity="0.33"/><path d="M -20 207 Q 109 208 189 211 Q 289 199 361 206 Q 444 208 536 205 Q 649 215 795 211 Q 917 212 1047 211 Q 1137 208 1228 206 Q 1363 209 1510 210" fill="none" stroke="#A67C42" stroke-width="3.3" opacity="0.33"/><path d="M -20 228 Q 109 229 189 233 Q 289 220 361 228 Q 444 229 536 226 Q 649 236 795 232 Q 917 234 1047 233 Q 1137 229 1228 228 Q 1363 231 1510 232" fill="none" stroke="#A67C42" stroke-width="3.3" opacity="0.33"/><path d="M -20 250 Q 109 251 189 254 Q 289 242 361 249 Q 444 250 536 248 Q 649 257 795 254 Q 917 255 1047 254 Q 1137 251 1228 249 Q 1363 252 1510 253" fill="none" stroke="#A67C42" stroke-width="3.3" opacity="0.33"/><path d="M -20 271 Q 109 272 189 275 Q 289 263 361 270 Q 444 272 536 269 Q 649 279 795 275 Q 917 277 1047 276 Q 1137 272 1228 271 Q 1363 273 1510 275" fill="none" stroke="#A67C42" stroke-width="3.3" opacity="0.33"/><path d="M -20 293 Q 109 294 189 297 Q 289 285 361 292 Q 444 293 536 291 Q 649 300 795 296 Q 917 298 1047 297 Q 1137 294 1228 292 Q 1363 295 1510 296" fill="none" stroke="#A67C42" stroke-width="3.3" opacity="0.33"/><path d="M -20 314 Q 109 315 189 318 Q 289 306 361 313 Q 444 315 536 312 Q 649 322 795 318 Q 917 319 1047 318 Q 1137 315 1228 313 Q 1363 316 1510 317" fill="none" stroke="#A67C42" stroke-width="3.3" opacity="0.33"/><path d="M -20 335 Q 109 336 189 340 Q 289 327 361 335 Q 444 336 536 333 Q 649 343 795 339 Q 917 341 1047 340 Q 1137 336 1228 335 Q 1363 338 1510 339" fill="none" stroke="#A67C42" stroke-width="3.3" opacity="0.33"/><path d="M -20 357 Q 109 358 189 361 Q 289 349 361 356 Q 444 357 536 355 Q 649 364 795 361 Q 917 362 1047 361 Q 1137 358 1228 356 Q 1363 359 1510 360" fill="none" stroke="#A67C42" stroke-width="3.3" opacity="0.33"/><rect x="0" y="374" width="1200" height="46" fill="#160F09" opacity="0.15"/><line x1="0" y1="374" x2="1200" y2="374" stroke="#7A551F" stroke-width="1" opacity="0.4"/><line x1="0" y1="389" x2="1200" y2="389" stroke="#7A551F" stroke-width="1" opacity="0.4"/><line x1="0" y1="405" x2="1200" y2="405" stroke="#7A551F" stroke-width="1" opacity="0.4"/><line x1="0" y1="374" x2="1200" y2="374" stroke="#7A551F" stroke-width="1" opacity="0.4"/><line x1="0" y1="389" x2="1200" y2="389" stroke="#7A551F" stroke-width="1" opacity="0.4"/><line x1="0" y1="405" x2="1200" y2="405" stroke="#7A551F" stroke-width="1" opacity="0.4"/><line x1="0" y1="374" x2="1200" y2="374" stroke="#7A551F" stroke-width="1" opacity="0.4"/><line x1="0" y1="389" x2="1200" y2="389" stroke="#7A551F" stroke-width="1" opacity="0.4"/><line x1="0" y1="405" x2="1200" y2="405" stroke="#7A551F" stroke-width="1" opacity="0.4"/><line x1="0" y1="374" x2="1200" y2="374" stroke="#7A551F" stroke-width="1" opacity="0.4"/><line x1="0" y1="389" x2="1200" y2="389" stroke="#7A551F" stroke-width="1" opacity="0.4"/><line x1="0" y1="405" x2="1200" y2="405" stroke="#7A551F" stroke-width="1" opacity="0.4"/><line x1="0" y1="374" x2="1200" y2="374" stroke="#7A551F" stroke-width="1" opacity="0.4"/><line x1="0" y1="389" x2="1200" y2="389" stroke="#7A551F" stroke-width="1" opacity="0.4"/><line x1="0" y1="405" x2="1200" y2="405" stroke="#7A551F" stroke-width="1" opacity="0.4"/><line x1="0" y1="374" x2="1200" y2="374" stroke="#7A551F" stroke-width="1" opacity="0.4"/><line x1="0" y1="389" x2="1200" y2="389" stroke="#7A551F" stroke-width="1" opacity="0.4"/><line x1="0" y1="405" x2="1200" y2="405" stroke="#7A551F" stroke-width="1" opacity="0.4"/><line x1="0" y1="374" x2="1200" y2="374" stroke="#7A551F" stroke-width="1" opacity="0.4"/><line x1="0" y1="389" x2="1200" y2="389" stroke="#7A551F" stroke-width="1" opacity="0.4"/><line x1="0" y1="405" x2="1200" y2="405" stroke="#7A551F" stroke-width="1" opacity="0.4"/><line x1="0" y1="374" x2="1200" y2="374" stroke="#7A551F" stroke-width="1" opacity="0.4"/><line x1="0" y1="389" x2="1200" y2="389" stroke="#7A551F" stroke-width="1" opacity="0.4"/><line x1="0" y1="405" x2="1200" y2="405" stroke="#7A551F" stroke-width="1" opacity="0.4"/><line x1="0" y1="374" x2="1200" y2="374" stroke="#7A551F" stroke-width="1" opacity="0.4"/><line x1="0" y1="389" x2="1200" y2="389" stroke="#7A551F" stroke-width="1" opacity="0.4"/><line x1="0" y1="405" x2="1200" y2="405" stroke="#7A551F" stroke-width="1" opacity="0.4"/><rect x="24" y="302" width="171" height="42" rx="8" fill="#160F09" opacity="0.85"/><text x="40" y="330" font-family="Arial" font-size="21" font-weight="bold" fill="#E8A33D" letter-spacing="2">CENTURY PLY</text></svg>