<svg xmlns="http://www.w3.org/2000/svg" viewBox="0 0 1200 420" width="1200" height="420" role="img" aria-label="Greenpanel Plywood"><rect width="1200" height="420" fill="#CBAE7C"/><rect x="0" y="0" width="134" height="420" fill="#A98A52" opacity="0.06"/><rect x="133" y="0" width="134" height="420" fill="#7C6230" opacity="0.06"/><rect x="267" y="0" width="134" height="420" fill="#A98A52" opacity="0.06"/><rect x="400" y="0" width="134" height="420" fill="#7C6230" opacity="0.06"/><rect x="533" y="0" width="134" height="420" fill="#A98A52" opacity="0.06"/><rect x="667" y="0" width="134" height="420" fill="#7C6230" opacity="0.06"/><rect x="800" y="0" width="134" height="420" fill="#A98A52" opacity="0.06"/><rect x="933" y="0" width="134" height="420" fill="#7C6230" opacity="0.06"/><rect x="1067" y="0" width="134" height="420" fill="#A98A52" opacity="0.06"/><path d="M -20 14 Q 93 17 194 18 Q 308 24 392 11 Q 532 8 604 12 Q 736 18 880 9 Q 1014 12 1162 9 Q 1306 7 1384 12" fill="none" stroke="#A98A52" stroke-width="1.4" opacity="0.45"/><path d="M -20 30 Q 113 23 232 32 Q 324 34 425 35 Q 539 41 624 27 Q 763 23 835 28 Q 967 35 1111 24 Q 1246 28 1394 25" fill="none" stroke="#A98A52" stroke-width="1.6" opacity="0.54"/><path d="M -20 59 Q 82 57 208 61 Q 321 57 440 60 Q 532 61 633 61 Q 748 63 832 58 Q 971 57 1044 59 Q 1175 61 1319 57" fill="none" stroke="#A98A52" stroke-width="1.4" opacity="0.31"/><path d="M -20 86 Q 144 76 222 83 Q 304 78 430 92 Q 543 76 662 88 Q 754 91 855 93 Q 969 100 1054 82 Q 1193 77 1265 84 Q 1397 92 1541 78" fill="none" stroke="#A98A52" stroke-width="2.0" opacity="0.21"/><path d="M -20 113 Q 144 103 222 110 Q 304 105 430 119 Q 543 103 662 115 Q 754 118 855 120 Q 969 127 1054 109 Q 1193 104 1265 111 Q 1397 119 1541 105" fill="none" stroke="#A98A52" stroke-width="2.0" opacity="0.21"/><path d="M -20 140 Q 144 130 222 137 Q 304 132 430 146 Q 543 130 662 142 Q 754 145 855 146 Q 969 154 1054 136 Q 1193 131 1265 137 Q 1397 146 1541 132" fill="none" stroke="#A98A52" stroke-width="2.0" opacity="0.21"/><path d="M -20 167 Q 144 157 222 164 Q 304 159 430 173 Q 543 157 662 169 Q 754 172 855 173 Q 969 181 1054 163 Q 1193 158 1265 164 Q 1397 173 1541 159" fill="none" stroke="#A98A52" stroke-width="2.0" opacity="0.21"/><path d="M -20 194 Q 144 183 222 191 Q 304 186 430 200 Q 543 184 662 196 Q 754 199 855 200 Q 969 208 1054 190 Q 1193 185 1265 191 Q 1397 200 1541 186" fill="none" stroke="#A98A52" stroke-width="2.0" opacity="0.21"/><path d="M -20 221 Q 144 210 222 217 Q 304 213 430 226 Q 543 211 662 223 Q 754 225 855 227 Q 969 235 1054 217 Q 1193 212 1265 218 Q 1397 227 1541 213" fill="none" stroke="#A98A52" stroke-width="2.0" opacity="0.21"/><path d="M -20 248 Q 144 237 222 244 Q 304 240 430 253 Q 543 238 662 250 Q 754 252 855 254 Q 969 261 1054 244 Q 1193 239 1265 245 Q 1397 254 1541 240" fill="none" stroke="#A98A52" stroke-width="2.0" opacity="0.21"/><path d="M -20 275 Q 144 264 222 271 Q 304 267 430 280 Q 543 264 662 277 Q 754 279 855 281 Q 969 288 1054 271 Q 1193 265 1265 272 Q 1397 280 1541 267" fill="none" stroke="#A98A52" stroke-width="2.0" opacity="0.21"/><path d="M -20 302 Q 144 291 222 298 Q 304 294 430 307 Q 543 291 662 304 Q 754 306 855 308 Q 969 315 1054 298 Q 1193 292 1265 299 Q 1397 307 1541 294" fill="none" stroke="#A98A52" stroke-width="2.0" opacity="0.21"/><path d="M -20 329 Q 144 318 222 325 Q 304 321 430 334 Q 543 318 662 331 Q 754 333 855 335 Q 969 342 1054 324 Q 1193 319 1265 326 Q 1397 334 1541 321" fill="none" stroke="#A98A52" stroke-width="2.0" opacity="0.21"/><path d="M -20 355 Q 144 345 222 352 Q 304 348 430 361 Q 543 345 662 358 Q 754 360 855 362 Q 969 369 1054 351 Q 1193 346 1265 353 Q 1397 361 1541 348" fill="none" stroke="#A98A52" stroke-width="2.0" opacity="0.21"/><rect x="0" y="374" width="1200" height="46" fill="#160F09" opacity="0.15"/><line x1="0" y1="374" x2="1200" y2="374" stroke="#7C6230" stroke-width="1" opacity="0.4"/><line x1="0" y1="389" x2="1200" y2="389" stroke="#7C6230" stroke-width="1" opacity="0.4"/><line x1="0" y1="405" x2="1200" y2="405" stroke="#7C6230" stroke-width="1" opacity="0.4"/><line x1="0" y1="374" x2="1200" y2="374" stroke="#7C6230" stroke-width="1" opacity="0.4"/><line x1="0" y1="389" x2="1200" y2="389" stroke="#7C6230" stroke-width="1" opacity="0.4"/><line x1="0" y1="405" x2="1200" y2="405" stroke="#7C6230" stroke-width="1" opacity="0.4"/><line x1="0" y1="374" x2="1200" y2="374" stroke="#7C6230" stroke-width="1" opacity="0.4"/><line x1="0" y1="389" x2="1200" y2="389" stroke="#7C6230" stroke-width="1" opacity="0.4"/><line x1="0" y1="405" x2="1200" y2="405" stroke="#7C6230" stroke-width="1" opacity="0.4"/><line x1="0" y1="374" x2="1200" y2="374" stroke="#7C6230" stroke-width="1" opacity="0.4"/><line x1="0" y1="389" x2="1200" y2="389" stroke="#7C6230" stroke-width="1" opacity="0.4"/><line x1="0" y1="405" x2="1200" y2="405" stroke="#7C6230" stroke-width="1" opacity="0.4"/><line x1="0" y1="374" x2="1200" y2="374" stroke="#7C6230" stroke-width="1" opacity="0.4"/><line x1="0" y1="389" x2="1200" y2="389" stroke="#7C6230" stroke-width="1" opacity="0.4"/><line x1="0" y1="405" x2="1200" y2="405" stroke="#7C6230" stroke-width="1" opacity="0.4"/><line x1="0" y1="374" x2="1200" y2="374" stroke="#7C6230" stroke-width="1" opacity="0.4"/><line x1="0" y1="389" x2="1200" y2="389" stroke="#7C6230" stroke-width="1" opacity="0.4"/><line x1="0" y1="405" x2="1200" y2="405" stroke="#7C6230" stroke-width="1" opacity="0.4"/><line x1="0" y1="374" x2="1200" y2="374" stroke="#7C6230" stroke-width="1" opacity="0.4"/><line x1="0" y1="389" x2="1200" y2="389" stroke="#7C6230" stroke-width="1" opacity="0.4"/><line x1="0" y1="405" x2="1200" y2="405" stroke="#7C6230" stroke-width="1" opacity="0.4"/><line x1="0" y1="374" x2="1200" y2="374" stroke="#7C6230" stroke-width="1" opacity="0.4"/><line x1="0" y1="389" x2="1200" y2="389" stroke="#7C6230" stroke-width="1" opacity="0.4"/><line x1="0" y1="405" x2="1200" y2="405" stroke="#7C6230" stroke-width="1" opacity="0.4"/><line x1="0" y1="374" x2="1200" y2="374" stroke="#7C6230" stroke-width="1" opacity="0.4"/><line x1="0" y1="389" x2="1200" y2="389" stroke="#7C6230" stroke-width="1" opacity="0.4"/><line x1="0" y1="405" x2="1200" y2="405" stroke="#7C6230" stroke-width="1" opacity="0.4"/><rect x="24" y="302" width="262" height="42" rx="8" fill="#160F09" opacity="0.85"/><text x="40" y="330" font-family="Arial" font-size="21" font-weight="bold" fill="#E8A33D" letter-spacing="2">GREENPANEL PLYWOOD</text></svg>