<svg xmlns="http://www.w3.org/2000/svg" viewBox="0 0 1200 420" width="1200" height="420" role="img" aria-label="Merger Ply"><rect width="1200" height="420" fill="#D2B583"/><rect x="0" y="0" width="134" height="420" fill="#B0905A" opacity="0.06"/><rect x="133" y="0" width="134" height="420" fill="#856632" opacity="0.06"/><rect x="267" y="0" width="134" height="420" fill="#B0905A" opacity="0.06"/><rect x="400" y="0" width="134" height="420" fill="#856632" opacity="0.06"/><rect x="533" y="0" width="134" height="420" fill="#B0905A" opacity="0.06"/><rect x="667" y="0" width="134" height="420" fill="#856632" opacity="0.06"/><rect x="800" y="0" width="134" height="420" fill="#B0905A" opacity="0.06"/><rect x="933" y="0" width="134" height="420" fill="#856632" opacity="0.06"/><rect x="1067" y="0" width="134" height="420" fill="#B0905A" opacity="0.06"/><path d="M -20 14 Q 85 20 157 19 Q 251 21 394 16 Q 489 23 599 12 Q 679 19 791 15 Q 914 13 1035 17 Q 1131 7 1276 10 Q 1363 12 1470 9" fill="none" stroke="#B0905A" stroke-width="2.2" opacity="0.60"/><path d="M -20 43 Q 85 48 157 47 Q 251 50 394 45 Q 489 52 599 40 Q 679 48 791 43 Q 914 41 1035 46 Q 1131 35 1276 39 Q 1363 41 1470 38" fill="none" stroke="#B0905A" stroke-width="2.2" opacity="0.60"/><path d="M -20 71 Q 85 77 157 76 Q 251 79 394 74 Q 489 80 599 69 Q 679 76 791 72 Q 914 70 1035 75 Q 1131 64 1276 67 Q 1363 70 1470 66" fill="none" stroke="#B0905A" stroke-width="2.2" opacity="0.60"/><path d="M -20 100 Q 85 105 157 104 Q 251 107 394 102 Q 489 109 599 97 Q 679 105 791 100 Q 914 98 1035 103 Q 1131 92 1276 96 Q 1363 98 1470 95" fill="none" stroke="#B0905A" stroke-width="2.2" opacity="0.60"/><path d="M -20 128 Q 85 134 157 133 Q 251 136 394 131 Q 489 138 599 126 Q 679 133 791 129 Q 914 127 1035 132 Q 1131 121 1276 124 Q 1363 127 1470 123" fill="none" stroke="#B0905A" stroke-width="2.2" opacity="0.60"/><path d="M -20 157 Q 85 162 157 161 Q 251 164 394 159 Q 489 166 599 154 Q 679 162 791 158 Q 914 155 1035 160 Q 1131 149 1276 153 Q 1363 155 1470 152" fill="none" stroke="#B0905A" stroke-width="2.2" opacity="0.60"/><path d="M -20 185 Q 85 191 157 190 Q 251 193 394 188 Q 489 195 599 183 Q 679 191 791 186 Q 914 184 1035 189 Q 1131 178 1276 182 Q 1363 184 1470 181" fill="none" stroke="#B0905A" stroke-width="2.2" opacity="0.60"/><path d="M -20 214 Q 85 219 157 219 Q 251 221 394 216 Q 489 223 599 211 Q 679 219 791 215 Q 914 213 1035 217 Q 1131 207 1276 210 Q 1363 212 1470 209" fill="none" stroke="#B0905A" stroke-width="2.2" opacity="0.60"/><path d="M -20 242 Q 85 248 157 247 Q 251 250 394 245 Q 489 252 599 240 Q 679 248 791 243 Q 914 241 1035 246 Q 1131 235 1276 239 Q 1363 241 1470 238" fill="none" stroke="#B0905A" stroke-width="2.2" opacity="0.60"/><path d="M -20 271 Q 85 277 157 276 Q 251 278 394 274 Q 489 280 599 269 Q 679 276 791 272 Q 914 270 1035 274 Q 1131 264 1276 267 Q 1363 269 1470 266" fill="none" stroke="#B0905A" stroke-width="2.2" opacity="0.60"/><path d="M -20 300 Q 85 305 157 304 Q 251 307 394 302 Q 489 309 599 297 Q 679 305 791 300 Q 914 298 1035 303 Q 1131 292 1276 296 Q 1363 298 1470 295" fill="none" stroke="#B0905A" stroke-width="2.2" opacity="0.60"/><path d="M -20 328 Q 85 334 157 333 Q 251 336 394 331 Q 489 337 599 326 Q 679 333 791 329 Q 914 327 1035 332 Q 1131 321 1276 324 Q 1363 327 1470 323" fill="none" stroke="#B0905A" stroke-width="2.2" opacity="0.60"/><path d="M -20 357 Q 85 362 157 361 Q 251 364 394 359 Q 489 366 599 354 Q 679 362 791 357 Q 914 355 1035 360 Q 1131 349 1276 353 Q 1363 355 1470 352" fill="none" stroke="#B0905A" stroke-width="2.2" opacity="0.60"/><rect x="0" y="374" width="1200" height="46" fill="#160F09" opacity="0.15"/><line x1="0" y1="374" x2="1200" y2="374" stroke="#856632" stroke-width="1" opacity="0.4"/><line x1="0" y1="389" x2="1200" y2="389" stroke="#856632" stroke-width="1" opacity="0.4"/><line x1="0" y1="405" x2="1200" y2="405" stroke="#856632" stroke-width="1" opacity="0.4"/><line x1="0" y1="374" x2="1200" y2="374" stroke="#856632" stroke-width="1" opacity="0.4"/><line x1="0" y1="389" x2="1200" y2="389" stroke="#856632" stroke-width="1" opacity="0.4"/><line x1="0" y1="405" x2="1200" y2="405" stroke="#856632" stroke-width="1" opacity="0.4"/><line x1="0" y1="374" x2="1200" y2="374" stroke="#856632" stroke-width="1" opacity="0.4"/><line x1="0" y1="389" x2="1200" y2="389" stroke="#856632" stroke-width="1" opacity="0.4"/><line x1="0" y1="405" x2="1200" y2="405" stroke="#856632" stroke-width="1" opacity="0.4"/><line x1="0" y1="374" x2="1200" y2="374" stroke="#856632" stroke-width="1" opacity="0.4"/><line x1="0" y1="389" x2="1200" y2="389" stroke="#856632" stroke-width="1" opacity="0.4"/><line x1="0" y1="405" x2="1200" y2="405" stroke="#856632" stroke-width="1" opacity="0.4"/><line x1="0" y1="374" x2="1200" y2="374" stroke="#856632" stroke-width="1" opacity="0.4"/><line x1="0" y1="389" x2="1200" y2="389" stroke="#856632" stroke-width="1" opacity="0.4"/><line x1="0" y1="405" x2="1200" y2="405" stroke="#856632" stroke-width="1" opacity="0.4"/><line x1="0" y1="374" x2="1200" y2="374" stroke="#856632" stroke-width="1" opacity="0.4"/><line x1="0" y1="389" x2="1200" y2="389" stroke="#856632" stroke-width="1" opacity="0.4"/><line x1="0" y1="405" x2="1200" y2="405" stroke="#856632" stroke-width="1" opacity="0.4"/><line x1="0" y1="374" x2="1200" y2="374" stroke="#856632" stroke-width="1" opacity="0.4"/><line x1="0" y1="389" x2="1200" y2="389" stroke="#856632" stroke-width="1" opacity="0.4"/><line x1="0" y1="405" x2="1200" y2="405" stroke="#856632" stroke-width="1" opacity="0.4"/><line x1="0" y1="374" x2="1200" y2="374" stroke="#856632" stroke-width="1" opacity="0.4"/><line x1="0" y1="389" x2="1200" y2="389" stroke="#856632" stroke-width="1" opacity="0.4"/><line x1="0" y1="405" x2="1200" y2="405" stroke="#856632" stroke-width="1" opacity="0.4"/><line x1="0" y1="374" x2="1200" y2="374" stroke="#856632" stroke-width="1" opacity="0.4"/><line x1="0" y1="389" x2="1200" y2="389" stroke="#856632" stroke-width="1" opacity="0.4"/><line x1="0" y1="405" x2="1200" y2="405" stroke="#856632" stroke-width="1" opacity="0.4"/><rect x="24" y="302" width="158" height="42" rx="8" fill="#160F09" opacity="0.85"/><text x="40" y="330" font-family="Arial" font-size="21" font-weight="bold" fill="#E8A33D" letter-spacing="2">MERGER PLY</text></svg>