<svg xmlns="http://www.w3.org/2000/svg" viewBox="0 0 1200 420" width="1200" height="420" role="img" aria-label="Urban Made Plywood"><rect width="1200" height="420" fill="#E0C99B"/><rect x="0" y="0" width="134" height="420" fill="#C2A56F" opacity="0.06"/><rect x="133" y="0" width="134" height="420" fill="#9C8049" opacity="0.06"/><rect x="267" y="0" width="134" height="420" fill="#C2A56F" opacity="0.06"/><rect x="400" y="0" width="134" height="420" fill="#9C8049" opacity="0.06"/><rect x="533" y="0" width="134" height="420" fill="#C2A56F" opacity="0.06"/><rect x="667" y="0" width="134" height="420" fill="#9C8049" opacity="0.06"/><rect x="800" y="0" width="134" height="420" fill="#C2A56F" opacity="0.06"/><rect x="933" y="0" width="134" height="420" fill="#9C8049" opacity="0.06"/><rect x="1067" y="0" width="134" height="420" fill="#C2A56F" opacity="0.06"/><path d="M -20 14 Q 128 15 245 11 Q 377 10 512 14 Q 641 18 726 10 Q 822 17 921 11 Q 1022 16 1114 12 Q 1210 11 1289 17" fill="none" stroke="#C2A56F" stroke-width="1.7" opacity="0.52"/><path d="M -20 38 Q 103 33 208 42 Q 336 40 453 33 Q 585 32 721 37 Q 849 43 934 32 Q 1030 42 1129 34 Q 1230 41 1322 35" fill="none" stroke="#C2A56F" stroke-width="3.3" opacity="0.56"/><path d="M -20 57 Q 120 61 246 59 Q 349 55 454 59 Q 582 58 699 56 Q 831 55 966 57 Q 1095 59 1179 55 Q 1276 59 1375 56" fill="none" stroke="#C2A56F" stroke-width="1.8" opacity="0.55"/><path d="M -20 77 Q 96 75 175 80 Q 295 83 421 80 Q 524 75 629 79 Q 757 79 874 75 Q 1006 74 1141 77 Q 1270 80 1355 74" fill="none" stroke="#C2A56F" stroke-width="2.6" opacity="0.29"/><path d="M -20 97 Q 101 99 193 95 Q 290 94 368 100 Q 488 103 614 100 Q 717 93 822 99 Q 951 98 1067 94 Q 1199 93 1335 96" fill="none" stroke="#C2A56F" stroke-width="2.7" opacity="0.27"/><path d="M -20 122 Q 96 124 195 121 Q 296 124 389 121 Q 485 120 564 124 Q 684 127 809 125 Q 912 120 1017 124 Q 1146 123 1262 120 Q 1395 120 1530 122" fill="none" stroke="#C2A56F" stroke-width="2.8" opacity="0.20"/><path d="M -20 148 Q 96 150 195 146 Q 296 149 389 147 Q 485 146 564 150 Q 684 152 809 150 Q 912 146 1017 150 Q 1146 149 1262 146 Q 1395 146 1530 148" fill="none" stroke="#C2A56F" stroke-width="2.8" opacity="0.20"/><path d="M -20 174 Q 96 176 195 172 Q 296 175 389 172 Q 485 172 564 176 Q 684 178 809 176 Q 912 171 1017 175 Q 1146 175 1262 172 Q 1395 171 1530 173" fill="none" stroke="#C2A56F" stroke-width="2.8" opacity="0.20"/><path d="M -20 199 Q 96 201 195 198 Q 296 201 389 198 Q 485 197 564 201 Q 684 204 809 202 Q 912 197 1017 201 Q 1146 200 1262 197 Q 1395 197 1530 199" fill="none" stroke="#C2A56F" stroke-width="2.8" opacity="0.20"/><path d="M -20 225 Q 96 227 195 223 Q 296 227 389 224 Q 485 223 564 227 Q 684 230 809 227 Q 912 223 1017 227 Q 1146 226 1262 223 Q 1395 223 1530 225" fill="none" stroke="#C2A56F" stroke-width="2.8" opacity="0.20"/><path d="M -20 251 Q 96 253 195 249 Q 296 252 389 249 Q 485 249 564 253 Q 684 255 809 253 Q 912 248 1017 252 Q 1146 252 1262 249 Q 1395 248 1530 250" fill="none" stroke="#C2A56F" stroke-width="2.8" opacity="0.20"/><path d="M -20 276 Q 96 278 195 275 Q 296 278 389 275 Q 485 274 564 278 Q 684 281 809 279 Q 912 274 1017 278 Q 1146 277 1262 274 Q 1395 274 1530 276" fill="none" stroke="#C2A56F" stroke-width="2.8" opacity="0.20"/><path d="M -20 302 Q 96 304 195 300 Q 296 304 389 301 Q 485 300 564 304 Q 684 307 809 304 Q 912 300 1017 304 Q 1146 303 1262 300 Q 1395 300 1530 302" fill="none" stroke="#C2A56F" stroke-width="2.8" opacity="0.20"/><path d="M -20 328 Q 96 330 195 326 Q 296 329 389 326 Q 485 326 564 330 Q 684 332 809 330 Q 912 325 1017 329 Q 1146 329 1262 326 Q 1395 325 1530 328" fill="none" stroke="#C2A56F" stroke-width="2.8" opacity="0.20"/><path d="M -20 353 Q 96 355 195 352 Q 296 355 389 352 Q 485 351 564 355 Q 684 358 809 356 Q 912 351 1017 355 Q 1146 354 1262 351 Q 1395 351 1530 353" fill="none" stroke="#C2A56F" stroke-width="2.8" opacity="0.20"/><rect x="0" y="374" width="1200" height="46" fill="#160F09" opacity="0.15"/><line x1="0" y1="374" x2="1200" y2="374" stroke="#9C8049" stroke-width="1" opacity="0.4"/><line x1="0" y1="389" x2="1200" y2="389" stroke="#9C8049" stroke-width="1" opacity="0.4"/><line x1="0" y1="405" x2="1200" y2="405" stroke="#9C8049" stroke-width="1" opacity="0.4"/><line x1="0" y1="374" x2="1200" y2="374" stroke="#9C8049" stroke-width="1" opacity="0.4"/><line x1="0" y1="389" x2="1200" y2="389" stroke="#9C8049" stroke-width="1" opacity="0.4"/><line x1="0" y1="405" x2="1200" y2="405" stroke="#9C8049" stroke-width="1" opacity="0.4"/><line x1="0" y1="374" x2="1200" y2="374" stroke="#9C8049" stroke-width="1" opacity="0.4"/><line x1="0" y1="389" x2="1200" y2="389" stroke="#9C8049" stroke-width="1" opacity="0.4"/><line x1="0" y1="405" x2="1200" y2="405" stroke="#9C8049" stroke-width="1" opacity="0.4"/><line x1="0" y1="374" x2="1200" y2="374" stroke="#9C8049" stroke-width="1" opacity="0.4"/><line x1="0" y1="389" x2="1200" y2="389" stroke="#9C8049" stroke-width="1" opacity="0.4"/><line x1="0" y1="405" x2="1200" y2="405" stroke="#9C8049" stroke-width="1" opacity="0.4"/><line x1="0" y1="374" x2="1200" y2="374" stroke="#9C8049" stroke-width="1" opacity="0.4"/><line x1="0" y1="389" x2="1200" y2="389" stroke="#9C8049" stroke-width="1" opacity="0.4"/><line x1="0" y1="405" x2="1200" y2="405" stroke="#9C8049" stroke-width="1" opacity="0.4"/><line x1="0" y1="374" x2="1200" y2="374" stroke="#9C8049" stroke-width="1" opacity="0.4"/><line x1="0" y1="389" x2="1200" y2="389" stroke="#9C8049" stroke-width="1" opacity="0.4"/><line x1="0" y1="405" x2="1200" y2="405" stroke="#9C8049" stroke-width="1" opacity="0.4"/><line x1="0" y1="374" x2="1200" y2="374" stroke="#9C8049" stroke-width="1" opacity="0.4"/><line x1="0" y1="389" x2="1200" y2="389" stroke="#9C8049" stroke-width="1" opacity="0.4"/><line x1="0" y1="405" x2="1200" y2="405" stroke="#9C8049" stroke-width="1" opacity="0.4"/><line x1="0" y1="374" x2="1200" y2="374" stroke="#9C8049" stroke-width="1" opacity="0.4"/><line x1="0" y1="389" x2="1200" y2="389" stroke="#9C8049" stroke-width="1" opacity="0.4"/><line x1="0" y1="405" x2="1200" y2="405" stroke="#9C8049" stroke-width="1" opacity="0.4"/><line x1="0" y1="374" x2="1200" y2="374" stroke="#9C8049" stroke-width="1" opacity="0.4"/><line x1="0" y1="389" x2="1200" y2="389" stroke="#9C8049" stroke-width="1" opacity="0.4"/><line x1="0" y1="405" x2="1200" y2="405" stroke="#9C8049" stroke-width="1" opacity="0.4"/><rect x="24" y="302" width="262" height="42" rx="8" fill="#160F09" opacity="0.85"/><text x="40" y="330" font-family="Arial" font-size="21" font-weight="bold" fill="#E8A33D" letter-spacing="2">URBAN MADE PLYWOOD</text></svg>