<svg xmlns="http://www.w3.org/2000/svg" viewBox="0 0 1200 420" width="1200" height="420" role="img" aria-label="Curtain Hardware"><defs><linearGradient id="g" x1="0" y1="0" x2="0" y2="1"><stop offset="0" stop-color="#A98F5E"/><stop offset="0.5" stop-color="#8A7040"/><stop offset="1" stop-color="#5F4E28"/></linearGradient></defs><rect width="1200" height="420" fill="url(#g)"/><line x1="-10" y1="303" x2="1200" y2="303" stroke="#ffffff" stroke-width="0.4" opacity="0.07"/><line x1="-10" y1="86" x2="1200" y2="86" stroke="#ffffff" stroke-width="0.4" opacity="0.09"/><line x1="-10" y1="392" x2="1200" y2="392" stroke="#ffffff" stroke-width="0.9" opacity="0.06"/><line x1="-10" y1="89" x2="1200" y2="89" stroke="#ffffff" stroke-width="1.2" opacity="0.09"/><line x1="-10" y1="313" x2="1200" y2="313" stroke="#ffffff" stroke-width="0.8" opacity="0.03"/><line x1="-10" y1="306" x2="1200" y2="306" stroke="#ffffff" stroke-width="0.4" opacity="0.09"/><line x1="-10" y1="100" x2="1200" y2="100" stroke="#ffffff" stroke-width="0.4" opacity="0.07"/><line x1="-10" y1="59" x2="1200" y2="59" stroke="#ffffff" stroke-width="0.9" opacity="0.04"/><line x1="-10" y1="92" x2="1200" y2="92" stroke="#ffffff" stroke-width="1.0" opacity="0.09"/><line x1="-10" y1="155" x2="1200" y2="155" stroke="#ffffff" stroke-width="0.8" opacity="0.09"/><line x1="-10" y1="165" x2="1200" y2="165" stroke="#ffffff" stroke-width="0.9" opacity="0.08"/><line x1="-10" y1="25" x2="1200" y2="25" stroke="#ffffff" stroke-width="0.9" opacity="0.04"/><line x1="-10" y1="10" x2="1200" y2="10" stroke="#ffffff" stroke-width="1.1" opacity="0.10"/><line x1="-10" y1="282" x2="1200" y2="282" stroke="#ffffff" stroke-width="0.7" opacity="0.04"/><line x1="-10" y1="404" x2="1200" y2="404" stroke="#ffffff" stroke-width="1.1" opacity="0.08"/><line x1="-10" y1="193" x2="1200" y2="193" stroke="#ffffff" stroke-width="0.4" opacity="0.08"/><line x1="-10" y1="10" x2="1200" y2="10" stroke="#ffffff" stroke-width="1.1" opacity="0.05"/><line x1="-10" y1="25" x2="1200" y2="25" stroke="#ffffff" stroke-width="0.9" opacity="0.04"/><line x1="-10" y1="283" x2="1200" y2="283" stroke="#ffffff" stroke-width="0.6" opacity="0.05"/><line x1="-10" y1="329" x2="1200" y2="329" stroke="#ffffff" stroke-width="1.1" opacity="0.06"/><line x1="-10" y1="203" x2="1200" y2="203" stroke="#ffffff" stroke-width="1.1" opacity="0.06"/><line x1="-10" y1="242" x2="1200" y2="242" stroke="#ffffff" stroke-width="1.0" opacity="0.03"/><line x1="-10" y1="267" x2="1200" y2="267" stroke="#ffffff" stroke-width="0.6" opacity="0.03"/><line x1="-10" y1="374" x2="1200" y2="374" stroke="#ffffff" stroke-width="1.1" opacity="0.08"/><line x1="-10" y1="161" x2="1200" y2="161" stroke="#ffffff" stroke-width="0.6" opacity="0.10"/><line x1="-10" y1="348" x2="1200" y2="348" stroke="#ffffff" stroke-width="1.0" opacity="0.06"/><line x1="-10" y1="12" x2="1200" y2="12" stroke="#ffffff" stroke-width="1.0" opacity="0.03"/><line x1="-10" y1="344" x2="1200" y2="344" stroke="#ffffff" stroke-width="0.6" opacity="0.03"/><line x1="-10" y1="255" x2="1200" y2="255" stroke="#ffffff" stroke-width="0.5" opacity="0.08"/><line x1="-10" y1="89" x2="1200" y2="89" stroke="#ffffff" stroke-width="0.6" opacity="0.08"/><line x1="-10" y1="343" x2="1200" y2="343" stroke="#ffffff" stroke-width="0.7" opacity="0.06"/><line x1="-10" y1="369" x2="1200" y2="369" stroke="#ffffff" stroke-width="0.7" opacity="0.07"/><line x1="-10" y1="303" x2="1200" y2="303" stroke="#ffffff" stroke-width="0.4" opacity="0.07"/><line x1="-10" y1="86" x2="1200" y2="86" stroke="#ffffff" stroke-width="0.4" opacity="0.09"/><line x1="-10" y1="392" x2="1200" y2="392" stroke="#ffffff" stroke-width="0.9" opacity="0.06"/><line x1="-10" y1="89" x2="1200" y2="89" stroke="#ffffff" stroke-width="1.2" opacity="0.09"/><line x1="-10" y1="313" x2="1200" y2="313" stroke="#ffffff" stroke-width="0.8" opacity="0.03"/><line x1="-10" y1="306" x2="1200" y2="306" stroke="#ffffff" stroke-width="0.4" opacity="0.09"/><line x1="-10" y1="100" x2="1200" y2="100" stroke="#ffffff" stroke-width="0.4" opacity="0.07"/><line x1="-10" y1="59" x2="1200" y2="59" stroke="#ffffff" stroke-width="0.9" opacity="0.04"/><line x1="-10" y1="92" x2="1200" y2="92" stroke="#ffffff" stroke-width="1.0" opacity="0.09"/><line x1="-10" y1="155" x2="1200" y2="155" stroke="#ffffff" stroke-width="0.8" opacity="0.09"/><line x1="-10" y1="165" x2="1200" y2="165" stroke="#ffffff" stroke-width="0.9" opacity="0.08"/><line x1="-10" y1="25" x2="1200" y2="25" stroke="#ffffff" stroke-width="0.9" opacity="0.04"/><line x1="-10" y1="10" x2="1200" y2="10" stroke="#ffffff" stroke-width="1.1" opacity="0.10"/><line x1="-10" y1="282" x2="1200" y2="282" stroke="#ffffff" stroke-width="0.7" opacity="0.04"/><line x1="-10" y1="404" x2="1200" y2="404" stroke="#ffffff" stroke-width="1.1" opacity="0.08"/><line x1="-10" y1="193" x2="1200" y2="193" stroke="#ffffff" stroke-width="0.4" opacity="0.08"/><line x1="-10" y1="10" x2="1200" y2="10" stroke="#ffffff" stroke-width="1.1" opacity="0.05"/><line x1="-10" y1="25" x2="1200" y2="25" stroke="#ffffff" stroke-width="0.9" opacity="0.04"/><line x1="-10" y1="283" x2="1200" y2="283" stroke="#ffffff" stroke-width="0.6" opacity="0.05"/><line x1="-10" y1="329" x2="1200" y2="329" stroke="#ffffff" stroke-width="1.1" opacity="0.06"/><line x1="-10" y1="203" x2="1200" y2="203" stroke="#ffffff" stroke-width="1.1" opacity="0.06"/><line x1="-10" y1="242" x2="1200" y2="242" stroke="#ffffff" stroke-width="1.0" opacity="0.03"/><line x1="-10" y1="267" x2="1200" y2="267" stroke="#ffffff" stroke-width="0.6" opacity="0.03"/><line x1="-10" y1="374" x2="1200" y2="374" stroke="#ffffff" stroke-width="1.1" opacity="0.08"/><line x1="-10" y1="161" x2="1200" y2="161" stroke="#ffffff" stroke-width="0.6" opacity="0.10"/><line x1="-10" y1="348" x2="1200" y2="348" stroke="#ffffff" stroke-width="1.0" opacity="0.06"/><line x1="-10" y1="12" x2="1200" y2="12" stroke="#ffffff" stroke-width="1.0" opacity="0.03"/><line x1="-10" y1="344" x2="1200" y2="344" stroke="#ffffff" stroke-width="0.6" opacity="0.03"/><line x1="-10" y1="255" x2="1200" y2="255" stroke="#ffffff" stroke-width="0.5" opacity="0.08"/><line x1="-10" y1="89" x2="1200" y2="89" stroke="#ffffff" stroke-width="0.6" opacity="0.08"/><line x1="-10" y1="343" x2="1200" y2="343" stroke="#ffffff" stroke-width="0.7" opacity="0.06"/><line x1="-10" y1="369" x2="1200" y2="369" stroke="#ffffff" stroke-width="0.7" opacity="0.07"/><line x1="-10" y1="303" x2="1200" y2="303" stroke="#ffffff" stroke-width="0.4" opacity="0.07"/><line x1="-10" y1="86" x2="1200" y2="86" stroke="#ffffff" stroke-width="0.4" opacity="0.09"/><line x1="-10" y1="392" x2="1200" y2="392" stroke="#ffffff" stroke-width="0.9" opacity="0.06"/><line x1="-10" y1="89" x2="1200" y2="89" stroke="#ffffff" stroke-width="1.2" opacity="0.09"/><line x1="-10" y1="313" x2="1200" y2="313" stroke="#ffffff" stroke-width="0.8" opacity="0.03"/><line x1="-10" y1="306" x2="1200" y2="306" stroke="#ffffff" stroke-width="0.4" opacity="0.09"/><line x1="-10" y1="100" x2="1200" y2="100" stroke="#ffffff" stroke-width="0.4" opacity="0.07"/><line x1="-10" y1="59" x2="1200" y2="59" stroke="#ffffff" stroke-width="0.9" opacity="0.04"/><line x1="-10" y1="92" x2="1200" y2="92" stroke="#ffffff" stroke-width="1.0" opacity="0.09"/><line x1="-10" y1="155" x2="1200" y2="155" stroke="#ffffff" stroke-width="0.8" opacity="0.09"/><line x1="-10" y1="165" x2="1200" y2="165" stroke="#ffffff" stroke-width="0.9" opacity="0.08"/><line x1="-10" y1="25" x2="1200" y2="25" stroke="#ffffff" stroke-width="0.9" opacity="0.04"/><line x1="-10" y1="10" x2="1200" y2="10" stroke="#ffffff" stroke-width="1.1" opacity="0.10"/><line x1="-10" y1="282" x2="1200" y2="282" stroke="#ffffff" stroke-width="0.7" opacity="0.04"/><line x1="-10" y1="404" x2="1200" y2="404" stroke="#ffffff" stroke-width="1.1" opacity="0.08"/><line x1="-10" y1="193" x2="1200" y2="193" stroke="#ffffff" stroke-width="0.4" opacity="0.08"/><rect x="380" y="150" width="440" height="14" rx="7" fill="#A98F5E"/><circle cx="380" cy="157" r="22" fill="#8A7040"/><circle cx="820" cy="157" r="22" fill="#8A7040"/><rect x="24" y="302" width="236" height="42" rx="8" fill="#160F09" opacity="0.9"/><text x="40" y="330" font-family="Arial" font-size="21" font-weight="bold" fill="#E8A33D" letter-spacing="2">CURTAIN HARDWARE</text></svg>