<svg xmlns="http://www.w3.org/2000/svg" viewBox="0 0 1200 420" width="1200" height="420" role="img" aria-label="Digital Locks &amp; Safes"><defs><linearGradient id="g" x1="0" y1="0" x2="0" y2="1"><stop offset="0" stop-color="#5B6167"/><stop offset="0.5" stop-color="#3E4349"/><stop offset="1" stop-color="#212529"/></linearGradient></defs><rect width="1200" height="420" fill="url(#g)"/><line x1="-10" y1="15" x2="1200" y2="15" stroke="#ffffff" stroke-width="1.1" opacity="0.06"/><line x1="-10" y1="120" x2="1200" y2="120" stroke="#ffffff" stroke-width="1.0" opacity="0.04"/><line x1="-10" y1="364" x2="1200" y2="364" stroke="#ffffff" stroke-width="0.5" opacity="0.08"/><line x1="-10" y1="48" x2="1200" y2="48" stroke="#ffffff" stroke-width="0.6" opacity="0.08"/><line x1="-10" y1="344" x2="1200" y2="344" stroke="#ffffff" stroke-width="0.8" opacity="0.05"/><line x1="-10" y1="160" x2="1200" y2="160" stroke="#ffffff" stroke-width="1.0" opacity="0.09"/><line x1="-10" y1="175" x2="1200" y2="175" stroke="#ffffff" stroke-width="1.0" opacity="0.07"/><line x1="-10" y1="412" x2="1200" y2="412" stroke="#ffffff" stroke-width="0.4" opacity="0.05"/><line x1="-10" y1="81" x2="1200" y2="81" stroke="#ffffff" stroke-width="1.0" opacity="0.07"/><line x1="-10" y1="56" x2="1200" y2="56" stroke="#ffffff" stroke-width="0.6" opacity="0.03"/><line x1="-10" y1="31" x2="1200" y2="31" stroke="#ffffff" stroke-width="0.6" opacity="0.03"/><line x1="-10" y1="361" x2="1200" y2="361" stroke="#ffffff" stroke-width="0.7" opacity="0.05"/><line x1="-10" y1="331" x2="1200" y2="331" stroke="#ffffff" stroke-width="0.5" opacity="0.09"/><line x1="-10" y1="49" x2="1200" y2="49" stroke="#ffffff" stroke-width="0.9" opacity="0.04"/><line x1="-10" y1="92" x2="1200" y2="92" stroke="#ffffff" stroke-width="1.0" opacity="0.09"/><line x1="-10" y1="188" x2="1200" y2="188" stroke="#ffffff" stroke-width="0.6" opacity="0.06"/><line x1="-10" y1="301" x2="1200" y2="301" stroke="#ffffff" stroke-width="1.1" opacity="0.06"/><line x1="-10" y1="290" x2="1200" y2="290" stroke="#ffffff" stroke-width="0.9" opacity="0.10"/><line x1="-10" y1="3" x2="1200" y2="3" stroke="#ffffff" stroke-width="0.6" opacity="0.04"/><line x1="-10" y1="300" x2="1200" y2="300" stroke="#ffffff" stroke-width="0.8" opacity="0.04"/><line x1="-10" y1="102" x2="1200" y2="102" stroke="#ffffff" stroke-width="0.4" opacity="0.04"/><line x1="-10" y1="79" x2="1200" y2="79" stroke="#ffffff" stroke-width="0.4" opacity="0.09"/><line x1="-10" y1="163" x2="1200" y2="163" stroke="#ffffff" stroke-width="0.6" opacity="0.09"/><line x1="-10" y1="64" x2="1200" y2="64" stroke="#ffffff" stroke-width="1.1" opacity="0.04"/><line x1="-10" y1="282" x2="1200" y2="282" stroke="#ffffff" stroke-width="0.5" opacity="0.05"/><line x1="-10" y1="311" x2="1200" y2="311" stroke="#ffffff" stroke-width="1.1" opacity="0.06"/><line x1="-10" y1="112" x2="1200" y2="112" stroke="#ffffff" stroke-width="0.7" opacity="0.08"/><line x1="-10" y1="352" x2="1200" y2="352" stroke="#ffffff" stroke-width="0.7" opacity="0.08"/><line x1="-10" y1="260" x2="1200" y2="260" stroke="#ffffff" stroke-width="1.2" opacity="0.03"/><line x1="-10" y1="104" x2="1200" y2="104" stroke="#ffffff" stroke-width="0.6" opacity="0.08"/><line x1="-10" y1="217" x2="1200" y2="217" stroke="#ffffff" stroke-width="0.5" opacity="0.05"/><line x1="-10" y1="13" x2="1200" y2="13" stroke="#ffffff" stroke-width="0.5" opacity="0.04"/><line x1="-10" y1="15" x2="1200" y2="15" stroke="#ffffff" stroke-width="1.1" opacity="0.06"/><line x1="-10" y1="120" x2="1200" y2="120" stroke="#ffffff" stroke-width="1.0" opacity="0.04"/><line x1="-10" y1="364" x2="1200" y2="364" stroke="#ffffff" stroke-width="0.5" opacity="0.08"/><line x1="-10" y1="48" x2="1200" y2="48" stroke="#ffffff" stroke-width="0.6" opacity="0.08"/><line x1="-10" y1="344" x2="1200" y2="344" stroke="#ffffff" stroke-width="0.8" opacity="0.05"/><line x1="-10" y1="160" x2="1200" y2="160" stroke="#ffffff" stroke-width="1.0" opacity="0.09"/><line x1="-10" y1="175" x2="1200" y2="175" stroke="#ffffff" stroke-width="1.0" opacity="0.07"/><line x1="-10" y1="412" x2="1200" y2="412" stroke="#ffffff" stroke-width="0.4" opacity="0.05"/><line x1="-10" y1="81" x2="1200" y2="81" stroke="#ffffff" stroke-width="1.0" opacity="0.07"/><line x1="-10" y1="56" x2="1200" y2="56" stroke="#ffffff" stroke-width="0.6" opacity="0.03"/><line x1="-10" y1="31" x2="1200" y2="31" stroke="#ffffff" stroke-width="0.6" opacity="0.03"/><line x1="-10" y1="361" x2="1200" y2="361" stroke="#ffffff" stroke-width="0.7" opacity="0.05"/><line x1="-10" y1="331" x2="1200" y2="331" stroke="#ffffff" stroke-width="0.5" opacity="0.09"/><line x1="-10" y1="49" x2="1200" y2="49" stroke="#ffffff" stroke-width="0.9" opacity="0.04"/><line x1="-10" y1="92" x2="1200" y2="92" stroke="#ffffff" stroke-width="1.0" opacity="0.09"/><line x1="-10" y1="188" x2="1200" y2="188" stroke="#ffffff" stroke-width="0.6" opacity="0.06"/><line x1="-10" y1="301" x2="1200" y2="301" stroke="#ffffff" stroke-width="1.1" opacity="0.06"/><line x1="-10" y1="290" x2="1200" y2="290" stroke="#ffffff" stroke-width="0.9" opacity="0.10"/><line x1="-10" y1="3" x2="1200" y2="3" stroke="#ffffff" stroke-width="0.6" opacity="0.04"/><line x1="-10" y1="300" x2="1200" y2="300" stroke="#ffffff" stroke-width="0.8" opacity="0.04"/><line x1="-10" y1="102" x2="1200" y2="102" stroke="#ffffff" stroke-width="0.4" opacity="0.04"/><line x1="-10" y1="79" x2="1200" y2="79" stroke="#ffffff" stroke-width="0.4" opacity="0.09"/><line x1="-10" y1="163" x2="1200" y2="163" stroke="#ffffff" stroke-width="0.6" opacity="0.09"/><line x1="-10" y1="64" x2="1200" y2="64" stroke="#ffffff" stroke-width="1.1" opacity="0.04"/><line x1="-10" y1="282" x2="1200" y2="282" stroke="#ffffff" stroke-width="0.5" opacity="0.05"/><line x1="-10" y1="311" x2="1200" y2="311" stroke="#ffffff" stroke-width="1.1" opacity="0.06"/><line x1="-10" y1="112" x2="1200" y2="112" stroke="#ffffff" stroke-width="0.7" opacity="0.08"/><line x1="-10" y1="352" x2="1200" y2="352" stroke="#ffffff" stroke-width="0.7" opacity="0.08"/><line x1="-10" y1="260" x2="1200" y2="260" stroke="#ffffff" stroke-width="1.2" opacity="0.03"/><line x1="-10" y1="104" x2="1200" y2="104" stroke="#ffffff" stroke-width="0.6" opacity="0.08"/><line x1="-10" y1="217" x2="1200" y2="217" stroke="#ffffff" stroke-width="0.5" opacity="0.05"/><line x1="-10" y1="13" x2="1200" y2="13" stroke="#ffffff" stroke-width="0.5" opacity="0.04"/><line x1="-10" y1="15" x2="1200" y2="15" stroke="#ffffff" stroke-width="1.1" opacity="0.06"/><line x1="-10" y1="120" x2="1200" y2="120" stroke="#ffffff" stroke-width="1.0" opacity="0.04"/><line x1="-10" y1="364" x2="1200" y2="364" stroke="#ffffff" stroke-width="0.5" opacity="0.08"/><line x1="-10" y1="48" x2="1200" y2="48" stroke="#ffffff" stroke-width="0.6" opacity="0.08"/><line x1="-10" y1="344" x2="1200" y2="344" stroke="#ffffff" stroke-width="0.8" opacity="0.05"/><line x1="-10" y1="160" x2="1200" y2="160" stroke="#ffffff" stroke-width="1.0" opacity="0.09"/><line x1="-10" y1="175" x2="1200" y2="175" stroke="#ffffff" stroke-width="1.0" opacity="0.07"/><line x1="-10" y1="412" x2="1200" y2="412" stroke="#ffffff" stroke-width="0.4" opacity="0.05"/><line x1="-10" y1="81" x2="1200" y2="81" stroke="#ffffff" stroke-width="1.0" opacity="0.07"/><line x1="-10" y1="56" x2="1200" y2="56" stroke="#ffffff" stroke-width="0.6" opacity="0.03"/><line x1="-10" y1="31" x2="1200" y2="31" stroke="#ffffff" stroke-width="0.6" opacity="0.03"/><line x1="-10" y1="361" x2="1200" y2="361" stroke="#ffffff" stroke-width="0.7" opacity="0.05"/><line x1="-10" y1="331" x2="1200" y2="331" stroke="#ffffff" stroke-width="0.5" opacity="0.09"/><line x1="-10" y1="49" x2="1200" y2="49" stroke="#ffffff" stroke-width="0.9" opacity="0.04"/><line x1="-10" y1="92" x2="1200" y2="92" stroke="#ffffff" stroke-width="1.0" opacity="0.09"/><line x1="-10" y1="188" x2="1200" y2="188" stroke="#ffffff" stroke-width="0.6" opacity="0.06"/><rect x="520" y="120" width="160" height="200" rx="14" fill="#5B6167" stroke="#000" stroke-opacity="0.2"/><circle cx="600" cy="210" r="26" fill="#212529"/><rect x="592" y="210" width="16" height="46" rx="6" fill="#212529"/><rect x="24" y="302" width="301" height="42" rx="8" fill="#160F09" opacity="0.9"/><text x="40" y="330" font-family="Arial" font-size="21" font-weight="bold" fill="#E8A33D" letter-spacing="2">DIGITAL LOCKS &amp; SAFES</text></svg>