<svg xmlns="http://www.w3.org/2000/svg" viewBox="0 0 1200 420" width="1200" height="420" role="img" aria-label="Door Closers"><defs><linearGradient id="g" x1="0" y1="0" x2="0" y2="1"><stop offset="0" stop-color="#6E767D"/><stop offset="0.5" stop-color="#515861"/><stop offset="1" stop-color="#2E343A"/></linearGradient></defs><rect width="1200" height="420" fill="url(#g)"/><line x1="-10" y1="226" x2="1200" y2="226" stroke="#ffffff" stroke-width="0.8" opacity="0.10"/><line x1="-10" y1="28" x2="1200" y2="28" stroke="#ffffff" stroke-width="1.0" opacity="0.08"/><line x1="-10" y1="372" x2="1200" y2="372" stroke="#ffffff" stroke-width="0.8" opacity="0.10"/><line x1="-10" y1="399" x2="1200" y2="399" stroke="#ffffff" stroke-width="0.7" opacity="0.05"/><line x1="-10" y1="334" x2="1200" y2="334" stroke="#ffffff" stroke-width="0.6" opacity="0.03"/><line x1="-10" y1="96" x2="1200" y2="96" stroke="#ffffff" stroke-width="0.9" opacity="0.09"/><line x1="-10" y1="270" x2="1200" y2="270" stroke="#ffffff" stroke-width="1.0" opacity="0.05"/><line x1="-10" y1="328" x2="1200" y2="328" stroke="#ffffff" stroke-width="0.9" opacity="0.07"/><line x1="-10" y1="91" x2="1200" y2="91" stroke="#ffffff" stroke-width="1.2" opacity="0.04"/><line x1="-10" y1="153" x2="1200" y2="153" stroke="#ffffff" stroke-width="0.6" opacity="0.07"/><line x1="-10" y1="285" x2="1200" y2="285" stroke="#ffffff" stroke-width="0.9" opacity="0.07"/><line x1="-10" y1="216" x2="1200" y2="216" stroke="#ffffff" stroke-width="1.2" opacity="0.03"/><line x1="-10" y1="321" x2="1200" y2="321" stroke="#ffffff" stroke-width="1.0" opacity="0.09"/><line x1="-10" y1="224" x2="1200" y2="224" stroke="#ffffff" stroke-width="1.2" opacity="0.10"/><line x1="-10" y1="152" x2="1200" y2="152" stroke="#ffffff" stroke-width="0.6" opacity="0.09"/><line x1="-10" y1="125" x2="1200" y2="125" stroke="#ffffff" stroke-width="0.4" opacity="0.05"/><line x1="-10" y1="268" x2="1200" y2="268" stroke="#ffffff" stroke-width="1.1" opacity="0.08"/><line x1="-10" y1="306" x2="1200" y2="306" stroke="#ffffff" stroke-width="0.6" opacity="0.08"/><line x1="-10" y1="245" x2="1200" y2="245" stroke="#ffffff" stroke-width="0.8" opacity="0.05"/><line x1="-10" y1="420" x2="1200" y2="420" stroke="#ffffff" stroke-width="0.6" opacity="0.06"/><line x1="-10" y1="99" x2="1200" y2="99" stroke="#ffffff" stroke-width="0.9" opacity="0.08"/><line x1="-10" y1="268" x2="1200" y2="268" stroke="#ffffff" stroke-width="0.8" opacity="0.07"/><line x1="-10" y1="408" x2="1200" y2="408" stroke="#ffffff" stroke-width="0.5" opacity="0.08"/><line x1="-10" y1="305" x2="1200" y2="305" stroke="#ffffff" stroke-width="1.1" opacity="0.07"/><line x1="-10" y1="404" x2="1200" y2="404" stroke="#ffffff" stroke-width="1.2" opacity="0.06"/><line x1="-10" y1="115" x2="1200" y2="115" stroke="#ffffff" stroke-width="1.0" opacity="0.05"/><line x1="-10" y1="18" x2="1200" y2="18" stroke="#ffffff" stroke-width="0.6" opacity="0.07"/><line x1="-10" y1="361" x2="1200" y2="361" stroke="#ffffff" stroke-width="0.9" opacity="0.08"/><line x1="-10" y1="91" x2="1200" y2="91" stroke="#ffffff" stroke-width="1.0" opacity="0.07"/><line x1="-10" y1="211" x2="1200" y2="211" stroke="#ffffff" stroke-width="0.6" opacity="0.10"/><line x1="-10" y1="81" x2="1200" y2="81" stroke="#ffffff" stroke-width="0.7" opacity="0.05"/><line x1="-10" y1="250" x2="1200" y2="250" stroke="#ffffff" stroke-width="0.9" opacity="0.07"/><line x1="-10" y1="226" x2="1200" y2="226" stroke="#ffffff" stroke-width="0.8" opacity="0.10"/><line x1="-10" y1="28" x2="1200" y2="28" stroke="#ffffff" stroke-width="1.0" opacity="0.08"/><line x1="-10" y1="372" x2="1200" y2="372" stroke="#ffffff" stroke-width="0.8" opacity="0.10"/><line x1="-10" y1="399" x2="1200" y2="399" stroke="#ffffff" stroke-width="0.7" opacity="0.05"/><line x1="-10" y1="334" x2="1200" y2="334" stroke="#ffffff" stroke-width="0.6" opacity="0.03"/><line x1="-10" y1="96" x2="1200" y2="96" stroke="#ffffff" stroke-width="0.9" opacity="0.09"/><line x1="-10" y1="270" x2="1200" y2="270" stroke="#ffffff" stroke-width="1.0" opacity="0.05"/><line x1="-10" y1="328" x2="1200" y2="328" stroke="#ffffff" stroke-width="0.9" opacity="0.07"/><line x1="-10" y1="91" x2="1200" y2="91" stroke="#ffffff" stroke-width="1.2" opacity="0.04"/><line x1="-10" y1="153" x2="1200" y2="153" stroke="#ffffff" stroke-width="0.6" opacity="0.07"/><line x1="-10" y1="285" x2="1200" y2="285" stroke="#ffffff" stroke-width="0.9" opacity="0.07"/><line x1="-10" y1="216" x2="1200" y2="216" stroke="#ffffff" stroke-width="1.2" opacity="0.03"/><line x1="-10" y1="321" x2="1200" y2="321" stroke="#ffffff" stroke-width="1.0" opacity="0.09"/><line x1="-10" y1="224" x2="1200" y2="224" stroke="#ffffff" stroke-width="1.2" opacity="0.10"/><line x1="-10" y1="152" x2="1200" y2="152" stroke="#ffffff" stroke-width="0.6" opacity="0.09"/><line x1="-10" y1="125" x2="1200" y2="125" stroke="#ffffff" stroke-width="0.4" opacity="0.05"/><line x1="-10" y1="268" x2="1200" y2="268" stroke="#ffffff" stroke-width="1.1" opacity="0.08"/><line x1="-10" y1="306" x2="1200" y2="306" stroke="#ffffff" stroke-width="0.6" opacity="0.08"/><line x1="-10" y1="245" x2="1200" y2="245" stroke="#ffffff" stroke-width="0.8" opacity="0.05"/><line x1="-10" y1="420" x2="1200" y2="420" stroke="#ffffff" stroke-width="0.6" opacity="0.06"/><line x1="-10" y1="99" x2="1200" y2="99" stroke="#ffffff" stroke-width="0.9" opacity="0.08"/><line x1="-10" y1="268" x2="1200" y2="268" stroke="#ffffff" stroke-width="0.8" opacity="0.07"/><line x1="-10" y1="408" x2="1200" y2="408" stroke="#ffffff" stroke-width="0.5" opacity="0.08"/><line x1="-10" y1="305" x2="1200" y2="305" stroke="#ffffff" stroke-width="1.1" opacity="0.07"/><line x1="-10" y1="404" x2="1200" y2="404" stroke="#ffffff" stroke-width="1.2" opacity="0.06"/><line x1="-10" y1="115" x2="1200" y2="115" stroke="#ffffff" stroke-width="1.0" opacity="0.05"/><line x1="-10" y1="18" x2="1200" y2="18" stroke="#ffffff" stroke-width="0.6" opacity="0.07"/><line x1="-10" y1="361" x2="1200" y2="361" stroke="#ffffff" stroke-width="0.9" opacity="0.08"/><line x1="-10" y1="91" x2="1200" y2="91" stroke="#ffffff" stroke-width="1.0" opacity="0.07"/><line x1="-10" y1="211" x2="1200" y2="211" stroke="#ffffff" stroke-width="0.6" opacity="0.10"/><line x1="-10" y1="81" x2="1200" y2="81" stroke="#ffffff" stroke-width="0.7" opacity="0.05"/><line x1="-10" y1="250" x2="1200" y2="250" stroke="#ffffff" stroke-width="0.9" opacity="0.07"/><line x1="-10" y1="226" x2="1200" y2="226" stroke="#ffffff" stroke-width="0.8" opacity="0.10"/><line x1="-10" y1="28" x2="1200" y2="28" stroke="#ffffff" stroke-width="1.0" opacity="0.08"/><line x1="-10" y1="372" x2="1200" y2="372" stroke="#ffffff" stroke-width="0.8" opacity="0.10"/><line x1="-10" y1="399" x2="1200" y2="399" stroke="#ffffff" stroke-width="0.7" opacity="0.05"/><line x1="-10" y1="334" x2="1200" y2="334" stroke="#ffffff" stroke-width="0.6" opacity="0.03"/><line x1="-10" y1="96" x2="1200" y2="96" stroke="#ffffff" stroke-width="0.9" opacity="0.09"/><line x1="-10" y1="270" x2="1200" y2="270" stroke="#ffffff" stroke-width="1.0" opacity="0.05"/><line x1="-10" y1="328" x2="1200" y2="328" stroke="#ffffff" stroke-width="0.9" opacity="0.07"/><line x1="-10" y1="91" x2="1200" y2="91" stroke="#ffffff" stroke-width="1.2" opacity="0.04"/><line x1="-10" y1="153" x2="1200" y2="153" stroke="#ffffff" stroke-width="0.6" opacity="0.07"/><line x1="-10" y1="285" x2="1200" y2="285" stroke="#ffffff" stroke-width="0.9" opacity="0.07"/><line x1="-10" y1="216" x2="1200" y2="216" stroke="#ffffff" stroke-width="1.2" opacity="0.03"/><line x1="-10" y1="321" x2="1200" y2="321" stroke="#ffffff" stroke-width="1.0" opacity="0.09"/><line x1="-10" y1="224" x2="1200" y2="224" stroke="#ffffff" stroke-width="1.2" opacity="0.10"/><line x1="-10" y1="152" x2="1200" y2="152" stroke="#ffffff" stroke-width="0.6" opacity="0.09"/><line x1="-10" y1="125" x2="1200" y2="125" stroke="#ffffff" stroke-width="0.4" opacity="0.05"/><rect x="500" y="170" width="200" height="70" rx="10" fill="#6E767D" stroke="#000" stroke-opacity="0.2"/><rect x="690" y="196" width="120" height="18" rx="9" fill="#515861"/><rect x="24" y="302" width="184" height="42" rx="8" fill="#160F09" opacity="0.9"/><text x="40" y="330" font-family="Arial" font-size="21" font-weight="bold" fill="#E8A33D" letter-spacing="2">DOOR CLOSERS</text></svg>