<svg xmlns="http://www.w3.org/2000/svg" viewBox="0 0 1200 420" width="1200" height="420" role="img" aria-label="Tower Bolts, Aldrops &amp; Hinges"><defs><linearGradient id="g" x1="0" y1="0" x2="0" y2="1"><stop offset="0" stop-color="#9AA0A6"/><stop offset="0.5" stop-color="#767C83"/><stop offset="1" stop-color="#474C52"/></linearGradient></defs><rect width="1200" height="420" fill="url(#g)"/><line x1="-10" y1="348" x2="1200" y2="348" stroke="#ffffff" stroke-width="1.2" opacity="0.10"/><line x1="-10" y1="352" x2="1200" y2="352" stroke="#ffffff" stroke-width="1.1" opacity="0.09"/><line x1="-10" y1="236" x2="1200" y2="236" stroke="#ffffff" stroke-width="0.4" opacity="0.09"/><line x1="-10" y1="364" x2="1200" y2="364" stroke="#ffffff" stroke-width="1.0" opacity="0.09"/><line x1="-10" y1="387" x2="1200" y2="387" stroke="#ffffff" stroke-width="1.2" opacity="0.10"/><line x1="-10" y1="152" x2="1200" y2="152" stroke="#ffffff" stroke-width="0.8" opacity="0.06"/><line x1="-10" y1="236" x2="1200" y2="236" stroke="#ffffff" stroke-width="0.8" opacity="0.07"/><line x1="-10" y1="313" x2="1200" y2="313" stroke="#ffffff" stroke-width="0.4" opacity="0.04"/><line x1="-10" y1="293" x2="1200" y2="293" stroke="#ffffff" stroke-width="1.1" opacity="0.10"/><line x1="-10" y1="234" x2="1200" y2="234" stroke="#ffffff" stroke-width="1.1" opacity="0.06"/><line x1="-10" y1="89" x2="1200" y2="89" stroke="#ffffff" stroke-width="0.9" opacity="0.09"/><line x1="-10" y1="402" x2="1200" y2="402" stroke="#ffffff" stroke-width="1.1" opacity="0.09"/><line x1="-10" y1="362" x2="1200" y2="362" stroke="#ffffff" stroke-width="1.1" opacity="0.07"/><line x1="-10" y1="13" x2="1200" y2="13" stroke="#ffffff" stroke-width="1.0" opacity="0.09"/><line x1="-10" y1="296" x2="1200" y2="296" stroke="#ffffff" stroke-width="1.1" opacity="0.09"/><line x1="-10" y1="408" x2="1200" y2="408" stroke="#ffffff" stroke-width="1.2" opacity="0.06"/><line x1="-10" y1="184" x2="1200" y2="184" stroke="#ffffff" stroke-width="0.8" opacity="0.07"/><line x1="-10" y1="196" x2="1200" y2="196" stroke="#ffffff" stroke-width="0.9" opacity="0.08"/><line x1="-10" y1="7" x2="1200" y2="7" stroke="#ffffff" stroke-width="0.6" opacity="0.08"/><line x1="-10" y1="349" x2="1200" y2="349" stroke="#ffffff" stroke-width="1.2" opacity="0.07"/><line x1="-10" y1="366" x2="1200" y2="366" stroke="#ffffff" stroke-width="0.8" opacity="0.04"/><line x1="-10" y1="250" x2="1200" y2="250" stroke="#ffffff" stroke-width="1.1" opacity="0.10"/><line x1="-10" y1="394" x2="1200" y2="394" stroke="#ffffff" stroke-width="1.1" opacity="0.09"/><line x1="-10" y1="372" x2="1200" y2="372" stroke="#ffffff" stroke-width="0.8" opacity="0.03"/><line x1="-10" y1="334" x2="1200" y2="334" stroke="#ffffff" stroke-width="1.1" opacity="0.08"/><line x1="-10" y1="354" x2="1200" y2="354" stroke="#ffffff" stroke-width="1.1" opacity="0.10"/><line x1="-10" y1="412" x2="1200" y2="412" stroke="#ffffff" stroke-width="0.7" opacity="0.06"/><line x1="-10" y1="208" x2="1200" y2="208" stroke="#ffffff" stroke-width="0.8" opacity="0.06"/><line x1="-10" y1="240" x2="1200" y2="240" stroke="#ffffff" stroke-width="1.0" opacity="0.03"/><line x1="-10" y1="87" x2="1200" y2="87" stroke="#ffffff" stroke-width="1.0" opacity="0.09"/><line x1="-10" y1="417" x2="1200" y2="417" stroke="#ffffff" stroke-width="0.8" opacity="0.09"/><line x1="-10" y1="199" x2="1200" y2="199" stroke="#ffffff" stroke-width="0.6" opacity="0.07"/><line x1="-10" y1="348" x2="1200" y2="348" stroke="#ffffff" stroke-width="1.2" opacity="0.10"/><line x1="-10" y1="352" x2="1200" y2="352" stroke="#ffffff" stroke-width="1.1" opacity="0.09"/><line x1="-10" y1="236" x2="1200" y2="236" stroke="#ffffff" stroke-width="0.4" opacity="0.09"/><line x1="-10" y1="364" x2="1200" y2="364" stroke="#ffffff" stroke-width="1.0" opacity="0.09"/><line x1="-10" y1="387" x2="1200" y2="387" stroke="#ffffff" stroke-width="1.2" opacity="0.10"/><line x1="-10" y1="152" x2="1200" y2="152" stroke="#ffffff" stroke-width="0.8" opacity="0.06"/><line x1="-10" y1="236" x2="1200" y2="236" stroke="#ffffff" stroke-width="0.8" opacity="0.07"/><line x1="-10" y1="313" x2="1200" y2="313" stroke="#ffffff" stroke-width="0.4" opacity="0.04"/><line x1="-10" y1="293" x2="1200" y2="293" stroke="#ffffff" stroke-width="1.1" opacity="0.10"/><line x1="-10" y1="234" x2="1200" y2="234" stroke="#ffffff" stroke-width="1.1" opacity="0.06"/><line x1="-10" y1="89" x2="1200" y2="89" stroke="#ffffff" stroke-width="0.9" opacity="0.09"/><line x1="-10" y1="402" x2="1200" y2="402" stroke="#ffffff" stroke-width="1.1" opacity="0.09"/><line x1="-10" y1="362" x2="1200" y2="362" stroke="#ffffff" stroke-width="1.1" opacity="0.07"/><line x1="-10" y1="13" x2="1200" y2="13" stroke="#ffffff" stroke-width="1.0" opacity="0.09"/><line x1="-10" y1="296" x2="1200" y2="296" stroke="#ffffff" stroke-width="1.1" opacity="0.09"/><line x1="-10" y1="408" x2="1200" y2="408" stroke="#ffffff" stroke-width="1.2" opacity="0.06"/><line x1="-10" y1="184" x2="1200" y2="184" stroke="#ffffff" stroke-width="0.8" opacity="0.07"/><line x1="-10" y1="196" x2="1200" y2="196" stroke="#ffffff" stroke-width="0.9" opacity="0.08"/><line x1="-10" y1="7" x2="1200" y2="7" stroke="#ffffff" stroke-width="0.6" opacity="0.08"/><line x1="-10" y1="349" x2="1200" y2="349" stroke="#ffffff" stroke-width="1.2" opacity="0.07"/><line x1="-10" y1="366" x2="1200" y2="366" stroke="#ffffff" stroke-width="0.8" opacity="0.04"/><line x1="-10" y1="250" x2="1200" y2="250" stroke="#ffffff" stroke-width="1.1" opacity="0.10"/><line x1="-10" y1="394" x2="1200" y2="394" stroke="#ffffff" stroke-width="1.1" opacity="0.09"/><line x1="-10" y1="372" x2="1200" y2="372" stroke="#ffffff" stroke-width="0.8" opacity="0.03"/><line x1="-10" y1="334" x2="1200" y2="334" stroke="#ffffff" stroke-width="1.1" opacity="0.08"/><line x1="-10" y1="354" x2="1200" y2="354" stroke="#ffffff" stroke-width="1.1" opacity="0.10"/><line x1="-10" y1="412" x2="1200" y2="412" stroke="#ffffff" stroke-width="0.7" opacity="0.06"/><line x1="-10" y1="208" x2="1200" y2="208" stroke="#ffffff" stroke-width="0.8" opacity="0.06"/><line x1="-10" y1="240" x2="1200" y2="240" stroke="#ffffff" stroke-width="1.0" opacity="0.03"/><line x1="-10" y1="87" x2="1200" y2="87" stroke="#ffffff" stroke-width="1.0" opacity="0.09"/><line x1="-10" y1="417" x2="1200" y2="417" stroke="#ffffff" stroke-width="0.8" opacity="0.09"/><line x1="-10" y1="199" x2="1200" y2="199" stroke="#ffffff" stroke-width="0.6" opacity="0.07"/><line x1="-10" y1="348" x2="1200" y2="348" stroke="#ffffff" stroke-width="1.2" opacity="0.10"/><line x1="-10" y1="352" x2="1200" y2="352" stroke="#ffffff" stroke-width="1.1" opacity="0.09"/><line x1="-10" y1="236" x2="1200" y2="236" stroke="#ffffff" stroke-width="0.4" opacity="0.09"/><line x1="-10" y1="364" x2="1200" y2="364" stroke="#ffffff" stroke-width="1.0" opacity="0.09"/><line x1="-10" y1="387" x2="1200" y2="387" stroke="#ffffff" stroke-width="1.2" opacity="0.10"/><line x1="-10" y1="152" x2="1200" y2="152" stroke="#ffffff" stroke-width="0.8" opacity="0.06"/><line x1="-10" y1="236" x2="1200" y2="236" stroke="#ffffff" stroke-width="0.8" opacity="0.07"/><line x1="-10" y1="313" x2="1200" y2="313" stroke="#ffffff" stroke-width="0.4" opacity="0.04"/><line x1="-10" y1="293" x2="1200" y2="293" stroke="#ffffff" stroke-width="1.1" opacity="0.10"/><line x1="-10" y1="234" x2="1200" y2="234" stroke="#ffffff" stroke-width="1.1" opacity="0.06"/><line x1="-10" y1="89" x2="1200" y2="89" stroke="#ffffff" stroke-width="0.9" opacity="0.09"/><line x1="-10" y1="402" x2="1200" y2="402" stroke="#ffffff" stroke-width="1.1" opacity="0.09"/><line x1="-10" y1="362" x2="1200" y2="362" stroke="#ffffff" stroke-width="1.1" opacity="0.07"/><line x1="-10" y1="13" x2="1200" y2="13" stroke="#ffffff" stroke-width="1.0" opacity="0.09"/><line x1="-10" y1="296" x2="1200" y2="296" stroke="#ffffff" stroke-width="1.1" opacity="0.09"/><line x1="-10" y1="408" x2="1200" y2="408" stroke="#ffffff" stroke-width="1.2" opacity="0.06"/><rect x="520" y="150" width="160" height="120" rx="10" fill="#9AA0A6" stroke="#000" stroke-opacity="0.2"/><rect x="24" y="302" width="405" height="42" rx="8" fill="#160F09" opacity="0.9"/><text x="40" y="330" font-family="Arial" font-size="21" font-weight="bold" fill="#E8A33D" letter-spacing="2">TOWER BOLTS, ALDROPS &amp; HINGES</text></svg>