<svg xmlns="http://www.w3.org/2000/svg" viewBox="0 0 1200 420" width="1200" height="420" role="img" aria-label="Door Handles, Cabinet Handles &amp; Knobs"><defs><linearGradient id="g" x1="0" y1="0" x2="0" y2="1"><stop offset="0" stop-color="#B99150"/><stop offset="0.5" stop-color="#9A7439"/><stop offset="1" stop-color="#6E5322"/></linearGradient></defs><rect width="1200" height="420" fill="url(#g)"/><line x1="-10" y1="259" x2="1200" y2="259" stroke="#ffffff" stroke-width="0.8" opacity="0.03"/><line x1="-10" y1="250" x2="1200" y2="250" stroke="#ffffff" stroke-width="0.6" opacity="0.09"/><line x1="-10" y1="216" x2="1200" y2="216" stroke="#ffffff" stroke-width="1.1" opacity="0.10"/><line x1="-10" y1="380" x2="1200" y2="380" stroke="#ffffff" stroke-width="1.1" opacity="0.05"/><line x1="-10" y1="8" x2="1200" y2="8" stroke="#ffffff" stroke-width="1.1" opacity="0.05"/><line x1="-10" y1="117" x2="1200" y2="117" stroke="#ffffff" stroke-width="0.6" opacity="0.09"/><line x1="-10" y1="109" x2="1200" y2="109" stroke="#ffffff" stroke-width="0.8" opacity="0.06"/><line x1="-10" y1="137" x2="1200" y2="137" stroke="#ffffff" stroke-width="0.9" opacity="0.08"/><line x1="-10" y1="384" x2="1200" y2="384" stroke="#ffffff" stroke-width="1.2" opacity="0.09"/><line x1="-10" y1="282" x2="1200" y2="282" stroke="#ffffff" stroke-width="0.7" opacity="0.06"/><line x1="-10" y1="77" x2="1200" y2="77" stroke="#ffffff" stroke-width="0.4" opacity="0.07"/><line x1="-10" y1="227" x2="1200" y2="227" stroke="#ffffff" stroke-width="0.4" opacity="0.07"/><line x1="-10" y1="87" x2="1200" y2="87" stroke="#ffffff" stroke-width="1.1" opacity="0.07"/><line x1="-10" y1="376" x2="1200" y2="376" stroke="#ffffff" stroke-width="1.2" opacity="0.09"/><line x1="-10" y1="387" x2="1200" y2="387" stroke="#ffffff" stroke-width="0.7" opacity="0.03"/><line x1="-10" y1="352" x2="1200" y2="352" stroke="#ffffff" stroke-width="0.6" opacity="0.05"/><line x1="-10" y1="100" x2="1200" y2="100" stroke="#ffffff" stroke-width="1.0" opacity="0.05"/><line x1="-10" y1="221" x2="1200" y2="221" stroke="#ffffff" stroke-width="0.8" opacity="0.05"/><line x1="-10" y1="244" x2="1200" y2="244" stroke="#ffffff" stroke-width="1.0" opacity="0.09"/><line x1="-10" y1="405" x2="1200" y2="405" stroke="#ffffff" stroke-width="1.1" opacity="0.08"/><line x1="-10" y1="166" x2="1200" y2="166" stroke="#ffffff" stroke-width="0.8" opacity="0.04"/><line x1="-10" y1="13" x2="1200" y2="13" stroke="#ffffff" stroke-width="0.9" opacity="0.07"/><line x1="-10" y1="13" x2="1200" y2="13" stroke="#ffffff" stroke-width="0.9" opacity="0.04"/><line x1="-10" y1="356" x2="1200" y2="356" stroke="#ffffff" stroke-width="0.8" opacity="0.09"/><line x1="-10" y1="413" x2="1200" y2="413" stroke="#ffffff" stroke-width="1.1" opacity="0.09"/><line x1="-10" y1="148" x2="1200" y2="148" stroke="#ffffff" stroke-width="0.4" opacity="0.09"/><line x1="-10" y1="99" x2="1200" y2="99" stroke="#ffffff" stroke-width="0.6" opacity="0.05"/><line x1="-10" y1="331" x2="1200" y2="331" stroke="#ffffff" stroke-width="0.6" opacity="0.07"/><line x1="-10" y1="209" x2="1200" y2="209" stroke="#ffffff" stroke-width="0.7" opacity="0.07"/><line x1="-10" y1="318" x2="1200" y2="318" stroke="#ffffff" stroke-width="1.1" opacity="0.10"/><line x1="-10" y1="344" x2="1200" y2="344" stroke="#ffffff" stroke-width="0.9" opacity="0.06"/><line x1="-10" y1="194" x2="1200" y2="194" stroke="#ffffff" stroke-width="0.5" opacity="0.03"/><line x1="-10" y1="259" x2="1200" y2="259" stroke="#ffffff" stroke-width="0.8" opacity="0.03"/><line x1="-10" y1="250" x2="1200" y2="250" stroke="#ffffff" stroke-width="0.6" opacity="0.09"/><line x1="-10" y1="216" x2="1200" y2="216" stroke="#ffffff" stroke-width="1.1" opacity="0.10"/><line x1="-10" y1="380" x2="1200" y2="380" stroke="#ffffff" stroke-width="1.1" opacity="0.05"/><line x1="-10" y1="8" x2="1200" y2="8" stroke="#ffffff" stroke-width="1.1" opacity="0.05"/><line x1="-10" y1="117" x2="1200" y2="117" stroke="#ffffff" stroke-width="0.6" opacity="0.09"/><line x1="-10" y1="109" x2="1200" y2="109" stroke="#ffffff" stroke-width="0.8" opacity="0.06"/><line x1="-10" y1="137" x2="1200" y2="137" stroke="#ffffff" stroke-width="0.9" opacity="0.08"/><line x1="-10" y1="384" x2="1200" y2="384" stroke="#ffffff" stroke-width="1.2" opacity="0.09"/><line x1="-10" y1="282" x2="1200" y2="282" stroke="#ffffff" stroke-width="0.7" opacity="0.06"/><line x1="-10" y1="77" x2="1200" y2="77" stroke="#ffffff" stroke-width="0.4" opacity="0.07"/><line x1="-10" y1="227" x2="1200" y2="227" stroke="#ffffff" stroke-width="0.4" opacity="0.07"/><line x1="-10" y1="87" x2="1200" y2="87" stroke="#ffffff" stroke-width="1.1" opacity="0.07"/><line x1="-10" y1="376" x2="1200" y2="376" stroke="#ffffff" stroke-width="1.2" opacity="0.09"/><line x1="-10" y1="387" x2="1200" y2="387" stroke="#ffffff" stroke-width="0.7" opacity="0.03"/><line x1="-10" y1="352" x2="1200" y2="352" stroke="#ffffff" stroke-width="0.6" opacity="0.05"/><line x1="-10" y1="100" x2="1200" y2="100" stroke="#ffffff" stroke-width="1.0" opacity="0.05"/><line x1="-10" y1="221" x2="1200" y2="221" stroke="#ffffff" stroke-width="0.8" opacity="0.05"/><line x1="-10" y1="244" x2="1200" y2="244" stroke="#ffffff" stroke-width="1.0" opacity="0.09"/><line x1="-10" y1="405" x2="1200" y2="405" stroke="#ffffff" stroke-width="1.1" opacity="0.08"/><line x1="-10" y1="166" x2="1200" y2="166" stroke="#ffffff" stroke-width="0.8" opacity="0.04"/><line x1="-10" y1="13" x2="1200" y2="13" stroke="#ffffff" stroke-width="0.9" opacity="0.07"/><line x1="-10" y1="13" x2="1200" y2="13" stroke="#ffffff" stroke-width="0.9" opacity="0.04"/><line x1="-10" y1="356" x2="1200" y2="356" stroke="#ffffff" stroke-width="0.8" opacity="0.09"/><line x1="-10" y1="413" x2="1200" y2="413" stroke="#ffffff" stroke-width="1.1" opacity="0.09"/><line x1="-10" y1="148" x2="1200" y2="148" stroke="#ffffff" stroke-width="0.4" opacity="0.09"/><line x1="-10" y1="99" x2="1200" y2="99" stroke="#ffffff" stroke-width="0.6" opacity="0.05"/><line x1="-10" y1="331" x2="1200" y2="331" stroke="#ffffff" stroke-width="0.6" opacity="0.07"/><line x1="-10" y1="209" x2="1200" y2="209" stroke="#ffffff" stroke-width="0.7" opacity="0.07"/><line x1="-10" y1="318" x2="1200" y2="318" stroke="#ffffff" stroke-width="1.1" opacity="0.10"/><line x1="-10" y1="344" x2="1200" y2="344" stroke="#ffffff" stroke-width="0.9" opacity="0.06"/><line x1="-10" y1="194" x2="1200" y2="194" stroke="#ffffff" stroke-width="0.5" opacity="0.03"/><line x1="-10" y1="259" x2="1200" y2="259" stroke="#ffffff" stroke-width="0.8" opacity="0.03"/><line x1="-10" y1="250" x2="1200" y2="250" stroke="#ffffff" stroke-width="0.6" opacity="0.09"/><line x1="-10" y1="216" x2="1200" y2="216" stroke="#ffffff" stroke-width="1.1" opacity="0.10"/><line x1="-10" y1="380" x2="1200" y2="380" stroke="#ffffff" stroke-width="1.1" opacity="0.05"/><line x1="-10" y1="8" x2="1200" y2="8" stroke="#ffffff" stroke-width="1.1" opacity="0.05"/><line x1="-10" y1="117" x2="1200" y2="117" stroke="#ffffff" stroke-width="0.6" opacity="0.09"/><line x1="-10" y1="109" x2="1200" y2="109" stroke="#ffffff" stroke-width="0.8" opacity="0.06"/><line x1="-10" y1="137" x2="1200" y2="137" stroke="#ffffff" stroke-width="0.9" opacity="0.08"/><line x1="-10" y1="384" x2="1200" y2="384" stroke="#ffffff" stroke-width="1.2" opacity="0.09"/><line x1="-10" y1="282" x2="1200" y2="282" stroke="#ffffff" stroke-width="0.7" opacity="0.06"/><line x1="-10" y1="77" x2="1200" y2="77" stroke="#ffffff" stroke-width="0.4" opacity="0.07"/><line x1="-10" y1="227" x2="1200" y2="227" stroke="#ffffff" stroke-width="0.4" opacity="0.07"/><line x1="-10" y1="87" x2="1200" y2="87" stroke="#ffffff" stroke-width="1.1" opacity="0.07"/><line x1="-10" y1="376" x2="1200" y2="376" stroke="#ffffff" stroke-width="1.2" opacity="0.09"/><line x1="-10" y1="387" x2="1200" y2="387" stroke="#ffffff" stroke-width="0.7" opacity="0.03"/><line x1="-10" y1="352" x2="1200" y2="352" stroke="#ffffff" stroke-width="0.6" opacity="0.05"/><rect x="480" y="150" width="240" height="26" rx="13" fill="#B99150" stroke="#000" stroke-opacity="0.2"/><rect x="486" y="120" width="20" height="60" rx="8" fill="#9A7439"/><rect x="694" y="120" width="20" height="60" rx="8" fill="#9A7439"/><rect x="24" y="302" width="509" height="42" rx="8" fill="#160F09" opacity="0.9"/><text x="40" y="330" font-family="Arial" font-size="21" font-weight="bold" fill="#E8A33D" letter-spacing="2">DOOR HANDLES, CABINET HANDLES &amp; KNOBS</text></svg>