<svg xmlns="http://www.w3.org/2000/svg" viewBox="0 0 1200 420" width="1200" height="420" role="img" aria-label="Door Locks"><defs><linearGradient id="g" x1="0" y1="0" x2="0" y2="1"><stop offset="0" stop-color="#7C848B"/><stop offset="0.5" stop-color="#5A616A"/><stop offset="1" stop-color="#343A40"/></linearGradient></defs><rect width="1200" height="420" fill="url(#g)"/><line x1="-10" y1="130" x2="1200" y2="130" stroke="#ffffff" stroke-width="0.5" opacity="0.09"/><line x1="-10" y1="5" x2="1200" y2="5" stroke="#ffffff" stroke-width="0.4" opacity="0.06"/><line x1="-10" y1="49" x2="1200" y2="49" stroke="#ffffff" stroke-width="0.8" opacity="0.04"/><line x1="-10" y1="25" x2="1200" y2="25" stroke="#ffffff" stroke-width="1.0" opacity="0.04"/><line x1="-10" y1="209" x2="1200" y2="209" stroke="#ffffff" stroke-width="0.7" opacity="0.05"/><line x1="-10" y1="362" x2="1200" y2="362" stroke="#ffffff" stroke-width="0.9" opacity="0.05"/><line x1="-10" y1="343" x2="1200" y2="343" stroke="#ffffff" stroke-width="0.9" opacity="0.07"/><line x1="-10" y1="20" x2="1200" y2="20" stroke="#ffffff" stroke-width="1.2" opacity="0.03"/><line x1="-10" y1="247" x2="1200" y2="247" stroke="#ffffff" stroke-width="0.9" opacity="0.08"/><line x1="-10" y1="214" x2="1200" y2="214" stroke="#ffffff" stroke-width="0.4" opacity="0.04"/><line x1="-10" y1="15" x2="1200" y2="15" stroke="#ffffff" stroke-width="1.1" opacity="0.05"/><line x1="-10" y1="28" x2="1200" y2="28" stroke="#ffffff" stroke-width="1.1" opacity="0.03"/><line x1="-10" y1="20" x2="1200" y2="20" stroke="#ffffff" stroke-width="0.8" opacity="0.04"/><line x1="-10" y1="212" x2="1200" y2="212" stroke="#ffffff" stroke-width="0.5" opacity="0.03"/><line x1="-10" y1="320" x2="1200" y2="320" stroke="#ffffff" stroke-width="0.5" opacity="0.06"/><line x1="-10" y1="176" x2="1200" y2="176" stroke="#ffffff" stroke-width="0.7" opacity="0.09"/><line x1="-10" y1="268" x2="1200" y2="268" stroke="#ffffff" stroke-width="0.6" opacity="0.09"/><line x1="-10" y1="244" x2="1200" y2="244" stroke="#ffffff" stroke-width="0.8" opacity="0.03"/><line x1="-10" y1="395" x2="1200" y2="395" stroke="#ffffff" stroke-width="0.4" opacity="0.07"/><line x1="-10" y1="237" x2="1200" y2="237" stroke="#ffffff" stroke-width="1.0" opacity="0.07"/><line x1="-10" y1="13" x2="1200" y2="13" stroke="#ffffff" stroke-width="0.5" opacity="0.03"/><line x1="-10" y1="380" x2="1200" y2="380" stroke="#ffffff" stroke-width="0.6" opacity="0.03"/><line x1="-10" y1="372" x2="1200" y2="372" stroke="#ffffff" stroke-width="0.4" opacity="0.03"/><line x1="-10" y1="199" x2="1200" y2="199" stroke="#ffffff" stroke-width="0.5" opacity="0.07"/><line x1="-10" y1="56" x2="1200" y2="56" stroke="#ffffff" stroke-width="0.4" opacity="0.08"/><line x1="-10" y1="74" x2="1200" y2="74" stroke="#ffffff" stroke-width="0.8" opacity="0.06"/><line x1="-10" y1="133" x2="1200" y2="133" stroke="#ffffff" stroke-width="1.1" opacity="0.07"/><line x1="-10" y1="107" x2="1200" y2="107" stroke="#ffffff" stroke-width="1.1" opacity="0.07"/><line x1="-10" y1="234" x2="1200" y2="234" stroke="#ffffff" stroke-width="0.4" opacity="0.10"/><line x1="-10" y1="2" x2="1200" y2="2" stroke="#ffffff" stroke-width="0.9" opacity="0.07"/><line x1="-10" y1="305" x2="1200" y2="305" stroke="#ffffff" stroke-width="0.8" opacity="0.03"/><line x1="-10" y1="48" x2="1200" y2="48" stroke="#ffffff" stroke-width="0.4" opacity="0.09"/><line x1="-10" y1="130" x2="1200" y2="130" stroke="#ffffff" stroke-width="0.5" opacity="0.09"/><line x1="-10" y1="5" x2="1200" y2="5" stroke="#ffffff" stroke-width="0.4" opacity="0.06"/><line x1="-10" y1="49" x2="1200" y2="49" stroke="#ffffff" stroke-width="0.8" opacity="0.04"/><line x1="-10" y1="25" x2="1200" y2="25" stroke="#ffffff" stroke-width="1.0" opacity="0.04"/><line x1="-10" y1="209" x2="1200" y2="209" stroke="#ffffff" stroke-width="0.7" opacity="0.05"/><line x1="-10" y1="362" x2="1200" y2="362" stroke="#ffffff" stroke-width="0.9" opacity="0.05"/><line x1="-10" y1="343" x2="1200" y2="343" stroke="#ffffff" stroke-width="0.9" opacity="0.07"/><line x1="-10" y1="20" x2="1200" y2="20" stroke="#ffffff" stroke-width="1.2" opacity="0.03"/><line x1="-10" y1="247" x2="1200" y2="247" stroke="#ffffff" stroke-width="0.9" opacity="0.08"/><line x1="-10" y1="214" x2="1200" y2="214" stroke="#ffffff" stroke-width="0.4" opacity="0.04"/><line x1="-10" y1="15" x2="1200" y2="15" stroke="#ffffff" stroke-width="1.1" opacity="0.05"/><line x1="-10" y1="28" x2="1200" y2="28" stroke="#ffffff" stroke-width="1.1" opacity="0.03"/><line x1="-10" y1="20" x2="1200" y2="20" stroke="#ffffff" stroke-width="0.8" opacity="0.04"/><line x1="-10" y1="212" x2="1200" y2="212" stroke="#ffffff" stroke-width="0.5" opacity="0.03"/><line x1="-10" y1="320" x2="1200" y2="320" stroke="#ffffff" stroke-width="0.5" opacity="0.06"/><line x1="-10" y1="176" x2="1200" y2="176" stroke="#ffffff" stroke-width="0.7" opacity="0.09"/><line x1="-10" y1="268" x2="1200" y2="268" stroke="#ffffff" stroke-width="0.6" opacity="0.09"/><line x1="-10" y1="244" x2="1200" y2="244" stroke="#ffffff" stroke-width="0.8" opacity="0.03"/><line x1="-10" y1="395" x2="1200" y2="395" stroke="#ffffff" stroke-width="0.4" opacity="0.07"/><line x1="-10" y1="237" x2="1200" y2="237" stroke="#ffffff" stroke-width="1.0" opacity="0.07"/><line x1="-10" y1="13" x2="1200" y2="13" stroke="#ffffff" stroke-width="0.5" opacity="0.03"/><line x1="-10" y1="380" x2="1200" y2="380" stroke="#ffffff" stroke-width="0.6" opacity="0.03"/><line x1="-10" y1="372" x2="1200" y2="372" stroke="#ffffff" stroke-width="0.4" opacity="0.03"/><line x1="-10" y1="199" x2="1200" y2="199" stroke="#ffffff" stroke-width="0.5" opacity="0.07"/><line x1="-10" y1="56" x2="1200" y2="56" stroke="#ffffff" stroke-width="0.4" opacity="0.08"/><line x1="-10" y1="74" x2="1200" y2="74" stroke="#ffffff" stroke-width="0.8" opacity="0.06"/><line x1="-10" y1="133" x2="1200" y2="133" stroke="#ffffff" stroke-width="1.1" opacity="0.07"/><line x1="-10" y1="107" x2="1200" y2="107" stroke="#ffffff" stroke-width="1.1" opacity="0.07"/><line x1="-10" y1="234" x2="1200" y2="234" stroke="#ffffff" stroke-width="0.4" opacity="0.10"/><line x1="-10" y1="2" x2="1200" y2="2" stroke="#ffffff" stroke-width="0.9" opacity="0.07"/><line x1="-10" y1="305" x2="1200" y2="305" stroke="#ffffff" stroke-width="0.8" opacity="0.03"/><line x1="-10" y1="48" x2="1200" y2="48" stroke="#ffffff" stroke-width="0.4" opacity="0.09"/><line x1="-10" y1="130" x2="1200" y2="130" stroke="#ffffff" stroke-width="0.5" opacity="0.09"/><line x1="-10" y1="5" x2="1200" y2="5" stroke="#ffffff" stroke-width="0.4" opacity="0.06"/><line x1="-10" y1="49" x2="1200" y2="49" stroke="#ffffff" stroke-width="0.8" opacity="0.04"/><line x1="-10" y1="25" x2="1200" y2="25" stroke="#ffffff" stroke-width="1.0" opacity="0.04"/><line x1="-10" y1="209" x2="1200" y2="209" stroke="#ffffff" stroke-width="0.7" opacity="0.05"/><line x1="-10" y1="362" x2="1200" y2="362" stroke="#ffffff" stroke-width="0.9" opacity="0.05"/><line x1="-10" y1="343" x2="1200" y2="343" stroke="#ffffff" stroke-width="0.9" opacity="0.07"/><line x1="-10" y1="20" x2="1200" y2="20" stroke="#ffffff" stroke-width="1.2" opacity="0.03"/><line x1="-10" y1="247" x2="1200" y2="247" stroke="#ffffff" stroke-width="0.9" opacity="0.08"/><line x1="-10" y1="214" x2="1200" y2="214" stroke="#ffffff" stroke-width="0.4" opacity="0.04"/><line x1="-10" y1="15" x2="1200" y2="15" stroke="#ffffff" stroke-width="1.1" opacity="0.05"/><line x1="-10" y1="28" x2="1200" y2="28" stroke="#ffffff" stroke-width="1.1" opacity="0.03"/><line x1="-10" y1="20" x2="1200" y2="20" stroke="#ffffff" stroke-width="0.8" opacity="0.04"/><line x1="-10" y1="212" x2="1200" y2="212" stroke="#ffffff" stroke-width="0.5" opacity="0.03"/><line x1="-10" y1="320" x2="1200" y2="320" stroke="#ffffff" stroke-width="0.5" opacity="0.06"/><line x1="-10" y1="176" x2="1200" y2="176" stroke="#ffffff" stroke-width="0.7" opacity="0.09"/><rect x="520" y="120" width="160" height="200" rx="14" fill="#7C848B" stroke="#000" stroke-opacity="0.2"/><circle cx="600" cy="210" r="26" fill="#343A40"/><rect x="592" y="210" width="16" height="46" rx="6" fill="#343A40"/><rect x="24" y="302" width="158" height="42" rx="8" fill="#160F09" opacity="0.9"/><text x="40" y="330" font-family="Arial" font-size="21" font-weight="bold" fill="#E8A33D" letter-spacing="2">DOOR LOCKS</text></svg>