<svg xmlns="http://www.w3.org/2000/svg" viewBox="0 0 1200 420" width="1200" height="420" role="img" aria-label="Kitchen Hardware &amp; Accessories"><defs><linearGradient id="g" x1="0" y1="0" x2="0" y2="1"><stop offset="0" stop-color="#8C949B"/><stop offset="0.5" stop-color="#6B727A"/><stop offset="1" stop-color="#3F454B"/></linearGradient></defs><rect width="1200" height="420" fill="url(#g)"/><line x1="-10" y1="366" x2="1200" y2="366" stroke="#ffffff" stroke-width="1.0" opacity="0.06"/><line x1="-10" y1="385" x2="1200" y2="385" stroke="#ffffff" stroke-width="0.9" opacity="0.05"/><line x1="-10" y1="296" x2="1200" y2="296" stroke="#ffffff" stroke-width="0.9" opacity="0.06"/><line x1="-10" y1="41" x2="1200" y2="41" stroke="#ffffff" stroke-width="1.1" opacity="0.09"/><line x1="-10" y1="54" x2="1200" y2="54" stroke="#ffffff" stroke-width="0.6" opacity="0.09"/><line x1="-10" y1="356" x2="1200" y2="356" stroke="#ffffff" stroke-width="1.0" opacity="0.08"/><line x1="-10" y1="237" x2="1200" y2="237" stroke="#ffffff" stroke-width="0.9" opacity="0.07"/><line x1="-10" y1="348" x2="1200" y2="348" stroke="#ffffff" stroke-width="0.4" opacity="0.06"/><line x1="-10" y1="18" x2="1200" y2="18" stroke="#ffffff" stroke-width="0.7" opacity="0.04"/><line x1="-10" y1="193" x2="1200" y2="193" stroke="#ffffff" stroke-width="0.4" opacity="0.08"/><line x1="-10" y1="152" x2="1200" y2="152" stroke="#ffffff" stroke-width="0.5" opacity="0.09"/><line x1="-10" y1="301" x2="1200" y2="301" stroke="#ffffff" stroke-width="0.8" opacity="0.09"/><line x1="-10" y1="270" x2="1200" y2="270" stroke="#ffffff" stroke-width="0.6" opacity="0.08"/><line x1="-10" y1="273" x2="1200" y2="273" stroke="#ffffff" stroke-width="0.8" opacity="0.04"/><line x1="-10" y1="385" x2="1200" y2="385" stroke="#ffffff" stroke-width="1.1" opacity="0.04"/><line x1="-10" y1="105" x2="1200" y2="105" stroke="#ffffff" stroke-width="1.1" opacity="0.09"/><line x1="-10" y1="290" x2="1200" y2="290" stroke="#ffffff" stroke-width="1.0" opacity="0.07"/><line x1="-10" y1="247" x2="1200" y2="247" stroke="#ffffff" stroke-width="0.9" opacity="0.09"/><line x1="-10" y1="18" x2="1200" y2="18" stroke="#ffffff" stroke-width="0.8" opacity="0.03"/><line x1="-10" y1="137" x2="1200" y2="137" stroke="#ffffff" stroke-width="0.6" opacity="0.06"/><line x1="-10" y1="8" x2="1200" y2="8" stroke="#ffffff" stroke-width="0.9" opacity="0.06"/><line x1="-10" y1="43" x2="1200" y2="43" stroke="#ffffff" stroke-width="1.1" opacity="0.08"/><line x1="-10" y1="188" x2="1200" y2="188" stroke="#ffffff" stroke-width="1.1" opacity="0.08"/><line x1="-10" y1="107" x2="1200" y2="107" stroke="#ffffff" stroke-width="1.0" opacity="0.08"/><line x1="-10" y1="198" x2="1200" y2="198" stroke="#ffffff" stroke-width="0.5" opacity="0.09"/><line x1="-10" y1="369" x2="1200" y2="369" stroke="#ffffff" stroke-width="0.5" opacity="0.05"/><line x1="-10" y1="379" x2="1200" y2="379" stroke="#ffffff" stroke-width="1.1" opacity="0.08"/><line x1="-10" y1="305" x2="1200" y2="305" stroke="#ffffff" stroke-width="0.9" opacity="0.07"/><line x1="-10" y1="264" x2="1200" y2="264" stroke="#ffffff" stroke-width="1.1" opacity="0.03"/><line x1="-10" y1="188" x2="1200" y2="188" stroke="#ffffff" stroke-width="0.4" opacity="0.05"/><line x1="-10" y1="89" x2="1200" y2="89" stroke="#ffffff" stroke-width="0.8" opacity="0.03"/><line x1="-10" y1="283" x2="1200" y2="283" stroke="#ffffff" stroke-width="0.7" opacity="0.04"/><line x1="-10" y1="366" x2="1200" y2="366" stroke="#ffffff" stroke-width="1.0" opacity="0.06"/><line x1="-10" y1="385" x2="1200" y2="385" stroke="#ffffff" stroke-width="0.9" opacity="0.05"/><line x1="-10" y1="296" x2="1200" y2="296" stroke="#ffffff" stroke-width="0.9" opacity="0.06"/><line x1="-10" y1="41" x2="1200" y2="41" stroke="#ffffff" stroke-width="1.1" opacity="0.09"/><line x1="-10" y1="54" x2="1200" y2="54" stroke="#ffffff" stroke-width="0.6" opacity="0.09"/><line x1="-10" y1="356" x2="1200" y2="356" stroke="#ffffff" stroke-width="1.0" opacity="0.08"/><line x1="-10" y1="237" x2="1200" y2="237" stroke="#ffffff" stroke-width="0.9" opacity="0.07"/><line x1="-10" y1="348" x2="1200" y2="348" stroke="#ffffff" stroke-width="0.4" opacity="0.06"/><line x1="-10" y1="18" x2="1200" y2="18" stroke="#ffffff" stroke-width="0.7" opacity="0.04"/><line x1="-10" y1="193" x2="1200" y2="193" stroke="#ffffff" stroke-width="0.4" opacity="0.08"/><line x1="-10" y1="152" x2="1200" y2="152" stroke="#ffffff" stroke-width="0.5" opacity="0.09"/><line x1="-10" y1="301" x2="1200" y2="301" stroke="#ffffff" stroke-width="0.8" opacity="0.09"/><line x1="-10" y1="270" x2="1200" y2="270" stroke="#ffffff" stroke-width="0.6" opacity="0.08"/><line x1="-10" y1="273" x2="1200" y2="273" stroke="#ffffff" stroke-width="0.8" opacity="0.04"/><line x1="-10" y1="385" x2="1200" y2="385" stroke="#ffffff" stroke-width="1.1" opacity="0.04"/><line x1="-10" y1="105" x2="1200" y2="105" stroke="#ffffff" stroke-width="1.1" opacity="0.09"/><line x1="-10" y1="290" x2="1200" y2="290" stroke="#ffffff" stroke-width="1.0" opacity="0.07"/><line x1="-10" y1="247" x2="1200" y2="247" stroke="#ffffff" stroke-width="0.9" opacity="0.09"/><line x1="-10" y1="18" x2="1200" y2="18" stroke="#ffffff" stroke-width="0.8" opacity="0.03"/><line x1="-10" y1="137" x2="1200" y2="137" stroke="#ffffff" stroke-width="0.6" opacity="0.06"/><line x1="-10" y1="8" x2="1200" y2="8" stroke="#ffffff" stroke-width="0.9" opacity="0.06"/><line x1="-10" y1="43" x2="1200" y2="43" stroke="#ffffff" stroke-width="1.1" opacity="0.08"/><line x1="-10" y1="188" x2="1200" y2="188" stroke="#ffffff" stroke-width="1.1" opacity="0.08"/><line x1="-10" y1="107" x2="1200" y2="107" stroke="#ffffff" stroke-width="1.0" opacity="0.08"/><line x1="-10" y1="198" x2="1200" y2="198" stroke="#ffffff" stroke-width="0.5" opacity="0.09"/><line x1="-10" y1="369" x2="1200" y2="369" stroke="#ffffff" stroke-width="0.5" opacity="0.05"/><line x1="-10" y1="379" x2="1200" y2="379" stroke="#ffffff" stroke-width="1.1" opacity="0.08"/><line x1="-10" y1="305" x2="1200" y2="305" stroke="#ffffff" stroke-width="0.9" opacity="0.07"/><line x1="-10" y1="264" x2="1200" y2="264" stroke="#ffffff" stroke-width="1.1" opacity="0.03"/><line x1="-10" y1="188" x2="1200" y2="188" stroke="#ffffff" stroke-width="0.4" opacity="0.05"/><line x1="-10" y1="89" x2="1200" y2="89" stroke="#ffffff" stroke-width="0.8" opacity="0.03"/><line x1="-10" y1="283" x2="1200" y2="283" stroke="#ffffff" stroke-width="0.7" opacity="0.04"/><line x1="-10" y1="366" x2="1200" y2="366" stroke="#ffffff" stroke-width="1.0" opacity="0.06"/><line x1="-10" y1="385" x2="1200" y2="385" stroke="#ffffff" stroke-width="0.9" opacity="0.05"/><line x1="-10" y1="296" x2="1200" y2="296" stroke="#ffffff" stroke-width="0.9" opacity="0.06"/><line x1="-10" y1="41" x2="1200" y2="41" stroke="#ffffff" stroke-width="1.1" opacity="0.09"/><line x1="-10" y1="54" x2="1200" y2="54" stroke="#ffffff" stroke-width="0.6" opacity="0.09"/><line x1="-10" y1="356" x2="1200" y2="356" stroke="#ffffff" stroke-width="1.0" opacity="0.08"/><line x1="-10" y1="237" x2="1200" y2="237" stroke="#ffffff" stroke-width="0.9" opacity="0.07"/><line x1="-10" y1="348" x2="1200" y2="348" stroke="#ffffff" stroke-width="0.4" opacity="0.06"/><line x1="-10" y1="18" x2="1200" y2="18" stroke="#ffffff" stroke-width="0.7" opacity="0.04"/><line x1="-10" y1="193" x2="1200" y2="193" stroke="#ffffff" stroke-width="0.4" opacity="0.08"/><line x1="-10" y1="152" x2="1200" y2="152" stroke="#ffffff" stroke-width="0.5" opacity="0.09"/><line x1="-10" y1="301" x2="1200" y2="301" stroke="#ffffff" stroke-width="0.8" opacity="0.09"/><line x1="-10" y1="270" x2="1200" y2="270" stroke="#ffffff" stroke-width="0.6" opacity="0.08"/><line x1="-10" y1="273" x2="1200" y2="273" stroke="#ffffff" stroke-width="0.8" opacity="0.04"/><line x1="-10" y1="385" x2="1200" y2="385" stroke="#ffffff" stroke-width="1.1" opacity="0.04"/><line x1="-10" y1="105" x2="1200" y2="105" stroke="#ffffff" stroke-width="1.1" opacity="0.09"/><rect x="500" y="150" width="70" height="120" rx="8" fill="#8C949B" stroke="#000" stroke-opacity="0.15"/><rect x="600" y="150" width="70" height="120" rx="8" fill="#8C949B" stroke="#000" stroke-opacity="0.15"/><rect x="700" y="150" width="70" height="120" rx="8" fill="#8C949B" stroke="#000" stroke-opacity="0.15"/><rect x="24" y="302" width="418" height="42" rx="8" fill="#160F09" opacity="0.9"/><text x="40" y="330" font-family="Arial" font-size="21" font-weight="bold" fill="#E8A33D" letter-spacing="2">KITCHEN HARDWARE &amp; ACCESSORIES</text></svg>