<svg xmlns="http://www.w3.org/2000/svg" viewBox="0 0 1200 420" width="1200" height="420" role="img" aria-label="Acoustic Panels"><rect width="1200" height="420" fill="#6E6A62"/><rect x="0" y="40" width="18" height="340" rx="6" fill="#4E4A42" opacity="0.8"/><rect x="31" y="40" width="11" height="340" rx="6" fill="#4E4A42" opacity="0.8"/><rect x="61" y="40" width="15" height="340" rx="6" fill="#4E4A42" opacity="0.8"/><rect x="93" y="40" width="12" height="340" rx="6" fill="#4E4A42" opacity="0.8"/><rect x="117" y="40" width="18" height="340" rx="6" fill="#4E4A42" opacity="0.8"/><rect x="150" y="40" width="17" height="340" rx="6" fill="#4E4A42" opacity="0.8"/><rect x="182" y="40" width="15" height="340" rx="6" fill="#4E4A42" opacity="0.8"/><rect x="211" y="40" width="14" height="340" rx="6" fill="#4E4A42" opacity="0.8"/><rect x="242" y="40" width="17" height="340" rx="6" fill="#4E4A42" opacity="0.8"/><rect x="273" y="40" width="12" height="340" rx="6" fill="#4E4A42" opacity="0.8"/><rect x="307" y="40" width="15" height="340" rx="6" fill="#4E4A42" opacity="0.8"/><rect x="339" y="40" width="18" height="340" rx="6" fill="#4E4A42" opacity="0.8"/><rect x="372" y="40" width="12" height="340" rx="6" fill="#4E4A42" opacity="0.8"/><rect x="397" y="40" width="14" height="340" rx="6" fill="#4E4A42" opacity="0.8"/><rect x="423" y="40" width="13" height="340" rx="6" fill="#4E4A42" opacity="0.8"/><rect x="455" y="40" width="11" height="340" rx="6" fill="#4E4A42" opacity="0.8"/><rect x="487" y="40" width="18" height="340" rx="6" fill="#4E4A42" opacity="0.8"/><rect x="518" y="40" width="11" height="340" rx="6" fill="#4E4A42" opacity="0.8"/><rect x="548" y="40" width="15" height="340" rx="6" fill="#4E4A42" opacity="0.8"/><rect x="580" y="40" width="12" height="340" rx="6" fill="#4E4A42" opacity="0.8"/><rect x="604" y="40" width="18" height="340" rx="6" fill="#4E4A42" opacity="0.8"/><rect x="637" y="40" width="17" height="340" rx="6" fill="#4E4A42" opacity="0.8"/><rect x="670" y="40" width="15" height="340" rx="6" fill="#4E4A42" opacity="0.8"/><rect x="699" y="40" width="14" height="340" rx="6" fill="#4E4A42" opacity="0.8"/><rect x="729" y="40" width="17" height="340" rx="6" fill="#4E4A42" opacity="0.8"/><rect x="761" y="40" width="12" height="340" rx="6" fill="#4E4A42" opacity="0.8"/><rect x="794" y="40" width="15" height="340" rx="6" fill="#4E4A42" opacity="0.8"/><rect x="826" y="40" width="18" height="340" rx="6" fill="#4E4A42" opacity="0.8"/><rect x="859" y="40" width="12" height="340" rx="6" fill="#4E4A42" opacity="0.8"/><rect x="884" y="40" width="14" height="340" rx="6" fill="#4E4A42" opacity="0.8"/><rect x="910" y="40" width="13" height="340" rx="6" fill="#4E4A42" opacity="0.8"/><rect x="942" y="40" width="11" height="340" rx="6" fill="#4E4A42" opacity="0.8"/><rect x="974" y="40" width="18" height="340" rx="6" fill="#4E4A42" opacity="0.8"/><rect x="1005" y="40" width="11" height="340" rx="6" fill="#4E4A42" opacity="0.8"/><rect x="1035" y="40" width="15" height="340" rx="6" fill="#4E4A42" opacity="0.8"/><rect x="1067" y="40" width="12" height="340" rx="6" fill="#4E4A42" opacity="0.8"/><rect x="1092" y="40" width="18" height="340" rx="6" fill="#4E4A42" opacity="0.8"/><rect x="1124" y="40" width="17" height="340" rx="6" fill="#4E4A42" opacity="0.8"/><rect x="1157" y="40" width="15" height="340" rx="6" fill="#4E4A42" opacity="0.8"/><rect x="1186" y="40" width="14" height="340" rx="6" fill="#4E4A42" opacity="0.8"/><rect x="24" y="302" width="223" height="42" rx="8" fill="#160F09" opacity="0.9"/><text x="40" y="330" font-family="Arial" font-size="20" font-weight="bold" fill="#E8A33D" letter-spacing="2">ACOUSTIC PANELS</text></svg>