<svg xmlns="http://www.w3.org/2000/svg" viewBox="0 0 1200 420" width="1200" height="420" role="img" aria-label="Charcoal Panels &amp; Sheets"><rect width="1200" height="420" fill="#2E2A26"/><line x1="-10" y1="89" x2="1200" y2="89" stroke="#3E3934" stroke-width="0.7" opacity="0.28"/><line x1="-10" y1="245" x2="1200" y2="245" stroke="#3E3934" stroke-width="1.2" opacity="0.25"/><line x1="-10" y1="58" x2="1200" y2="58" stroke="#3E3934" stroke-width="1.1" opacity="0.15"/><line x1="-10" y1="199" x2="1200" y2="199" stroke="#3E3934" stroke-width="0.7" opacity="0.35"/><line x1="-10" y1="379" x2="1200" y2="379" stroke="#3E3934" stroke-width="0.7" opacity="0.30"/><line x1="-10" y1="400" x2="1200" y2="400" stroke="#3E3934" stroke-width="1.1" opacity="0.14"/><line x1="-10" y1="112" x2="1200" y2="112" stroke="#3E3934" stroke-width="0.8" opacity="0.22"/><line x1="-10" y1="30" x2="1200" y2="30" stroke="#3E3934" stroke-width="0.5" opacity="0.20"/><line x1="-10" y1="315" x2="1200" y2="315" stroke="#3E3934" stroke-width="1.1" opacity="0.30"/><line x1="-10" y1="147" x2="1200" y2="147" stroke="#3E3934" stroke-width="1.1" opacity="0.16"/><line x1="-10" y1="124" x2="1200" y2="124" stroke="#3E3934" stroke-width="1.4" opacity="0.17"/><line x1="-10" y1="79" x2="1200" y2="79" stroke="#3E3934" stroke-width="1.3" opacity="0.25"/><line x1="-10" y1="252" x2="1200" y2="252" stroke="#3E3934" stroke-width="1.1" opacity="0.15"/><line x1="-10" y1="232" x2="1200" y2="232" stroke="#3E3934" stroke-width="0.6" opacity="0.23"/><line x1="-10" y1="72" x2="1200" y2="72" stroke="#3E3934" stroke-width="1.6" opacity="0.33"/><line x1="-10" y1="84" x2="1200" y2="84" stroke="#3E3934" stroke-width="1.4" opacity="0.34"/><line x1="-10" y1="242" x2="1200" y2="242" stroke="#3E3934" stroke-width="0.6" opacity="0.18"/><line x1="-10" y1="133" x2="1200" y2="133" stroke="#3E3934" stroke-width="1.0" opacity="0.14"/><line x1="-10" y1="5" x2="1200" y2="5" stroke="#3E3934" stroke-width="0.9" opacity="0.29"/><line x1="-10" y1="211" x2="1200" y2="211" stroke="#3E3934" stroke-width="1.4" opacity="0.20"/><line x1="-10" y1="217" x2="1200" y2="217" stroke="#3E3934" stroke-width="0.7" opacity="0.19"/><line x1="-10" y1="359" x2="1200" y2="359" stroke="#3E3934" stroke-width="0.7" opacity="0.16"/><line x1="-10" y1="296" x2="1200" y2="296" stroke="#3E3934" stroke-width="1.1" opacity="0.26"/><line x1="-10" y1="245" x2="1200" y2="245" stroke="#3E3934" stroke-width="0.7" opacity="0.25"/><line x1="-10" y1="53" x2="1200" y2="53" stroke="#3E3934" stroke-width="1.0" opacity="0.16"/><line x1="-10" y1="415" x2="1200" y2="415" stroke="#3E3934" stroke-width="1.5" opacity="0.17"/><line x1="-10" y1="331" x2="1200" y2="331" stroke="#3E3934" stroke-width="1.5" opacity="0.25"/><line x1="-10" y1="44" x2="1200" y2="44" stroke="#3E3934" stroke-width="0.8" opacity="0.19"/><line x1="-10" y1="189" x2="1200" y2="189" stroke="#3E3934" stroke-width="0.6" opacity="0.12"/><line x1="-10" y1="152" x2="1200" y2="152" stroke="#3E3934" stroke-width="1.3" opacity="0.24"/><line x1="-10" y1="326" x2="1200" y2="326" stroke="#3E3934" stroke-width="0.9" opacity="0.24"/><line x1="-10" y1="74" x2="1200" y2="74" stroke="#3E3934" stroke-width="0.8" opacity="0.32"/><line x1="-10" y1="89" x2="1200" y2="89" stroke="#3E3934" stroke-width="0.7" opacity="0.28"/><line x1="-10" y1="245" x2="1200" y2="245" stroke="#3E3934" stroke-width="1.2" opacity="0.25"/><line x1="-10" y1="58" x2="1200" y2="58" stroke="#3E3934" stroke-width="1.1" opacity="0.15"/><line x1="-10" y1="199" x2="1200" y2="199" stroke="#3E3934" stroke-width="0.7" opacity="0.35"/><line x1="-10" y1="379" x2="1200" y2="379" stroke="#3E3934" stroke-width="0.7" opacity="0.30"/><line x1="-10" y1="400" x2="1200" y2="400" stroke="#3E3934" stroke-width="1.1" opacity="0.14"/><line x1="-10" y1="112" x2="1200" y2="112" stroke="#3E3934" stroke-width="0.8" opacity="0.22"/><line x1="-10" y1="30" x2="1200" y2="30" stroke="#3E3934" stroke-width="0.5" opacity="0.20"/><line x1="-10" y1="315" x2="1200" y2="315" stroke="#3E3934" stroke-width="1.1" opacity="0.30"/><line x1="-10" y1="147" x2="1200" y2="147" stroke="#3E3934" stroke-width="1.1" opacity="0.16"/><line x1="-10" y1="124" x2="1200" y2="124" stroke="#3E3934" stroke-width="1.4" opacity="0.17"/><line x1="-10" y1="79" x2="1200" y2="79" stroke="#3E3934" stroke-width="1.3" opacity="0.25"/><line x1="-10" y1="252" x2="1200" y2="252" stroke="#3E3934" stroke-width="1.1" opacity="0.15"/><line x1="-10" y1="232" x2="1200" y2="232" stroke="#3E3934" stroke-width="0.6" opacity="0.23"/><line x1="-10" y1="72" x2="1200" y2="72" stroke="#3E3934" stroke-width="1.6" opacity="0.33"/><line x1="-10" y1="84" x2="1200" y2="84" stroke="#3E3934" stroke-width="1.4" opacity="0.34"/><line x1="-10" y1="242" x2="1200" y2="242" stroke="#3E3934" stroke-width="0.6" opacity="0.18"/><line x1="-10" y1="133" x2="1200" y2="133" stroke="#3E3934" stroke-width="1.0" opacity="0.14"/><line x1="-10" y1="5" x2="1200" y2="5" stroke="#3E3934" stroke-width="0.9" opacity="0.29"/><line x1="-10" y1="211" x2="1200" y2="211" stroke="#3E3934" stroke-width="1.4" opacity="0.20"/><line x1="-10" y1="217" x2="1200" y2="217" stroke="#3E3934" stroke-width="0.7" opacity="0.19"/><line x1="-10" y1="359" x2="1200" y2="359" stroke="#3E3934" stroke-width="0.7" opacity="0.16"/><line x1="-10" y1="296" x2="1200" y2="296" stroke="#3E3934" stroke-width="1.1" opacity="0.26"/><line x1="-10" y1="245" x2="1200" y2="245" stroke="#3E3934" stroke-width="0.7" opacity="0.25"/><line x1="-10" y1="53" x2="1200" y2="53" stroke="#3E3934" stroke-width="1.0" opacity="0.16"/><line x1="-10" y1="415" x2="1200" y2="415" stroke="#3E3934" stroke-width="1.5" opacity="0.17"/><line x1="-10" y1="331" x2="1200" y2="331" stroke="#3E3934" stroke-width="1.5" opacity="0.25"/><line x1="-10" y1="44" x2="1200" y2="44" stroke="#3E3934" stroke-width="0.8" opacity="0.19"/><rect x="24" y="302" width="340" height="42" rx="8" fill="#160F09" opacity="0.9"/><text x="40" y="330" font-family="Arial" font-size="20" font-weight="bold" fill="#E8A33D" letter-spacing="2">CHARCOAL PANELS &amp; SHEETS</text></svg>