<svg xmlns="http://www.w3.org/2000/svg" viewBox="0 0 1200 420" width="1200" height="420" role="img" aria-label="Cork Sheets"><rect width="1200" height="420" fill="#C89B5E"/><line x1="-10" y1="122" x2="1200" y2="127" stroke="#A67A3E" stroke-width="1.1" opacity="0.24"/><line x1="-10" y1="359" x2="1200" y2="357" stroke="#A67A3E" stroke-width="1.5" opacity="0.34"/><line x1="-10" y1="196" x2="1200" y2="195" stroke="#A67A3E" stroke-width="1.9" opacity="0.38"/><line x1="-10" y1="209" x2="1200" y2="214" stroke="#A67A3E" stroke-width="1.5" opacity="0.27"/><line x1="-10" y1="155" x2="1200" y2="152" stroke="#A67A3E" stroke-width="1.1" opacity="0.19"/><line x1="-10" y1="152" x2="1200" y2="147" stroke="#A67A3E" stroke-width="1.2" opacity="0.29"/><line x1="-10" y1="127" x2="1200" y2="127" stroke="#A67A3E" stroke-width="1.7" opacity="0.18"/><line x1="-10" y1="115" x2="1200" y2="111" stroke="#A67A3E" stroke-width="1.8" opacity="0.30"/><line x1="-10" y1="122" x2="1200" y2="127" stroke="#A67A3E" stroke-width="1.1" opacity="0.24"/><line x1="-10" y1="359" x2="1200" y2="357" stroke="#A67A3E" stroke-width="1.5" opacity="0.34"/><line x1="-10" y1="196" x2="1200" y2="195" stroke="#A67A3E" stroke-width="1.9" opacity="0.38"/><line x1="-10" y1="209" x2="1200" y2="214" stroke="#A67A3E" stroke-width="1.5" opacity="0.27"/><line x1="-10" y1="155" x2="1200" y2="152" stroke="#A67A3E" stroke-width="1.1" opacity="0.19"/><line x1="-10" y1="152" x2="1200" y2="147" stroke="#A67A3E" stroke-width="1.2" opacity="0.29"/><line x1="-10" y1="127" x2="1200" y2="127" stroke="#A67A3E" stroke-width="1.7" opacity="0.18"/><line x1="-10" y1="115" x2="1200" y2="111" stroke="#A67A3E" stroke-width="1.8" opacity="0.30"/><line x1="-10" y1="122" x2="1200" y2="127" stroke="#A67A3E" stroke-width="1.1" opacity="0.24"/><line x1="-10" y1="359" x2="1200" y2="357" stroke="#A67A3E" stroke-width="1.5" opacity="0.34"/><line x1="-10" y1="196" x2="1200" y2="195" stroke="#A67A3E" stroke-width="1.9" opacity="0.38"/><line x1="-10" y1="209" x2="1200" y2="214" stroke="#A67A3E" stroke-width="1.5" opacity="0.27"/><line x1="-10" y1="155" x2="1200" y2="152" stroke="#A67A3E" stroke-width="1.1" opacity="0.19"/><line x1="-10" y1="152" x2="1200" y2="147" stroke="#A67A3E" stroke-width="1.2" opacity="0.29"/><line x1="-10" y1="127" x2="1200" y2="127" stroke="#A67A3E" stroke-width="1.7" opacity="0.18"/><line x1="-10" y1="115" x2="1200" y2="111" stroke="#A67A3E" stroke-width="1.8" opacity="0.30"/><line x1="-10" y1="122" x2="1200" y2="127" stroke="#A67A3E" stroke-width="1.1" opacity="0.24"/><line x1="-10" y1="359" x2="1200" y2="357" stroke="#A67A3E" stroke-width="1.5" opacity="0.34"/><line x1="-10" y1="196" x2="1200" y2="195" stroke="#A67A3E" stroke-width="1.9" opacity="0.38"/><line x1="-10" y1="209" x2="1200" y2="214" stroke="#A67A3E" stroke-width="1.5" opacity="0.27"/><line x1="-10" y1="155" x2="1200" y2="152" stroke="#A67A3E" stroke-width="1.1" opacity="0.19"/><line x1="-10" y1="152" x2="1200" y2="147" stroke="#A67A3E" stroke-width="1.2" opacity="0.29"/><line x1="-10" y1="127" x2="1200" y2="127" stroke="#A67A3E" stroke-width="1.7" opacity="0.18"/><line x1="-10" y1="115" x2="1200" y2="111" stroke="#A67A3E" stroke-width="1.8" opacity="0.30"/><line x1="-10" y1="122" x2="1200" y2="127" stroke="#A67A3E" stroke-width="1.1" opacity="0.24"/><line x1="-10" y1="359" x2="1200" y2="357" stroke="#A67A3E" stroke-width="1.5" opacity="0.34"/><line x1="-10" y1="196" x2="1200" y2="195" stroke="#A67A3E" stroke-width="1.9" opacity="0.38"/><line x1="-10" y1="209" x2="1200" y2="214" stroke="#A67A3E" stroke-width="1.5" opacity="0.27"/><line x1="-10" y1="155" x2="1200" y2="152" stroke="#A67A3E" stroke-width="1.1" opacity="0.19"/><line x1="-10" y1="152" x2="1200" y2="147" stroke="#A67A3E" stroke-width="1.2" opacity="0.29"/><line x1="-10" y1="127" x2="1200" y2="127" stroke="#A67A3E" stroke-width="1.7" opacity="0.18"/><line x1="-10" y1="115" x2="1200" y2="111" stroke="#A67A3E" stroke-width="1.8" opacity="0.30"/><line x1="-10" y1="122" x2="1200" y2="127" stroke="#A67A3E" stroke-width="1.1" opacity="0.24"/><line x1="-10" y1="359" x2="1200" y2="357" stroke="#A67A3E" stroke-width="1.5" opacity="0.34"/><line x1="-10" y1="196" x2="1200" y2="195" stroke="#A67A3E" stroke-width="1.9" opacity="0.38"/><line x1="-10" y1="209" x2="1200" y2="214" stroke="#A67A3E" stroke-width="1.5" opacity="0.27"/><line x1="-10" y1="155" x2="1200" y2="152" stroke="#A67A3E" stroke-width="1.1" opacity="0.19"/><line x1="-10" y1="152" x2="1200" y2="147" stroke="#A67A3E" stroke-width="1.2" opacity="0.29"/><line x1="-10" y1="127" x2="1200" y2="127" stroke="#A67A3E" stroke-width="1.7" opacity="0.18"/><line x1="-10" y1="115" x2="1200" y2="111" stroke="#A67A3E" stroke-width="1.8" opacity="0.30"/><line x1="-10" y1="122" x2="1200" y2="127" stroke="#A67A3E" stroke-width="1.1" opacity="0.24"/><line x1="-10" y1="359" x2="1200" y2="357" stroke="#A67A3E" stroke-width="1.5" opacity="0.34"/><line x1="-10" y1="196" x2="1200" y2="195" stroke="#A67A3E" stroke-width="1.9" opacity="0.38"/><line x1="-10" y1="209" x2="1200" y2="214" stroke="#A67A3E" stroke-width="1.5" opacity="0.27"/><line x1="-10" y1="155" x2="1200" y2="152" stroke="#A67A3E" stroke-width="1.1" opacity="0.19"/><line x1="-10" y1="152" x2="1200" y2="147" stroke="#A67A3E" stroke-width="1.2" opacity="0.29"/><line x1="-10" y1="127" x2="1200" y2="127" stroke="#A67A3E" stroke-width="1.7" opacity="0.18"/><line x1="-10" y1="115" x2="1200" y2="111" stroke="#A67A3E" stroke-width="1.8" opacity="0.30"/><line x1="-10" y1="122" x2="1200" y2="127" stroke="#A67A3E" stroke-width="1.1" opacity="0.24"/><line x1="-10" y1="359" x2="1200" y2="357" stroke="#A67A3E" stroke-width="1.5" opacity="0.34"/><line x1="-10" y1="196" x2="1200" y2="195" stroke="#A67A3E" stroke-width="1.9" opacity="0.38"/><line x1="-10" y1="209" x2="1200" y2="214" stroke="#A67A3E" stroke-width="1.5" opacity="0.27"/><line x1="-10" y1="155" x2="1200" y2="152" stroke="#A67A3E" stroke-width="1.1" opacity="0.19"/><line x1="-10" y1="152" x2="1200" y2="147" stroke="#A67A3E" stroke-width="1.2" opacity="0.29"/><line x1="-10" y1="127" x2="1200" y2="127" stroke="#A67A3E" stroke-width="1.7" opacity="0.18"/><line x1="-10" y1="115" x2="1200" y2="111" stroke="#A67A3E" stroke-width="1.8" opacity="0.30"/><line x1="-10" y1="122" x2="1200" y2="127" stroke="#A67A3E" stroke-width="1.1" opacity="0.24"/><line x1="-10" y1="359" x2="1200" y2="357" stroke="#A67A3E" stroke-width="1.5" opacity="0.34"/><line x1="-10" y1="196" x2="1200" y2="195" stroke="#A67A3E" stroke-width="1.9" opacity="0.38"/><line x1="-10" y1="209" x2="1200" y2="214" stroke="#A67A3E" stroke-width="1.5" opacity="0.27"/><line x1="-10" y1="155" x2="1200" y2="152" stroke="#A67A3E" stroke-width="1.1" opacity="0.19"/><line x1="-10" y1="152" x2="1200" y2="147" stroke="#A67A3E" stroke-width="1.2" opacity="0.29"/><rect x="24" y="302" width="171" height="42" rx="8" fill="#160F09" opacity="0.9"/><text x="40" y="330" font-family="Arial" font-size="20" font-weight="bold" fill="#E8A33D" letter-spacing="2">CORK SHEETS</text></svg>