<svg xmlns="http://www.w3.org/2000/svg" viewBox="0 0 1200 420" width="1200" height="420" role="img" aria-label="Evolve art panels and liquid metal finishes"><defs><linearGradient id="lm" x1="0" y1="0" x2="1" y2="1"><stop offset="0" stop-color="#8a8f96"/><stop offset="0.35" stop-color="#c9b083"/><stop offset="0.65" stop-color="#5c6169"/><stop offset="1" stop-color="#2e2a26"/></linearGradient></defs><rect width="1200" height="420" fill="url(#lm)"/><line x1="-10" y1="293" x2="1200" y2="301" stroke="#ffffff" stroke-width="1.9" opacity="0.12"/><line x1="-10" y1="0" x2="1200" y2="-2" stroke="#ffffff" stroke-width="2.0" opacity="0.04"/><line x1="-10" y1="226" x2="1200" y2="239" stroke="#ffffff" stroke-width="2.1" opacity="0.10"/><line x1="-10" y1="186" x2="1200" y2="177" stroke="#ffffff" stroke-width="1.1" opacity="0.15"/><line x1="-10" y1="54" x2="1200" y2="72" stroke="#ffffff" stroke-width="1.3" opacity="0.06"/><line x1="-10" y1="315" x2="1200" y2="307" stroke="#ffffff" stroke-width="0.7" opacity="0.09"/><line x1="-10" y1="349" x2="1200" y2="362" stroke="#ffffff" stroke-width="0.9" opacity="0.14"/><line x1="-10" y1="2" x2="1200" y2="19" stroke="#ffffff" stroke-width="1.4" opacity="0.07"/><line x1="-10" y1="63" x2="1200" y2="54" stroke="#ffffff" stroke-width="0.8" opacity="0.07"/><line x1="-10" y1="114" x2="1200" y2="109" stroke="#ffffff" stroke-width="1.2" opacity="0.05"/><line x1="-10" y1="333" x2="1200" y2="321" stroke="#ffffff" stroke-width="2.1" opacity="0.14"/><line x1="-10" y1="71" x2="1200" y2="51" stroke="#ffffff" stroke-width="0.5" opacity="0.08"/><line x1="-10" y1="392" x2="1200" y2="377" stroke="#ffffff" stroke-width="0.8" opacity="0.09"/><line x1="-10" y1="140" x2="1200" y2="120" stroke="#ffffff" stroke-width="0.5" opacity="0.09"/><line x1="-10" y1="201" x2="1200" y2="213" stroke="#ffffff" stroke-width="2.2" opacity="0.10"/><line x1="-10" y1="135" x2="1200" y2="128" stroke="#ffffff" stroke-width="0.8" opacity="0.07"/><line x1="-10" y1="91" x2="1200" y2="79" stroke="#ffffff" stroke-width="0.9" opacity="0.07"/><line x1="-10" y1="96" x2="1200" y2="82" stroke="#ffffff" stroke-width="2.4" opacity="0.04"/><line x1="-10" y1="346" x2="1200" y2="331" stroke="#ffffff" stroke-width="1.0" opacity="0.06"/><line x1="-10" y1="64" x2="1200" y2="48" stroke="#ffffff" stroke-width="0.6" opacity="0.13"/><line x1="-10" y1="178" x2="1200" y2="165" stroke="#ffffff" stroke-width="0.8" opacity="0.15"/><line x1="-10" y1="390" x2="1200" y2="373" stroke="#ffffff" stroke-width="1.0" opacity="0.06"/><line x1="-10" y1="54" x2="1200" y2="56" stroke="#ffffff" stroke-width="1.5" opacity="0.07"/><line x1="-10" y1="5" x2="1200" y2="15" stroke="#ffffff" stroke-width="0.8" opacity="0.04"/><line x1="-10" y1="119" x2="1200" y2="105" stroke="#ffffff" stroke-width="1.1" opacity="0.06"/><line x1="-10" y1="38" x2="1200" y2="25" stroke="#ffffff" stroke-width="1.9" opacity="0.08"/><line x1="-10" y1="110" x2="1200" y2="109" stroke="#ffffff" stroke-width="1.6" opacity="0.06"/><line x1="-10" y1="165" x2="1200" y2="154" stroke="#ffffff" stroke-width="0.5" opacity="0.12"/><line x1="-10" y1="71" x2="1200" y2="68" stroke="#ffffff" stroke-width="2.4" opacity="0.06"/><line x1="-10" y1="296" x2="1200" y2="277" stroke="#ffffff" stroke-width="1.0" opacity="0.06"/><line x1="-10" y1="84" x2="1200" y2="75" stroke="#ffffff" stroke-width="0.8" opacity="0.14"/><line x1="-10" y1="31" x2="1200" y2="40" stroke="#ffffff" stroke-width="1.3" opacity="0.05"/><line x1="-10" y1="293" x2="1200" y2="301" stroke="#ffffff" stroke-width="1.9" opacity="0.12"/><line x1="-10" y1="0" x2="1200" y2="-2" stroke="#ffffff" stroke-width="2.0" opacity="0.04"/><line x1="-10" y1="226" x2="1200" y2="239" stroke="#ffffff" stroke-width="2.1" opacity="0.10"/><line x1="-10" y1="186" x2="1200" y2="177" stroke="#ffffff" stroke-width="1.1" opacity="0.15"/><line x1="-10" y1="54" x2="1200" y2="72" stroke="#ffffff" stroke-width="1.3" opacity="0.06"/><line x1="-10" y1="315" x2="1200" y2="307" stroke="#ffffff" stroke-width="0.7" opacity="0.09"/><line x1="-10" y1="349" x2="1200" y2="362" stroke="#ffffff" stroke-width="0.9" opacity="0.14"/><line x1="-10" y1="2" x2="1200" y2="19" stroke="#ffffff" stroke-width="1.4" opacity="0.07"/><line x1="-10" y1="63" x2="1200" y2="54" stroke="#ffffff" stroke-width="0.8" opacity="0.07"/><line x1="-10" y1="114" x2="1200" y2="109" stroke="#ffffff" stroke-width="1.2" opacity="0.05"/><line x1="-10" y1="333" x2="1200" y2="321" stroke="#ffffff" stroke-width="2.1" opacity="0.14"/><line x1="-10" y1="71" x2="1200" y2="51" stroke="#ffffff" stroke-width="0.5" opacity="0.08"/><line x1="-10" y1="392" x2="1200" y2="377" stroke="#ffffff" stroke-width="0.8" opacity="0.09"/><line x1="-10" y1="140" x2="1200" y2="120" stroke="#ffffff" stroke-width="0.5" opacity="0.09"/><line x1="-10" y1="201" x2="1200" y2="213" stroke="#ffffff" stroke-width="2.2" opacity="0.10"/><line x1="-10" y1="135" x2="1200" y2="128" stroke="#ffffff" stroke-width="0.8" opacity="0.07"/><line x1="-10" y1="91" x2="1200" y2="79" stroke="#ffffff" stroke-width="0.9" opacity="0.07"/><line x1="-10" y1="96" x2="1200" y2="82" stroke="#ffffff" stroke-width="2.4" opacity="0.04"/><line x1="-10" y1="346" x2="1200" y2="331" stroke="#ffffff" stroke-width="1.0" opacity="0.06"/><line x1="-10" y1="64" x2="1200" y2="48" stroke="#ffffff" stroke-width="0.6" opacity="0.13"/><line x1="-10" y1="178" x2="1200" y2="165" stroke="#ffffff" stroke-width="0.8" opacity="0.15"/><line x1="-10" y1="390" x2="1200" y2="373" stroke="#ffffff" stroke-width="1.0" opacity="0.06"/><line x1="-10" y1="54" x2="1200" y2="56" stroke="#ffffff" stroke-width="1.5" opacity="0.07"/><line x1="-10" y1="5" x2="1200" y2="15" stroke="#ffffff" stroke-width="0.8" opacity="0.04"/><line x1="-10" y1="119" x2="1200" y2="105" stroke="#ffffff" stroke-width="1.1" opacity="0.06"/><line x1="-10" y1="38" x2="1200" y2="25" stroke="#ffffff" stroke-width="1.9" opacity="0.08"/><line x1="-10" y1="110" x2="1200" y2="109" stroke="#ffffff" stroke-width="1.6" opacity="0.06"/><line x1="-10" y1="165" x2="1200" y2="154" stroke="#ffffff" stroke-width="0.5" opacity="0.12"/><line x1="-10" y1="71" x2="1200" y2="68" stroke="#ffffff" stroke-width="2.4" opacity="0.06"/><line x1="-10" y1="296" x2="1200" y2="277" stroke="#ffffff" stroke-width="1.0" opacity="0.06"/><line x1="-10" y1="84" x2="1200" y2="75" stroke="#ffffff" stroke-width="0.8" opacity="0.14"/><line x1="-10" y1="31" x2="1200" y2="40" stroke="#ffffff" stroke-width="1.3" opacity="0.05"/><line x1="-10" y1="293" x2="1200" y2="301" stroke="#ffffff" stroke-width="1.9" opacity="0.12"/><line x1="-10" y1="0" x2="1200" y2="-2" stroke="#ffffff" stroke-width="2.0" opacity="0.04"/><line x1="-10" y1="226" x2="1200" y2="239" stroke="#ffffff" stroke-width="2.1" opacity="0.10"/><line x1="-10" y1="186" x2="1200" y2="177" stroke="#ffffff" stroke-width="1.1" opacity="0.15"/><line x1="-10" y1="54" x2="1200" y2="72" stroke="#ffffff" stroke-width="1.3" opacity="0.06"/><line x1="-10" y1="315" x2="1200" y2="307" stroke="#ffffff" stroke-width="0.7" opacity="0.09"/><ellipse cx="838" cy="293" rx="144" ry="96" fill="#3a6e5c" opacity="0.10"/><ellipse cx="202" cy="140" rx="87" ry="52" fill="#3a6e5c" opacity="0.10"/><ellipse cx="155" cy="110" rx="124" ry="107" fill="#3a6e5c" opacity="0.10"/><ellipse cx="0" cy="2" rx="78" ry="47" fill="#3a6e5c" opacity="0.10"/><ellipse cx="1120" cy="178" rx="76" ry="115" fill="#3a6e5c" opacity="0.10"/><ellipse cx="14" cy="0" rx="172" ry="46" fill="#3a6e5c" opacity="0.10"/><rect x="24" y="302" width="436" height="42" rx="8" fill="#160F09" opacity="0.9"/><text x="40" y="330" font-family="Arial" font-size="19" font-weight="bold" fill="#E8A33D" letter-spacing="2">EVOLVE ART PANELS</text></svg>