<svg xmlns="http://www.w3.org/2000/svg" viewBox="0 0 1200 420" width="1200" height="420" role="img" aria-label="Exterior Wall Cladding"><rect width="1200" height="420" fill="#8A6A44"/><line x1="-10" y1="240" x2="1200" y2="240" stroke="#6A4E2E" stroke-width="1.3" opacity="0.32"/><line x1="-10" y1="38" x2="1200" y2="38" stroke="#6A4E2E" stroke-width="1.2" opacity="0.20"/><line x1="-10" y1="384" x2="1200" y2="384" stroke="#6A4E2E" stroke-width="1.3" opacity="0.27"/><line x1="-10" y1="30" x2="1200" y2="30" stroke="#6A4E2E" stroke-width="1.0" opacity="0.16"/><line x1="-10" y1="130" x2="1200" y2="130" stroke="#6A4E2E" stroke-width="0.9" opacity="0.18"/><line x1="-10" y1="53" x2="1200" y2="53" stroke="#6A4E2E" stroke-width="1.6" opacity="0.17"/><line x1="-10" y1="324" x2="1200" y2="324" stroke="#6A4E2E" stroke-width="1.5" opacity="0.31"/><line x1="-10" y1="216" x2="1200" y2="216" stroke="#6A4E2E" stroke-width="1.4" opacity="0.12"/><line x1="-10" y1="260" x2="1200" y2="260" stroke="#6A4E2E" stroke-width="0.7" opacity="0.29"/><line x1="-10" y1="287" x2="1200" y2="287" stroke="#6A4E2E" stroke-width="0.9" opacity="0.13"/><line x1="-10" y1="84" x2="1200" y2="84" stroke="#6A4E2E" stroke-width="1.0" opacity="0.25"/><line x1="-10" y1="305" x2="1200" y2="305" stroke="#6A4E2E" stroke-width="1.4" opacity="0.14"/><line x1="-10" y1="273" x2="1200" y2="273" stroke="#6A4E2E" stroke-width="0.9" opacity="0.33"/><line x1="-10" y1="323" x2="1200" y2="323" stroke="#6A4E2E" stroke-width="1.2" opacity="0.14"/><line x1="-10" y1="194" x2="1200" y2="194" stroke="#6A4E2E" stroke-width="0.7" opacity="0.19"/><line x1="-10" y1="161" x2="1200" y2="161" stroke="#6A4E2E" stroke-width="0.8" opacity="0.15"/><line x1="-10" y1="407" x2="1200" y2="407" stroke="#6A4E2E" stroke-width="0.7" opacity="0.30"/><line x1="-10" y1="389" x2="1200" y2="389" stroke="#6A4E2E" stroke-width="1.4" opacity="0.24"/><line x1="-10" y1="334" x2="1200" y2="334" stroke="#6A4E2E" stroke-width="0.5" opacity="0.26"/><line x1="-10" y1="64" x2="1200" y2="64" stroke="#6A4E2E" stroke-width="1.3" opacity="0.28"/><line x1="-10" y1="155" x2="1200" y2="155" stroke="#6A4E2E" stroke-width="0.5" opacity="0.17"/><line x1="-10" y1="181" x2="1200" y2="181" stroke="#6A4E2E" stroke-width="1.1" opacity="0.29"/><line x1="-10" y1="362" x2="1200" y2="362" stroke="#6A4E2E" stroke-width="0.6" opacity="0.27"/><line x1="-10" y1="148" x2="1200" y2="148" stroke="#6A4E2E" stroke-width="1.5" opacity="0.30"/><line x1="-10" y1="270" x2="1200" y2="270" stroke="#6A4E2E" stroke-width="0.6" opacity="0.23"/><line x1="-10" y1="66" x2="1200" y2="66" stroke="#6A4E2E" stroke-width="0.8" opacity="0.21"/><line x1="-10" y1="104" x2="1200" y2="104" stroke="#6A4E2E" stroke-width="0.6" opacity="0.34"/><line x1="-10" y1="92" x2="1200" y2="92" stroke="#6A4E2E" stroke-width="1.3" opacity="0.33"/><line x1="-10" y1="348" x2="1200" y2="348" stroke="#6A4E2E" stroke-width="1.1" opacity="0.30"/><line x1="-10" y1="0" x2="1200" y2="0" stroke="#6A4E2E" stroke-width="1.2" opacity="0.16"/><line x1="-10" y1="303" x2="1200" y2="303" stroke="#6A4E2E" stroke-width="1.3" opacity="0.20"/><line x1="-10" y1="15" x2="1200" y2="15" stroke="#6A4E2E" stroke-width="0.7" opacity="0.22"/><line x1="-10" y1="240" x2="1200" y2="240" stroke="#6A4E2E" stroke-width="1.3" opacity="0.32"/><line x1="-10" y1="38" x2="1200" y2="38" stroke="#6A4E2E" stroke-width="1.2" opacity="0.20"/><line x1="-10" y1="384" x2="1200" y2="384" stroke="#6A4E2E" stroke-width="1.3" opacity="0.27"/><line x1="-10" y1="30" x2="1200" y2="30" stroke="#6A4E2E" stroke-width="1.0" opacity="0.16"/><line x1="-10" y1="130" x2="1200" y2="130" stroke="#6A4E2E" stroke-width="0.9" opacity="0.18"/><line x1="-10" y1="53" x2="1200" y2="53" stroke="#6A4E2E" stroke-width="1.6" opacity="0.17"/><line x1="-10" y1="324" x2="1200" y2="324" stroke="#6A4E2E" stroke-width="1.5" opacity="0.31"/><line x1="-10" y1="216" x2="1200" y2="216" stroke="#6A4E2E" stroke-width="1.4" opacity="0.12"/><line x1="-10" y1="260" x2="1200" y2="260" stroke="#6A4E2E" stroke-width="0.7" opacity="0.29"/><line x1="-10" y1="287" x2="1200" y2="287" stroke="#6A4E2E" stroke-width="0.9" opacity="0.13"/><line x1="-10" y1="84" x2="1200" y2="84" stroke="#6A4E2E" stroke-width="1.0" opacity="0.25"/><line x1="-10" y1="305" x2="1200" y2="305" stroke="#6A4E2E" stroke-width="1.4" opacity="0.14"/><line x1="-10" y1="273" x2="1200" y2="273" stroke="#6A4E2E" stroke-width="0.9" opacity="0.33"/><line x1="-10" y1="323" x2="1200" y2="323" stroke="#6A4E2E" stroke-width="1.2" opacity="0.14"/><line x1="-10" y1="194" x2="1200" y2="194" stroke="#6A4E2E" stroke-width="0.7" opacity="0.19"/><line x1="-10" y1="161" x2="1200" y2="161" stroke="#6A4E2E" stroke-width="0.8" opacity="0.15"/><line x1="-10" y1="407" x2="1200" y2="407" stroke="#6A4E2E" stroke-width="0.7" opacity="0.30"/><line x1="-10" y1="389" x2="1200" y2="389" stroke="#6A4E2E" stroke-width="1.4" opacity="0.24"/><line x1="-10" y1="334" x2="1200" y2="334" stroke="#6A4E2E" stroke-width="0.5" opacity="0.26"/><line x1="-10" y1="64" x2="1200" y2="64" stroke="#6A4E2E" stroke-width="1.3" opacity="0.28"/><line x1="-10" y1="155" x2="1200" y2="155" stroke="#6A4E2E" stroke-width="0.5" opacity="0.17"/><line x1="-10" y1="181" x2="1200" y2="181" stroke="#6A4E2E" stroke-width="1.1" opacity="0.29"/><line x1="-10" y1="362" x2="1200" y2="362" stroke="#6A4E2E" stroke-width="0.6" opacity="0.27"/><line x1="-10" y1="148" x2="1200" y2="148" stroke="#6A4E2E" stroke-width="1.5" opacity="0.30"/><line x1="-10" y1="270" x2="1200" y2="270" stroke="#6A4E2E" stroke-width="0.6" opacity="0.23"/><line x1="-10" y1="66" x2="1200" y2="66" stroke="#6A4E2E" stroke-width="0.8" opacity="0.21"/><line x1="-10" y1="104" x2="1200" y2="104" stroke="#6A4E2E" stroke-width="0.6" opacity="0.34"/><line x1="-10" y1="92" x2="1200" y2="92" stroke="#6A4E2E" stroke-width="1.3" opacity="0.33"/><rect x="24" y="302" width="314" height="42" rx="8" fill="#160F09" opacity="0.9"/><text x="40" y="330" font-family="Arial" font-size="20" font-weight="bold" fill="#E8A33D" letter-spacing="2">EXTERIOR WALL CLADDING</text></svg>