<svg xmlns="http://www.w3.org/2000/svg" viewBox="0 0 1200 420" width="1200" height="420" role="img" aria-label="Fluted Panels"><rect width="1200" height="420" fill="#9A7A50"/><rect x="0" y="0" width="30" height="420" fill="#7A5A34"/><rect x="0" y="0" width="6" height="420" fill="#4E3A20" opacity="0.6"/><rect x="57" y="0" width="26" height="420" fill="#7A5A34"/><rect x="57" y="0" width="6" height="420" fill="#4E3A20" opacity="0.6"/><rect x="109" y="0" width="38" height="420" fill="#7A5A34"/><rect x="109" y="0" width="6" height="420" fill="#4E3A20" opacity="0.6"/><rect x="160" y="0" width="30" height="420" fill="#7A5A34"/><rect x="160" y="0" width="6" height="420" fill="#4E3A20" opacity="0.6"/><rect x="215" y="0" width="26" height="420" fill="#7A5A34"/><rect x="215" y="0" width="6" height="420" fill="#4E3A20" opacity="0.6"/><rect x="267" y="0" width="28" height="420" fill="#7A5A34"/><rect x="267" y="0" width="6" height="420" fill="#4E3A20" opacity="0.6"/><rect x="324" y="0" width="37" height="420" fill="#7A5A34"/><rect x="324" y="0" width="6" height="420" fill="#4E3A20" opacity="0.6"/><rect x="382" y="0" width="26" height="420" fill="#7A5A34"/><rect x="382" y="0" width="6" height="420" fill="#4E3A20" opacity="0.6"/><rect x="439" y="0" width="32" height="420" fill="#7A5A34"/><rect x="439" y="0" width="6" height="420" fill="#4E3A20" opacity="0.6"/><rect x="498" y="0" width="40" height="420" fill="#7A5A34"/><rect x="498" y="0" width="6" height="420" fill="#4E3A20" opacity="0.6"/><rect x="547" y="0" width="36" height="420" fill="#7A5A34"/><rect x="547" y="0" width="6" height="420" fill="#4E3A20" opacity="0.6"/><rect x="596" y="0" width="40" height="420" fill="#7A5A34"/><rect x="596" y="0" width="6" height="420" fill="#4E3A20" opacity="0.6"/><rect x="645" y="0" width="40" height="420" fill="#7A5A34"/><rect x="645" y="0" width="6" height="420" fill="#4E3A20" opacity="0.6"/><rect x="695" y="0" width="40" height="420" fill="#7A5A34"/><rect x="695" y="0" width="6" height="420" fill="#4E3A20" opacity="0.6"/><rect x="753" y="0" width="26" height="420" fill="#7A5A34"/><rect x="753" y="0" width="6" height="420" fill="#4E3A20" opacity="0.6"/><rect x="809" y="0" width="37" height="420" fill="#7A5A34"/><rect x="809" y="0" width="6" height="420" fill="#4E3A20" opacity="0.6"/><rect x="864" y="0" width="30" height="420" fill="#7A5A34"/><rect x="864" y="0" width="6" height="420" fill="#4E3A20" opacity="0.6"/><rect x="921" y="0" width="26" height="420" fill="#7A5A34"/><rect x="921" y="0" width="6" height="420" fill="#4E3A20" opacity="0.6"/><rect x="973" y="0" width="38" height="420" fill="#7A5A34"/><rect x="973" y="0" width="6" height="420" fill="#4E3A20" opacity="0.6"/><rect x="1024" y="0" width="30" height="420" fill="#7A5A34"/><rect x="1024" y="0" width="6" height="420" fill="#4E3A20" opacity="0.6"/><rect x="1079" y="0" width="26" height="420" fill="#7A5A34"/><rect x="1079" y="0" width="6" height="420" fill="#4E3A20" opacity="0.6"/><rect x="1131" y="0" width="28" height="420" fill="#7A5A34"/><rect x="1131" y="0" width="6" height="420" fill="#4E3A20" opacity="0.6"/><rect x="1188" y="0" width="37" height="420" fill="#7A5A34"/><rect x="1188" y="0" width="6" height="420" fill="#4E3A20" opacity="0.6"/><rect x="24" y="302" width="197" height="42" rx="8" fill="#160F09" opacity="0.9"/><text x="40" y="330" font-family="Arial" font-size="20" font-weight="bold" fill="#E8A33D" letter-spacing="2">FLUTED PANELS</text></svg>