<svg xmlns="http://www.w3.org/2000/svg" viewBox="0 0 1200 420" width="1200" height="420" role="img" aria-label="MDF &amp; HDHMR Design Panels"><rect width="1200" height="420" fill="#9AA0A6"/><rect x="8" y="8" width="48" height="48" rx="8" fill="none" stroke="#767C83" stroke-width="3" opacity="0.7"/><circle cx="32" cy="32" r="8" fill="#474C52" opacity="0.4"/><rect x="72" y="8" width="48" height="48" rx="8" fill="none" stroke="#767C83" stroke-width="3" opacity="0.7"/><circle cx="96" cy="32" r="8" fill="#474C52" opacity="0.4"/><rect x="136" y="8" width="48" height="48" rx="8" fill="none" stroke="#767C83" stroke-width="3" opacity="0.7"/><circle cx="160" cy="32" r="8" fill="#474C52" opacity="0.4"/><rect x="200" y="8" width="48" height="48" rx="8" fill="none" stroke="#767C83" stroke-width="3" opacity="0.7"/><circle cx="224" cy="32" r="8" fill="#474C52" opacity="0.4"/><rect x="264" y="8" width="48" height="48" rx="8" fill="none" stroke="#767C83" stroke-width="3" opacity="0.7"/><circle cx="288" cy="32" r="8" fill="#474C52" opacity="0.4"/><rect x="328" y="8" width="48" height="48" rx="8" fill="none" stroke="#767C83" stroke-width="3" opacity="0.7"/><circle cx="352" cy="32" r="8" fill="#474C52" opacity="0.4"/><rect x="392" y="8" width="48" height="48" rx="8" fill="none" stroke="#767C83" stroke-width="3" opacity="0.7"/><circle cx="416" cy="32" r="8" fill="#474C52" opacity="0.4"/><rect x="456" y="8" width="48" height="48" rx="8" fill="none" stroke="#767C83" stroke-width="3" opacity="0.7"/><circle cx="480" cy="32" r="8" fill="#474C52" opacity="0.4"/><rect x="520" y="8" width="48" height="48" rx="8" fill="none" stroke="#767C83" stroke-width="3" opacity="0.7"/><circle cx="544" cy="32" r="8" fill="#474C52" opacity="0.4"/><rect x="584" y="8" width="48" height="48" rx="8" fill="none" stroke="#767C83" stroke-width="3" opacity="0.7"/><circle cx="608" cy="32" r="8" fill="#474C52" opacity="0.4"/><rect x="648" y="8" width="48" height="48" rx="8" fill="none" stroke="#767C83" stroke-width="3" opacity="0.7"/><circle cx="672" cy="32" r="8" fill="#474C52" opacity="0.4"/><rect x="712" y="8" width="48" height="48" rx="8" fill="none" stroke="#767C83" stroke-width="3" opacity="0.7"/><circle cx="736" cy="32" r="8" fill="#474C52" opacity="0.4"/><rect x="776" y="8" width="48" height="48" rx="8" fill="none" stroke="#767C83" stroke-width="3" opacity="0.7"/><circle cx="800" cy="32" r="8" fill="#474C52" opacity="0.4"/><rect x="840" y="8" width="48" height="48" rx="8" fill="none" stroke="#767C83" stroke-width="3" opacity="0.7"/><circle cx="864" cy="32" r="8" fill="#474C52" opacity="0.4"/><rect x="904" y="8" width="48" height="48" rx="8" fill="none" stroke="#767C83" stroke-width="3" opacity="0.7"/><circle cx="928" cy="32" r="8" fill="#474C52" opacity="0.4"/><rect x="968" y="8" width="48" height="48" rx="8" fill="none" stroke="#767C83" stroke-width="3" opacity="0.7"/><circle cx="992" cy="32" r="8" fill="#474C52" opacity="0.4"/><rect x="1032" y="8" width="48" height="48" rx="8" fill="none" stroke="#767C83" stroke-width="3" opacity="0.7"/><circle cx="1056" cy="32" r="8" fill="#474C52" opacity="0.4"/><rect x="1096" y="8" width="48" height="48" rx="8" fill="none" stroke="#767C83" stroke-width="3" opacity="0.7"/><circle cx="1120" cy="32" r="8" fill="#474C52" opacity="0.4"/><rect x="1160" y="8" width="48" height="48" rx="8" fill="none" stroke="#767C83" stroke-width="3" opacity="0.7"/><circle cx="1184" cy="32" r="8" fill="#474C52" opacity="0.4"/><rect x="8" y="72" width="48" height="48" rx="8" fill="none" stroke="#767C83" stroke-width="3" opacity="0.7"/><circle cx="32" cy="96" r="8" fill="#474C52" opacity="0.4"/><rect x="72" y="72" width="48" height="48" rx="8" fill="none" stroke="#767C83" stroke-width="3" opacity="0.7"/><circle cx="96" cy="96" r="8" fill="#474C52" opacity="0.4"/><rect x="136" y="72" width="48" height="48" rx="8" fill="none" stroke="#767C83" stroke-width="3" opacity="0.7"/><circle cx="160" cy="96" r="8" fill="#474C52" opacity="0.4"/><rect x="200" y="72" width="48" height="48" rx="8" fill="none" stroke="#767C83" stroke-width="3" opacity="0.7"/><circle cx="224" cy="96" r="8" fill="#474C52" opacity="0.4"/><rect x="264" y="72" width="48" height="48" rx="8" fill="none" stroke="#767C83" stroke-width="3" opacity="0.7"/><circle cx="288" cy="96" r="8" fill="#474C52" opacity="0.4"/><rect x="328" y="72" width="48" height="48" rx="8" fill="none" stroke="#767C83" stroke-width="3" opacity="0.7"/><circle cx="352" cy="96" r="8" fill="#474C52" opacity="0.4"/><rect x="392" y="72" width="48" height="48" rx="8" fill="none" stroke="#767C83" stroke-width="3" opacity="0.7"/><circle cx="416" cy="96" r="8" fill="#474C52" opacity="0.4"/><rect x="456" y="72" width="48" height="48" rx="8" fill="none" stroke="#767C83" stroke-width="3" opacity="0.7"/><circle cx="480" cy="96" r="8" fill="#474C52" opacity="0.4"/><rect x="520" y="72" width="48" height="48" rx="8" fill="none" stroke="#767C83" stroke-width="3" opacity="0.7"/><circle cx="544" cy="96" r="8" fill="#474C52" opacity="0.4"/><rect x="584" y="72" width="48" height="48" rx="8" fill="none" stroke="#767C83" stroke-width="3" opacity="0.7"/><circle cx="608" cy="96" r="8" fill="#474C52" opacity="0.4"/><rect x="648" y="72" width="48" height="48" rx="8" fill="none" stroke="#767C83" stroke-width="3" opacity="0.7"/><circle cx="672" cy="96" r="8" fill="#474C52" opacity="0.4"/><rect x="712" y="72" width="48" height="48" rx="8" fill="none" stroke="#767C83" stroke-width="3" opacity="0.7"/><circle cx="736" cy="96" r="8" fill="#474C52" opacity="0.4"/><rect x="776" y="72" width="48" height="48" rx="8" fill="none" stroke="#767C83" stroke-width="3" opacity="0.7"/><circle cx="800" cy="96" r="8" fill="#474C52" opacity="0.4"/><rect x="840" y="72" width="48" height="48" rx="8" fill="none" stroke="#767C83" stroke-width="3" opacity="0.7"/><circle cx="864" cy="96" r="8" fill="#474C52" opacity="0.4"/><rect x="904" y="72" width="48" height="48" rx="8" fill="none" stroke="#767C83" stroke-width="3" opacity="0.7"/><circle cx="928" cy="96" r="8" fill="#474C52" opacity="0.4"/><rect x="968" y="72" width="48" height="48" rx="8" fill="none" stroke="#767C83" stroke-width="3" opacity="0.7"/><circle cx="992" cy="96" r="8" fill="#474C52" opacity="0.4"/><rect x="1032" y="72" width="48" height="48" rx="8" fill="none" stroke="#767C83" stroke-width="3" opacity="0.7"/><circle cx="1056" cy="96" r="8" fill="#474C52" opacity="0.4"/><rect x="1096" y="72" width="48" height="48" rx="8" fill="none" stroke="#767C83" stroke-width="3" opacity="0.7"/><circle cx="1120" cy="96" r="8" fill="#474C52" opacity="0.4"/><rect x="1160" y="72" width="48" height="48" rx="8" fill="none" stroke="#767C83" stroke-width="3" opacity="0.7"/><circle cx="1184" cy="96" r="8" fill="#474C52" opacity="0.4"/><rect x="8" y="136" width="48" height="48" rx="8" fill="none" stroke="#767C83" stroke-width="3" opacity="0.7"/><circle cx="32" cy="160" r="8" fill="#474C52" opacity="0.4"/><rect x="72" y="136" width="48" height="48" rx="8" fill="none" stroke="#767C83" stroke-width="3" opacity="0.7"/><circle cx="96" cy="160" r="8" fill="#474C52" opacity="0.4"/><rect x="136" y="136" width="48" height="48" rx="8" fill="none" stroke="#767C83" stroke-width="3" opacity="0.7"/><circle cx="160" cy="160" r="8" fill="#474C52" opacity="0.4"/><rect x="200" y="136" width="48" height="48" rx="8" fill="none" stroke="#767C83" stroke-width="3" opacity="0.7"/><circle cx="224" cy="160" r="8" fill="#474C52" opacity="0.4"/><rect x="264" y="136" width="48" height="48" rx="8" fill="none" stroke="#767C83" stroke-width="3" opacity="0.7"/><circle cx="288" cy="160" r="8" fill="#474C52" opacity="0.4"/><rect x="328" y="136" width="48" height="48" rx="8" fill="none" stroke="#767C83" stroke-width="3" opacity="0.7"/><circle cx="352" cy="160" r="8" fill="#474C52" opacity="0.4"/><rect x="392" y="136" width="48" height="48" rx="8" fill="none" stroke="#767C83" stroke-width="3" opacity="0.7"/><circle cx="416" cy="160" r="8" fill="#474C52" opacity="0.4"/><rect x="456" y="136" width="48" height="48" rx="8" fill="none" stroke="#767C83" stroke-width="3" opacity="0.7"/><circle cx="480" cy="160" r="8" fill="#474C52" opacity="0.4"/><rect x="520" y="136" width="48" height="48" rx="8" fill="none" stroke="#767C83" stroke-width="3" opacity="0.7"/><circle cx="544" cy="160" r="8" fill="#474C52" opacity="0.4"/><rect x="584" y="136" width="48" height="48" rx="8" fill="none" stroke="#767C83" stroke-width="3" opacity="0.7"/><circle cx="608" cy="160" r="8" fill="#474C52" opacity="0.4"/><rect x="648" y="136" width="48" height="48" rx="8" fill="none" stroke="#767C83" stroke-width="3" opacity="0.7"/><circle cx="672" cy="160" r="8" fill="#474C52" opacity="0.4"/><rect x="712" y="136" width="48" height="48" rx="8" fill="none" stroke="#767C83" stroke-width="3" opacity="0.7"/><circle cx="736" cy="160" r="8" fill="#474C52" opacity="0.4"/><rect x="776" y="136" width="48" height="48" rx="8" fill="none" stroke="#767C83" stroke-width="3" opacity="0.7"/><circle cx="800" cy="160" r="8" fill="#474C52" opacity="0.4"/><rect x="840" y="136" width="48" height="48" rx="8" fill="none" stroke="#767C83" stroke-width="3" opacity="0.7"/><circle cx="864" cy="160" r="8" fill="#474C52" opacity="0.4"/><rect x="904" y="136" width="48" height="48" rx="8" fill="none" stroke="#767C83" stroke-width="3" opacity="0.7"/><circle cx="928" cy="160" r="8" fill="#474C52" opacity="0.4"/><rect x="968" y="136" width="48" height="48" rx="8" fill="none" stroke="#767C83" stroke-width="3" opacity="0.7"/><circle cx="992" cy="160" r="8" fill="#474C52" opacity="0.4"/><rect x="1032" y="136" width="48" height="48" rx="8" fill="none" stroke="#767C83" stroke-width="3" opacity="0.7"/><circle cx="1056" cy="160" r="8" fill="#474C52" opacity="0.4"/><rect x="1096" y="136" width="48" height="48" rx="8" fill="none" stroke="#767C83" stroke-width="3" opacity="0.7"/><circle cx="1120" cy="160" r="8" fill="#474C52" opacity="0.4"/><rect x="1160" y="136" width="48" height="48" rx="8" fill="none" stroke="#767C83" stroke-width="3" opacity="0.7"/><circle cx="1184" cy="160" r="8" fill="#474C52" opacity="0.4"/><rect x="8" y="200" width="48" height="48" rx="8" fill="none" stroke="#767C83" stroke-width="3" opacity="0.7"/><circle cx="32" cy="224" r="8" fill="#474C52" opacity="0.4"/><rect x="72" y="200" width="48" height="48" rx="8" fill="none" stroke="#767C83" stroke-width="3" opacity="0.7"/><circle cx="96" cy="224" r="8" fill="#474C52" opacity="0.4"/><rect x="136" y="200" width="48" height="48" rx="8" fill="none" stroke="#767C83" stroke-width="3" opacity="0.7"/><circle cx="160" cy="224" r="8" fill="#474C52" opacity="0.4"/><rect x="200" y="200" width="48" height="48" rx="8" fill="none" stroke="#767C83" stroke-width="3" opacity="0.7"/><circle cx="224" cy="224" r="8" fill="#474C52" opacity="0.4"/><rect x="264" y="200" width="48" height="48" rx="8" fill="none" stroke="#767C83" stroke-width="3" opacity="0.7"/><circle cx="288" cy="224" r="8" fill="#474C52" opacity="0.4"/><rect x="328" y="200" width="48" height="48" rx="8" fill="none" stroke="#767C83" stroke-width="3" opacity="0.7"/><circle cx="352" cy="224" r="8" fill="#474C52" opacity="0.4"/><rect x="392" y="200" width="48" height="48" rx="8" fill="none" stroke="#767C83" stroke-width="3" opacity="0.7"/><circle cx="416" cy="224" r="8" fill="#474C52" opacity="0.4"/><rect x="456" y="200" width="48" height="48" rx="8" fill="none" stroke="#767C83" stroke-width="3" opacity="0.7"/><circle cx="480" cy="224" r="8" fill="#474C52" opacity="0.4"/><rect x="520" y="200" width="48" height="48" rx="8" fill="none" stroke="#767C83" stroke-width="3" opacity="0.7"/><circle cx="544" cy="224" r="8" fill="#474C52" opacity="0.4"/><rect x="584" y="200" width="48" height="48" rx="8" fill="none" stroke="#767C83" stroke-width="3" opacity="0.7"/><circle cx="608" cy="224" r="8" fill="#474C52" opacity="0.4"/><rect x="648" y="200" width="48" height="48" rx="8" fill="none" stroke="#767C83" stroke-width="3" opacity="0.7"/><circle cx="672" cy="224" r="8" fill="#474C52" opacity="0.4"/><rect x="712" y="200" width="48" height="48" rx="8" fill="none" stroke="#767C83" stroke-width="3" opacity="0.7"/><circle cx="736" cy="224" r="8" fill="#474C52" opacity="0.4"/><rect x="776" y="200" width="48" height="48" rx="8" fill="none" stroke="#767C83" stroke-width="3" opacity="0.7"/><circle cx="800" cy="224" r="8" fill="#474C52" opacity="0.4"/><rect x="840" y="200" width="48" height="48" rx="8" fill="none" stroke="#767C83" stroke-width="3" opacity="0.7"/><circle cx="864" cy="224" r="8" fill="#474C52" opacity="0.4"/><rect x="904" y="200" width="48" height="48" rx="8" fill="none" stroke="#767C83" stroke-width="3" opacity="0.7"/><circle cx="928" cy="224" r="8" fill="#474C52" opacity="0.4"/><rect x="968" y="200" width="48" height="48" rx="8" fill="none" stroke="#767C83" stroke-width="3" opacity="0.7"/><circle cx="992" cy="224" r="8" fill="#474C52" opacity="0.4"/><rect x="1032" y="200" width="48" height="48" rx="8" fill="none" stroke="#767C83" stroke-width="3" opacity="0.7"/><circle cx="1056" cy="224" r="8" fill="#474C52" opacity="0.4"/><rect x="1096" y="200" width="48" height="48" rx="8" fill="none" stroke="#767C83" stroke-width="3" opacity="0.7"/><circle cx="1120" cy="224" r="8" fill="#474C52" opacity="0.4"/><rect x="1160" y="200" width="48" height="48" rx="8" fill="none" stroke="#767C83" stroke-width="3" opacity="0.7"/><circle cx="1184" cy="224" r="8" fill="#474C52" opacity="0.4"/><rect x="8" y="264" width="48" height="48" rx="8" fill="none" stroke="#767C83" stroke-width="3" opacity="0.7"/><circle cx="32" cy="288" r="8" fill="#474C52" opacity="0.4"/><rect x="72" y="264" width="48" height="48" rx="8" fill="none" stroke="#767C83" stroke-width="3" opacity="0.7"/><circle cx="96" cy="288" r="8" fill="#474C52" opacity="0.4"/><rect x="136" y="264" width="48" height="48" rx="8" fill="none" stroke="#767C83" stroke-width="3" opacity="0.7"/><circle cx="160" cy="288" r="8" fill="#474C52" opacity="0.4"/><rect x="200" y="264" width="48" height="48" rx="8" fill="none" stroke="#767C83" stroke-width="3" opacity="0.7"/><circle cx="224" cy="288" r="8" fill="#474C52" opacity="0.4"/><rect x="264" y="264" width="48" height="48" rx="8" fill="none" stroke="#767C83" stroke-width="3" opacity="0.7"/><circle cx="288" cy="288" r="8" fill="#474C52" opacity="0.4"/><rect x="328" y="264" width="48" height="48" rx="8" fill="none" stroke="#767C83" stroke-width="3" opacity="0.7"/><circle cx="352" cy="288" r="8" fill="#474C52" opacity="0.4"/><rect x="392" y="264" width="48" height="48" rx="8" fill="none" stroke="#767C83" stroke-width="3" opacity="0.7"/><circle cx="416" cy="288" r="8" fill="#474C52" opacity="0.4"/><rect x="456" y="264" width="48" height="48" rx="8" fill="none" stroke="#767C83" stroke-width="3" opacity="0.7"/><circle cx="480" cy="288" r="8" fill="#474C52" opacity="0.4"/><rect x="520" y="264" width="48" height="48" rx="8" fill="none" stroke="#767C83" stroke-width="3" opacity="0.7"/><circle cx="544" cy="288" r="8" fill="#474C52" opacity="0.4"/><rect x="584" y="264" width="48" height="48" rx="8" fill="none" stroke="#767C83" stroke-width="3" opacity="0.7"/><circle cx="608" cy="288" r="8" fill="#474C52" opacity="0.4"/><rect x="648" y="264" width="48" height="48" rx="8" fill="none" stroke="#767C83" stroke-width="3" opacity="0.7"/><circle cx="672" cy="288" r="8" fill="#474C52" opacity="0.4"/><rect x="712" y="264" width="48" height="48" rx="8" fill="none" stroke="#767C83" stroke-width="3" opacity="0.7"/><circle cx="736" cy="288" r="8" fill="#474C52" opacity="0.4"/><rect x="776" y="264" width="48" height="48" rx="8" fill="none" stroke="#767C83" stroke-width="3" opacity="0.7"/><circle cx="800" cy="288" r="8" fill="#474C52" opacity="0.4"/><rect x="840" y="264" width="48" height="48" rx="8" fill="none" stroke="#767C83" stroke-width="3" opacity="0.7"/><circle cx="864" cy="288" r="8" fill="#474C52" opacity="0.4"/><rect x="904" y="264" width="48" height="48" rx="8" fill="none" stroke="#767C83" stroke-width="3" opacity="0.7"/><circle cx="928" cy="288" r="8" fill="#474C52" opacity="0.4"/><rect x="968" y="264" width="48" height="48" rx="8" fill="none" stroke="#767C83" stroke-width="3" opacity="0.7"/><circle cx="992" cy="288" r="8" fill="#474C52" opacity="0.4"/><rect x="1032" y="264" width="48" height="48" rx="8" fill="none" stroke="#767C83" stroke-width="3" opacity="0.7"/><circle cx="1056" cy="288" r="8" fill="#474C52" opacity="0.4"/><rect x="1096" y="264" width="48" height="48" rx="8" fill="none" stroke="#767C83" stroke-width="3" opacity="0.7"/><circle cx="1120" cy="288" r="8" fill="#474C52" opacity="0.4"/><rect x="1160" y="264" width="48" height="48" rx="8" fill="none" stroke="#767C83" stroke-width="3" opacity="0.7"/><circle cx="1184" cy="288" r="8" fill="#474C52" opacity="0.4"/><rect x="8" y="328" width="48" height="48" rx="8" fill="none" stroke="#767C83" stroke-width="3" opacity="0.7"/><circle cx="32" cy="352" r="8" fill="#474C52" opacity="0.4"/><rect x="72" y="328" width="48" height="48" rx="8" fill="none" stroke="#767C83" stroke-width="3" opacity="0.7"/><circle cx="96" cy="352" r="8" fill="#474C52" opacity="0.4"/><rect x="136" y="328" width="48" height="48" rx="8" fill="none" stroke="#767C83" stroke-width="3" opacity="0.7"/><circle cx="160" cy="352" r="8" fill="#474C52" opacity="0.4"/><rect x="200" y="328" width="48" height="48" rx="8" fill="none" stroke="#767C83" stroke-width="3" opacity="0.7"/><circle cx="224" cy="352" r="8" fill="#474C52" opacity="0.4"/><rect x="264" y="328" width="48" height="48" rx="8" fill="none" stroke="#767C83" stroke-width="3" opacity="0.7"/><circle cx="288" cy="352" r="8" fill="#474C52" opacity="0.4"/><rect x="328" y="328" width="48" height="48" rx="8" fill="none" stroke="#767C83" stroke-width="3" opacity="0.7"/><circle cx="352" cy="352" r="8" fill="#474C52" opacity="0.4"/><rect x="392" y="328" width="48" height="48" rx="8" fill="none" stroke="#767C83" stroke-width="3" opacity="0.7"/><circle cx="416" cy="352" r="8" fill="#474C52" opacity="0.4"/><rect x="456" y="328" width="48" height="48" rx="8" fill="none" stroke="#767C83" stroke-width="3" opacity="0.7"/><circle cx="480" cy="352" r="8" fill="#474C52" opacity="0.4"/><rect x="520" y="328" width="48" height="48" rx="8" fill="none" stroke="#767C83" stroke-width="3" opacity="0.7"/><circle cx="544" cy="352" r="8" fill="#474C52" opacity="0.4"/><rect x="584" y="328" width="48" height="48" rx="8" fill="none" stroke="#767C83" stroke-width="3" opacity="0.7"/><circle cx="608" cy="352" r="8" fill="#474C52" opacity="0.4"/><rect x="648" y="328" width="48" height="48" rx="8" fill="none" stroke="#767C83" stroke-width="3" opacity="0.7"/><circle cx="672" cy="352" r="8" fill="#474C52" opacity="0.4"/><rect x="712" y="328" width="48" height="48" rx="8" fill="none" stroke="#767C83" stroke-width="3" opacity="0.7"/><circle cx="736" cy="352" r="8" fill="#474C52" opacity="0.4"/><rect x="776" y="328" width="48" height="48" rx="8" fill="none" stroke="#767C83" stroke-width="3" opacity="0.7"/><circle cx="800" cy="352" r="8" fill="#474C52" opacity="0.4"/><rect x="840" y="328" width="48" height="48" rx="8" fill="none" stroke="#767C83" stroke-width="3" opacity="0.7"/><circle cx="864" cy="352" r="8" fill="#474C52" opacity="0.4"/><rect x="904" y="328" width="48" height="48" rx="8" fill="none" stroke="#767C83" stroke-width="3" opacity="0.7"/><circle cx="928" cy="352" r="8" fill="#474C52" opacity="0.4"/><rect x="968" y="328" width="48" height="48" rx="8" fill="none" stroke="#767C83" stroke-width="3" opacity="0.7"/><circle cx="992" cy="352" r="8" fill="#474C52" opacity="0.4"/><rect x="1032" y="328" width="48" height="48" rx="8" fill="none" stroke="#767C83" stroke-width="3" opacity="0.7"/><circle cx="1056" cy="352" r="8" fill="#474C52" opacity="0.4"/><rect x="1096" y="328" width="48" height="48" rx="8" fill="none" stroke="#767C83" stroke-width="3" opacity="0.7"/><circle cx="1120" cy="352" r="8" fill="#474C52" opacity="0.4"/><rect x="1160" y="328" width="48" height="48" rx="8" fill="none" stroke="#767C83" stroke-width="3" opacity="0.7"/><circle cx="1184" cy="352" r="8" fill="#474C52" opacity="0.4"/><rect x="8" y="392" width="48" height="48" rx="8" fill="none" stroke="#767C83" stroke-width="3" opacity="0.7"/><circle cx="32" cy="416" r="8" fill="#474C52" opacity="0.4"/><rect x="72" y="392" width="48" height="48" rx="8" fill="none" stroke="#767C83" stroke-width="3" opacity="0.7"/><circle cx="96" cy="416" r="8" fill="#474C52" opacity="0.4"/><rect x="136" y="392" width="48" height="48" rx="8" fill="none" stroke="#767C83" stroke-width="3" opacity="0.7"/><circle cx="160" cy="416" r="8" fill="#474C52" opacity="0.4"/><rect x="200" y="392" width="48" height="48" rx="8" fill="none" stroke="#767C83" stroke-width="3" opacity="0.7"/><circle cx="224" cy="416" r="8" fill="#474C52" opacity="0.4"/><rect x="264" y="392" width="48" height="48" rx="8" fill="none" stroke="#767C83" stroke-width="3" opacity="0.7"/><circle cx="288" cy="416" r="8" fill="#474C52" opacity="0.4"/><rect x="328" y="392" width="48" height="48" rx="8" fill="none" stroke="#767C83" stroke-width="3" opacity="0.7"/><circle cx="352" cy="416" r="8" fill="#474C52" opacity="0.4"/><rect x="392" y="392" width="48" height="48" rx="8" fill="none" stroke="#767C83" stroke-width="3" opacity="0.7"/><circle cx="416" cy="416" r="8" fill="#474C52" opacity="0.4"/><rect x="456" y="392" width="48" height="48" rx="8" fill="none" stroke="#767C83" stroke-width="3" opacity="0.7"/><circle cx="480" cy="416" r="8" fill="#474C52" opacity="0.4"/><rect x="520" y="392" width="48" height="48" rx="8" fill="none" stroke="#767C83" stroke-width="3" opacity="0.7"/><circle cx="544" cy="416" r="8" fill="#474C52" opacity="0.4"/><rect x="584" y="392" width="48" height="48" rx="8" fill="none" stroke="#767C83" stroke-width="3" opacity="0.7"/><circle cx="608" cy="416" r="8" fill="#474C52" opacity="0.4"/><rect x="648" y="392" width="48" height="48" rx="8" fill="none" stroke="#767C83" stroke-width="3" opacity="0.7"/><circle cx="672" cy="416" r="8" fill="#474C52" opacity="0.4"/><rect x="712" y="392" width="48" height="48" rx="8" fill="none" stroke="#767C83" stroke-width="3" opacity="0.7"/><circle cx="736" cy="416" r="8" fill="#474C52" opacity="0.4"/><rect x="776" y="392" width="48" height="48" rx="8" fill="none" stroke="#767C83" stroke-width="3" opacity="0.7"/><circle cx="800" cy="416" r="8" fill="#474C52" opacity="0.4"/><rect x="840" y="392" width="48" height="48" rx="8" fill="none" stroke="#767C83" stroke-width="3" opacity="0.7"/><circle cx="864" cy="416" r="8" fill="#474C52" opacity="0.4"/><rect x="904" y="392" width="48" height="48" rx="8" fill="none" stroke="#767C83" stroke-width="3" opacity="0.7"/><circle cx="928" cy="416" r="8" fill="#474C52" opacity="0.4"/><rect x="968" y="392" width="48" height="48" rx="8" fill="none" stroke="#767C83" stroke-width="3" opacity="0.7"/><circle cx="992" cy="416" r="8" fill="#474C52" opacity="0.4"/><rect x="1032" y="392" width="48" height="48" rx="8" fill="none" stroke="#767C83" stroke-width="3" opacity="0.7"/><circle cx="1056" cy="416" r="8" fill="#474C52" opacity="0.4"/><rect x="1096" y="392" width="48" height="48" rx="8" fill="none" stroke="#767C83" stroke-width="3" opacity="0.7"/><circle cx="1120" cy="416" r="8" fill="#474C52" opacity="0.4"/><rect x="1160" y="392" width="48" height="48" rx="8" fill="none" stroke="#767C83" stroke-width="3" opacity="0.7"/><circle cx="1184" cy="416" r="8" fill="#474C52" opacity="0.4"/><rect x="24" y="302" width="353" height="42" rx="8" fill="#160F09" opacity="0.9"/><text x="40" y="330" font-family="Arial" font-size="20" font-weight="bold" fill="#E8A33D" letter-spacing="2">MDF &amp; HDHMR DESIGN PANELS</text></svg>