<svg xmlns="http://www.w3.org/2000/svg" viewBox="0 0 1200 420" width="1200" height="420" role="img" aria-label="PVC Wall Panels"><rect width="1200" height="420" fill="#D8CFC0"/><line x1="-10" y1="155" x2="1200" y2="159" stroke="#B9AE9A" stroke-width="1.0" opacity="0.33"/><line x1="-10" y1="84" x2="1200" y2="84" stroke="#B9AE9A" stroke-width="1.9" opacity="0.30"/><line x1="-10" y1="158" x2="1200" y2="162" stroke="#B9AE9A" stroke-width="0.9" opacity="0.21"/><line x1="-10" y1="379" x2="1200" y2="373" stroke="#B9AE9A" stroke-width="1.2" opacity="0.31"/><line x1="-10" y1="344" x2="1200" y2="348" stroke="#B9AE9A" stroke-width="1.4" opacity="0.28"/><line x1="-10" y1="385" x2="1200" y2="386" stroke="#B9AE9A" stroke-width="1.7" opacity="0.31"/><line x1="-10" y1="400" x2="1200" y2="405" stroke="#B9AE9A" stroke-width="1.9" opacity="0.29"/><line x1="-10" y1="5" x2="1200" y2="5" stroke="#B9AE9A" stroke-width="1.4" opacity="0.16"/><line x1="-10" y1="155" x2="1200" y2="159" stroke="#B9AE9A" stroke-width="1.0" opacity="0.33"/><line x1="-10" y1="84" x2="1200" y2="84" stroke="#B9AE9A" stroke-width="1.9" opacity="0.30"/><line x1="-10" y1="158" x2="1200" y2="162" stroke="#B9AE9A" stroke-width="0.9" opacity="0.21"/><line x1="-10" y1="379" x2="1200" y2="373" stroke="#B9AE9A" stroke-width="1.2" opacity="0.31"/><line x1="-10" y1="344" x2="1200" y2="348" stroke="#B9AE9A" stroke-width="1.4" opacity="0.28"/><line x1="-10" y1="385" x2="1200" y2="386" stroke="#B9AE9A" stroke-width="1.7" opacity="0.31"/><line x1="-10" y1="400" x2="1200" y2="405" stroke="#B9AE9A" stroke-width="1.9" opacity="0.29"/><line x1="-10" y1="5" x2="1200" y2="5" stroke="#B9AE9A" stroke-width="1.4" opacity="0.16"/><line x1="-10" y1="155" x2="1200" y2="159" stroke="#B9AE9A" stroke-width="1.0" opacity="0.33"/><line x1="-10" y1="84" x2="1200" y2="84" stroke="#B9AE9A" stroke-width="1.9" opacity="0.30"/><line x1="-10" y1="158" x2="1200" y2="162" stroke="#B9AE9A" stroke-width="0.9" opacity="0.21"/><line x1="-10" y1="379" x2="1200" y2="373" stroke="#B9AE9A" stroke-width="1.2" opacity="0.31"/><line x1="-10" y1="344" x2="1200" y2="348" stroke="#B9AE9A" stroke-width="1.4" opacity="0.28"/><line x1="-10" y1="385" x2="1200" y2="386" stroke="#B9AE9A" stroke-width="1.7" opacity="0.31"/><line x1="-10" y1="400" x2="1200" y2="405" stroke="#B9AE9A" stroke-width="1.9" opacity="0.29"/><line x1="-10" y1="5" x2="1200" y2="5" stroke="#B9AE9A" stroke-width="1.4" opacity="0.16"/><line x1="-10" y1="155" x2="1200" y2="159" stroke="#B9AE9A" stroke-width="1.0" opacity="0.33"/><line x1="-10" y1="84" x2="1200" y2="84" stroke="#B9AE9A" stroke-width="1.9" opacity="0.30"/><line x1="-10" y1="158" x2="1200" y2="162" stroke="#B9AE9A" stroke-width="0.9" opacity="0.21"/><line x1="-10" y1="379" x2="1200" y2="373" stroke="#B9AE9A" stroke-width="1.2" opacity="0.31"/><line x1="-10" y1="344" x2="1200" y2="348" stroke="#B9AE9A" stroke-width="1.4" opacity="0.28"/><line x1="-10" y1="385" x2="1200" y2="386" stroke="#B9AE9A" stroke-width="1.7" opacity="0.31"/><line x1="-10" y1="400" x2="1200" y2="405" stroke="#B9AE9A" stroke-width="1.9" opacity="0.29"/><line x1="-10" y1="5" x2="1200" y2="5" stroke="#B9AE9A" stroke-width="1.4" opacity="0.16"/><line x1="-10" y1="155" x2="1200" y2="159" stroke="#B9AE9A" stroke-width="1.0" opacity="0.33"/><line x1="-10" y1="84" x2="1200" y2="84" stroke="#B9AE9A" stroke-width="1.9" opacity="0.30"/><line x1="-10" y1="158" x2="1200" y2="162" stroke="#B9AE9A" stroke-width="0.9" opacity="0.21"/><line x1="-10" y1="379" x2="1200" y2="373" stroke="#B9AE9A" stroke-width="1.2" opacity="0.31"/><line x1="-10" y1="344" x2="1200" y2="348" stroke="#B9AE9A" stroke-width="1.4" opacity="0.28"/><line x1="-10" y1="385" x2="1200" y2="386" stroke="#B9AE9A" stroke-width="1.7" opacity="0.31"/><line x1="-10" y1="400" x2="1200" y2="405" stroke="#B9AE9A" stroke-width="1.9" opacity="0.29"/><line x1="-10" y1="5" x2="1200" y2="5" stroke="#B9AE9A" stroke-width="1.4" opacity="0.16"/><line x1="-10" y1="155" x2="1200" y2="159" stroke="#B9AE9A" stroke-width="1.0" opacity="0.33"/><line x1="-10" y1="84" x2="1200" y2="84" stroke="#B9AE9A" stroke-width="1.9" opacity="0.30"/><line x1="-10" y1="158" x2="1200" y2="162" stroke="#B9AE9A" stroke-width="0.9" opacity="0.21"/><line x1="-10" y1="379" x2="1200" y2="373" stroke="#B9AE9A" stroke-width="1.2" opacity="0.31"/><line x1="-10" y1="344" x2="1200" y2="348" stroke="#B9AE9A" stroke-width="1.4" opacity="0.28"/><line x1="-10" y1="385" x2="1200" y2="386" stroke="#B9AE9A" stroke-width="1.7" opacity="0.31"/><line x1="-10" y1="400" x2="1200" y2="405" stroke="#B9AE9A" stroke-width="1.9" opacity="0.29"/><line x1="-10" y1="5" x2="1200" y2="5" stroke="#B9AE9A" stroke-width="1.4" opacity="0.16"/><line x1="-10" y1="155" x2="1200" y2="159" stroke="#B9AE9A" stroke-width="1.0" opacity="0.33"/><line x1="-10" y1="84" x2="1200" y2="84" stroke="#B9AE9A" stroke-width="1.9" opacity="0.30"/><line x1="-10" y1="158" x2="1200" y2="162" stroke="#B9AE9A" stroke-width="0.9" opacity="0.21"/><line x1="-10" y1="379" x2="1200" y2="373" stroke="#B9AE9A" stroke-width="1.2" opacity="0.31"/><line x1="-10" y1="344" x2="1200" y2="348" stroke="#B9AE9A" stroke-width="1.4" opacity="0.28"/><line x1="-10" y1="385" x2="1200" y2="386" stroke="#B9AE9A" stroke-width="1.7" opacity="0.31"/><line x1="-10" y1="400" x2="1200" y2="405" stroke="#B9AE9A" stroke-width="1.9" opacity="0.29"/><line x1="-10" y1="5" x2="1200" y2="5" stroke="#B9AE9A" stroke-width="1.4" opacity="0.16"/><line x1="-10" y1="155" x2="1200" y2="159" stroke="#B9AE9A" stroke-width="1.0" opacity="0.33"/><line x1="-10" y1="84" x2="1200" y2="84" stroke="#B9AE9A" stroke-width="1.9" opacity="0.30"/><line x1="-10" y1="158" x2="1200" y2="162" stroke="#B9AE9A" stroke-width="0.9" opacity="0.21"/><line x1="-10" y1="379" x2="1200" y2="373" stroke="#B9AE9A" stroke-width="1.2" opacity="0.31"/><line x1="-10" y1="344" x2="1200" y2="348" stroke="#B9AE9A" stroke-width="1.4" opacity="0.28"/><line x1="-10" y1="385" x2="1200" y2="386" stroke="#B9AE9A" stroke-width="1.7" opacity="0.31"/><line x1="-10" y1="400" x2="1200" y2="405" stroke="#B9AE9A" stroke-width="1.9" opacity="0.29"/><line x1="-10" y1="5" x2="1200" y2="5" stroke="#B9AE9A" stroke-width="1.4" opacity="0.16"/><line x1="-10" y1="155" x2="1200" y2="159" stroke="#B9AE9A" stroke-width="1.0" opacity="0.33"/><line x1="-10" y1="84" x2="1200" y2="84" stroke="#B9AE9A" stroke-width="1.9" opacity="0.30"/><line x1="-10" y1="158" x2="1200" y2="162" stroke="#B9AE9A" stroke-width="0.9" opacity="0.21"/><line x1="-10" y1="379" x2="1200" y2="373" stroke="#B9AE9A" stroke-width="1.2" opacity="0.31"/><line x1="-10" y1="344" x2="1200" y2="348" stroke="#B9AE9A" stroke-width="1.4" opacity="0.28"/><line x1="-10" y1="385" x2="1200" y2="386" stroke="#B9AE9A" stroke-width="1.7" opacity="0.31"/><rect x="24" y="302" width="223" height="42" rx="8" fill="#160F09" opacity="0.9"/><text x="40" y="330" font-family="Arial" font-size="20" font-weight="bold" fill="#E8A33D" letter-spacing="2">PVC WALL PANELS</text></svg>