<svg xmlns="http://www.w3.org/2000/svg" viewBox="0 0 1200 420" width="1200" height="420" role="img" aria-label="Decorative, Fabric &amp; Duco Sheets"><rect width="1200" height="420" fill="#8A5A2B"/><line x1="-10" y1="260" x2="1200" y2="255" stroke="#5C3A21" stroke-width="0.7" opacity="0.39"/><line x1="-10" y1="219" x2="1200" y2="216" stroke="#5C3A21" stroke-width="1.5" opacity="0.36"/><line x1="-10" y1="408" x2="1200" y2="406" stroke="#5C3A21" stroke-width="0.8" opacity="0.22"/><line x1="-10" y1="140" x2="1200" y2="134" stroke="#5C3A21" stroke-width="0.8" opacity="0.32"/><line x1="-10" y1="104" x2="1200" y2="100" stroke="#5C3A21" stroke-width="1.6" opacity="0.30"/><line x1="-10" y1="82" x2="1200" y2="87" stroke="#5C3A21" stroke-width="1.3" opacity="0.27"/><line x1="-10" y1="400" x2="1200" y2="396" stroke="#5C3A21" stroke-width="1.0" opacity="0.24"/><line x1="-10" y1="71" x2="1200" y2="65" stroke="#5C3A21" stroke-width="0.7" opacity="0.23"/><line x1="-10" y1="260" x2="1200" y2="255" stroke="#5C3A21" stroke-width="0.7" opacity="0.39"/><line x1="-10" y1="219" x2="1200" y2="216" stroke="#5C3A21" stroke-width="1.5" opacity="0.36"/><line x1="-10" y1="408" x2="1200" y2="406" stroke="#5C3A21" stroke-width="0.8" opacity="0.22"/><line x1="-10" y1="140" x2="1200" y2="134" stroke="#5C3A21" stroke-width="0.8" opacity="0.32"/><line x1="-10" y1="104" x2="1200" y2="100" stroke="#5C3A21" stroke-width="1.6" opacity="0.30"/><line x1="-10" y1="82" x2="1200" y2="87" stroke="#5C3A21" stroke-width="1.3" opacity="0.27"/><line x1="-10" y1="400" x2="1200" y2="396" stroke="#5C3A21" stroke-width="1.0" opacity="0.24"/><line x1="-10" y1="71" x2="1200" y2="65" stroke="#5C3A21" stroke-width="0.7" opacity="0.23"/><line x1="-10" y1="260" x2="1200" y2="255" stroke="#5C3A21" stroke-width="0.7" opacity="0.39"/><line x1="-10" y1="219" x2="1200" y2="216" stroke="#5C3A21" stroke-width="1.5" opacity="0.36"/><line x1="-10" y1="408" x2="1200" y2="406" stroke="#5C3A21" stroke-width="0.8" opacity="0.22"/><line x1="-10" y1="140" x2="1200" y2="134" stroke="#5C3A21" stroke-width="0.8" opacity="0.32"/><line x1="-10" y1="104" x2="1200" y2="100" stroke="#5C3A21" stroke-width="1.6" opacity="0.30"/><line x1="-10" y1="82" x2="1200" y2="87" stroke="#5C3A21" stroke-width="1.3" opacity="0.27"/><line x1="-10" y1="400" x2="1200" y2="396" stroke="#5C3A21" stroke-width="1.0" opacity="0.24"/><line x1="-10" y1="71" x2="1200" y2="65" stroke="#5C3A21" stroke-width="0.7" opacity="0.23"/><line x1="-10" y1="260" x2="1200" y2="255" stroke="#5C3A21" stroke-width="0.7" opacity="0.39"/><line x1="-10" y1="219" x2="1200" y2="216" stroke="#5C3A21" stroke-width="1.5" opacity="0.36"/><line x1="-10" y1="408" x2="1200" y2="406" stroke="#5C3A21" stroke-width="0.8" opacity="0.22"/><line x1="-10" y1="140" x2="1200" y2="134" stroke="#5C3A21" stroke-width="0.8" opacity="0.32"/><line x1="-10" y1="104" x2="1200" y2="100" stroke="#5C3A21" stroke-width="1.6" opacity="0.30"/><line x1="-10" y1="82" x2="1200" y2="87" stroke="#5C3A21" stroke-width="1.3" opacity="0.27"/><line x1="-10" y1="400" x2="1200" y2="396" stroke="#5C3A21" stroke-width="1.0" opacity="0.24"/><line x1="-10" y1="71" x2="1200" y2="65" stroke="#5C3A21" stroke-width="0.7" opacity="0.23"/><line x1="-10" y1="260" x2="1200" y2="255" stroke="#5C3A21" stroke-width="0.7" opacity="0.39"/><line x1="-10" y1="219" x2="1200" y2="216" stroke="#5C3A21" stroke-width="1.5" opacity="0.36"/><line x1="-10" y1="408" x2="1200" y2="406" stroke="#5C3A21" stroke-width="0.8" opacity="0.22"/><line x1="-10" y1="140" x2="1200" y2="134" stroke="#5C3A21" stroke-width="0.8" opacity="0.32"/><line x1="-10" y1="104" x2="1200" y2="100" stroke="#5C3A21" stroke-width="1.6" opacity="0.30"/><line x1="-10" y1="82" x2="1200" y2="87" stroke="#5C3A21" stroke-width="1.3" opacity="0.27"/><line x1="-10" y1="400" x2="1200" y2="396" stroke="#5C3A21" stroke-width="1.0" opacity="0.24"/><line x1="-10" y1="71" x2="1200" y2="65" stroke="#5C3A21" stroke-width="0.7" opacity="0.23"/><line x1="-10" y1="260" x2="1200" y2="255" stroke="#5C3A21" stroke-width="0.7" opacity="0.39"/><line x1="-10" y1="219" x2="1200" y2="216" stroke="#5C3A21" stroke-width="1.5" opacity="0.36"/><line x1="-10" y1="408" x2="1200" y2="406" stroke="#5C3A21" stroke-width="0.8" opacity="0.22"/><line x1="-10" y1="140" x2="1200" y2="134" stroke="#5C3A21" stroke-width="0.8" opacity="0.32"/><line x1="-10" y1="104" x2="1200" y2="100" stroke="#5C3A21" stroke-width="1.6" opacity="0.30"/><line x1="-10" y1="82" x2="1200" y2="87" stroke="#5C3A21" stroke-width="1.3" opacity="0.27"/><line x1="-10" y1="400" x2="1200" y2="396" stroke="#5C3A21" stroke-width="1.0" opacity="0.24"/><line x1="-10" y1="71" x2="1200" y2="65" stroke="#5C3A21" stroke-width="0.7" opacity="0.23"/><line x1="-10" y1="260" x2="1200" y2="255" stroke="#5C3A21" stroke-width="0.7" opacity="0.39"/><line x1="-10" y1="219" x2="1200" y2="216" stroke="#5C3A21" stroke-width="1.5" opacity="0.36"/><line x1="-10" y1="408" x2="1200" y2="406" stroke="#5C3A21" stroke-width="0.8" opacity="0.22"/><line x1="-10" y1="140" x2="1200" y2="134" stroke="#5C3A21" stroke-width="0.8" opacity="0.32"/><line x1="-10" y1="104" x2="1200" y2="100" stroke="#5C3A21" stroke-width="1.6" opacity="0.30"/><line x1="-10" y1="82" x2="1200" y2="87" stroke="#5C3A21" stroke-width="1.3" opacity="0.27"/><line x1="-10" y1="400" x2="1200" y2="396" stroke="#5C3A21" stroke-width="1.0" opacity="0.24"/><line x1="-10" y1="71" x2="1200" y2="65" stroke="#5C3A21" stroke-width="0.7" opacity="0.23"/><line x1="-10" y1="260" x2="1200" y2="255" stroke="#5C3A21" stroke-width="0.7" opacity="0.39"/><line x1="-10" y1="219" x2="1200" y2="216" stroke="#5C3A21" stroke-width="1.5" opacity="0.36"/><line x1="-10" y1="408" x2="1200" y2="406" stroke="#5C3A21" stroke-width="0.8" opacity="0.22"/><line x1="-10" y1="140" x2="1200" y2="134" stroke="#5C3A21" stroke-width="0.8" opacity="0.32"/><line x1="-10" y1="104" x2="1200" y2="100" stroke="#5C3A21" stroke-width="1.6" opacity="0.30"/><line x1="-10" y1="82" x2="1200" y2="87" stroke="#5C3A21" stroke-width="1.3" opacity="0.27"/><line x1="-10" y1="400" x2="1200" y2="396" stroke="#5C3A21" stroke-width="1.0" opacity="0.24"/><line x1="-10" y1="71" x2="1200" y2="65" stroke="#5C3A21" stroke-width="0.7" opacity="0.23"/><line x1="-10" y1="260" x2="1200" y2="255" stroke="#5C3A21" stroke-width="0.7" opacity="0.39"/><line x1="-10" y1="219" x2="1200" y2="216" stroke="#5C3A21" stroke-width="1.5" opacity="0.36"/><line x1="-10" y1="408" x2="1200" y2="406" stroke="#5C3A21" stroke-width="0.8" opacity="0.22"/><line x1="-10" y1="140" x2="1200" y2="134" stroke="#5C3A21" stroke-width="0.8" opacity="0.32"/><line x1="-10" y1="104" x2="1200" y2="100" stroke="#5C3A21" stroke-width="1.6" opacity="0.30"/><line x1="-10" y1="82" x2="1200" y2="87" stroke="#5C3A21" stroke-width="1.3" opacity="0.27"/><rect x="24" y="302" width="444" height="42" rx="8" fill="#160F09" opacity="0.9"/><text x="40" y="330" font-family="Arial" font-size="20" font-weight="bold" fill="#E8A33D" letter-spacing="2">DECORATIVE, FABRIC &amp; DUCO SHEETS</text></svg>