<svg xmlns="http://www.w3.org/2000/svg" viewBox="0 0 1200 420" width="1200" height="420" role="img" aria-label="WPC &amp; Charcoal Louvers"><rect width="1200" height="420" fill="#8A6A44"/><rect x="0" y="0" width="25" height="420" fill="#6A4E2E"/><rect x="0" y="0" width="6" height="420" fill="#3E2C18" opacity="0.6"/><rect x="54" y="0" width="32" height="420" fill="#6A4E2E"/><rect x="54" y="0" width="6" height="420" fill="#3E2C18" opacity="0.6"/><rect x="116" y="0" width="32" height="420" fill="#6A4E2E"/><rect x="116" y="0" width="6" height="420" fill="#3E2C18" opacity="0.6"/><rect x="174" y="0" width="38" height="420" fill="#6A4E2E"/><rect x="174" y="0" width="6" height="420" fill="#3E2C18" opacity="0.6"/><rect x="228" y="0" width="25" height="420" fill="#6A4E2E"/><rect x="228" y="0" width="6" height="420" fill="#3E2C18" opacity="0.6"/><rect x="284" y="0" width="36" height="420" fill="#6A4E2E"/><rect x="284" y="0" width="6" height="420" fill="#3E2C18" opacity="0.6"/><rect x="344" y="0" width="26" height="420" fill="#6A4E2E"/><rect x="344" y="0" width="6" height="420" fill="#3E2C18" opacity="0.6"/><rect x="404" y="0" width="34" height="420" fill="#6A4E2E"/><rect x="404" y="0" width="6" height="420" fill="#3E2C18" opacity="0.6"/><rect x="465" y="0" width="29" height="420" fill="#6A4E2E"/><rect x="465" y="0" width="6" height="420" fill="#3E2C18" opacity="0.6"/><rect x="513" y="0" width="32" height="420" fill="#6A4E2E"/><rect x="513" y="0" width="6" height="420" fill="#3E2C18" opacity="0.6"/><rect x="560" y="0" width="32" height="420" fill="#6A4E2E"/><rect x="560" y="0" width="6" height="420" fill="#3E2C18" opacity="0.6"/><rect x="612" y="0" width="29" height="420" fill="#6A4E2E"/><rect x="612" y="0" width="6" height="420" fill="#3E2C18" opacity="0.6"/><rect x="667" y="0" width="36" height="420" fill="#6A4E2E"/><rect x="667" y="0" width="6" height="420" fill="#3E2C18" opacity="0.6"/><rect x="724" y="0" width="26" height="420" fill="#6A4E2E"/><rect x="724" y="0" width="6" height="420" fill="#3E2C18" opacity="0.6"/><rect x="782" y="0" width="24" height="420" fill="#6A4E2E"/><rect x="782" y="0" width="6" height="420" fill="#3E2C18" opacity="0.6"/><rect x="828" y="0" width="35" height="420" fill="#6A4E2E"/><rect x="828" y="0" width="6" height="420" fill="#3E2C18" opacity="0.6"/><rect x="881" y="0" width="25" height="420" fill="#6A4E2E"/><rect x="881" y="0" width="6" height="420" fill="#3E2C18" opacity="0.6"/><rect x="934" y="0" width="32" height="420" fill="#6A4E2E"/><rect x="934" y="0" width="6" height="420" fill="#3E2C18" opacity="0.6"/><rect x="996" y="0" width="32" height="420" fill="#6A4E2E"/><rect x="996" y="0" width="6" height="420" fill="#3E2C18" opacity="0.6"/><rect x="1054" y="0" width="38" height="420" fill="#6A4E2E"/><rect x="1054" y="0" width="6" height="420" fill="#3E2C18" opacity="0.6"/><rect x="1108" y="0" width="25" height="420" fill="#6A4E2E"/><rect x="1108" y="0" width="6" height="420" fill="#3E2C18" opacity="0.6"/><rect x="1164" y="0" width="36" height="420" fill="#6A4E2E"/><rect x="1164" y="0" width="6" height="420" fill="#3E2C18" opacity="0.6"/><rect x="24" y="302" width="314" height="42" rx="8" fill="#160F09" opacity="0.9"/><text x="40" y="330" font-family="Arial" font-size="20" font-weight="bold" fill="#E8A33D" letter-spacing="2">WPC &amp; CHARCOAL LOUVERS</text></svg>