<svg xmlns="http://www.w3.org/2000/svg" viewBox="0 0 1200 420" width="1200" height="420" role="img" aria-label="WPC Wall Panels"><rect width="1200" height="420" fill="#8A6A44"/><rect x="0" y="0" width="36" height="420" fill="#6A4E2E"/><rect x="0" y="0" width="6" height="420" fill="#3E2C18" opacity="0.6"/><rect x="52" y="0" width="36" height="420" fill="#6A4E2E"/><rect x="52" y="0" width="6" height="420" fill="#3E2C18" opacity="0.6"/><rect x="100" y="0" width="30" height="420" fill="#6A4E2E"/><rect x="100" y="0" width="6" height="420" fill="#3E2C18" opacity="0.6"/><rect x="152" y="0" width="34" height="420" fill="#6A4E2E"/><rect x="152" y="0" width="6" height="420" fill="#3E2C18" opacity="0.6"/><rect x="198" y="0" width="28" height="420" fill="#6A4E2E"/><rect x="198" y="0" width="6" height="420" fill="#3E2C18" opacity="0.6"/><rect x="260" y="0" width="29" height="420" fill="#6A4E2E"/><rect x="260" y="0" width="6" height="420" fill="#3E2C18" opacity="0.6"/><rect x="306" y="0" width="33" height="420" fill="#6A4E2E"/><rect x="306" y="0" width="6" height="420" fill="#3E2C18" opacity="0.6"/><rect x="359" y="0" width="26" height="420" fill="#6A4E2E"/><rect x="359" y="0" width="6" height="420" fill="#3E2C18" opacity="0.6"/><rect x="415" y="0" width="24" height="420" fill="#6A4E2E"/><rect x="415" y="0" width="6" height="420" fill="#3E2C18" opacity="0.6"/><rect x="475" y="0" width="36" height="420" fill="#6A4E2E"/><rect x="475" y="0" width="6" height="420" fill="#3E2C18" opacity="0.6"/><rect x="526" y="0" width="30" height="420" fill="#6A4E2E"/><rect x="526" y="0" width="6" height="420" fill="#3E2C18" opacity="0.6"/><rect x="583" y="0" width="38" height="420" fill="#6A4E2E"/><rect x="583" y="0" width="6" height="420" fill="#3E2C18" opacity="0.6"/><rect x="643" y="0" width="27" height="420" fill="#6A4E2E"/><rect x="643" y="0" width="6" height="420" fill="#3E2C18" opacity="0.6"/><rect x="696" y="0" width="35" height="420" fill="#6A4E2E"/><rect x="696" y="0" width="6" height="420" fill="#3E2C18" opacity="0.6"/><rect x="753" y="0" width="38" height="420" fill="#6A4E2E"/><rect x="753" y="0" width="6" height="420" fill="#3E2C18" opacity="0.6"/><rect x="815" y="0" width="32" height="420" fill="#6A4E2E"/><rect x="815" y="0" width="6" height="420" fill="#3E2C18" opacity="0.6"/><rect x="862" y="0" width="36" height="420" fill="#6A4E2E"/><rect x="862" y="0" width="6" height="420" fill="#3E2C18" opacity="0.6"/><rect x="914" y="0" width="36" height="420" fill="#6A4E2E"/><rect x="914" y="0" width="6" height="420" fill="#3E2C18" opacity="0.6"/><rect x="962" y="0" width="30" height="420" fill="#6A4E2E"/><rect x="962" y="0" width="6" height="420" fill="#3E2C18" opacity="0.6"/><rect x="1014" y="0" width="34" height="420" fill="#6A4E2E"/><rect x="1014" y="0" width="6" height="420" fill="#3E2C18" opacity="0.6"/><rect x="1060" y="0" width="28" height="420" fill="#6A4E2E"/><rect x="1060" y="0" width="6" height="420" fill="#3E2C18" opacity="0.6"/><rect x="1122" y="0" width="29" height="420" fill="#6A4E2E"/><rect x="1122" y="0" width="6" height="420" fill="#3E2C18" opacity="0.6"/><rect x="1168" y="0" width="33" height="420" fill="#6A4E2E"/><rect x="1168" y="0" width="6" height="420" fill="#3E2C18" opacity="0.6"/><rect x="24" y="302" width="223" height="42" rx="8" fill="#160F09" opacity="0.9"/><text x="40" y="330" font-family="Arial" font-size="20" font-weight="bold" fill="#E8A33D" letter-spacing="2">WPC WALL PANELS</text></svg>