<svg xmlns="http://www.w3.org/2000/svg" viewBox="0 0 1200 420" width="1200" height="420" role="img" aria-label="American Walnut"><rect width="1200" height="420" fill="#5C3A21"/><path d="M 336.00000000000006 420 C 276.00000000000006 252.0 306.00000000000006 126.0 336.00000000000006 0" stroke="#3E2614" stroke-width="1.9" fill="none" opacity="0.45"/><path d="M 336.00000000000006 420 C 396.00000000000006 252.0 366.00000000000006 126.0 336.00000000000006 0" stroke="#3E2614" stroke-width="3.4" fill="none" opacity="0.56"/><path d="M 336.00000000000006 420 C 256.00000000000006 252.0 286.00000000000006 126.0 336.00000000000006 0" stroke="#3E2614" stroke-width="3.0" fill="none" opacity="0.68"/><path d="M 336.00000000000006 420 C 416.00000000000006 252.0 386.00000000000006 126.0 336.00000000000006 0" stroke="#3E2614" stroke-width="2.8" fill="none" opacity="0.46"/><path d="M 336.00000000000006 420 C 236.00000000000006 252.0 266.00000000000006 126.0 336.00000000000006 0" stroke="#3E2614" stroke-width="2.2" fill="none" opacity="0.48"/><path d="M 336.00000000000006 420 C 436.00000000000006 252.0 406.00000000000006 126.0 336.00000000000006 0" stroke="#3E2614" stroke-width="1.8" fill="none" opacity="0.51"/><path d="M 336.00000000000006 420 C 216.00000000000006 252.0 246.00000000000006 126.0 336.00000000000006 0" stroke="#3E2614" stroke-width="1.6" fill="none" opacity="0.36"/><path d="M 336.00000000000006 420 C 456.00000000000006 252.0 426.00000000000006 126.0 336.00000000000006 0" stroke="#3E2614" stroke-width="1.9" fill="none" opacity="0.69"/><path d="M 336.00000000000006 420 C 196.00000000000006 252.0 226.00000000000006 126.0 336.00000000000006 0" stroke="#3E2614" stroke-width="2.1" fill="none" opacity="0.61"/><path d="M 336.00000000000006 420 C 476.00000000000006 252.0 446.00000000000006 126.0 336.00000000000006 0" stroke="#3E2614" stroke-width="2.4" fill="none" opacity="0.31"/><path d="M 336.00000000000006 420 C 176.00000000000006 252.0 206.00000000000006 126.0 336.00000000000006 0" stroke="#3E2614" stroke-width="2.9" fill="none" opacity="0.61"/><path d="M 336.00000000000006 420 C 496.00000000000006 252.0 466.00000000000006 126.0 336.00000000000006 0" stroke="#3E2614" stroke-width="1.8" fill="none" opacity="0.62"/><path d="M 336.00000000000006 420 C 156.00000000000006 252.0 186.00000000000006 126.0 336.00000000000006 0" stroke="#3E2614" stroke-width="1.9" fill="none" opacity="0.49"/><path d="M 336.00000000000006 420 C 516.0 252.0 486.00000000000006 126.0 336.00000000000006 0" stroke="#3E2614" stroke-width="3.3" fill="none" opacity="0.67"/><path d="M 336.00000000000006 420 C 136.00000000000006 252.0 166.00000000000006 126.0 336.00000000000006 0" stroke="#3E2614" stroke-width="3.5" fill="none" opacity="0.58"/><path d="M 336.00000000000006 420 C 536.0 252.0 506.00000000000006 126.0 336.00000000000006 0" stroke="#3E2614" stroke-width="1.6" fill="none" opacity="0.67"/><path d="M 336.00000000000006 420 C 116.00000000000006 252.0 146.00000000000006 126.0 336.00000000000006 0" stroke="#3E2614" stroke-width="1.9" fill="none" opacity="0.45"/><path d="M 336.00000000000006 420 C 556.0 252.0 526.0 126.0 336.00000000000006 0" stroke="#3E2614" stroke-width="3.4" fill="none" opacity="0.56"/><path d="M 336.00000000000006 420 C 96.00000000000006 252.0 126.00000000000006 126.0 336.00000000000006 0" stroke="#3E2614" stroke-width="3.0" fill="none" opacity="0.68"/><path d="M 336.00000000000006 420 C 576.0 252.0 546.0 126.0 336.00000000000006 0" stroke="#3E2614" stroke-width="2.8" fill="none" opacity="0.46"/><path d="M 336.00000000000006 420 C 76.00000000000006 252.0 106.00000000000006 126.0 336.00000000000006 0" stroke="#3E2614" stroke-width="2.2" fill="none" opacity="0.48"/><path d="M 336.00000000000006 420 C 596.0 252.0 566.0 126.0 336.00000000000006 0" stroke="#3E2614" stroke-width="1.8" fill="none" opacity="0.51"/><path d="M 336.00000000000006 420 C 56.00000000000006 252.0 86.00000000000006 126.0 336.00000000000006 0" stroke="#3E2614" stroke-width="1.6" fill="none" opacity="0.36"/><path d="M 336.00000000000006 420 C 616.0 252.0 586.0 126.0 336.00000000000006 0" stroke="#3E2614" stroke-width="1.9" fill="none" opacity="0.69"/><path d="M 336.00000000000006 420 C 36.00000000000006 252.0 66.00000000000006 126.0 336.00000000000006 0" stroke="#3E2614" stroke-width="2.1" fill="none" opacity="0.61"/><path d="M 336.00000000000006 420 C 636.0 252.0 606.0 126.0 336.00000000000006 0" stroke="#3E2614" stroke-width="2.4" fill="none" opacity="0.31"/><path d="M 336.00000000000006 420 C 16.000000000000057 252.0 46.00000000000006 126.0 336.00000000000006 0" stroke="#3E2614" stroke-width="2.9" fill="none" opacity="0.61"/><path d="M 336.00000000000006 420 C 656.0 252.0 626.0 126.0 336.00000000000006 0" stroke="#3E2614" stroke-width="1.8" fill="none" opacity="0.62"/><line x1="624" y1="0" x2="620" y2="420" stroke="#3E2614" stroke-width="2.0" opacity="0.57"/><line x1="645" y1="0" x2="653" y2="420" stroke="#241206" stroke-width="2.4" opacity="0.27"/><line x1="666" y1="0" x2="662" y2="420" stroke="#3E2614" stroke-width="1.7" opacity="0.58"/><line x1="684" y1="0" x2="688" y2="420" stroke="#3E2614" stroke-width="2.9" opacity="0.47"/><line x1="699" y1="0" x2="696" y2="420" stroke="#3E2614" stroke-width="1.9" opacity="0.31"/><line x1="715" y1="0" x2="708" y2="420" stroke="#241206" stroke-width="1.3" opacity="0.33"/><line x1="737" y1="0" x2="733" y2="420" stroke="#3E2614" stroke-width="2.5" opacity="0.41"/><line x1="747" y1="0" x2="750" y2="420" stroke="#241206" stroke-width="2.6" opacity="0.31"/><line x1="767" y1="0" x2="762" y2="420" stroke="#3E2614" stroke-width="2.0" opacity="0.57"/><line x1="788" y1="0" x2="796" y2="420" stroke="#241206" stroke-width="2.4" opacity="0.27"/><line x1="809" y1="0" x2="804" y2="420" stroke="#3E2614" stroke-width="1.7" opacity="0.58"/><line x1="827" y1="0" x2="831" y2="420" stroke="#3E2614" stroke-width="2.9" opacity="0.47"/><line x1="842" y1="0" x2="839" y2="420" stroke="#241206" stroke-width="1.9" opacity="0.31"/><line x1="858" y1="0" x2="851" y2="420" stroke="#241206" stroke-width="1.3" opacity="0.33"/><line x1="880" y1="0" x2="876" y2="420" stroke="#241206" stroke-width="2.5" opacity="0.41"/><line x1="890" y1="0" x2="893" y2="420" stroke="#241206" stroke-width="2.6" opacity="0.31"/><line x1="909" y1="0" x2="905" y2="420" stroke="#241206" stroke-width="2.0" opacity="0.57"/><line x1="931" y1="0" x2="938" y2="420" stroke="#3E2614" stroke-width="2.4" opacity="0.27"/><line x1="952" y1="0" x2="947" y2="420" stroke="#241206" stroke-width="1.7" opacity="0.58"/><line x1="970" y1="0" x2="974" y2="420" stroke="#241206" stroke-width="2.9" opacity="0.47"/><line x1="984" y1="0" x2="982" y2="420" stroke="#3E2614" stroke-width="1.9" opacity="0.31"/><line x1="1001" y1="0" x2="994" y2="420" stroke="#3E2614" stroke-width="1.3" opacity="0.33"/><line x1="1022" y1="0" x2="1019" y2="420" stroke="#3E2614" stroke-width="2.5" opacity="0.41"/><line x1="1032" y1="0" x2="1035" y2="420" stroke="#3E2614" stroke-width="2.6" opacity="0.31"/><line x1="1052" y1="0" x2="1048" y2="420" stroke="#3E2614" stroke-width="2.0" opacity="0.57"/><line x1="1073" y1="0" x2="1081" y2="420" stroke="#241206" stroke-width="2.4" opacity="0.27"/><line x1="1094" y1="0" x2="1090" y2="420" stroke="#3E2614" stroke-width="1.7" opacity="0.58"/><line x1="1112" y1="0" x2="1116" y2="420" stroke="#3E2614" stroke-width="2.9" opacity="0.47"/><line x1="1127" y1="0" x2="1124" y2="420" stroke="#241206" stroke-width="1.9" opacity="0.31"/><line x1="1143" y1="0" x2="1136" y2="420" stroke="#241206" stroke-width="1.3" opacity="0.33"/><line x1="1165" y1="0" x2="1162" y2="420" stroke="#3E2614" stroke-width="2.5" opacity="0.41"/><line x1="1175" y1="0" x2="1178" y2="420" stroke="#241206" stroke-width="2.6" opacity="0.31"/><line x1="1195" y1="0" x2="1190" y2="420" stroke="#3E2614" stroke-width="2.0" opacity="0.57"/><line x1="600" y1="0" x2="600" y2="420" stroke="#160F09" stroke-width="2" opacity="0.25"/><text x="288" y="28" font-family="Arial" font-size="15" fill="#160F09" opacity="0.5" text-anchor="middle">CROWN</text><text x="900" y="28" font-family="Arial" font-size="15" fill="#160F09" opacity="0.5" text-anchor="middle">QUARTER</text><rect x="24" y="302" width="223" height="42" rx="8" fill="#160F09" opacity="0.85"/><text x="40" y="330" font-family="Arial" font-size="21" font-weight="bold" fill="#E8A33D" letter-spacing="2">AMERICAN WALNUT</text></svg>