<svg xmlns="http://www.w3.org/2000/svg" viewBox="0 0 1200 420" width="1200" height="420" role="img" aria-label="Crotch"><rect width="1200" height="420" fill="#8A5A2B"/><path d="M 336.00000000000006 420 C 276.00000000000006 252.0 306.00000000000006 126.0 336.00000000000006 0" stroke="#6A4020" stroke-width="3.1" fill="none" opacity="0.54"/><path d="M 336.00000000000006 420 C 396.00000000000006 252.0 366.00000000000006 126.0 336.00000000000006 0" stroke="#6A4020" stroke-width="1.5" fill="none" opacity="0.38"/><path d="M 336.00000000000006 420 C 256.00000000000006 252.0 286.00000000000006 126.0 336.00000000000006 0" stroke="#6A4020" stroke-width="2.0" fill="none" opacity="0.42"/><path d="M 336.00000000000006 420 C 416.00000000000006 252.0 386.00000000000006 126.0 336.00000000000006 0" stroke="#6A4020" stroke-width="2.6" fill="none" opacity="0.53"/><path d="M 336.00000000000006 420 C 236.00000000000006 252.0 266.00000000000006 126.0 336.00000000000006 0" stroke="#6A4020" stroke-width="1.9" fill="none" opacity="0.70"/><path d="M 336.00000000000006 420 C 436.00000000000006 252.0 406.00000000000006 126.0 336.00000000000006 0" stroke="#6A4020" stroke-width="3.0" fill="none" opacity="0.65"/><path d="M 336.00000000000006 420 C 216.00000000000006 252.0 246.00000000000006 126.0 336.00000000000006 0" stroke="#6A4020" stroke-width="2.2" fill="none" opacity="0.60"/><path d="M 336.00000000000006 420 C 456.00000000000006 252.0 426.00000000000006 126.0 336.00000000000006 0" stroke="#6A4020" stroke-width="2.6" fill="none" opacity="0.70"/><path d="M 336.00000000000006 420 C 196.00000000000006 252.0 226.00000000000006 126.0 336.00000000000006 0" stroke="#6A4020" stroke-width="2.1" fill="none" opacity="0.60"/><path d="M 336.00000000000006 420 C 476.00000000000006 252.0 446.00000000000006 126.0 336.00000000000006 0" stroke="#6A4020" stroke-width="2.1" fill="none" opacity="0.51"/><path d="M 336.00000000000006 420 C 176.00000000000006 252.0 206.00000000000006 126.0 336.00000000000006 0" stroke="#6A4020" stroke-width="2.1" fill="none" opacity="0.70"/><path d="M 336.00000000000006 420 C 496.00000000000006 252.0 466.00000000000006 126.0 336.00000000000006 0" stroke="#6A4020" stroke-width="2.0" fill="none" opacity="0.43"/><path d="M 336.00000000000006 420 C 156.00000000000006 252.0 186.00000000000006 126.0 336.00000000000006 0" stroke="#6A4020" stroke-width="2.0" fill="none" opacity="0.47"/><path d="M 336.00000000000006 420 C 516.0 252.0 486.00000000000006 126.0 336.00000000000006 0" stroke="#6A4020" stroke-width="2.8" fill="none" opacity="0.65"/><path d="M 336.00000000000006 420 C 136.00000000000006 252.0 166.00000000000006 126.0 336.00000000000006 0" stroke="#6A4020" stroke-width="1.6" fill="none" opacity="0.49"/><path d="M 336.00000000000006 420 C 536.0 252.0 506.00000000000006 126.0 336.00000000000006 0" stroke="#6A4020" stroke-width="3.0" fill="none" opacity="0.31"/><path d="M 336.00000000000006 420 C 116.00000000000006 252.0 146.00000000000006 126.0 336.00000000000006 0" stroke="#6A4020" stroke-width="3.1" fill="none" opacity="0.54"/><path d="M 336.00000000000006 420 C 556.0 252.0 526.0 126.0 336.00000000000006 0" stroke="#6A4020" stroke-width="1.5" fill="none" opacity="0.38"/><path d="M 336.00000000000006 420 C 96.00000000000006 252.0 126.00000000000006 126.0 336.00000000000006 0" stroke="#6A4020" stroke-width="2.0" fill="none" opacity="0.42"/><path d="M 336.00000000000006 420 C 576.0 252.0 546.0 126.0 336.00000000000006 0" stroke="#6A4020" stroke-width="2.6" fill="none" opacity="0.53"/><path d="M 336.00000000000006 420 C 76.00000000000006 252.0 106.00000000000006 126.0 336.00000000000006 0" stroke="#6A4020" stroke-width="1.9" fill="none" opacity="0.70"/><path d="M 336.00000000000006 420 C 596.0 252.0 566.0 126.0 336.00000000000006 0" stroke="#6A4020" stroke-width="3.0" fill="none" opacity="0.65"/><path d="M 336.00000000000006 420 C 56.00000000000006 252.0 86.00000000000006 126.0 336.00000000000006 0" stroke="#6A4020" stroke-width="2.2" fill="none" opacity="0.60"/><path d="M 336.00000000000006 420 C 616.0 252.0 586.0 126.0 336.00000000000006 0" stroke="#6A4020" stroke-width="2.6" fill="none" opacity="0.70"/><path d="M 336.00000000000006 420 C 36.00000000000006 252.0 66.00000000000006 126.0 336.00000000000006 0" stroke="#6A4020" stroke-width="2.1" fill="none" opacity="0.60"/><path d="M 336.00000000000006 420 C 636.0 252.0 606.0 126.0 336.00000000000006 0" stroke="#6A4020" stroke-width="2.1" fill="none" opacity="0.51"/><path d="M 336.00000000000006 420 C 16.000000000000057 252.0 46.00000000000006 126.0 336.00000000000006 0" stroke="#6A4020" stroke-width="2.1" fill="none" opacity="0.70"/><path d="M 336.00000000000006 420 C 656.0 252.0 626.0 126.0 336.00000000000006 0" stroke="#6A4020" stroke-width="2.0" fill="none" opacity="0.43"/><line x1="624" y1="0" x2="620" y2="420" stroke="#6A4020" stroke-width="1.9" opacity="0.47"/><line x1="644" y1="0" x2="638" y2="420" stroke="#6A4020" stroke-width="2.0" opacity="0.51"/><line x1="655" y1="0" x2="659" y2="420" stroke="#6A4020" stroke-width="2.2" opacity="0.25"/><line x1="667" y1="0" x2="663" y2="420" stroke="#442810" stroke-width="1.6" opacity="0.44"/><line x1="684" y1="0" x2="679" y2="420" stroke="#6A4020" stroke-width="3.0" opacity="0.51"/><line x1="704" y1="0" x2="702" y2="420" stroke="#6A4020" stroke-width="2.5" opacity="0.44"/><line x1="726" y1="0" x2="723" y2="420" stroke="#6A4020" stroke-width="2.5" opacity="0.35"/><line x1="743" y1="0" x2="739" y2="420" stroke="#6A4020" stroke-width="3.0" opacity="0.34"/><line x1="757" y1="0" x2="753" y2="420" stroke="#6A4020" stroke-width="1.9" opacity="0.47"/><line x1="777" y1="0" x2="770" y2="420" stroke="#442810" stroke-width="2.0" opacity="0.51"/><line x1="787" y1="0" x2="792" y2="420" stroke="#442810" stroke-width="2.2" opacity="0.25"/><line x1="800" y1="0" x2="796" y2="420" stroke="#442810" stroke-width="1.6" opacity="0.44"/><line x1="817" y1="0" x2="812" y2="420" stroke="#6A4020" stroke-width="3.0" opacity="0.51"/><line x1="837" y1="0" x2="835" y2="420" stroke="#442810" stroke-width="2.5" opacity="0.44"/><line x1="859" y1="0" x2="856" y2="420" stroke="#442810" stroke-width="2.5" opacity="0.35"/><line x1="875" y1="0" x2="872" y2="420" stroke="#442810" stroke-width="3.0" opacity="0.34"/><line x1="890" y1="0" x2="886" y2="420" stroke="#442810" stroke-width="1.9" opacity="0.47"/><line x1="910" y1="0" x2="903" y2="420" stroke="#442810" stroke-width="2.0" opacity="0.51"/><line x1="920" y1="0" x2="925" y2="420" stroke="#6A4020" stroke-width="2.2" opacity="0.25"/><line x1="933" y1="0" x2="929" y2="420" stroke="#6A4020" stroke-width="1.6" opacity="0.44"/><line x1="950" y1="0" x2="945" y2="420" stroke="#442810" stroke-width="3.0" opacity="0.51"/><line x1="970" y1="0" x2="968" y2="420" stroke="#6A4020" stroke-width="2.5" opacity="0.44"/><line x1="992" y1="0" x2="989" y2="420" stroke="#442810" stroke-width="2.5" opacity="0.35"/><line x1="1008" y1="0" x2="1005" y2="420" stroke="#6A4020" stroke-width="3.0" opacity="0.34"/><line x1="1022" y1="0" x2="1018" y2="420" stroke="#6A4020" stroke-width="1.9" opacity="0.47"/><line x1="1043" y1="0" x2="1036" y2="420" stroke="#6A4020" stroke-width="2.0" opacity="0.51"/><line x1="1053" y1="0" x2="1058" y2="420" stroke="#6A4020" stroke-width="2.2" opacity="0.25"/><line x1="1065" y1="0" x2="1061" y2="420" stroke="#442810" stroke-width="1.6" opacity="0.44"/><line x1="1082" y1="0" x2="1077" y2="420" stroke="#6A4020" stroke-width="3.0" opacity="0.51"/><line x1="1103" y1="0" x2="1100" y2="420" stroke="#6A4020" stroke-width="2.5" opacity="0.44"/><line x1="1125" y1="0" x2="1121" y2="420" stroke="#6A4020" stroke-width="2.5" opacity="0.35"/><line x1="1141" y1="0" x2="1137" y2="420" stroke="#6A4020" stroke-width="3.0" opacity="0.34"/><line x1="1155" y1="0" x2="1151" y2="420" stroke="#442810" stroke-width="1.9" opacity="0.47"/><line x1="1175" y1="0" x2="1169" y2="420" stroke="#442810" stroke-width="2.0" opacity="0.51"/><line x1="1186" y1="0" x2="1190" y2="420" stroke="#442810" stroke-width="2.2" opacity="0.25"/><line x1="1198" y1="0" x2="1194" y2="420" stroke="#6A4020" stroke-width="1.6" opacity="0.44"/><line x1="600" y1="0" x2="600" y2="420" stroke="#160F09" stroke-width="2" opacity="0.25"/><text x="288" y="28" font-family="Arial" font-size="15" fill="#160F09" opacity="0.5" text-anchor="middle">CROWN</text><text x="900" y="28" font-family="Arial" font-size="15" fill="#160F09" opacity="0.5" text-anchor="middle">QUARTER</text><rect x="24" y="302" width="106" height="42" rx="8" fill="#160F09" opacity="0.85"/><text x="40" y="330" font-family="Arial" font-size="21" font-weight="bold" fill="#E8A33D" letter-spacing="2">CROTCH</text></svg>