<svg xmlns="http://www.w3.org/2000/svg" viewBox="0 0 1200 420" width="1200" height="420" role="img" aria-label="Dyed Sukupira"><rect width="1200" height="420" fill="#4A2E3A"/><path d="M 336.00000000000006 420 C 276.00000000000006 252.0 306.00000000000006 126.0 336.00000000000006 0" stroke="#33202A" stroke-width="2.9" fill="none" opacity="0.69"/><path d="M 336.00000000000006 420 C 396.00000000000006 252.0 366.00000000000006 126.0 336.00000000000006 0" stroke="#33202A" stroke-width="2.4" fill="none" opacity="0.32"/><path d="M 336.00000000000006 420 C 256.00000000000006 252.0 286.00000000000006 126.0 336.00000000000006 0" stroke="#33202A" stroke-width="3.5" fill="none" opacity="0.36"/><path d="M 336.00000000000006 420 C 416.00000000000006 252.0 386.00000000000006 126.0 336.00000000000006 0" stroke="#33202A" stroke-width="2.2" fill="none" opacity="0.63"/><path d="M 336.00000000000006 420 C 236.00000000000006 252.0 266.00000000000006 126.0 336.00000000000006 0" stroke="#33202A" stroke-width="2.0" fill="none" opacity="0.53"/><path d="M 336.00000000000006 420 C 436.00000000000006 252.0 406.00000000000006 126.0 336.00000000000006 0" stroke="#33202A" stroke-width="1.6" fill="none" opacity="0.48"/><path d="M 336.00000000000006 420 C 216.00000000000006 252.0 246.00000000000006 126.0 336.00000000000006 0" stroke="#33202A" stroke-width="2.9" fill="none" opacity="0.41"/><path d="M 336.00000000000006 420 C 456.00000000000006 252.0 426.00000000000006 126.0 336.00000000000006 0" stroke="#33202A" stroke-width="2.3" fill="none" opacity="0.43"/><path d="M 336.00000000000006 420 C 196.00000000000006 252.0 226.00000000000006 126.0 336.00000000000006 0" stroke="#33202A" stroke-width="3.1" fill="none" opacity="0.41"/><path d="M 336.00000000000006 420 C 476.00000000000006 252.0 446.00000000000006 126.0 336.00000000000006 0" stroke="#33202A" stroke-width="2.9" fill="none" opacity="0.64"/><path d="M 336.00000000000006 420 C 176.00000000000006 252.0 206.00000000000006 126.0 336.00000000000006 0" stroke="#33202A" stroke-width="2.9" fill="none" opacity="0.59"/><path d="M 336.00000000000006 420 C 496.00000000000006 252.0 466.00000000000006 126.0 336.00000000000006 0" stroke="#33202A" stroke-width="3.0" fill="none" opacity="0.48"/><path d="M 336.00000000000006 420 C 156.00000000000006 252.0 186.00000000000006 126.0 336.00000000000006 0" stroke="#33202A" stroke-width="3.3" fill="none" opacity="0.53"/><path d="M 336.00000000000006 420 C 516.0 252.0 486.00000000000006 126.0 336.00000000000006 0" stroke="#33202A" stroke-width="1.9" fill="none" opacity="0.32"/><path d="M 336.00000000000006 420 C 136.00000000000006 252.0 166.00000000000006 126.0 336.00000000000006 0" stroke="#33202A" stroke-width="2.4" fill="none" opacity="0.59"/><path d="M 336.00000000000006 420 C 536.0 252.0 506.00000000000006 126.0 336.00000000000006 0" stroke="#33202A" stroke-width="1.9" fill="none" opacity="0.49"/><path d="M 336.00000000000006 420 C 116.00000000000006 252.0 146.00000000000006 126.0 336.00000000000006 0" stroke="#33202A" stroke-width="2.9" fill="none" opacity="0.69"/><path d="M 336.00000000000006 420 C 556.0 252.0 526.0 126.0 336.00000000000006 0" stroke="#33202A" stroke-width="2.4" fill="none" opacity="0.32"/><path d="M 336.00000000000006 420 C 96.00000000000006 252.0 126.00000000000006 126.0 336.00000000000006 0" stroke="#33202A" stroke-width="3.5" fill="none" opacity="0.36"/><path d="M 336.00000000000006 420 C 576.0 252.0 546.0 126.0 336.00000000000006 0" stroke="#33202A" stroke-width="2.2" fill="none" opacity="0.63"/><path d="M 336.00000000000006 420 C 76.00000000000006 252.0 106.00000000000006 126.0 336.00000000000006 0" stroke="#33202A" stroke-width="2.0" fill="none" opacity="0.53"/><path d="M 336.00000000000006 420 C 596.0 252.0 566.0 126.0 336.00000000000006 0" stroke="#33202A" stroke-width="1.6" fill="none" opacity="0.48"/><path d="M 336.00000000000006 420 C 56.00000000000006 252.0 86.00000000000006 126.0 336.00000000000006 0" stroke="#33202A" stroke-width="2.9" fill="none" opacity="0.41"/><path d="M 336.00000000000006 420 C 616.0 252.0 586.0 126.0 336.00000000000006 0" stroke="#33202A" stroke-width="2.3" fill="none" opacity="0.43"/><path d="M 336.00000000000006 420 C 36.00000000000006 252.0 66.00000000000006 126.0 336.00000000000006 0" stroke="#33202A" stroke-width="3.1" fill="none" opacity="0.41"/><path d="M 336.00000000000006 420 C 636.0 252.0 606.0 126.0 336.00000000000006 0" stroke="#33202A" stroke-width="2.9" fill="none" opacity="0.64"/><path d="M 336.00000000000006 420 C 16.000000000000057 252.0 46.00000000000006 126.0 336.00000000000006 0" stroke="#33202A" stroke-width="2.9" fill="none" opacity="0.59"/><path d="M 336.00000000000006 420 C 656.0 252.0 626.0 126.0 336.00000000000006 0" stroke="#33202A" stroke-width="3.0" fill="none" opacity="0.48"/><line x1="624" y1="0" x2="630" y2="420" stroke="#33202A" stroke-width="2.1" opacity="0.33"/><line x1="635" y1="0" x2="634" y2="420" stroke="#33202A" stroke-width="2.5" opacity="0.33"/><line x1="650" y1="0" x2="653" y2="420" stroke="#33202A" stroke-width="3.0" opacity="0.40"/><line x1="661" y1="0" x2="669" y2="420" stroke="#33202A" stroke-width="1.3" opacity="0.38"/><line x1="681" y1="0" x2="676" y2="420" stroke="#33202A" stroke-width="2.1" opacity="0.26"/><line x1="696" y1="0" x2="700" y2="420" stroke="#33202A" stroke-width="1.6" opacity="0.40"/><line x1="710" y1="0" x2="715" y2="420" stroke="#1E131A" stroke-width="1.6" opacity="0.49"/><line x1="730" y1="0" x2="733" y2="420" stroke="#33202A" stroke-width="2.5" opacity="0.51"/><line x1="745" y1="0" x2="752" y2="420" stroke="#1E131A" stroke-width="2.1" opacity="0.33"/><line x1="756" y1="0" x2="755" y2="420" stroke="#33202A" stroke-width="2.5" opacity="0.33"/><line x1="772" y1="0" x2="775" y2="420" stroke="#1E131A" stroke-width="3.0" opacity="0.40"/><line x1="782" y1="0" x2="790" y2="420" stroke="#33202A" stroke-width="1.3" opacity="0.38"/><line x1="802" y1="0" x2="798" y2="420" stroke="#33202A" stroke-width="2.1" opacity="0.26"/><line x1="818" y1="0" x2="821" y2="420" stroke="#1E131A" stroke-width="1.6" opacity="0.40"/><line x1="831" y1="0" x2="836" y2="420" stroke="#1E131A" stroke-width="1.6" opacity="0.49"/><line x1="852" y1="0" x2="855" y2="420" stroke="#1E131A" stroke-width="2.5" opacity="0.51"/><line x1="867" y1="0" x2="873" y2="420" stroke="#33202A" stroke-width="2.1" opacity="0.33"/><line x1="878" y1="0" x2="877" y2="420" stroke="#1E131A" stroke-width="2.5" opacity="0.33"/><line x1="893" y1="0" x2="896" y2="420" stroke="#1E131A" stroke-width="3.0" opacity="0.40"/><line x1="904" y1="0" x2="911" y2="420" stroke="#1E131A" stroke-width="1.3" opacity="0.38"/><line x1="923" y1="0" x2="919" y2="420" stroke="#1E131A" stroke-width="2.1" opacity="0.26"/><line x1="939" y1="0" x2="942" y2="420" stroke="#33202A" stroke-width="1.6" opacity="0.40"/><line x1="953" y1="0" x2="958" y2="420" stroke="#33202A" stroke-width="1.6" opacity="0.49"/><line x1="973" y1="0" x2="976" y2="420" stroke="#33202A" stroke-width="2.5" opacity="0.51"/><line x1="988" y1="0" x2="995" y2="420" stroke="#33202A" stroke-width="2.1" opacity="0.33"/><line x1="999" y1="0" x2="998" y2="420" stroke="#33202A" stroke-width="2.5" opacity="0.33"/><line x1="1014" y1="0" x2="1017" y2="420" stroke="#33202A" stroke-width="3.0" opacity="0.40"/><line x1="1025" y1="0" x2="1033" y2="420" stroke="#1E131A" stroke-width="1.3" opacity="0.38"/><line x1="1045" y1="0" x2="1041" y2="420" stroke="#33202A" stroke-width="2.1" opacity="0.26"/><line x1="1060" y1="0" x2="1064" y2="420" stroke="#33202A" stroke-width="1.6" opacity="0.40"/><line x1="1074" y1="0" x2="1079" y2="420" stroke="#33202A" stroke-width="1.6" opacity="0.49"/><line x1="1094" y1="0" x2="1098" y2="420" stroke="#33202A" stroke-width="2.5" opacity="0.51"/><line x1="1110" y1="0" x2="1116" y2="420" stroke="#1E131A" stroke-width="2.1" opacity="0.33"/><line x1="1120" y1="0" x2="1119" y2="420" stroke="#33202A" stroke-width="2.5" opacity="0.33"/><line x1="1136" y1="0" x2="1139" y2="420" stroke="#1E131A" stroke-width="3.0" opacity="0.40"/><line x1="1146" y1="0" x2="1154" y2="420" stroke="#33202A" stroke-width="1.3" opacity="0.38"/><line x1="1166" y1="0" x2="1162" y2="420" stroke="#33202A" stroke-width="2.1" opacity="0.26"/><line x1="1182" y1="0" x2="1185" y2="420" stroke="#1E131A" stroke-width="1.6" opacity="0.40"/><line x1="1196" y1="0" x2="1200" y2="420" stroke="#1E131A" stroke-width="1.6" opacity="0.49"/><line x1="600" y1="0" x2="600" y2="420" stroke="#160F09" stroke-width="2" opacity="0.25"/><text x="288" y="28" font-family="Arial" font-size="15" fill="#160F09" opacity="0.5" text-anchor="middle">CROWN</text><text x="900" y="28" font-family="Arial" font-size="15" fill="#160F09" opacity="0.5" text-anchor="middle">QUARTER</text><rect x="24" y="302" width="197" height="42" rx="8" fill="#160F09" opacity="0.85"/><text x="40" y="330" font-family="Arial" font-size="21" font-weight="bold" fill="#E8A33D" letter-spacing="2">DYED SUKUPIRA</text></svg>