<svg xmlns="http://www.w3.org/2000/svg" viewBox="0 0 1200 420" width="1200" height="420" role="img" aria-label="Dyed Ash"><rect width="1200" height="420" fill="#3A4A55"/><path d="M 336.00000000000006 420 C 276.00000000000006 252.0 306.00000000000006 126.0 336.00000000000006 0" stroke="#28343C" stroke-width="2.5" fill="none" opacity="0.55"/><path d="M 336.00000000000006 420 C 396.00000000000006 252.0 366.00000000000006 126.0 336.00000000000006 0" stroke="#28343C" stroke-width="3.2" fill="none" opacity="0.33"/><path d="M 336.00000000000006 420 C 256.00000000000006 252.0 286.00000000000006 126.0 336.00000000000006 0" stroke="#28343C" stroke-width="1.8" fill="none" opacity="0.37"/><path d="M 336.00000000000006 420 C 416.00000000000006 252.0 386.00000000000006 126.0 336.00000000000006 0" stroke="#28343C" stroke-width="3.2" fill="none" opacity="0.36"/><path d="M 336.00000000000006 420 C 236.00000000000006 252.0 266.00000000000006 126.0 336.00000000000006 0" stroke="#28343C" stroke-width="3.2" fill="none" opacity="0.32"/><path d="M 336.00000000000006 420 C 436.00000000000006 252.0 406.00000000000006 126.0 336.00000000000006 0" stroke="#28343C" stroke-width="2.7" fill="none" opacity="0.41"/><path d="M 336.00000000000006 420 C 216.00000000000006 252.0 246.00000000000006 126.0 336.00000000000006 0" stroke="#28343C" stroke-width="3.0" fill="none" opacity="0.33"/><path d="M 336.00000000000006 420 C 456.00000000000006 252.0 426.00000000000006 126.0 336.00000000000006 0" stroke="#28343C" stroke-width="2.7" fill="none" opacity="0.66"/><path d="M 336.00000000000006 420 C 196.00000000000006 252.0 226.00000000000006 126.0 336.00000000000006 0" stroke="#28343C" stroke-width="3.3" fill="none" opacity="0.60"/><path d="M 336.00000000000006 420 C 476.00000000000006 252.0 446.00000000000006 126.0 336.00000000000006 0" stroke="#28343C" stroke-width="2.6" fill="none" opacity="0.67"/><path d="M 336.00000000000006 420 C 176.00000000000006 252.0 206.00000000000006 126.0 336.00000000000006 0" stroke="#28343C" stroke-width="2.2" fill="none" opacity="0.57"/><path d="M 336.00000000000006 420 C 496.00000000000006 252.0 466.00000000000006 126.0 336.00000000000006 0" stroke="#28343C" stroke-width="1.8" fill="none" opacity="0.54"/><path d="M 336.00000000000006 420 C 156.00000000000006 252.0 186.00000000000006 126.0 336.00000000000006 0" stroke="#28343C" stroke-width="1.7" fill="none" opacity="0.68"/><path d="M 336.00000000000006 420 C 516.0 252.0 486.00000000000006 126.0 336.00000000000006 0" stroke="#28343C" stroke-width="3.0" fill="none" opacity="0.68"/><path d="M 336.00000000000006 420 C 136.00000000000006 252.0 166.00000000000006 126.0 336.00000000000006 0" stroke="#28343C" stroke-width="2.4" fill="none" opacity="0.46"/><path d="M 336.00000000000006 420 C 536.0 252.0 506.00000000000006 126.0 336.00000000000006 0" stroke="#28343C" stroke-width="2.8" fill="none" opacity="0.62"/><path d="M 336.00000000000006 420 C 116.00000000000006 252.0 146.00000000000006 126.0 336.00000000000006 0" stroke="#28343C" stroke-width="2.5" fill="none" opacity="0.55"/><path d="M 336.00000000000006 420 C 556.0 252.0 526.0 126.0 336.00000000000006 0" stroke="#28343C" stroke-width="3.2" fill="none" opacity="0.33"/><path d="M 336.00000000000006 420 C 96.00000000000006 252.0 126.00000000000006 126.0 336.00000000000006 0" stroke="#28343C" stroke-width="1.8" fill="none" opacity="0.37"/><path d="M 336.00000000000006 420 C 576.0 252.0 546.0 126.0 336.00000000000006 0" stroke="#28343C" stroke-width="3.2" fill="none" opacity="0.36"/><path d="M 336.00000000000006 420 C 76.00000000000006 252.0 106.00000000000006 126.0 336.00000000000006 0" stroke="#28343C" stroke-width="3.2" fill="none" opacity="0.32"/><path d="M 336.00000000000006 420 C 596.0 252.0 566.0 126.0 336.00000000000006 0" stroke="#28343C" stroke-width="2.7" fill="none" opacity="0.41"/><path d="M 336.00000000000006 420 C 56.00000000000006 252.0 86.00000000000006 126.0 336.00000000000006 0" stroke="#28343C" stroke-width="3.0" fill="none" opacity="0.33"/><path d="M 336.00000000000006 420 C 616.0 252.0 586.0 126.0 336.00000000000006 0" stroke="#28343C" stroke-width="2.7" fill="none" opacity="0.66"/><path d="M 336.00000000000006 420 C 36.00000000000006 252.0 66.00000000000006 126.0 336.00000000000006 0" stroke="#28343C" stroke-width="3.3" fill="none" opacity="0.60"/><path d="M 336.00000000000006 420 C 636.0 252.0 606.0 126.0 336.00000000000006 0" stroke="#28343C" stroke-width="2.6" fill="none" opacity="0.67"/><path d="M 336.00000000000006 420 C 16.000000000000057 252.0 46.00000000000006 126.0 336.00000000000006 0" stroke="#28343C" stroke-width="2.2" fill="none" opacity="0.57"/><path d="M 336.00000000000006 420 C 656.0 252.0 626.0 126.0 336.00000000000006 0" stroke="#28343C" stroke-width="1.8" fill="none" opacity="0.54"/><line x1="624" y1="0" x2="618" y2="420" stroke="#28343C" stroke-width="2.9" opacity="0.51"/><line x1="645" y1="0" x2="645" y2="420" stroke="#161E23" stroke-width="1.8" opacity="0.48"/><line x1="665" y1="0" x2="665" y2="420" stroke="#161E23" stroke-width="2.3" opacity="0.54"/><line x1="676" y1="0" x2="671" y2="420" stroke="#28343C" stroke-width="1.4" opacity="0.55"/><line x1="688" y1="0" x2="694" y2="420" stroke="#161E23" stroke-width="1.1" opacity="0.46"/><line x1="701" y1="0" x2="705" y2="420" stroke="#161E23" stroke-width="1.1" opacity="0.46"/><line x1="722" y1="0" x2="728" y2="420" stroke="#161E23" stroke-width="2.5" opacity="0.44"/><line x1="743" y1="0" x2="741" y2="420" stroke="#161E23" stroke-width="2.3" opacity="0.29"/><line x1="760" y1="0" x2="754" y2="420" stroke="#28343C" stroke-width="2.9" opacity="0.51"/><line x1="782" y1="0" x2="781" y2="420" stroke="#161E23" stroke-width="1.8" opacity="0.48"/><line x1="801" y1="0" x2="801" y2="420" stroke="#161E23" stroke-width="2.3" opacity="0.54"/><line x1="812" y1="0" x2="807" y2="420" stroke="#28343C" stroke-width="1.4" opacity="0.55"/><line x1="824" y1="0" x2="830" y2="420" stroke="#161E23" stroke-width="1.1" opacity="0.46"/><line x1="837" y1="0" x2="841" y2="420" stroke="#161E23" stroke-width="1.1" opacity="0.46"/><line x1="858" y1="0" x2="864" y2="420" stroke="#28343C" stroke-width="2.5" opacity="0.44"/><line x1="879" y1="0" x2="877" y2="420" stroke="#161E23" stroke-width="2.3" opacity="0.29"/><line x1="896" y1="0" x2="890" y2="420" stroke="#28343C" stroke-width="2.9" opacity="0.51"/><line x1="918" y1="0" x2="917" y2="420" stroke="#161E23" stroke-width="1.8" opacity="0.48"/><line x1="937" y1="0" x2="937" y2="420" stroke="#161E23" stroke-width="2.3" opacity="0.54"/><line x1="948" y1="0" x2="943" y2="420" stroke="#28343C" stroke-width="1.4" opacity="0.55"/><line x1="960" y1="0" x2="966" y2="420" stroke="#28343C" stroke-width="1.1" opacity="0.46"/><line x1="973" y1="0" x2="977" y2="420" stroke="#161E23" stroke-width="1.1" opacity="0.46"/><line x1="994" y1="0" x2="1000" y2="420" stroke="#28343C" stroke-width="2.5" opacity="0.44"/><line x1="1015" y1="0" x2="1013" y2="420" stroke="#161E23" stroke-width="2.3" opacity="0.29"/><line x1="1032" y1="0" x2="1026" y2="420" stroke="#28343C" stroke-width="2.9" opacity="0.51"/><line x1="1054" y1="0" x2="1053" y2="420" stroke="#161E23" stroke-width="1.8" opacity="0.48"/><line x1="1074" y1="0" x2="1073" y2="420" stroke="#161E23" stroke-width="2.3" opacity="0.54"/><line x1="1084" y1="0" x2="1079" y2="420" stroke="#28343C" stroke-width="1.4" opacity="0.55"/><line x1="1096" y1="0" x2="1102" y2="420" stroke="#28343C" stroke-width="1.1" opacity="0.46"/><line x1="1110" y1="0" x2="1113" y2="420" stroke="#161E23" stroke-width="1.1" opacity="0.46"/><line x1="1130" y1="0" x2="1136" y2="420" stroke="#28343C" stroke-width="2.5" opacity="0.44"/><line x1="1152" y1="0" x2="1149" y2="420" stroke="#161E23" stroke-width="2.3" opacity="0.29"/><line x1="1169" y1="0" x2="1162" y2="420" stroke="#28343C" stroke-width="2.9" opacity="0.51"/><line x1="1190" y1="0" x2="1189" y2="420" stroke="#28343C" stroke-width="1.8" opacity="0.48"/><line x1="600" y1="0" x2="600" y2="420" stroke="#160F09" stroke-width="2" opacity="0.25"/><text x="288" y="28" font-family="Arial" font-size="15" fill="#160F09" opacity="0.5" text-anchor="middle">CROWN</text><text x="900" y="28" font-family="Arial" font-size="15" fill="#160F09" opacity="0.5" text-anchor="middle">QUARTER</text><rect x="24" y="302" width="132" height="42" rx="8" fill="#160F09" opacity="0.85"/><text x="40" y="330" font-family="Arial" font-size="21" font-weight="bold" fill="#E8A33D" letter-spacing="2">DYED ASH</text></svg>