<svg xmlns="http://www.w3.org/2000/svg" viewBox="0 0 1200 420" width="1200" height="420" role="img" aria-label="Ebony"><rect width="1200" height="420" fill="#2A2018"/><path d="M 336.00000000000006 420 C 276.00000000000006 252.0 306.00000000000006 126.0 336.00000000000006 0" stroke="#171009" stroke-width="2.2" fill="none" opacity="0.35"/><path d="M 336.00000000000006 420 C 396.00000000000006 252.0 366.00000000000006 126.0 336.00000000000006 0" stroke="#171009" stroke-width="2.0" fill="none" opacity="0.68"/><path d="M 336.00000000000006 420 C 256.00000000000006 252.0 286.00000000000006 126.0 336.00000000000006 0" stroke="#171009" stroke-width="2.0" fill="none" opacity="0.52"/><path d="M 336.00000000000006 420 C 416.00000000000006 252.0 386.00000000000006 126.0 336.00000000000006 0" stroke="#171009" stroke-width="2.6" fill="none" opacity="0.57"/><path d="M 336.00000000000006 420 C 236.00000000000006 252.0 266.00000000000006 126.0 336.00000000000006 0" stroke="#171009" stroke-width="3.2" fill="none" opacity="0.54"/><path d="M 336.00000000000006 420 C 436.00000000000006 252.0 406.00000000000006 126.0 336.00000000000006 0" stroke="#171009" stroke-width="3.5" fill="none" opacity="0.49"/><path d="M 336.00000000000006 420 C 216.00000000000006 252.0 246.00000000000006 126.0 336.00000000000006 0" stroke="#171009" stroke-width="2.0" fill="none" opacity="0.59"/><path d="M 336.00000000000006 420 C 456.00000000000006 252.0 426.00000000000006 126.0 336.00000000000006 0" stroke="#171009" stroke-width="2.5" fill="none" opacity="0.62"/><path d="M 336.00000000000006 420 C 196.00000000000006 252.0 226.00000000000006 126.0 336.00000000000006 0" stroke="#171009" stroke-width="2.6" fill="none" opacity="0.63"/><path d="M 336.00000000000006 420 C 476.00000000000006 252.0 446.00000000000006 126.0 336.00000000000006 0" stroke="#171009" stroke-width="2.5" fill="none" opacity="0.51"/><path d="M 336.00000000000006 420 C 176.00000000000006 252.0 206.00000000000006 126.0 336.00000000000006 0" stroke="#171009" stroke-width="2.2" fill="none" opacity="0.30"/><path d="M 336.00000000000006 420 C 496.00000000000006 252.0 466.00000000000006 126.0 336.00000000000006 0" stroke="#171009" stroke-width="1.9" fill="none" opacity="0.43"/><path d="M 336.00000000000006 420 C 156.00000000000006 252.0 186.00000000000006 126.0 336.00000000000006 0" stroke="#171009" stroke-width="2.4" fill="none" opacity="0.35"/><path d="M 336.00000000000006 420 C 516.0 252.0 486.00000000000006 126.0 336.00000000000006 0" stroke="#171009" stroke-width="1.9" fill="none" opacity="0.62"/><path d="M 336.00000000000006 420 C 136.00000000000006 252.0 166.00000000000006 126.0 336.00000000000006 0" stroke="#171009" stroke-width="2.3" fill="none" opacity="0.56"/><path d="M 336.00000000000006 420 C 536.0 252.0 506.00000000000006 126.0 336.00000000000006 0" stroke="#171009" stroke-width="1.9" fill="none" opacity="0.32"/><path d="M 336.00000000000006 420 C 116.00000000000006 252.0 146.00000000000006 126.0 336.00000000000006 0" stroke="#171009" stroke-width="2.2" fill="none" opacity="0.35"/><path d="M 336.00000000000006 420 C 556.0 252.0 526.0 126.0 336.00000000000006 0" stroke="#171009" stroke-width="2.0" fill="none" opacity="0.68"/><path d="M 336.00000000000006 420 C 96.00000000000006 252.0 126.00000000000006 126.0 336.00000000000006 0" stroke="#171009" stroke-width="2.0" fill="none" opacity="0.52"/><path d="M 336.00000000000006 420 C 576.0 252.0 546.0 126.0 336.00000000000006 0" stroke="#171009" stroke-width="2.6" fill="none" opacity="0.57"/><path d="M 336.00000000000006 420 C 76.00000000000006 252.0 106.00000000000006 126.0 336.00000000000006 0" stroke="#171009" stroke-width="3.2" fill="none" opacity="0.54"/><path d="M 336.00000000000006 420 C 596.0 252.0 566.0 126.0 336.00000000000006 0" stroke="#171009" stroke-width="3.5" fill="none" opacity="0.49"/><path d="M 336.00000000000006 420 C 56.00000000000006 252.0 86.00000000000006 126.0 336.00000000000006 0" stroke="#171009" stroke-width="2.0" fill="none" opacity="0.59"/><path d="M 336.00000000000006 420 C 616.0 252.0 586.0 126.0 336.00000000000006 0" stroke="#171009" stroke-width="2.5" fill="none" opacity="0.62"/><path d="M 336.00000000000006 420 C 36.00000000000006 252.0 66.00000000000006 126.0 336.00000000000006 0" stroke="#171009" stroke-width="2.6" fill="none" opacity="0.63"/><path d="M 336.00000000000006 420 C 636.0 252.0 606.0 126.0 336.00000000000006 0" stroke="#171009" stroke-width="2.5" fill="none" opacity="0.51"/><path d="M 336.00000000000006 420 C 16.000000000000057 252.0 46.00000000000006 126.0 336.00000000000006 0" stroke="#171009" stroke-width="2.2" fill="none" opacity="0.30"/><path d="M 336.00000000000006 420 C 656.0 252.0 626.0 126.0 336.00000000000006 0" stroke="#171009" stroke-width="1.9" fill="none" opacity="0.43"/><line x1="624" y1="0" x2="623" y2="420" stroke="#171009" stroke-width="1.3" opacity="0.31"/><line x1="643" y1="0" x2="642" y2="420" stroke="#0A0605" stroke-width="2.3" opacity="0.32"/><line x1="654" y1="0" x2="652" y2="420" stroke="#0A0605" stroke-width="1.2" opacity="0.34"/><line x1="675" y1="0" x2="672" y2="420" stroke="#0A0605" stroke-width="2.1" opacity="0.44"/><line x1="694" y1="0" x2="699" y2="420" stroke="#0A0605" stroke-width="2.2" opacity="0.59"/><line x1="709" y1="0" x2="705" y2="420" stroke="#0A0605" stroke-width="2.5" opacity="0.42"/><line x1="729" y1="0" x2="730" y2="420" stroke="#171009" stroke-width="2.7" opacity="0.43"/><line x1="745" y1="0" x2="743" y2="420" stroke="#0A0605" stroke-width="1.0" opacity="0.32"/><line x1="759" y1="0" x2="758" y2="420" stroke="#0A0605" stroke-width="1.3" opacity="0.31"/><line x1="778" y1="0" x2="777" y2="420" stroke="#171009" stroke-width="2.3" opacity="0.32"/><line x1="789" y1="0" x2="787" y2="420" stroke="#171009" stroke-width="1.2" opacity="0.34"/><line x1="810" y1="0" x2="807" y2="420" stroke="#171009" stroke-width="2.1" opacity="0.44"/><line x1="829" y1="0" x2="834" y2="420" stroke="#171009" stroke-width="2.2" opacity="0.59"/><line x1="844" y1="0" x2="840" y2="420" stroke="#171009" stroke-width="2.5" opacity="0.42"/><line x1="864" y1="0" x2="865" y2="420" stroke="#171009" stroke-width="2.7" opacity="0.43"/><line x1="880" y1="0" x2="878" y2="420" stroke="#171009" stroke-width="1.0" opacity="0.32"/><line x1="894" y1="0" x2="893" y2="420" stroke="#171009" stroke-width="1.3" opacity="0.31"/><line x1="913" y1="0" x2="912" y2="420" stroke="#0A0605" stroke-width="2.3" opacity="0.32"/><line x1="924" y1="0" x2="922" y2="420" stroke="#0A0605" stroke-width="1.2" opacity="0.34"/><line x1="945" y1="0" x2="942" y2="420" stroke="#0A0605" stroke-width="2.1" opacity="0.44"/><line x1="964" y1="0" x2="969" y2="420" stroke="#0A0605" stroke-width="2.2" opacity="0.59"/><line x1="979" y1="0" x2="975" y2="420" stroke="#0A0605" stroke-width="2.5" opacity="0.42"/><line x1="999" y1="0" x2="1000" y2="420" stroke="#0A0605" stroke-width="2.7" opacity="0.43"/><line x1="1015" y1="0" x2="1013" y2="420" stroke="#0A0605" stroke-width="1.0" opacity="0.32"/><line x1="1029" y1="0" x2="1028" y2="420" stroke="#0A0605" stroke-width="1.3" opacity="0.31"/><line x1="1048" y1="0" x2="1047" y2="420" stroke="#171009" stroke-width="2.3" opacity="0.32"/><line x1="1059" y1="0" x2="1057" y2="420" stroke="#171009" stroke-width="1.2" opacity="0.34"/><line x1="1080" y1="0" x2="1077" y2="420" stroke="#171009" stroke-width="2.1" opacity="0.44"/><line x1="1099" y1="0" x2="1104" y2="420" stroke="#171009" stroke-width="2.2" opacity="0.59"/><line x1="1114" y1="0" x2="1110" y2="420" stroke="#171009" stroke-width="2.5" opacity="0.42"/><line x1="1134" y1="0" x2="1135" y2="420" stroke="#171009" stroke-width="2.7" opacity="0.43"/><line x1="1150" y1="0" x2="1148" y2="420" stroke="#171009" stroke-width="1.0" opacity="0.32"/><line x1="1164" y1="0" x2="1163" y2="420" stroke="#171009" stroke-width="1.3" opacity="0.31"/><line x1="1184" y1="0" x2="1182" y2="420" stroke="#0A0605" stroke-width="2.3" opacity="0.32"/><line x1="1194" y1="0" x2="1192" y2="420" stroke="#0A0605" stroke-width="1.2" opacity="0.34"/><line x1="600" y1="0" x2="600" y2="420" stroke="#160F09" stroke-width="2" opacity="0.25"/><text x="288" y="28" font-family="Arial" font-size="15" fill="#160F09" opacity="0.5" text-anchor="middle">CROWN</text><text x="900" y="28" font-family="Arial" font-size="15" fill="#160F09" opacity="0.5" text-anchor="middle">QUARTER</text><rect x="24" y="302" width="93" height="42" rx="8" fill="#160F09" opacity="0.85"/><text x="40" y="330" font-family="Arial" font-size="21" font-weight="bold" fill="#E8A33D" letter-spacing="2">EBONY</text></svg>