<svg xmlns="http://www.w3.org/2000/svg" viewBox="0 0 1200 420" width="1200" height="420" role="img" aria-label="Santos"><rect width="1200" height="420" fill="#6E3B2A"/><path d="M 336.00000000000006 420 C 276.00000000000006 252.0 306.00000000000006 126.0 336.00000000000006 0" stroke="#4E271A" stroke-width="1.6" fill="none" opacity="0.68"/><path d="M 336.00000000000006 420 C 396.00000000000006 252.0 366.00000000000006 126.0 336.00000000000006 0" stroke="#4E271A" stroke-width="2.9" fill="none" opacity="0.34"/><path d="M 336.00000000000006 420 C 256.00000000000006 252.0 286.00000000000006 126.0 336.00000000000006 0" stroke="#4E271A" stroke-width="2.0" fill="none" opacity="0.37"/><path d="M 336.00000000000006 420 C 416.00000000000006 252.0 386.00000000000006 126.0 336.00000000000006 0" stroke="#4E271A" stroke-width="2.2" fill="none" opacity="0.43"/><path d="M 336.00000000000006 420 C 236.00000000000006 252.0 266.00000000000006 126.0 336.00000000000006 0" stroke="#4E271A" stroke-width="1.6" fill="none" opacity="0.54"/><path d="M 336.00000000000006 420 C 436.00000000000006 252.0 406.00000000000006 126.0 336.00000000000006 0" stroke="#4E271A" stroke-width="3.5" fill="none" opacity="0.42"/><path d="M 336.00000000000006 420 C 216.00000000000006 252.0 246.00000000000006 126.0 336.00000000000006 0" stroke="#4E271A" stroke-width="3.0" fill="none" opacity="0.65"/><path d="M 336.00000000000006 420 C 456.00000000000006 252.0 426.00000000000006 126.0 336.00000000000006 0" stroke="#4E271A" stroke-width="2.5" fill="none" opacity="0.35"/><path d="M 336.00000000000006 420 C 196.00000000000006 252.0 226.00000000000006 126.0 336.00000000000006 0" stroke="#4E271A" stroke-width="1.6" fill="none" opacity="0.38"/><path d="M 336.00000000000006 420 C 476.00000000000006 252.0 446.00000000000006 126.0 336.00000000000006 0" stroke="#4E271A" stroke-width="1.8" fill="none" opacity="0.43"/><path d="M 336.00000000000006 420 C 176.00000000000006 252.0 206.00000000000006 126.0 336.00000000000006 0" stroke="#4E271A" stroke-width="3.3" fill="none" opacity="0.68"/><path d="M 336.00000000000006 420 C 496.00000000000006 252.0 466.00000000000006 126.0 336.00000000000006 0" stroke="#4E271A" stroke-width="3.0" fill="none" opacity="0.49"/><path d="M 336.00000000000006 420 C 156.00000000000006 252.0 186.00000000000006 126.0 336.00000000000006 0" stroke="#4E271A" stroke-width="2.7" fill="none" opacity="0.33"/><path d="M 336.00000000000006 420 C 516.0 252.0 486.00000000000006 126.0 336.00000000000006 0" stroke="#4E271A" stroke-width="1.6" fill="none" opacity="0.37"/><path d="M 336.00000000000006 420 C 136.00000000000006 252.0 166.00000000000006 126.0 336.00000000000006 0" stroke="#4E271A" stroke-width="1.9" fill="none" opacity="0.65"/><path d="M 336.00000000000006 420 C 536.0 252.0 506.00000000000006 126.0 336.00000000000006 0" stroke="#4E271A" stroke-width="2.8" fill="none" opacity="0.39"/><path d="M 336.00000000000006 420 C 116.00000000000006 252.0 146.00000000000006 126.0 336.00000000000006 0" stroke="#4E271A" stroke-width="1.6" fill="none" opacity="0.68"/><path d="M 336.00000000000006 420 C 556.0 252.0 526.0 126.0 336.00000000000006 0" stroke="#4E271A" stroke-width="2.9" fill="none" opacity="0.34"/><path d="M 336.00000000000006 420 C 96.00000000000006 252.0 126.00000000000006 126.0 336.00000000000006 0" stroke="#4E271A" stroke-width="2.0" fill="none" opacity="0.37"/><path d="M 336.00000000000006 420 C 576.0 252.0 546.0 126.0 336.00000000000006 0" stroke="#4E271A" stroke-width="2.2" fill="none" opacity="0.43"/><path d="M 336.00000000000006 420 C 76.00000000000006 252.0 106.00000000000006 126.0 336.00000000000006 0" stroke="#4E271A" stroke-width="1.6" fill="none" opacity="0.54"/><path d="M 336.00000000000006 420 C 596.0 252.0 566.0 126.0 336.00000000000006 0" stroke="#4E271A" stroke-width="3.5" fill="none" opacity="0.42"/><path d="M 336.00000000000006 420 C 56.00000000000006 252.0 86.00000000000006 126.0 336.00000000000006 0" stroke="#4E271A" stroke-width="3.0" fill="none" opacity="0.65"/><path d="M 336.00000000000006 420 C 616.0 252.0 586.0 126.0 336.00000000000006 0" stroke="#4E271A" stroke-width="2.5" fill="none" opacity="0.35"/><path d="M 336.00000000000006 420 C 36.00000000000006 252.0 66.00000000000006 126.0 336.00000000000006 0" stroke="#4E271A" stroke-width="1.6" fill="none" opacity="0.38"/><path d="M 336.00000000000006 420 C 636.0 252.0 606.0 126.0 336.00000000000006 0" stroke="#4E271A" stroke-width="1.8" fill="none" opacity="0.43"/><path d="M 336.00000000000006 420 C 16.000000000000057 252.0 46.00000000000006 126.0 336.00000000000006 0" stroke="#4E271A" stroke-width="3.3" fill="none" opacity="0.68"/><path d="M 336.00000000000006 420 C 656.0 252.0 626.0 126.0 336.00000000000006 0" stroke="#4E271A" stroke-width="3.0" fill="none" opacity="0.49"/><line x1="624" y1="0" x2="626" y2="420" stroke="#4E271A" stroke-width="1.1" opacity="0.28"/><line x1="636" y1="0" x2="631" y2="420" stroke="#4E271A" stroke-width="2.8" opacity="0.48"/><line x1="649" y1="0" x2="642" y2="420" stroke="#4E271A" stroke-width="2.9" opacity="0.50"/><line x1="660" y1="0" x2="656" y2="420" stroke="#4E271A" stroke-width="1.4" opacity="0.37"/><line x1="674" y1="0" x2="667" y2="420" stroke="#30160D" stroke-width="2.2" opacity="0.59"/><line x1="688" y1="0" x2="692" y2="420" stroke="#30160D" stroke-width="2.7" opacity="0.43"/><line x1="699" y1="0" x2="691" y2="420" stroke="#4E271A" stroke-width="1.4" opacity="0.31"/><line x1="713" y1="0" x2="720" y2="420" stroke="#4E271A" stroke-width="2.9" opacity="0.50"/><line x1="728" y1="0" x2="730" y2="420" stroke="#4E271A" stroke-width="1.1" opacity="0.28"/><line x1="741" y1="0" x2="736" y2="420" stroke="#4E271A" stroke-width="2.8" opacity="0.48"/><line x1="753" y1="0" x2="746" y2="420" stroke="#30160D" stroke-width="2.9" opacity="0.50"/><line x1="764" y1="0" x2="761" y2="420" stroke="#4E271A" stroke-width="1.4" opacity="0.37"/><line x1="778" y1="0" x2="771" y2="420" stroke="#4E271A" stroke-width="2.2" opacity="0.59"/><line x1="792" y1="0" x2="796" y2="420" stroke="#30160D" stroke-width="2.7" opacity="0.43"/><line x1="803" y1="0" x2="796" y2="420" stroke="#30160D" stroke-width="1.4" opacity="0.31"/><line x1="817" y1="0" x2="824" y2="420" stroke="#30160D" stroke-width="2.9" opacity="0.50"/><line x1="833" y1="0" x2="835" y2="420" stroke="#4E271A" stroke-width="1.1" opacity="0.28"/><line x1="845" y1="0" x2="840" y2="420" stroke="#30160D" stroke-width="2.8" opacity="0.48"/><line x1="858" y1="0" x2="851" y2="420" stroke="#30160D" stroke-width="2.9" opacity="0.50"/><line x1="869" y1="0" x2="865" y2="420" stroke="#4E271A" stroke-width="1.4" opacity="0.37"/><line x1="883" y1="0" x2="876" y2="420" stroke="#4E271A" stroke-width="2.2" opacity="0.59"/><line x1="896" y1="0" x2="901" y2="420" stroke="#4E271A" stroke-width="2.7" opacity="0.43"/><line x1="908" y1="0" x2="900" y2="420" stroke="#30160D" stroke-width="1.4" opacity="0.31"/><line x1="922" y1="0" x2="928" y2="420" stroke="#30160D" stroke-width="2.9" opacity="0.50"/><line x1="937" y1="0" x2="939" y2="420" stroke="#30160D" stroke-width="1.1" opacity="0.28"/><line x1="949" y1="0" x2="945" y2="420" stroke="#30160D" stroke-width="2.8" opacity="0.48"/><line x1="962" y1="0" x2="955" y2="420" stroke="#4E271A" stroke-width="2.9" opacity="0.50"/><line x1="973" y1="0" x2="970" y2="420" stroke="#30160D" stroke-width="1.4" opacity="0.37"/><line x1="987" y1="0" x2="980" y2="420" stroke="#30160D" stroke-width="2.2" opacity="0.59"/><line x1="1001" y1="0" x2="1005" y2="420" stroke="#4E271A" stroke-width="2.7" opacity="0.43"/><line x1="1012" y1="0" x2="1005" y2="420" stroke="#4E271A" stroke-width="1.4" opacity="0.31"/><line x1="1026" y1="0" x2="1033" y2="420" stroke="#4E271A" stroke-width="2.9" opacity="0.50"/><line x1="1042" y1="0" x2="1043" y2="420" stroke="#30160D" stroke-width="1.1" opacity="0.28"/><line x1="1054" y1="0" x2="1049" y2="420" stroke="#30160D" stroke-width="2.8" opacity="0.48"/><line x1="1067" y1="0" x2="1059" y2="420" stroke="#4E271A" stroke-width="2.9" opacity="0.50"/><line x1="1078" y1="0" x2="1074" y2="420" stroke="#30160D" stroke-width="1.4" opacity="0.37"/><line x1="1092" y1="0" x2="1084" y2="420" stroke="#30160D" stroke-width="2.2" opacity="0.59"/><line x1="1105" y1="0" x2="1109" y2="420" stroke="#30160D" stroke-width="2.7" opacity="0.43"/><line x1="1117" y1="0" x2="1109" y2="420" stroke="#4E271A" stroke-width="1.4" opacity="0.31"/><line x1="1130" y1="0" x2="1137" y2="420" stroke="#4E271A" stroke-width="2.9" opacity="0.50"/><line x1="1146" y1="0" x2="1148" y2="420" stroke="#4E271A" stroke-width="1.1" opacity="0.28"/><line x1="1158" y1="0" x2="1154" y2="420" stroke="#4E271A" stroke-width="2.8" opacity="0.48"/><line x1="1171" y1="0" x2="1164" y2="420" stroke="#30160D" stroke-width="2.9" opacity="0.50"/><line x1="1182" y1="0" x2="1179" y2="420" stroke="#4E271A" stroke-width="1.4" opacity="0.37"/><line x1="1196" y1="0" x2="1189" y2="420" stroke="#4E271A" stroke-width="2.2" opacity="0.59"/><line x1="600" y1="0" x2="600" y2="420" stroke="#160F09" stroke-width="2" opacity="0.25"/><text x="288" y="28" font-family="Arial" font-size="15" fill="#160F09" opacity="0.5" text-anchor="middle">CROWN</text><text x="900" y="28" font-family="Arial" font-size="15" fill="#160F09" opacity="0.5" text-anchor="middle">QUARTER</text><rect x="24" y="302" width="106" height="42" rx="8" fill="#160F09" opacity="0.85"/><text x="40" y="330" font-family="Arial" font-size="21" font-weight="bold" fill="#E8A33D" letter-spacing="2">SANTOS</text></svg>