<svg xmlns="http://www.w3.org/2000/svg" viewBox="0 0 1200 420" width="1200" height="420" role="img" aria-label="Sapele"><rect width="1200" height="420" fill="#7A3F22"/><path d="M 336.00000000000006 420 C 276.00000000000006 252.0 306.00000000000006 126.0 336.00000000000006 0" stroke="#5A2C16" stroke-width="1.9" fill="none" opacity="0.48"/><path d="M 336.00000000000006 420 C 396.00000000000006 252.0 366.00000000000006 126.0 336.00000000000006 0" stroke="#5A2C16" stroke-width="2.1" fill="none" opacity="0.47"/><path d="M 336.00000000000006 420 C 256.00000000000006 252.0 286.00000000000006 126.0 336.00000000000006 0" stroke="#5A2C16" stroke-width="2.7" fill="none" opacity="0.67"/><path d="M 336.00000000000006 420 C 416.00000000000006 252.0 386.00000000000006 126.0 336.00000000000006 0" stroke="#5A2C16" stroke-width="3.2" fill="none" opacity="0.57"/><path d="M 336.00000000000006 420 C 236.00000000000006 252.0 266.00000000000006 126.0 336.00000000000006 0" stroke="#5A2C16" stroke-width="2.6" fill="none" opacity="0.56"/><path d="M 336.00000000000006 420 C 436.00000000000006 252.0 406.00000000000006 126.0 336.00000000000006 0" stroke="#5A2C16" stroke-width="2.6" fill="none" opacity="0.33"/><path d="M 336.00000000000006 420 C 216.00000000000006 252.0 246.00000000000006 126.0 336.00000000000006 0" stroke="#5A2C16" stroke-width="2.3" fill="none" opacity="0.67"/><path d="M 336.00000000000006 420 C 456.00000000000006 252.0 426.00000000000006 126.0 336.00000000000006 0" stroke="#5A2C16" stroke-width="3.4" fill="none" opacity="0.52"/><path d="M 336.00000000000006 420 C 196.00000000000006 252.0 226.00000000000006 126.0 336.00000000000006 0" stroke="#5A2C16" stroke-width="2.6" fill="none" opacity="0.68"/><path d="M 336.00000000000006 420 C 476.00000000000006 252.0 446.00000000000006 126.0 336.00000000000006 0" stroke="#5A2C16" stroke-width="1.8" fill="none" opacity="0.31"/><path d="M 336.00000000000006 420 C 176.00000000000006 252.0 206.00000000000006 126.0 336.00000000000006 0" stroke="#5A2C16" stroke-width="2.9" fill="none" opacity="0.33"/><path d="M 336.00000000000006 420 C 496.00000000000006 252.0 466.00000000000006 126.0 336.00000000000006 0" stroke="#5A2C16" stroke-width="2.2" fill="none" opacity="0.39"/><path d="M 336.00000000000006 420 C 156.00000000000006 252.0 186.00000000000006 126.0 336.00000000000006 0" stroke="#5A2C16" stroke-width="1.6" fill="none" opacity="0.42"/><path d="M 336.00000000000006 420 C 516.0 252.0 486.00000000000006 126.0 336.00000000000006 0" stroke="#5A2C16" stroke-width="2.7" fill="none" opacity="0.62"/><path d="M 336.00000000000006 420 C 136.00000000000006 252.0 166.00000000000006 126.0 336.00000000000006 0" stroke="#5A2C16" stroke-width="3.3" fill="none" opacity="0.45"/><path d="M 336.00000000000006 420 C 536.0 252.0 506.00000000000006 126.0 336.00000000000006 0" stroke="#5A2C16" stroke-width="1.5" fill="none" opacity="0.70"/><path d="M 336.00000000000006 420 C 116.00000000000006 252.0 146.00000000000006 126.0 336.00000000000006 0" stroke="#5A2C16" stroke-width="1.9" fill="none" opacity="0.48"/><path d="M 336.00000000000006 420 C 556.0 252.0 526.0 126.0 336.00000000000006 0" stroke="#5A2C16" stroke-width="2.1" fill="none" opacity="0.47"/><path d="M 336.00000000000006 420 C 96.00000000000006 252.0 126.00000000000006 126.0 336.00000000000006 0" stroke="#5A2C16" stroke-width="2.7" fill="none" opacity="0.67"/><path d="M 336.00000000000006 420 C 576.0 252.0 546.0 126.0 336.00000000000006 0" stroke="#5A2C16" stroke-width="3.2" fill="none" opacity="0.57"/><path d="M 336.00000000000006 420 C 76.00000000000006 252.0 106.00000000000006 126.0 336.00000000000006 0" stroke="#5A2C16" stroke-width="2.6" fill="none" opacity="0.56"/><path d="M 336.00000000000006 420 C 596.0 252.0 566.0 126.0 336.00000000000006 0" stroke="#5A2C16" stroke-width="2.6" fill="none" opacity="0.33"/><path d="M 336.00000000000006 420 C 56.00000000000006 252.0 86.00000000000006 126.0 336.00000000000006 0" stroke="#5A2C16" stroke-width="2.3" fill="none" opacity="0.67"/><path d="M 336.00000000000006 420 C 616.0 252.0 586.0 126.0 336.00000000000006 0" stroke="#5A2C16" stroke-width="3.4" fill="none" opacity="0.52"/><path d="M 336.00000000000006 420 C 36.00000000000006 252.0 66.00000000000006 126.0 336.00000000000006 0" stroke="#5A2C16" stroke-width="2.6" fill="none" opacity="0.68"/><path d="M 336.00000000000006 420 C 636.0 252.0 606.0 126.0 336.00000000000006 0" stroke="#5A2C16" stroke-width="1.8" fill="none" opacity="0.31"/><path d="M 336.00000000000006 420 C 16.000000000000057 252.0 46.00000000000006 126.0 336.00000000000006 0" stroke="#5A2C16" stroke-width="2.9" fill="none" opacity="0.33"/><path d="M 336.00000000000006 420 C 656.0 252.0 626.0 126.0 336.00000000000006 0" stroke="#5A2C16" stroke-width="2.2" fill="none" opacity="0.39"/><line x1="624" y1="0" x2="617" y2="420" stroke="#5A2C16" stroke-width="1.6" opacity="0.46"/><line x1="644" y1="0" x2="650" y2="420" stroke="#3A1B0D" stroke-width="1.7" opacity="0.25"/><line x1="666" y1="0" x2="661" y2="420" stroke="#3A1B0D" stroke-width="1.9" opacity="0.36"/><line x1="681" y1="0" x2="682" y2="420" stroke="#5A2C16" stroke-width="2.9" opacity="0.56"/><line x1="699" y1="0" x2="700" y2="420" stroke="#3A1B0D" stroke-width="2.3" opacity="0.44"/><line x1="710" y1="0" x2="708" y2="420" stroke="#5A2C16" stroke-width="2.9" opacity="0.57"/><line x1="727" y1="0" x2="728" y2="420" stroke="#5A2C16" stroke-width="2.9" opacity="0.30"/><line x1="737" y1="0" x2="740" y2="420" stroke="#3A1B0D" stroke-width="1.2" opacity="0.37"/><line x1="750" y1="0" x2="742" y2="420" stroke="#3A1B0D" stroke-width="1.6" opacity="0.46"/><line x1="769" y1="0" x2="776" y2="420" stroke="#3A1B0D" stroke-width="1.7" opacity="0.25"/><line x1="791" y1="0" x2="786" y2="420" stroke="#3A1B0D" stroke-width="1.9" opacity="0.36"/><line x1="807" y1="0" x2="808" y2="420" stroke="#5A2C16" stroke-width="2.9" opacity="0.56"/><line x1="825" y1="0" x2="826" y2="420" stroke="#5A2C16" stroke-width="2.3" opacity="0.44"/><line x1="836" y1="0" x2="834" y2="420" stroke="#3A1B0D" stroke-width="2.9" opacity="0.57"/><line x1="852" y1="0" x2="853" y2="420" stroke="#5A2C16" stroke-width="2.9" opacity="0.30"/><line x1="863" y1="0" x2="866" y2="420" stroke="#5A2C16" stroke-width="1.2" opacity="0.37"/><line x1="875" y1="0" x2="868" y2="420" stroke="#3A1B0D" stroke-width="1.6" opacity="0.46"/><line x1="895" y1="0" x2="902" y2="420" stroke="#3A1B0D" stroke-width="1.7" opacity="0.25"/><line x1="917" y1="0" x2="912" y2="420" stroke="#5A2C16" stroke-width="1.9" opacity="0.36"/><line x1="932" y1="0" x2="934" y2="420" stroke="#5A2C16" stroke-width="2.9" opacity="0.56"/><line x1="950" y1="0" x2="951" y2="420" stroke="#5A2C16" stroke-width="2.3" opacity="0.44"/><line x1="961" y1="0" x2="959" y2="420" stroke="#3A1B0D" stroke-width="2.9" opacity="0.57"/><line x1="978" y1="0" x2="979" y2="420" stroke="#5A2C16" stroke-width="2.9" opacity="0.30"/><line x1="988" y1="0" x2="992" y2="420" stroke="#5A2C16" stroke-width="1.2" opacity="0.37"/><line x1="1001" y1="0" x2="994" y2="420" stroke="#5A2C16" stroke-width="1.6" opacity="0.46"/><line x1="1021" y1="0" x2="1027" y2="420" stroke="#5A2C16" stroke-width="1.7" opacity="0.25"/><line x1="1043" y1="0" x2="1037" y2="420" stroke="#5A2C16" stroke-width="1.9" opacity="0.36"/><line x1="1058" y1="0" x2="1059" y2="420" stroke="#3A1B0D" stroke-width="2.9" opacity="0.56"/><line x1="1076" y1="0" x2="1077" y2="420" stroke="#5A2C16" stroke-width="2.3" opacity="0.44"/><line x1="1087" y1="0" x2="1085" y2="420" stroke="#5A2C16" stroke-width="2.9" opacity="0.57"/><line x1="1104" y1="0" x2="1105" y2="420" stroke="#3A1B0D" stroke-width="2.9" opacity="0.30"/><line x1="1114" y1="0" x2="1117" y2="420" stroke="#3A1B0D" stroke-width="1.2" opacity="0.37"/><line x1="1127" y1="0" x2="1119" y2="420" stroke="#5A2C16" stroke-width="1.6" opacity="0.46"/><line x1="1146" y1="0" x2="1153" y2="420" stroke="#5A2C16" stroke-width="1.7" opacity="0.25"/><line x1="1168" y1="0" x2="1163" y2="420" stroke="#5A2C16" stroke-width="1.9" opacity="0.36"/><line x1="1184" y1="0" x2="1185" y2="420" stroke="#3A1B0D" stroke-width="2.9" opacity="0.56"/><line x1="600" y1="0" x2="600" y2="420" stroke="#160F09" stroke-width="2" opacity="0.25"/><text x="288" y="28" font-family="Arial" font-size="15" fill="#160F09" opacity="0.5" text-anchor="middle">CROWN</text><text x="900" y="28" font-family="Arial" font-size="15" fill="#160F09" opacity="0.5" text-anchor="middle">QUARTER</text><rect x="24" y="302" width="106" height="42" rx="8" fill="#160F09" opacity="0.85"/><text x="40" y="330" font-family="Arial" font-size="21" font-weight="bold" fill="#E8A33D" letter-spacing="2">SAPELE</text></svg>