<svg xmlns="http://www.w3.org/2000/svg" viewBox="0 0 1200 420" width="1200" height="420" role="img" aria-label="Teak"><rect width="1200" height="420" fill="#9A6A34"/><path d="M 336.00000000000006 420 C 276.00000000000006 252.0 306.00000000000006 126.0 336.00000000000006 0" stroke="#7A4E1F" stroke-width="3.4" fill="none" opacity="0.40"/><path d="M 336.00000000000006 420 C 396.00000000000006 252.0 366.00000000000006 126.0 336.00000000000006 0" stroke="#7A4E1F" stroke-width="2.5" fill="none" opacity="0.45"/><path d="M 336.00000000000006 420 C 256.00000000000006 252.0 286.00000000000006 126.0 336.00000000000006 0" stroke="#7A4E1F" stroke-width="1.8" fill="none" opacity="0.65"/><path d="M 336.00000000000006 420 C 416.00000000000006 252.0 386.00000000000006 126.0 336.00000000000006 0" stroke="#7A4E1F" stroke-width="1.7" fill="none" opacity="0.36"/><path d="M 336.00000000000006 420 C 236.00000000000006 252.0 266.00000000000006 126.0 336.00000000000006 0" stroke="#7A4E1F" stroke-width="2.1" fill="none" opacity="0.35"/><path d="M 336.00000000000006 420 C 436.00000000000006 252.0 406.00000000000006 126.0 336.00000000000006 0" stroke="#7A4E1F" stroke-width="1.6" fill="none" opacity="0.33"/><path d="M 336.00000000000006 420 C 216.00000000000006 252.0 246.00000000000006 126.0 336.00000000000006 0" stroke="#7A4E1F" stroke-width="3.3" fill="none" opacity="0.44"/><path d="M 336.00000000000006 420 C 456.00000000000006 252.0 426.00000000000006 126.0 336.00000000000006 0" stroke="#7A4E1F" stroke-width="2.1" fill="none" opacity="0.41"/><path d="M 336.00000000000006 420 C 196.00000000000006 252.0 226.00000000000006 126.0 336.00000000000006 0" stroke="#7A4E1F" stroke-width="2.1" fill="none" opacity="0.41"/><path d="M 336.00000000000006 420 C 476.00000000000006 252.0 446.00000000000006 126.0 336.00000000000006 0" stroke="#7A4E1F" stroke-width="3.0" fill="none" opacity="0.40"/><path d="M 336.00000000000006 420 C 176.00000000000006 252.0 206.00000000000006 126.0 336.00000000000006 0" stroke="#7A4E1F" stroke-width="2.7" fill="none" opacity="0.65"/><path d="M 336.00000000000006 420 C 496.00000000000006 252.0 466.00000000000006 126.0 336.00000000000006 0" stroke="#7A4E1F" stroke-width="2.3" fill="none" opacity="0.40"/><path d="M 336.00000000000006 420 C 156.00000000000006 252.0 186.00000000000006 126.0 336.00000000000006 0" stroke="#7A4E1F" stroke-width="3.0" fill="none" opacity="0.67"/><path d="M 336.00000000000006 420 C 516.0 252.0 486.00000000000006 126.0 336.00000000000006 0" stroke="#7A4E1F" stroke-width="2.2" fill="none" opacity="0.67"/><path d="M 336.00000000000006 420 C 136.00000000000006 252.0 166.00000000000006 126.0 336.00000000000006 0" stroke="#7A4E1F" stroke-width="2.2" fill="none" opacity="0.34"/><path d="M 336.00000000000006 420 C 536.0 252.0 506.00000000000006 126.0 336.00000000000006 0" stroke="#7A4E1F" stroke-width="2.7" fill="none" opacity="0.69"/><path d="M 336.00000000000006 420 C 116.00000000000006 252.0 146.00000000000006 126.0 336.00000000000006 0" stroke="#7A4E1F" stroke-width="3.4" fill="none" opacity="0.40"/><path d="M 336.00000000000006 420 C 556.0 252.0 526.0 126.0 336.00000000000006 0" stroke="#7A4E1F" stroke-width="2.5" fill="none" opacity="0.45"/><path d="M 336.00000000000006 420 C 96.00000000000006 252.0 126.00000000000006 126.0 336.00000000000006 0" stroke="#7A4E1F" stroke-width="1.8" fill="none" opacity="0.65"/><path d="M 336.00000000000006 420 C 576.0 252.0 546.0 126.0 336.00000000000006 0" stroke="#7A4E1F" stroke-width="1.7" fill="none" opacity="0.36"/><path d="M 336.00000000000006 420 C 76.00000000000006 252.0 106.00000000000006 126.0 336.00000000000006 0" stroke="#7A4E1F" stroke-width="2.1" fill="none" opacity="0.35"/><path d="M 336.00000000000006 420 C 596.0 252.0 566.0 126.0 336.00000000000006 0" stroke="#7A4E1F" stroke-width="1.6" fill="none" opacity="0.33"/><path d="M 336.00000000000006 420 C 56.00000000000006 252.0 86.00000000000006 126.0 336.00000000000006 0" stroke="#7A4E1F" stroke-width="3.3" fill="none" opacity="0.44"/><path d="M 336.00000000000006 420 C 616.0 252.0 586.0 126.0 336.00000000000006 0" stroke="#7A4E1F" stroke-width="2.1" fill="none" opacity="0.41"/><path d="M 336.00000000000006 420 C 36.00000000000006 252.0 66.00000000000006 126.0 336.00000000000006 0" stroke="#7A4E1F" stroke-width="2.1" fill="none" opacity="0.41"/><path d="M 336.00000000000006 420 C 636.0 252.0 606.0 126.0 336.00000000000006 0" stroke="#7A4E1F" stroke-width="3.0" fill="none" opacity="0.40"/><path d="M 336.00000000000006 420 C 16.000000000000057 252.0 46.00000000000006 126.0 336.00000000000006 0" stroke="#7A4E1F" stroke-width="2.7" fill="none" opacity="0.65"/><path d="M 336.00000000000006 420 C 656.0 252.0 626.0 126.0 336.00000000000006 0" stroke="#7A4E1F" stroke-width="2.3" fill="none" opacity="0.40"/><line x1="624" y1="0" x2="628" y2="420" stroke="#7A4E1F" stroke-width="2.9" opacity="0.38"/><line x1="645" y1="0" x2="642" y2="420" stroke="#563715" stroke-width="1.2" opacity="0.46"/><line x1="667" y1="0" x2="674" y2="420" stroke="#7A4E1F" stroke-width="1.5" opacity="0.42"/><line x1="681" y1="0" x2="676" y2="420" stroke="#563715" stroke-width="2.8" opacity="0.28"/><line x1="693" y1="0" x2="690" y2="420" stroke="#563715" stroke-width="1.3" opacity="0.26"/><line x1="704" y1="0" x2="711" y2="420" stroke="#7A4E1F" stroke-width="1.7" opacity="0.36"/><line x1="717" y1="0" x2="714" y2="420" stroke="#563715" stroke-width="1.6" opacity="0.51"/><line x1="731" y1="0" x2="732" y2="420" stroke="#7A4E1F" stroke-width="2.7" opacity="0.39"/><line x1="744" y1="0" x2="747" y2="420" stroke="#563715" stroke-width="2.9" opacity="0.38"/><line x1="765" y1="0" x2="762" y2="420" stroke="#7A4E1F" stroke-width="1.2" opacity="0.46"/><line x1="786" y1="0" x2="793" y2="420" stroke="#7A4E1F" stroke-width="1.5" opacity="0.42"/><line x1="801" y1="0" x2="795" y2="420" stroke="#7A4E1F" stroke-width="2.8" opacity="0.28"/><line x1="813" y1="0" x2="810" y2="420" stroke="#7A4E1F" stroke-width="1.3" opacity="0.26"/><line x1="824" y1="0" x2="830" y2="420" stroke="#563715" stroke-width="1.7" opacity="0.36"/><line x1="837" y1="0" x2="834" y2="420" stroke="#563715" stroke-width="1.6" opacity="0.51"/><line x1="850" y1="0" x2="852" y2="420" stroke="#7A4E1F" stroke-width="2.7" opacity="0.39"/><line x1="863" y1="0" x2="867" y2="420" stroke="#563715" stroke-width="2.9" opacity="0.38"/><line x1="884" y1="0" x2="882" y2="420" stroke="#7A4E1F" stroke-width="1.2" opacity="0.46"/><line x1="906" y1="0" x2="913" y2="420" stroke="#563715" stroke-width="1.5" opacity="0.42"/><line x1="921" y1="0" x2="915" y2="420" stroke="#7A4E1F" stroke-width="2.8" opacity="0.28"/><line x1="932" y1="0" x2="929" y2="420" stroke="#7A4E1F" stroke-width="1.3" opacity="0.26"/><line x1="943" y1="0" x2="950" y2="420" stroke="#563715" stroke-width="1.7" opacity="0.36"/><line x1="957" y1="0" x2="953" y2="420" stroke="#7A4E1F" stroke-width="1.6" opacity="0.51"/><line x1="970" y1="0" x2="972" y2="420" stroke="#563715" stroke-width="2.7" opacity="0.39"/><line x1="983" y1="0" x2="987" y2="420" stroke="#7A4E1F" stroke-width="2.9" opacity="0.38"/><line x1="1004" y1="0" x2="1001" y2="420" stroke="#563715" stroke-width="1.2" opacity="0.46"/><line x1="1026" y1="0" x2="1032" y2="420" stroke="#563715" stroke-width="1.5" opacity="0.42"/><line x1="1040" y1="0" x2="1035" y2="420" stroke="#7A4E1F" stroke-width="2.8" opacity="0.28"/><line x1="1052" y1="0" x2="1049" y2="420" stroke="#7A4E1F" stroke-width="1.3" opacity="0.26"/><line x1="1063" y1="0" x2="1070" y2="420" stroke="#563715" stroke-width="1.7" opacity="0.36"/><line x1="1076" y1="0" x2="1073" y2="420" stroke="#7A4E1F" stroke-width="1.6" opacity="0.51"/><line x1="1089" y1="0" x2="1091" y2="420" stroke="#563715" stroke-width="2.7" opacity="0.39"/><line x1="1102" y1="0" x2="1106" y2="420" stroke="#7A4E1F" stroke-width="2.9" opacity="0.38"/><line x1="1124" y1="0" x2="1121" y2="420" stroke="#563715" stroke-width="1.2" opacity="0.46"/><line x1="1145" y1="0" x2="1152" y2="420" stroke="#563715" stroke-width="1.5" opacity="0.42"/><line x1="1160" y1="0" x2="1154" y2="420" stroke="#563715" stroke-width="2.8" opacity="0.28"/><line x1="1172" y1="0" x2="1169" y2="420" stroke="#563715" stroke-width="1.3" opacity="0.26"/><line x1="1183" y1="0" x2="1189" y2="420" stroke="#7A4E1F" stroke-width="1.7" opacity="0.36"/><line x1="1196" y1="0" x2="1193" y2="420" stroke="#563715" stroke-width="1.6" opacity="0.51"/><line x1="600" y1="0" x2="600" y2="420" stroke="#160F09" stroke-width="2" opacity="0.25"/><text x="288" y="28" font-family="Arial" font-size="15" fill="#160F09" opacity="0.5" text-anchor="middle">CROWN</text><text x="900" y="28" font-family="Arial" font-size="15" fill="#160F09" opacity="0.5" text-anchor="middle">QUARTER</text><rect x="24" y="302" width="80" height="42" rx="8" fill="#160F09" opacity="0.85"/><text x="40" y="330" font-family="Arial" font-size="21" font-weight="bold" fill="#E8A33D" letter-spacing="2">TEAK</text></svg>