<svg xmlns="http://www.w3.org/2000/svg" viewBox="0 0 1200 420" width="1200" height="420" role="img" aria-label="Textured"><rect width="1200" height="420" fill="#7A5A38"/><path d="M 336.00000000000006 420 C 276.00000000000006 252.0 306.00000000000006 126.0 336.00000000000006 0" stroke="#5A4028" stroke-width="1.6" fill="none" opacity="0.65"/><path d="M 336.00000000000006 420 C 396.00000000000006 252.0 366.00000000000006 126.0 336.00000000000006 0" stroke="#5A4028" stroke-width="3.4" fill="none" opacity="0.50"/><path d="M 336.00000000000006 420 C 256.00000000000006 252.0 286.00000000000006 126.0 336.00000000000006 0" stroke="#5A4028" stroke-width="2.0" fill="none" opacity="0.55"/><path d="M 336.00000000000006 420 C 416.00000000000006 252.0 386.00000000000006 126.0 336.00000000000006 0" stroke="#5A4028" stroke-width="1.6" fill="none" opacity="0.67"/><path d="M 336.00000000000006 420 C 236.00000000000006 252.0 266.00000000000006 126.0 336.00000000000006 0" stroke="#5A4028" stroke-width="3.4" fill="none" opacity="0.62"/><path d="M 336.00000000000006 420 C 436.00000000000006 252.0 406.00000000000006 126.0 336.00000000000006 0" stroke="#5A4028" stroke-width="3.5" fill="none" opacity="0.40"/><path d="M 336.00000000000006 420 C 216.00000000000006 252.0 246.00000000000006 126.0 336.00000000000006 0" stroke="#5A4028" stroke-width="2.2" fill="none" opacity="0.66"/><path d="M 336.00000000000006 420 C 456.00000000000006 252.0 426.00000000000006 126.0 336.00000000000006 0" stroke="#5A4028" stroke-width="2.2" fill="none" opacity="0.66"/><path d="M 336.00000000000006 420 C 196.00000000000006 252.0 226.00000000000006 126.0 336.00000000000006 0" stroke="#5A4028" stroke-width="1.9" fill="none" opacity="0.49"/><path d="M 336.00000000000006 420 C 476.00000000000006 252.0 446.00000000000006 126.0 336.00000000000006 0" stroke="#5A4028" stroke-width="2.6" fill="none" opacity="0.60"/><path d="M 336.00000000000006 420 C 176.00000000000006 252.0 206.00000000000006 126.0 336.00000000000006 0" stroke="#5A4028" stroke-width="3.0" fill="none" opacity="0.38"/><path d="M 336.00000000000006 420 C 496.00000000000006 252.0 466.00000000000006 126.0 336.00000000000006 0" stroke="#5A4028" stroke-width="2.2" fill="none" opacity="0.55"/><path d="M 336.00000000000006 420 C 156.00000000000006 252.0 186.00000000000006 126.0 336.00000000000006 0" stroke="#5A4028" stroke-width="2.3" fill="none" opacity="0.69"/><path d="M 336.00000000000006 420 C 516.0 252.0 486.00000000000006 126.0 336.00000000000006 0" stroke="#5A4028" stroke-width="2.7" fill="none" opacity="0.56"/><path d="M 336.00000000000006 420 C 136.00000000000006 252.0 166.00000000000006 126.0 336.00000000000006 0" stroke="#5A4028" stroke-width="1.9" fill="none" opacity="0.62"/><path d="M 336.00000000000006 420 C 536.0 252.0 506.00000000000006 126.0 336.00000000000006 0" stroke="#5A4028" stroke-width="2.2" fill="none" opacity="0.33"/><path d="M 336.00000000000006 420 C 116.00000000000006 252.0 146.00000000000006 126.0 336.00000000000006 0" stroke="#5A4028" stroke-width="1.6" fill="none" opacity="0.65"/><path d="M 336.00000000000006 420 C 556.0 252.0 526.0 126.0 336.00000000000006 0" stroke="#5A4028" stroke-width="3.4" fill="none" opacity="0.50"/><path d="M 336.00000000000006 420 C 96.00000000000006 252.0 126.00000000000006 126.0 336.00000000000006 0" stroke="#5A4028" stroke-width="2.0" fill="none" opacity="0.55"/><path d="M 336.00000000000006 420 C 576.0 252.0 546.0 126.0 336.00000000000006 0" stroke="#5A4028" stroke-width="1.6" fill="none" opacity="0.67"/><path d="M 336.00000000000006 420 C 76.00000000000006 252.0 106.00000000000006 126.0 336.00000000000006 0" stroke="#5A4028" stroke-width="3.4" fill="none" opacity="0.62"/><path d="M 336.00000000000006 420 C 596.0 252.0 566.0 126.0 336.00000000000006 0" stroke="#5A4028" stroke-width="3.5" fill="none" opacity="0.40"/><path d="M 336.00000000000006 420 C 56.00000000000006 252.0 86.00000000000006 126.0 336.00000000000006 0" stroke="#5A4028" stroke-width="2.2" fill="none" opacity="0.66"/><path d="M 336.00000000000006 420 C 616.0 252.0 586.0 126.0 336.00000000000006 0" stroke="#5A4028" stroke-width="2.2" fill="none" opacity="0.66"/><path d="M 336.00000000000006 420 C 36.00000000000006 252.0 66.00000000000006 126.0 336.00000000000006 0" stroke="#5A4028" stroke-width="1.9" fill="none" opacity="0.49"/><path d="M 336.00000000000006 420 C 636.0 252.0 606.0 126.0 336.00000000000006 0" stroke="#5A4028" stroke-width="2.6" fill="none" opacity="0.60"/><path d="M 336.00000000000006 420 C 16.000000000000057 252.0 46.00000000000006 126.0 336.00000000000006 0" stroke="#5A4028" stroke-width="3.0" fill="none" opacity="0.38"/><path d="M 336.00000000000006 420 C 656.0 252.0 626.0 126.0 336.00000000000006 0" stroke="#5A4028" stroke-width="2.2" fill="none" opacity="0.55"/><line x1="624" y1="0" x2="622" y2="420" stroke="#5A4028" stroke-width="3.0" opacity="0.46"/><line x1="642" y1="0" x2="637" y2="420" stroke="#3A2818" stroke-width="2.6" opacity="0.38"/><line x1="653" y1="0" x2="646" y2="420" stroke="#5A4028" stroke-width="2.7" opacity="0.59"/><line x1="669" y1="0" x2="665" y2="420" stroke="#5A4028" stroke-width="2.2" opacity="0.26"/><line x1="690" y1="0" x2="697" y2="420" stroke="#3A2818" stroke-width="2.6" opacity="0.59"/><line x1="703" y1="0" x2="701" y2="420" stroke="#3A2818" stroke-width="2.8" opacity="0.37"/><line x1="724" y1="0" x2="719" y2="420" stroke="#3A2818" stroke-width="1.9" opacity="0.45"/><line x1="743" y1="0" x2="747" y2="420" stroke="#3A2818" stroke-width="1.4" opacity="0.37"/><line x1="760" y1="0" x2="759" y2="420" stroke="#5A4028" stroke-width="3.0" opacity="0.46"/><line x1="778" y1="0" x2="773" y2="420" stroke="#5A4028" stroke-width="2.6" opacity="0.38"/><line x1="789" y1="0" x2="782" y2="420" stroke="#3A2818" stroke-width="2.7" opacity="0.59"/><line x1="805" y1="0" x2="801" y2="420" stroke="#3A2818" stroke-width="2.2" opacity="0.26"/><line x1="826" y1="0" x2="833" y2="420" stroke="#5A4028" stroke-width="2.6" opacity="0.59"/><line x1="840" y1="0" x2="837" y2="420" stroke="#3A2818" stroke-width="2.8" opacity="0.37"/><line x1="860" y1="0" x2="855" y2="420" stroke="#5A4028" stroke-width="1.9" opacity="0.45"/><line x1="880" y1="0" x2="884" y2="420" stroke="#3A2818" stroke-width="1.4" opacity="0.37"/><line x1="897" y1="0" x2="895" y2="420" stroke="#5A4028" stroke-width="3.0" opacity="0.46"/><line x1="915" y1="0" x2="910" y2="420" stroke="#5A4028" stroke-width="2.6" opacity="0.38"/><line x1="926" y1="0" x2="919" y2="420" stroke="#3A2818" stroke-width="2.7" opacity="0.59"/><line x1="942" y1="0" x2="938" y2="420" stroke="#3A2818" stroke-width="2.2" opacity="0.26"/><line x1="963" y1="0" x2="970" y2="420" stroke="#5A4028" stroke-width="2.6" opacity="0.59"/><line x1="976" y1="0" x2="973" y2="420" stroke="#3A2818" stroke-width="2.8" opacity="0.37"/><line x1="997" y1="0" x2="992" y2="420" stroke="#5A4028" stroke-width="1.9" opacity="0.45"/><line x1="1016" y1="0" x2="1020" y2="420" stroke="#3A2818" stroke-width="1.4" opacity="0.37"/><line x1="1033" y1="0" x2="1032" y2="420" stroke="#3A2818" stroke-width="3.0" opacity="0.46"/><line x1="1051" y1="0" x2="1046" y2="420" stroke="#3A2818" stroke-width="2.6" opacity="0.38"/><line x1="1062" y1="0" x2="1055" y2="420" stroke="#5A4028" stroke-width="2.7" opacity="0.59"/><line x1="1078" y1="0" x2="1074" y2="420" stroke="#5A4028" stroke-width="2.2" opacity="0.26"/><line x1="1099" y1="0" x2="1106" y2="420" stroke="#3A2818" stroke-width="2.6" opacity="0.59"/><line x1="1112" y1="0" x2="1110" y2="420" stroke="#5A4028" stroke-width="2.8" opacity="0.37"/><line x1="1133" y1="0" x2="1128" y2="420" stroke="#3A2818" stroke-width="1.9" opacity="0.45"/><line x1="1152" y1="0" x2="1157" y2="420" stroke="#5A4028" stroke-width="1.4" opacity="0.37"/><line x1="1170" y1="0" x2="1168" y2="420" stroke="#3A2818" stroke-width="3.0" opacity="0.46"/><line x1="1188" y1="0" x2="1183" y2="420" stroke="#3A2818" stroke-width="2.6" opacity="0.38"/><line x1="1199" y1="0" x2="1192" y2="420" stroke="#5A4028" stroke-width="2.7" opacity="0.59"/><line x1="600" y1="0" x2="600" y2="420" stroke="#160F09" stroke-width="2" opacity="0.25"/><text x="288" y="28" font-family="Arial" font-size="15" fill="#160F09" opacity="0.5" text-anchor="middle">CROWN</text><text x="900" y="28" font-family="Arial" font-size="15" fill="#160F09" opacity="0.5" text-anchor="middle">QUARTER</text><rect x="24" y="302" width="132" height="42" rx="8" fill="#160F09" opacity="0.85"/><text x="40" y="330" font-family="Arial" font-size="21" font-weight="bold" fill="#E8A33D" letter-spacing="2">TEXTURED</text></svg>