<svg xmlns="http://www.w3.org/2000/svg" viewBox="0 0 1200 420" width="1200" height="420" role="img" aria-label="White Ash"><rect width="1200" height="420" fill="#D6C09A"/><path d="M 336.00000000000006 420 C 276.00000000000006 252.0 306.00000000000006 126.0 336.00000000000006 0" stroke="#B49A6E" stroke-width="3.4" fill="none" opacity="0.68"/><path d="M 336.00000000000006 420 C 396.00000000000006 252.0 366.00000000000006 126.0 336.00000000000006 0" stroke="#B49A6E" stroke-width="2.1" fill="none" opacity="0.63"/><path d="M 336.00000000000006 420 C 256.00000000000006 252.0 286.00000000000006 126.0 336.00000000000006 0" stroke="#B49A6E" stroke-width="2.7" fill="none" opacity="0.47"/><path d="M 336.00000000000006 420 C 416.00000000000006 252.0 386.00000000000006 126.0 336.00000000000006 0" stroke="#B49A6E" stroke-width="1.6" fill="none" opacity="0.38"/><path d="M 336.00000000000006 420 C 236.00000000000006 252.0 266.00000000000006 126.0 336.00000000000006 0" stroke="#B49A6E" stroke-width="1.9" fill="none" opacity="0.62"/><path d="M 336.00000000000006 420 C 436.00000000000006 252.0 406.00000000000006 126.0 336.00000000000006 0" stroke="#B49A6E" stroke-width="3.2" fill="none" opacity="0.35"/><path d="M 336.00000000000006 420 C 216.00000000000006 252.0 246.00000000000006 126.0 336.00000000000006 0" stroke="#B49A6E" stroke-width="2.5" fill="none" opacity="0.58"/><path d="M 336.00000000000006 420 C 456.00000000000006 252.0 426.00000000000006 126.0 336.00000000000006 0" stroke="#B49A6E" stroke-width="2.3" fill="none" opacity="0.47"/><path d="M 336.00000000000006 420 C 196.00000000000006 252.0 226.00000000000006 126.0 336.00000000000006 0" stroke="#B49A6E" stroke-width="1.9" fill="none" opacity="0.51"/><path d="M 336.00000000000006 420 C 476.00000000000006 252.0 446.00000000000006 126.0 336.00000000000006 0" stroke="#B49A6E" stroke-width="3.0" fill="none" opacity="0.34"/><path d="M 336.00000000000006 420 C 176.00000000000006 252.0 206.00000000000006 126.0 336.00000000000006 0" stroke="#B49A6E" stroke-width="2.6" fill="none" opacity="0.50"/><path d="M 336.00000000000006 420 C 496.00000000000006 252.0 466.00000000000006 126.0 336.00000000000006 0" stroke="#B49A6E" stroke-width="3.2" fill="none" opacity="0.58"/><path d="M 336.00000000000006 420 C 156.00000000000006 252.0 186.00000000000006 126.0 336.00000000000006 0" stroke="#B49A6E" stroke-width="1.6" fill="none" opacity="0.58"/><path d="M 336.00000000000006 420 C 516.0 252.0 486.00000000000006 126.0 336.00000000000006 0" stroke="#B49A6E" stroke-width="1.8" fill="none" opacity="0.63"/><path d="M 336.00000000000006 420 C 136.00000000000006 252.0 166.00000000000006 126.0 336.00000000000006 0" stroke="#B49A6E" stroke-width="1.5" fill="none" opacity="0.46"/><path d="M 336.00000000000006 420 C 536.0 252.0 506.00000000000006 126.0 336.00000000000006 0" stroke="#B49A6E" stroke-width="3.5" fill="none" opacity="0.51"/><path d="M 336.00000000000006 420 C 116.00000000000006 252.0 146.00000000000006 126.0 336.00000000000006 0" stroke="#B49A6E" stroke-width="3.4" fill="none" opacity="0.68"/><path d="M 336.00000000000006 420 C 556.0 252.0 526.0 126.0 336.00000000000006 0" stroke="#B49A6E" stroke-width="2.1" fill="none" opacity="0.63"/><path d="M 336.00000000000006 420 C 96.00000000000006 252.0 126.00000000000006 126.0 336.00000000000006 0" stroke="#B49A6E" stroke-width="2.7" fill="none" opacity="0.47"/><path d="M 336.00000000000006 420 C 576.0 252.0 546.0 126.0 336.00000000000006 0" stroke="#B49A6E" stroke-width="1.6" fill="none" opacity="0.38"/><path d="M 336.00000000000006 420 C 76.00000000000006 252.0 106.00000000000006 126.0 336.00000000000006 0" stroke="#B49A6E" stroke-width="1.9" fill="none" opacity="0.62"/><path d="M 336.00000000000006 420 C 596.0 252.0 566.0 126.0 336.00000000000006 0" stroke="#B49A6E" stroke-width="3.2" fill="none" opacity="0.35"/><path d="M 336.00000000000006 420 C 56.00000000000006 252.0 86.00000000000006 126.0 336.00000000000006 0" stroke="#B49A6E" stroke-width="2.5" fill="none" opacity="0.58"/><path d="M 336.00000000000006 420 C 616.0 252.0 586.0 126.0 336.00000000000006 0" stroke="#B49A6E" stroke-width="2.3" fill="none" opacity="0.47"/><path d="M 336.00000000000006 420 C 36.00000000000006 252.0 66.00000000000006 126.0 336.00000000000006 0" stroke="#B49A6E" stroke-width="1.9" fill="none" opacity="0.51"/><path d="M 336.00000000000006 420 C 636.0 252.0 606.0 126.0 336.00000000000006 0" stroke="#B49A6E" stroke-width="3.0" fill="none" opacity="0.34"/><path d="M 336.00000000000006 420 C 16.000000000000057 252.0 46.00000000000006 126.0 336.00000000000006 0" stroke="#B49A6E" stroke-width="2.6" fill="none" opacity="0.50"/><path d="M 336.00000000000006 420 C 656.0 252.0 626.0 126.0 336.00000000000006 0" stroke="#B49A6E" stroke-width="3.2" fill="none" opacity="0.58"/><line x1="624" y1="0" x2="617" y2="420" stroke="#B49A6E" stroke-width="2.4" opacity="0.30"/><line x1="644" y1="0" x2="636" y2="420" stroke="#8A7248" stroke-width="1.8" opacity="0.59"/><line x1="660" y1="0" x2="667" y2="420" stroke="#B49A6E" stroke-width="2.9" opacity="0.35"/><line x1="680" y1="0" x2="682" y2="420" stroke="#B49A6E" stroke-width="1.9" opacity="0.27"/><line x1="693" y1="0" x2="688" y2="420" stroke="#B49A6E" stroke-width="2.6" opacity="0.55"/><line x1="704" y1="0" x2="704" y2="420" stroke="#8A7248" stroke-width="2.4" opacity="0.40"/><line x1="719" y1="0" x2="714" y2="420" stroke="#8A7248" stroke-width="2.1" opacity="0.52"/><line x1="730" y1="0" x2="731" y2="420" stroke="#B49A6E" stroke-width="2.0" opacity="0.54"/><line x1="749" y1="0" x2="742" y2="420" stroke="#B49A6E" stroke-width="2.4" opacity="0.30"/><line x1="769" y1="0" x2="761" y2="420" stroke="#B49A6E" stroke-width="1.8" opacity="0.59"/><line x1="785" y1="0" x2="792" y2="420" stroke="#B49A6E" stroke-width="2.9" opacity="0.35"/><line x1="805" y1="0" x2="807" y2="420" stroke="#B49A6E" stroke-width="1.9" opacity="0.27"/><line x1="817" y1="0" x2="813" y2="420" stroke="#8A7248" stroke-width="2.6" opacity="0.55"/><line x1="829" y1="0" x2="829" y2="420" stroke="#B49A6E" stroke-width="2.4" opacity="0.40"/><line x1="844" y1="0" x2="839" y2="420" stroke="#8A7248" stroke-width="2.1" opacity="0.52"/><line x1="855" y1="0" x2="856" y2="420" stroke="#B49A6E" stroke-width="2.0" opacity="0.54"/><line x1="873" y1="0" x2="867" y2="420" stroke="#8A7248" stroke-width="2.4" opacity="0.30"/><line x1="893" y1="0" x2="885" y2="420" stroke="#8A7248" stroke-width="1.8" opacity="0.59"/><line x1="910" y1="0" x2="917" y2="420" stroke="#8A7248" stroke-width="2.9" opacity="0.35"/><line x1="930" y1="0" x2="932" y2="420" stroke="#8A7248" stroke-width="1.9" opacity="0.27"/><line x1="942" y1="0" x2="937" y2="420" stroke="#8A7248" stroke-width="2.6" opacity="0.55"/><line x1="953" y1="0" x2="953" y2="420" stroke="#8A7248" stroke-width="2.4" opacity="0.40"/><line x1="968" y1="0" x2="963" y2="420" stroke="#B49A6E" stroke-width="2.1" opacity="0.52"/><line x1="980" y1="0" x2="980" y2="420" stroke="#8A7248" stroke-width="2.0" opacity="0.54"/><line x1="998" y1="0" x2="991" y2="420" stroke="#B49A6E" stroke-width="2.4" opacity="0.30"/><line x1="1018" y1="0" x2="1010" y2="420" stroke="#B49A6E" stroke-width="1.8" opacity="0.59"/><line x1="1034" y1="0" x2="1041" y2="420" stroke="#B49A6E" stroke-width="2.9" opacity="0.35"/><line x1="1054" y1="0" x2="1056" y2="420" stroke="#B49A6E" stroke-width="1.9" opacity="0.27"/><line x1="1067" y1="0" x2="1062" y2="420" stroke="#B49A6E" stroke-width="2.6" opacity="0.55"/><line x1="1078" y1="0" x2="1078" y2="420" stroke="#B49A6E" stroke-width="2.4" opacity="0.40"/><line x1="1093" y1="0" x2="1088" y2="420" stroke="#8A7248" stroke-width="2.1" opacity="0.52"/><line x1="1104" y1="0" x2="1105" y2="420" stroke="#B49A6E" stroke-width="2.0" opacity="0.54"/><line x1="1123" y1="0" x2="1116" y2="420" stroke="#B49A6E" stroke-width="2.4" opacity="0.30"/><line x1="1143" y1="0" x2="1135" y2="420" stroke="#B49A6E" stroke-width="1.8" opacity="0.59"/><line x1="1159" y1="0" x2="1166" y2="420" stroke="#8A7248" stroke-width="2.9" opacity="0.35"/><line x1="1179" y1="0" x2="1181" y2="420" stroke="#8A7248" stroke-width="1.9" opacity="0.27"/><line x1="1191" y1="0" x2="1187" y2="420" stroke="#8A7248" stroke-width="2.6" opacity="0.55"/><line x1="600" y1="0" x2="600" y2="420" stroke="#160F09" stroke-width="2" opacity="0.25"/><text x="288" y="28" font-family="Arial" font-size="15" fill="#160F09" opacity="0.5" text-anchor="middle">CROWN</text><text x="900" y="28" font-family="Arial" font-size="15" fill="#160F09" opacity="0.5" text-anchor="middle">QUARTER</text><rect x="24" y="302" width="145" height="42" rx="8" fill="#160F09" opacity="0.85"/><text x="40" y="330" font-family="Arial" font-size="21" font-weight="bold" fill="#E8A33D" letter-spacing="2">WHITE ASH</text></svg>