<svg xmlns="http://www.w3.org/2000/svg" viewBox="0 0 1200 420" width="1200" height="420" role="img" aria-label="White Oak"><rect width="1200" height="420" fill="#C9A96E"/><path d="M 336.00000000000006 420 C 276.00000000000006 252.0 306.00000000000006 126.0 336.00000000000006 0" stroke="#A6824A" stroke-width="1.7" fill="none" opacity="0.65"/><path d="M 336.00000000000006 420 C 396.00000000000006 252.0 366.00000000000006 126.0 336.00000000000006 0" stroke="#A6824A" stroke-width="2.4" fill="none" opacity="0.68"/><path d="M 336.00000000000006 420 C 256.00000000000006 252.0 286.00000000000006 126.0 336.00000000000006 0" stroke="#A6824A" stroke-width="2.3" fill="none" opacity="0.61"/><path d="M 336.00000000000006 420 C 416.00000000000006 252.0 386.00000000000006 126.0 336.00000000000006 0" stroke="#A6824A" stroke-width="3.2" fill="none" opacity="0.30"/><path d="M 336.00000000000006 420 C 236.00000000000006 252.0 266.00000000000006 126.0 336.00000000000006 0" stroke="#A6824A" stroke-width="3.3" fill="none" opacity="0.31"/><path d="M 336.00000000000006 420 C 436.00000000000006 252.0 406.00000000000006 126.0 336.00000000000006 0" stroke="#A6824A" stroke-width="2.7" fill="none" opacity="0.51"/><path d="M 336.00000000000006 420 C 216.00000000000006 252.0 246.00000000000006 126.0 336.00000000000006 0" stroke="#A6824A" stroke-width="3.4" fill="none" opacity="0.57"/><path d="M 336.00000000000006 420 C 456.00000000000006 252.0 426.00000000000006 126.0 336.00000000000006 0" stroke="#A6824A" stroke-width="2.2" fill="none" opacity="0.62"/><path d="M 336.00000000000006 420 C 196.00000000000006 252.0 226.00000000000006 126.0 336.00000000000006 0" stroke="#A6824A" stroke-width="2.6" fill="none" opacity="0.30"/><path d="M 336.00000000000006 420 C 476.00000000000006 252.0 446.00000000000006 126.0 336.00000000000006 0" stroke="#A6824A" stroke-width="3.4" fill="none" opacity="0.30"/><path d="M 336.00000000000006 420 C 176.00000000000006 252.0 206.00000000000006 126.0 336.00000000000006 0" stroke="#A6824A" stroke-width="3.4" fill="none" opacity="0.36"/><path d="M 336.00000000000006 420 C 496.00000000000006 252.0 466.00000000000006 126.0 336.00000000000006 0" stroke="#A6824A" stroke-width="1.7" fill="none" opacity="0.62"/><path d="M 336.00000000000006 420 C 156.00000000000006 252.0 186.00000000000006 126.0 336.00000000000006 0" stroke="#A6824A" stroke-width="3.2" fill="none" opacity="0.49"/><path d="M 336.00000000000006 420 C 516.0 252.0 486.00000000000006 126.0 336.00000000000006 0" stroke="#A6824A" stroke-width="2.3" fill="none" opacity="0.65"/><path d="M 336.00000000000006 420 C 136.00000000000006 252.0 166.00000000000006 126.0 336.00000000000006 0" stroke="#A6824A" stroke-width="3.2" fill="none" opacity="0.66"/><path d="M 336.00000000000006 420 C 536.0 252.0 506.00000000000006 126.0 336.00000000000006 0" stroke="#A6824A" stroke-width="3.4" fill="none" opacity="0.37"/><path d="M 336.00000000000006 420 C 116.00000000000006 252.0 146.00000000000006 126.0 336.00000000000006 0" stroke="#A6824A" stroke-width="1.7" fill="none" opacity="0.65"/><path d="M 336.00000000000006 420 C 556.0 252.0 526.0 126.0 336.00000000000006 0" stroke="#A6824A" stroke-width="2.4" fill="none" opacity="0.68"/><path d="M 336.00000000000006 420 C 96.00000000000006 252.0 126.00000000000006 126.0 336.00000000000006 0" stroke="#A6824A" stroke-width="2.3" fill="none" opacity="0.61"/><path d="M 336.00000000000006 420 C 576.0 252.0 546.0 126.0 336.00000000000006 0" stroke="#A6824A" stroke-width="3.2" fill="none" opacity="0.30"/><path d="M 336.00000000000006 420 C 76.00000000000006 252.0 106.00000000000006 126.0 336.00000000000006 0" stroke="#A6824A" stroke-width="3.3" fill="none" opacity="0.31"/><path d="M 336.00000000000006 420 C 596.0 252.0 566.0 126.0 336.00000000000006 0" stroke="#A6824A" stroke-width="2.7" fill="none" opacity="0.51"/><path d="M 336.00000000000006 420 C 56.00000000000006 252.0 86.00000000000006 126.0 336.00000000000006 0" stroke="#A6824A" stroke-width="3.4" fill="none" opacity="0.57"/><path d="M 336.00000000000006 420 C 616.0 252.0 586.0 126.0 336.00000000000006 0" stroke="#A6824A" stroke-width="2.2" fill="none" opacity="0.62"/><path d="M 336.00000000000006 420 C 36.00000000000006 252.0 66.00000000000006 126.0 336.00000000000006 0" stroke="#A6824A" stroke-width="2.6" fill="none" opacity="0.30"/><path d="M 336.00000000000006 420 C 636.0 252.0 606.0 126.0 336.00000000000006 0" stroke="#A6824A" stroke-width="3.4" fill="none" opacity="0.30"/><path d="M 336.00000000000006 420 C 16.000000000000057 252.0 46.00000000000006 126.0 336.00000000000006 0" stroke="#A6824A" stroke-width="3.4" fill="none" opacity="0.36"/><path d="M 336.00000000000006 420 C 656.0 252.0 626.0 126.0 336.00000000000006 0" stroke="#A6824A" stroke-width="1.7" fill="none" opacity="0.62"/><line x1="624" y1="0" x2="629" y2="420" stroke="#A6824A" stroke-width="1.9" opacity="0.39"/><line x1="644" y1="0" x2="650" y2="420" stroke="#A6824A" stroke-width="2.8" opacity="0.58"/><line x1="657" y1="0" x2="650" y2="420" stroke="#A6824A" stroke-width="2.8" opacity="0.40"/><line x1="678" y1="0" x2="677" y2="420" stroke="#A6824A" stroke-width="2.5" opacity="0.56"/><line x1="688" y1="0" x2="694" y2="420" stroke="#A6824A" stroke-width="1.0" opacity="0.46"/><line x1="704" y1="0" x2="712" y2="420" stroke="#A6824A" stroke-width="2.3" opacity="0.37"/><line x1="724" y1="0" x2="724" y2="420" stroke="#7A5C2E" stroke-width="1.0" opacity="0.59"/><line x1="734" y1="0" x2="741" y2="420" stroke="#7A5C2E" stroke-width="1.3" opacity="0.29"/><line x1="754" y1="0" x2="759" y2="420" stroke="#7A5C2E" stroke-width="1.9" opacity="0.39"/><line x1="774" y1="0" x2="780" y2="420" stroke="#A6824A" stroke-width="2.8" opacity="0.58"/><line x1="786" y1="0" x2="780" y2="420" stroke="#A6824A" stroke-width="2.8" opacity="0.40"/><line x1="808" y1="0" x2="806" y2="420" stroke="#7A5C2E" stroke-width="2.5" opacity="0.56"/><line x1="818" y1="0" x2="824" y2="420" stroke="#7A5C2E" stroke-width="1.0" opacity="0.46"/><line x1="834" y1="0" x2="842" y2="420" stroke="#A6824A" stroke-width="2.3" opacity="0.37"/><line x1="854" y1="0" x2="854" y2="420" stroke="#7A5C2E" stroke-width="1.0" opacity="0.59"/><line x1="864" y1="0" x2="870" y2="420" stroke="#7A5C2E" stroke-width="1.3" opacity="0.29"/><line x1="883" y1="0" x2="889" y2="420" stroke="#7A5C2E" stroke-width="1.9" opacity="0.39"/><line x1="904" y1="0" x2="909" y2="420" stroke="#7A5C2E" stroke-width="2.8" opacity="0.58"/><line x1="916" y1="0" x2="910" y2="420" stroke="#7A5C2E" stroke-width="2.8" opacity="0.40"/><line x1="937" y1="0" x2="936" y2="420" stroke="#7A5C2E" stroke-width="2.5" opacity="0.56"/><line x1="947" y1="0" x2="953" y2="420" stroke="#7A5C2E" stroke-width="1.0" opacity="0.46"/><line x1="964" y1="0" x2="971" y2="420" stroke="#7A5C2E" stroke-width="2.3" opacity="0.37"/><line x1="983" y1="0" x2="984" y2="420" stroke="#7A5C2E" stroke-width="1.0" opacity="0.59"/><line x1="993" y1="0" x2="1000" y2="420" stroke="#7A5C2E" stroke-width="1.3" opacity="0.29"/><line x1="1013" y1="0" x2="1018" y2="420" stroke="#A6824A" stroke-width="1.9" opacity="0.39"/><line x1="1033" y1="0" x2="1039" y2="420" stroke="#7A5C2E" stroke-width="2.8" opacity="0.58"/><line x1="1046" y1="0" x2="1039" y2="420" stroke="#7A5C2E" stroke-width="2.8" opacity="0.40"/><line x1="1067" y1="0" x2="1065" y2="420" stroke="#A6824A" stroke-width="2.5" opacity="0.56"/><line x1="1077" y1="0" x2="1083" y2="420" stroke="#A6824A" stroke-width="1.0" opacity="0.46"/><line x1="1093" y1="0" x2="1101" y2="420" stroke="#7A5C2E" stroke-width="2.3" opacity="0.37"/><line x1="1113" y1="0" x2="1113" y2="420" stroke="#A6824A" stroke-width="1.0" opacity="0.59"/><line x1="1123" y1="0" x2="1130" y2="420" stroke="#A6824A" stroke-width="1.3" opacity="0.29"/><line x1="1142" y1="0" x2="1148" y2="420" stroke="#A6824A" stroke-width="1.9" opacity="0.39"/><line x1="1163" y1="0" x2="1169" y2="420" stroke="#A6824A" stroke-width="2.8" opacity="0.58"/><line x1="1175" y1="0" x2="1169" y2="420" stroke="#7A5C2E" stroke-width="2.8" opacity="0.40"/><line x1="1196" y1="0" x2="1195" y2="420" stroke="#A6824A" stroke-width="2.5" opacity="0.56"/><line x1="600" y1="0" x2="600" y2="420" stroke="#160F09" stroke-width="2" opacity="0.25"/><text x="288" y="28" font-family="Arial" font-size="15" fill="#160F09" opacity="0.5" text-anchor="middle">CROWN</text><text x="900" y="28" font-family="Arial" font-size="15" fill="#160F09" opacity="0.5" text-anchor="middle">QUARTER</text><rect x="24" y="302" width="145" height="42" rx="8" fill="#160F09" opacity="0.85"/><text x="40" y="330" font-family="Arial" font-size="21" font-weight="bold" fill="#E8A33D" letter-spacing="2">WHITE OAK</text></svg>