<svg xmlns="http://www.w3.org/2000/svg" viewBox="0 0 1200 420" width="1200" height="420" role="img" aria-label="Douglas Fir Wood"><rect width="1200" height="420" fill="#B5773F"/><path d="M -20 14 Q 102 11 226 13 Q 307 14 367 20 Q 504 27 623 19 Q 736 23 810 22 Q 880 14 1007 19 Q 1141 3 1219 22 Q 1282 16 1354 15" fill="none" stroke="#94592A" stroke-width="4.2" opacity="0.38"/><path d="M -20 43 Q 102 48 204 37 Q 314 24 464 48 Q 616 46 759 43 Q 898 29 1057 35 Q 1166 49 1310 47" fill="none" stroke="#94592A" stroke-width="2.3" opacity="0.57"/><path d="M -20 62 Q 72 63 185 63 Q 271 64 373 61 Q 497 61 578 62 Q 638 68 775 65 Q 894 67 1007 64 Q 1081 70 1151 62 Q 1278 67 1412 59" fill="none" stroke="#94592A" stroke-width="5.5" opacity="0.27"/><path d="M -20 82 Q 119 84 248 76 Q 373 78 475 86 Q 576 67 686 69 Q 836 96 989 85 Q 1131 84 1271 73 Q 1429 61 1539 87" fill="none" stroke="#94592A" stroke-width="1.3" opacity="0.54"/><path d="M -20 118 Q 63 121 135 120 Q 248 126 334 121 Q 436 115 560 117 Q 641 118 701 126 Q 838 135 957 125 Q 1070 130 1144 128 Q 1214 118 1342 125" fill="none" stroke="#70401B" stroke-width="1.8" opacity="0.34"/><path d="M -20 152 Q 118 147 236 152 Q 365 149 490 151 Q 592 154 694 150 Q 804 145 954 154 Q 1106 153 1249 152 Q 1388 147 1547 149" fill="none" stroke="#94592A" stroke-width="2.0" opacity="0.75"/><path d="M -20 180 Q 78 199 141 181 Q 213 183 325 183 Q 412 185 514 178 Q 638 177 719 180 Q 779 195 915 188 Q 1035 192 1148 185 Q 1222 198 1292 180 Q 1419 192 1553 173" fill="none" stroke="#94592A" stroke-width="4.8" opacity="0.62"/><path d="M -20 200 Q 119 202 248 194 Q 373 196 475 203 Q 576 185 686 187 Q 836 214 989 202 Q 1131 202 1271 191 Q 1429 179 1539 205" fill="none" stroke="#94592A" stroke-width="1.3" opacity="0.54"/><path d="M -20 236 Q 63 239 135 238 Q 248 244 334 239 Q 436 233 560 234 Q 641 236 701 244 Q 838 253 957 243 Q 1070 248 1144 246 Q 1214 236 1342 243" fill="none" stroke="#70401B" stroke-width="1.8" opacity="0.34"/><path d="M -20 270 Q 118 264 236 270 Q 365 266 490 269 Q 592 272 694 268 Q 804 263 954 272 Q 1106 271 1249 270 Q 1388 265 1547 267" fill="none" stroke="#94592A" stroke-width="2.0" opacity="0.75"/><path d="M -20 298 Q 78 316 141 299 Q 213 301 325 301 Q 412 303 514 296 Q 638 295 719 298 Q 779 313 915 306 Q 1035 310 1148 303 Q 1222 316 1292 297 Q 1419 310 1553 291" fill="none" stroke="#94592A" stroke-width="4.8" opacity="0.62"/><path d="M -20 318 Q 119 319 248 312 Q 373 314 475 321 Q 576 303 686 305 Q 836 332 989 320 Q 1131 320 1271 308 Q 1429 297 1539 322" fill="none" stroke="#94592A" stroke-width="1.3" opacity="0.54"/><path d="M -20 354 Q 63 357 135 356 Q 248 362 334 357 Q 436 351 560 352 Q 641 354 701 362 Q 838 371 957 360 Q 1070 366 1144 364 Q 1214 354 1342 361" fill="none" stroke="#70401B" stroke-width="1.8" opacity="0.34"/><path d="M -20 388 Q 118 382 236 388 Q 365 384 490 387 Q 592 389 694 386 Q 804 381 954 389 Q 1106 389 1249 388 Q 1388 383 1547 385" fill="none" stroke="#94592A" stroke-width="2.0" opacity="0.75"/><path d="M -20 415 Q 78 434 141 417 Q 213 419 325 419 Q 412 421 514 414 Q 638 412 719 415 Q 779 431 915 423 Q 1035 428 1148 421 Q 1222 434 1292 415 Q 1419 428 1553 409" fill="none" stroke="#94592A" stroke-width="4.8" opacity="0.62"/><ellipse cx="150" cy="231" rx="28" ry="20" fill="none" stroke="#70401B" stroke-width="1.9" opacity="0.9"/><ellipse cx="150" cy="231" rx="22" ry="16" fill="none" stroke="#70401B" stroke-width="2.1" opacity="0.7"/><ellipse cx="150" cy="231" rx="10" ry="7" fill="none" stroke="#70401B" stroke-width="2.5" opacity="1"/><ellipse cx="150" cy="231" rx="4" ry="2" fill="#70401B"/><ellipse cx="598" cy="70" rx="42" ry="29" fill="none" stroke="#70401B" stroke-width="2.7" opacity="0.9"/><ellipse cx="598" cy="70" rx="24" ry="16" fill="none" stroke="#70401B" stroke-width="2.7" opacity="0.7"/><ellipse cx="598" cy="70" rx="13" ry="7" fill="none" stroke="#70401B" stroke-width="3.0" opacity="1"/><ellipse cx="598" cy="70" rx="3" ry="3" fill="#70401B"/><ellipse cx="768" cy="304" rx="39" ry="31" fill="none" stroke="#70401B" stroke-width="1.5" opacity="0.9"/><ellipse cx="768" cy="304" rx="17" ry="12" fill="none" stroke="#70401B" stroke-width="1.7" opacity="0.7"/><ellipse cx="768" cy="304" rx="8" ry="6" fill="none" stroke="#70401B" stroke-width="2.3" opacity="1"/><ellipse cx="768" cy="304" rx="5" ry="3" fill="#70401B"/><ellipse cx="741" cy="189" rx="34" ry="20" fill="none" stroke="#70401B" stroke-width="2.2" opacity="0.9"/><ellipse cx="741" cy="189" rx="22" ry="12" fill="none" stroke="#70401B" stroke-width="2.9" opacity="0.7"/><ellipse cx="741" cy="189" rx="10" ry="7" fill="none" stroke="#70401B" stroke-width="2.9" opacity="1"/><ellipse cx="741" cy="189" rx="5" ry="4" fill="#70401B"/><rect x="24" y="348" width="236" height="46" rx="8" fill="#160F09" opacity="0.85"/><text x="40" y="378" font-family="Arial, sans-serif" font-size="22" font-weight="bold" fill="#E8A33D" letter-spacing="2">DOUGLAS FIR WOOD</text></svg>