<svg xmlns="http://www.w3.org/2000/svg" viewBox="0 0 1200 420" width="1200" height="420" role="img" aria-label="Assam Hollock Wood"><rect width="1200" height="420" fill="#7E4B33"/><path d="M -20 14 Q 98 7 220 17 Q 350 14 420 18 Q 516 20 588 14 Q 699 21 800 12 Q 905 9 1034 18 Q 1127 8 1224 10 Q 1325 19 1424 18" fill="none" stroke="#472417" stroke-width="4.2" opacity="0.65"/><path d="M -20 35 Q 66 39 213 38 Q 321 19 480 32 Q 626 20 733 35 Q 882 31 969 34 Q 1046 42 1204 31 Q 1275 30 1339 33" fill="none" stroke="#603524" stroke-width="4.6" opacity="0.73"/><path d="M -20 69 Q 139 81 238 64 Q 360 79 489 69 Q 559 82 656 74 Q 727 68 838 74 Q 939 63 1045 65 Q 1173 81 1266 64 Q 1363 58 1464 73" fill="none" stroke="#603524" stroke-width="5.3" opacity="0.35"/><path d="M -20 95 Q 155 89 222 98 Q 369 104 476 85 Q 635 88 781 85 Q 888 95 1038 92 Q 1124 92 1201 99 Q 1360 86 1430 91" fill="none" stroke="#472417" stroke-width="2.0" opacity="0.60"/><path d="M -20 112 Q 79 117 218 117 Q 317 100 439 116 Q 568 111 638 118 Q 735 121 806 111 Q 918 122 1018 109 Q 1124 103 1253 118 Q 1345 101 1442 106" fill="none" stroke="#472417" stroke-width="4.5" opacity="0.44"/><path d="M -20 137 Q 129 150 285 135 Q 351 142 498 141 Q 605 121 765 135 Q 911 121 1017 138 Q 1167 133 1253 137 Q 1331 145 1489 134" fill="none" stroke="#603524" stroke-width="2.9" opacity="0.73"/><path d="M -20 156 Q 99 167 178 158 Q 317 167 416 151 Q 538 165 667 156 Q 737 168 834 160 Q 905 155 1016 161 Q 1117 150 1223 152 Q 1351 168 1444 151" fill="none" stroke="#472417" stroke-width="1.4" opacity="0.45"/><path d="M -20 181 Q 156 178 286 182 Q 441 180 507 181 Q 655 183 762 179 Q 921 180 1067 179 Q 1174 181 1324 180" fill="none" stroke="#603524" stroke-width="3.0" opacity="0.64"/><path d="M -20 203 Q 93 192 190 197 Q 291 211 389 210 Q 469 209 608 210 Q 706 191 828 208 Q 958 202 1028 210 Q 1124 213 1196 203 Q 1307 214 1407 200" fill="none" stroke="#472417" stroke-width="1.9" opacity="0.59"/><path d="M -20 230 Q 71 228 135 229 Q 273 228 429 228 Q 558 235 714 229 Q 780 232 927 232 Q 1035 224 1194 229 Q 1340 224 1446 230" fill="none" stroke="#603524" stroke-width="4.2" opacity="0.74"/><path d="M -20 268 Q 129 280 221 263 Q 318 256 419 271 Q 518 280 597 270 Q 736 279 835 262 Q 957 277 1086 267 Q 1156 280 1253 272 Q 1324 267 1436 273" fill="none" stroke="#603524" stroke-width="2.3" opacity="0.48"/><path d="M -20 293 Q 158 290 229 292 Q 293 292 431 292 Q 587 287 717 296 Q 872 291 938 295 Q 1085 297 1193 290 Q 1352 291 1498 290" fill="none" stroke="#603524" stroke-width="3.2" opacity="0.34"/><path d="M -20 321 Q 106 311 235 328 Q 327 309 424 314 Q 525 329 624 328 Q 703 327 842 328 Q 941 307 1063 326 Q 1192 320 1262 328 Q 1359 332 1430 320" fill="none" stroke="#603524" stroke-width="5.1" opacity="0.45"/><path d="M -20 349 Q 77 358 236 345 Q 306 343 371 347 Q 508 344 665 342 Q 794 363 949 346 Q 1016 355 1163 354 Q 1270 330 1429 346" fill="none" stroke="#603524" stroke-width="2.9" opacity="0.38"/><path d="M -20 386 Q 100 382 206 383 Q 335 392 427 383 Q 525 380 625 387 Q 724 392 804 387 Q 943 391 1041 383 Q 1163 390 1293 385 Q 1363 392 1459 388" fill="none" stroke="#472417" stroke-width="3.2" opacity="0.51"/><path d="M -20 404 Q 86 403 164 407 Q 322 399 393 402 Q 457 402 595 403 Q 751 396 880 408 Q 1036 401 1102 406 Q 1249 410 1356 399" fill="none" stroke="#603524" stroke-width="3.4" opacity="0.70"/><rect x="24" y="348" width="262" height="46" rx="8" fill="#160F09" opacity="0.85"/><text x="40" y="378" font-family="Arial, sans-serif" font-size="22" font-weight="bold" fill="#E8A33D" letter-spacing="2">ASSAM HOLLOCK WOOD</text></svg>