<svg xmlns="http://www.w3.org/2000/svg" viewBox="0 0 1200 420" width="1200" height="420" role="img" aria-label="Kapur Sal Wood"><rect width="1200" height="420" fill="#77502F"/><path d="M -20 14 Q 138 14 208 15 Q 305 16 437 15 Q 504 15 626 16 Q 688 13 798 13 Q 931 17 1069 15 Q 1156 16 1313 12" fill="none" stroke="#402913" stroke-width="1.3" opacity="0.56"/><path d="M -20 49 Q 62 53 214 55 Q 323 34 457 47 Q 585 57 717 41 Q 836 54 989 40 Q 1093 49 1184 54 Q 1325 60 1450 45" fill="none" stroke="#5A3A1F" stroke-width="3.0" opacity="0.67"/><path d="M -20 81 Q 102 98 168 69 Q 289 102 427 81 Q 497 94 595 86 Q 726 92 793 84 Q 915 103 977 80 Q 1087 72 1220 89 Q 1358 89 1445 86" fill="none" stroke="#5A3A1F" stroke-width="1.6" opacity="0.65"/><path d="M -20 120 Q 144 115 206 121 Q 358 124 467 118 Q 601 119 729 122 Q 861 115 980 121 Q 1133 115 1237 120 Q 1327 123 1469 122" fill="none" stroke="#5A3A1F" stroke-width="4.6" opacity="0.60"/><path d="M -20 152 Q 140 156 242 155 Q 308 142 429 156 Q 567 152 637 155 Q 735 156 866 154 Q 933 154 1055 156 Q 1117 151 1227 150 Q 1360 158 1498 154" fill="none" stroke="#5A3A1F" stroke-width="4.1" opacity="0.73"/><path d="M -20 175 Q 129 172 273 166 Q 335 179 487 180 Q 596 159 730 172 Q 858 183 990 166 Q 1109 179 1262 166 Q 1366 175 1456 179" fill="none" stroke="#402913" stroke-width="5.3" opacity="0.30"/><path d="M -20 210 Q 156 193 296 214 Q 398 225 464 200 Q 585 228 724 210 Q 793 221 891 214 Q 1022 219 1089 212 Q 1211 228 1273 209 Q 1383 202 1516 217" fill="none" stroke="#5A3A1F" stroke-width="4.0" opacity="0.39"/><path d="M -20 245 Q 69 256 198 244 Q 342 229 404 247 Q 556 255 665 238 Q 800 240 928 249 Q 1059 229 1178 247 Q 1331 227 1435 245" fill="none" stroke="#402913" stroke-width="2.4" opacity="0.59"/><path d="M -20 268 Q 87 275 244 260 Q 384 276 486 275 Q 551 249 673 277 Q 811 268 880 273 Q 978 276 1109 273 Q 1176 272 1298 277 Q 1360 266 1471 264" fill="none" stroke="#5A3A1F" stroke-width="4.7" opacity="0.64"/><path d="M -20 302 Q 127 322 197 308 Q 326 298 470 292 Q 532 307 684 308 Q 793 284 927 299 Q 1055 311 1187 292 Q 1306 307 1459 291" fill="none" stroke="#5A3A1F" stroke-width="4.6" opacity="0.58"/><path d="M -20 328 Q 138 333 226 331 Q 382 316 522 331 Q 624 338 690 321 Q 811 341 949 328 Q 1019 336 1116 331 Q 1248 335 1315 330" fill="none" stroke="#402913" stroke-width="2.5" opacity="0.61"/><path d="M -20 359 Q 91 370 232 366 Q 357 348 484 370 Q 554 374 683 357 Q 827 337 889 362 Q 1040 373 1149 349 Q 1284 353 1412 364" fill="none" stroke="#5A3A1F" stroke-width="1.3" opacity="0.47"/><path d="M -20 392 Q 62 392 172 391 Q 305 396 443 393 Q 531 394 687 390 Q 827 394 929 394 Q 995 387 1116 395 Q 1254 392 1324 394" fill="none" stroke="#402913" stroke-width="3.7" opacity="0.56"/><path d="M -20 417 Q 119 422 272 408 Q 376 417 467 422 Q 608 428 733 413 Q 860 435 930 423 Q 1059 414 1203 409 Q 1265 422 1416 423" fill="none" stroke="#5A3A1F" stroke-width="4.3" opacity="0.61"/><rect x="24" y="348" width="210" height="46" rx="8" fill="#160F09" opacity="0.85"/><text x="40" y="378" font-family="Arial, sans-serif" font-size="22" font-weight="bold" fill="#E8A33D" letter-spacing="2">KAPUR SAL WOOD</text></svg>