<svg xmlns="http://www.w3.org/2000/svg" viewBox="0 0 1200 420" width="1200" height="420" role="img" aria-label="Live Edge Wood Slabs"><rect width="1200" height="420" fill="#8A5A30"/><path d="M -20 14 Q 144 35 238 21 Q 336 9 465 9 Q 618 -7 740 4 Q 825 -1 948 23 Q 1050 16 1136 6 Q 1264 34 1423 11" fill="none" stroke="#67401D" stroke-width="3.2" opacity="0.60"/><path d="M -20 39 Q 106 42 222 41 Q 377 37 517 38 Q 615 42 702 42 Q 766 41 833 38 Q 911 41 1062 39 Q 1175 36 1251 40 Q 1404 45 1502 38" fill="none" stroke="#26160A" stroke-width="2.1" opacity="0.27"/><path d="M -20 58 Q 129 59 273 62 Q 367 63 465 57 Q 594 54 747 54 Q 869 50 954 55 Q 1077 65 1179 58 Q 1265 52 1393 62" fill="none" stroke="#67401D" stroke-width="1.3" opacity="0.69"/><path d="M -20 98 Q 63 107 169 100 Q 285 106 440 96 Q 580 95 678 100 Q 765 108 829 99 Q 896 91 974 99 Q 1125 95 1238 95 Q 1314 102 1467 104" fill="none" stroke="#67401D" stroke-width="2.9" opacity="0.30"/><path d="M -20 123 Q 147 122 276 123 Q 421 134 515 126 Q 613 120 742 120 Q 894 111 1017 117 Q 1101 115 1225 128 Q 1326 124 1413 118" fill="none" stroke="#67401D" stroke-width="1.7" opacity="0.35"/><path d="M -20 155 Q 71 140 134 164 Q 240 164 356 163 Q 511 147 651 152 Q 749 164 836 165 Q 900 161 967 149 Q 1045 162 1196 153 Q 1309 143 1385 159" fill="none" stroke="#67401D" stroke-width="5.4" opacity="0.44"/><path d="M -20 193 Q 80 169 228 192 Q 357 196 501 205 Q 595 209 693 190 Q 822 181 975 181 Q 1097 171 1182 185 Q 1305 214 1407 194" fill="none" stroke="#67401D" stroke-width="2.8" opacity="0.44"/><path d="M -20 216 Q 98 214 169 213 Q 232 221 338 217 Q 454 221 609 214 Q 749 214 847 217 Q 935 222 998 217 Q 1065 212 1143 217 Q 1294 214 1407 214" fill="none" stroke="#26160A" stroke-width="4.1" opacity="0.72"/><path d="M -20 235 Q 98 221 179 227 Q 326 234 455 237 Q 600 253 693 241 Q 792 231 920 231 Q 1073 218 1196 227 Q 1280 224 1404 243" fill="none" stroke="#67401D" stroke-width="5.2" opacity="0.74"/><path d="M -20 261 Q 153 277 251 260 Q 322 252 385 267 Q 492 267 607 267 Q 763 256 902 260 Q 1001 267 1088 268 Q 1152 265 1218 257 Q 1296 266 1447 260" fill="none" stroke="#67401D" stroke-width="2.3" opacity="0.33"/><path d="M -20 290 Q 159 288 257 286 Q 338 281 485 290 Q 614 291 758 295 Q 852 296 951 289 Q 1079 286 1232 286 Q 1355 282 1439 287" fill="none" stroke="#26160A" stroke-width="1.9" opacity="0.59"/><path d="M -20 322 Q 76 330 229 333 Q 327 316 398 314 Q 461 340 567 326 Q 683 338 838 318 Q 978 316 1076 326 Q 1164 342 1227 325 Q 1294 309 1372 325" fill="none" stroke="#67401D" stroke-width="3.0" opacity="0.52"/><path d="M -20 359 Q 127 371 286 358 Q 385 349 465 353 Q 613 358 742 360 Q 886 371 980 363 Q 1078 356 1207 356 Q 1359 347 1482 354" fill="none" stroke="#67401D" stroke-width="3.5" opacity="0.38"/><path d="M -20 381 Q 114 377 189 383 Q 343 389 441 380 Q 512 376 575 384 Q 681 384 797 384 Q 952 379 1092 380 Q 1190 384 1277 385 Q 1341 383 1407 379" fill="none" stroke="#67401D" stroke-width="3.9" opacity="0.70"/><path d="M -20 402 Q 87 389 214 409 Q 373 397 471 395 Q 552 385 699 401 Q 828 404 973 410 Q 1066 412 1165 399 Q 1293 393 1446 393" fill="none" stroke="#67401D" stroke-width="5.1" opacity="0.46"/><ellipse cx="353" cy="122" rx="37" ry="26" fill="none" stroke="#26160A" stroke-width="1.9" opacity="0.9"/><ellipse cx="353" cy="122" rx="25" ry="15" fill="none" stroke="#26160A" stroke-width="2.5" opacity="0.7"/><ellipse cx="353" cy="122" rx="9" ry="7" fill="none" stroke="#26160A" stroke-width="3.0" opacity="1"/><ellipse cx="353" cy="122" rx="4" ry="3" fill="#26160A"/><path d="M 0 0 L 59 17 L 111 38 L 198 32 L 293 37 L 419 21 L 533 22 L 614 32 L 685 40 L 738 30 L 793 18 L 858 30 L 981 23 L 1074 19 L 1136 32 L 1261 42 L 1200 0 Z" fill="#26160A"/><path d="M 0 420 L 80 398 L 139 403 L 192 382 L 279 388 L 373 383 L 500 399 L 613 398 L 694 388 L 766 380 L 819 390 L 874 402 L 939 390 L 1061 397 L 1154 401 L 1217 388 L 1200 420 Z" fill="#26160A"/><rect x="24" y="348" width="288" height="46" rx="8" fill="#160F09" opacity="0.85"/><text x="40" y="378" font-family="Arial, sans-serif" font-size="22" font-weight="bold" fill="#E8A33D" letter-spacing="2">LIVE EDGE WOOD SLABS</text></svg>