<svg xmlns="http://www.w3.org/2000/svg" viewBox="0 0 1200 420" width="1200" height="420" role="img" aria-label="Malaysian Sal"><rect width="1200" height="420" fill="#6E4526"/><path d="M -20 14 Q 65 17 197 17 Q 333 12 486 15 Q 557 19 675 12 Q 755 13 824 15 Q 975 10 1116 14 Q 1261 17 1400 13" fill="none" stroke="#523118" stroke-width="4.5" opacity="0.63"/><path d="M -20 30 Q 137 33 262 29 Q 398 32 555 32 Q 648 34 773 29 Q 932 31 1003 29 Q 1105 27 1229 32 Q 1305 33 1410 32" fill="none" stroke="#523118" stroke-width="4.1" opacity="0.46"/><path d="M -20 66 Q 128 62 194 72 Q 331 72 396 71 Q 528 86 664 62 Q 816 72 887 76 Q 1006 49 1086 64 Q 1154 72 1305 58" fill="none" stroke="#523118" stroke-width="2.3" opacity="0.26"/><path d="M -20 101 Q 86 88 147 104 Q 249 89 386 105 Q 511 89 647 104 Q 804 109 897 107 Q 1022 91 1181 103 Q 1252 93 1355 96" fill="none" stroke="#3B220F" stroke-width="4.8" opacity="0.65"/><path d="M -20 133 Q 145 147 284 127 Q 346 109 474 131 Q 540 145 676 136 Q 742 145 874 144 Q 1010 124 1162 136 Q 1233 156 1352 123" fill="none" stroke="#523118" stroke-width="1.9" opacity="0.66"/><path d="M -20 153 Q 76 162 181 158 Q 321 161 407 147 Q 468 158 570 148 Q 707 160 832 147 Q 968 159 1125 157 Q 1218 165 1343 148" fill="none" stroke="#3B220F" stroke-width="1.6" opacity="0.57"/><path d="M -20 193 Q 68 198 219 187 Q 361 191 505 198 Q 645 185 707 185 Q 835 190 901 198 Q 1037 198 1102 198 Q 1235 209 1371 190" fill="none" stroke="#523118" stroke-width="1.7" opacity="0.35"/><path d="M -20 231 Q 71 220 174 224 Q 297 246 373 237 Q 478 244 618 237 Q 705 214 765 235 Q 867 215 1004 236 Q 1129 215 1265 235 Q 1423 241 1515 239" fill="none" stroke="#523118" stroke-width="1.7" opacity="0.74"/><path d="M -20 263 Q 80 262 148 264 Q 299 259 441 263 Q 585 267 725 261 Q 787 257 915 262 Q 981 266 1117 264 Q 1182 266 1315 266" fill="none" stroke="#523118" stroke-width="5.4" opacity="0.54"/><path d="M -20 297 Q 159 299 230 294 Q 333 288 456 302 Q 532 304 637 301 Q 777 304 864 292 Q 924 301 1026 292 Q 1163 303 1288 292 Q 1424 302 1582 300" fill="none" stroke="#523118" stroke-width="5.2" opacity="0.58"/><path d="M -20 321 Q 118 302 198 319 Q 267 328 418 313 Q 559 318 704 328 Q 843 309 905 309 Q 1033 317 1099 328 Q 1236 328 1301 327" fill="none" stroke="#3B220F" stroke-width="4.0" opacity="0.30"/><path d="M -20 354 Q 125 335 284 356 Q 355 339 458 344 Q 581 375 657 362 Q 762 372 902 362 Q 989 330 1049 359 Q 1151 332 1288 361 Q 1413 332 1549 360" fill="none" stroke="#3B220F" stroke-width="4.5" opacity="0.41"/><path d="M -20 394 Q 71 414 189 386 Q 269 390 338 396 Q 489 380 630 393 Q 775 406 914 389 Q 976 373 1104 392 Q 1170 405 1307 397" fill="none" stroke="#523118" stroke-width="2.6" opacity="0.71"/><path d="M -20 411 Q 93 429 218 403 Q 376 414 448 405 Q 550 394 674 419 Q 750 424 855 418 Q 995 423 1081 401 Q 1142 418 1244 402 Q 1381 422 1506 402" fill="none" stroke="#3B220F" stroke-width="4.3" opacity="0.74"/><rect x="24" y="348" width="197" height="46" rx="8" fill="#160F09" opacity="0.85"/><text x="40" y="378" font-family="Arial, sans-serif" font-size="22" font-weight="bold" fill="#E8A33D" letter-spacing="2">MALAYSIAN SAL</text></svg>