<svg xmlns="http://www.w3.org/2000/svg" viewBox="0 0 1200 420" width="1200" height="420" role="img" aria-label="Meranti / Marandi Wood"><rect width="1200" height="420" fill="#8E4F3C"/><path d="M -20 14 Q 125 32 226 7 Q 291 29 412 17 Q 504 17 565 18 Q 656 19 815 20 Q 915 -6 1039 9 Q 1169 12 1246 4 Q 1398 4 1551 19" fill="none" stroke="#6E3826" stroke-width="3.3" opacity="0.61"/><path d="M -20 50 Q 151 48 231 43 Q 374 54 497 47 Q 613 36 740 47 Q 862 65 998 49 Q 1064 54 1153 53 Q 1258 40 1325 56" fill="none" stroke="#6E3826" stroke-width="4.3" opacity="0.60"/><path d="M -20 73 Q 132 82 256 83 Q 358 58 422 81 Q 544 79 635 74 Q 697 81 788 76 Q 946 86 1046 62 Q 1171 62 1301 72" fill="none" stroke="#6E3826" stroke-width="4.4" opacity="0.67"/><path d="M -20 93 Q 134 97 243 94 Q 372 95 523 92 Q 603 88 746 94 Q 869 91 985 90 Q 1112 91 1234 96 Q 1371 92 1436 94" fill="none" stroke="#54291A" stroke-width="5.1" opacity="0.39"/><path d="M -20 116 Q 151 107 305 121 Q 449 116 581 120 Q 706 132 807 110 Q 872 129 993 118 Q 1085 118 1146 119 Q 1238 121 1396 121" fill="none" stroke="#6E3826" stroke-width="3.1" opacity="0.34"/><path d="M -20 142 Q 105 138 172 144 Q 259 146 393 143 Q 502 144 631 142 Q 782 141 862 139 Q 1005 143 1129 141 Q 1245 136 1371 141" fill="none" stroke="#6E3826" stroke-width="4.0" opacity="0.40"/><path d="M -20 172 Q 124 162 255 171 Q 332 150 483 167 Q 637 185 781 172 Q 913 182 1038 183 Q 1139 157 1204 181 Q 1325 179 1416 174" fill="none" stroke="#6E3826" stroke-width="4.5" opacity="0.45"/><path d="M -20 189 Q 137 185 202 191 Q 291 196 396 183 Q 463 204 551 197 Q 684 202 794 193 Q 923 194 1074 187 Q 1154 172 1297 191 Q 1420 182 1536 180" fill="none" stroke="#54291A" stroke-width="2.5" opacity="0.56"/><path d="M -20 221 Q 100 211 224 218 Q 355 220 432 216 Q 583 216 737 223 Q 881 221 1013 223 Q 1138 230 1239 217 Q 1304 228 1425 222" fill="none" stroke="#54291A" stroke-width="3.9" opacity="0.74"/><path d="M -20 244 Q 122 260 259 243 Q 324 249 413 248 Q 518 234 585 251 Q 673 258 806 250 Q 916 251 1045 247 Q 1196 241 1276 237 Q 1419 248 1542 241" fill="none" stroke="#6E3826" stroke-width="1.3" opacity="0.58"/><path d="M -20 274 Q 158 276 258 272 Q 382 272 513 273 Q 590 270 741 273 Q 895 276 1039 274 Q 1171 275 1296 275 Q 1397 271 1462 275" fill="none" stroke="#6E3826" stroke-width="4.0" opacity="0.41"/><path d="M -20 304 Q 126 298 248 313 Q 385 301 451 307 Q 540 312 644 299 Q 711 319 799 312 Q 933 317 1042 308 Q 1171 310 1322 303" fill="none" stroke="#6E3826" stroke-width="2.5" opacity="0.53"/><path d="M -20 325 Q 91 326 153 326 Q 244 326 402 327 Q 502 321 627 324 Q 757 325 834 323 Q 985 323 1139 326 Q 1284 325 1415 326" fill="none" stroke="#6E3826" stroke-width="4.8" opacity="0.56"/><path d="M -20 357 Q 143 362 266 352 Q 382 334 509 352 Q 631 380 767 354 Q 833 364 922 362 Q 1027 341 1094 367 Q 1181 378 1315 365" fill="none" stroke="#6E3826" stroke-width="3.0" opacity="0.35"/><path d="M -20 385 Q 101 373 166 391 Q 287 390 379 386 Q 440 391 532 387 Q 690 395 790 376 Q 914 376 1044 384 Q 1122 368 1273 380 Q 1427 394 1571 385" fill="none" stroke="#54291A" stroke-width="4.2" opacity="0.57"/><path d="M -20 418 Q 80 400 223 420 Q 346 411 462 409 Q 589 411 711 427 Q 847 414 913 421 Q 1002 426 1107 412 Q 1174 434 1261 426 Q 1395 431 1504 422" fill="none" stroke="#6E3826" stroke-width="4.0" opacity="0.70"/><rect x="24" y="348" width="314" height="46" rx="8" fill="#160F09" opacity="0.85"/><text x="40" y="378" font-family="Arial, sans-serif" font-size="22" font-weight="bold" fill="#E8A33D" letter-spacing="2">MERANTI / MARANDI WOOD</text></svg>