<svg xmlns="http://www.w3.org/2000/svg" viewBox="0 0 1200 420" width="1200" height="420" role="img" aria-label="Partal Wood"><rect width="1200" height="420" fill="#EAD7AE"/><path d="M -20 14 Q 140 19 251 16 Q 335 18 401 13 Q 500 9 578 14 Q 649 14 787 15 Q 924 18 1078 17 Q 1174 10 1308 11" fill="none" stroke="#CBB07C" stroke-width="2.0" opacity="0.54"/><path d="M -20 30 Q 78 33 162 36 Q 309 30 451 26 Q 588 14 677 28 Q 748 19 855 23 Q 965 40 1089 35 Q 1233 46 1391 28" fill="none" stroke="#CBB07C" stroke-width="4.4" opacity="0.52"/><path d="M -20 51 Q 135 53 207 45 Q 324 41 464 59 Q 575 64 659 57 Q 725 43 824 43 Q 902 50 973 51 Q 1111 57 1247 58 Q 1402 71 1498 45" fill="none" stroke="#CBB07C" stroke-width="1.6" opacity="0.25"/><path d="M -20 85 Q 114 81 191 86 Q 276 89 422 85 Q 564 82 702 83 Q 791 84 862 83 Q 968 81 1079 87 Q 1203 88 1346 88" fill="none" stroke="#AD9159" stroke-width="1.2" opacity="0.57"/><path d="M -20 125 Q 61 128 196 125 Q 267 117 385 122 Q 525 133 636 129 Q 720 131 785 122 Q 884 116 963 124 Q 1034 125 1171 126 Q 1308 133 1463 130" fill="none" stroke="#CBB07C" stroke-width="2.1" opacity="0.62"/><path d="M -20 149 Q 123 154 237 146 Q 315 151 399 152 Q 545 149 687 147 Q 825 142 914 148 Q 985 144 1091 146 Q 1202 154 1326 152" fill="none" stroke="#CBB07C" stroke-width="4.4" opacity="0.29"/><path d="M -20 185 Q 135 165 195 189 Q 331 187 402 177 Q 519 173 660 194 Q 770 201 855 192 Q 920 175 1019 176 Q 1097 183 1168 185 Q 1306 192 1443 194" fill="none" stroke="#CBB07C" stroke-width="5.4" opacity="0.43"/><path d="M -20 224 Q 68 199 191 231 Q 305 204 383 226 Q 467 240 614 224 Q 756 211 893 213 Q 982 218 1053 216 Q 1160 204 1270 231 Q 1394 238 1538 236" fill="none" stroke="#CBB07C" stroke-width="2.7" opacity="0.36"/><path d="M -20 264 Q 61 267 196 264 Q 267 256 385 261 Q 525 272 636 267 Q 720 270 785 261 Q 884 255 963 263 Q 1034 264 1171 265 Q 1308 272 1463 269" fill="none" stroke="#CBB07C" stroke-width="2.1" opacity="0.62"/><path d="M -20 288 Q 123 293 237 285 Q 315 289 399 291 Q 545 288 687 286 Q 825 280 914 287 Q 985 283 1091 285 Q 1202 293 1326 290" fill="none" stroke="#CBB07C" stroke-width="4.4" opacity="0.29"/><path d="M -20 324 Q 135 303 195 327 Q 331 326 402 316 Q 519 312 660 333 Q 770 340 855 331 Q 920 314 1019 315 Q 1097 322 1168 324 Q 1306 331 1443 333" fill="none" stroke="#CBB07C" stroke-width="5.4" opacity="0.43"/><path d="M -20 363 Q 68 338 191 369 Q 305 343 383 365 Q 467 379 614 363 Q 756 350 893 352 Q 982 357 1053 355 Q 1160 343 1270 370 Q 1394 377 1538 375" fill="none" stroke="#CBB07C" stroke-width="2.7" opacity="0.36"/><path d="M -20 403 Q 61 406 196 403 Q 267 395 385 400 Q 525 411 636 406 Q 720 409 785 400 Q 884 394 963 402 Q 1034 403 1171 404 Q 1308 411 1463 408" fill="none" stroke="#CBB07C" stroke-width="2.1" opacity="0.62"/><ellipse cx="835" cy="93" rx="26" ry="18" fill="none" stroke="#AD9159" stroke-width="1.7" opacity="0.9"/><ellipse cx="835" cy="93" rx="22" ry="13" fill="none" stroke="#AD9159" stroke-width="2.4" opacity="0.7"/><ellipse cx="835" cy="93" rx="12" ry="7" fill="none" stroke="#AD9159" stroke-width="2.7" opacity="1"/><ellipse cx="835" cy="93" rx="6" ry="3" fill="#AD9159"/><rect x="24" y="348" width="171" height="46" rx="8" fill="#160F09" opacity="0.85"/><text x="40" y="378" font-family="Arial, sans-serif" font-size="22" font-weight="bold" fill="#E8A33D" letter-spacing="2">PARTAL WOOD</text></svg>