<svg xmlns="http://www.w3.org/2000/svg" viewBox="0 0 1200 420" width="1200" height="420" role="img" aria-label="Pine Wood"><rect width="1200" height="420" fill="#E2C295"/><path d="M -20 14 Q 67 -5 150 7 Q 257 1 401 11 Q 461 5 543 21 Q 673 27 770 14 Q 853 11 974 8 Q 1071 26 1171 22 Q 1255 -2 1355 4" fill="none" stroke="#C49B62" stroke-width="3.7" opacity="0.32"/><path d="M -20 50 Q 67 41 146 49 Q 228 61 325 41 Q 416 40 557 53 Q 696 46 807 45 Q 909 53 994 48 Q 1131 46 1275 45 Q 1348 46 1412 55" fill="none" stroke="#C49B62" stroke-width="1.8" opacity="0.47"/><path d="M -20 80 Q 82 75 189 78 Q 334 78 394 78 Q 475 84 605 82 Q 702 80 785 79 Q 906 76 1004 81 Q 1104 84 1187 77 Q 1287 73 1429 80" fill="none" stroke="#C49B62" stroke-width="3.1" opacity="0.29"/><path d="M -20 99 Q 79 98 161 104 Q 258 85 349 95 Q 490 104 629 97 Q 740 91 842 100 Q 927 95 1064 97 Q 1208 91 1281 97 Q 1345 108 1462 94" fill="none" stroke="#C49B62" stroke-width="1.5" opacity="0.29"/><path d="M -20 126 Q 107 122 251 125 Q 311 123 393 127 Q 523 129 620 126 Q 703 125 824 124 Q 922 129 1021 127 Q 1105 121 1205 123 Q 1347 126 1421 125" fill="none" stroke="#C49B62" stroke-width="1.5" opacity="0.36"/><path d="M -20 143 Q 82 147 179 141 Q 269 140 411 144 Q 550 142 660 142 Q 763 145 848 143 Q 985 142 1129 142 Q 1202 142 1265 145 Q 1383 139 1487 141" fill="none" stroke="#C49B62" stroke-width="2.2" opacity="0.35"/><path d="M -20 161 Q 144 159 204 159 Q 286 167 416 164 Q 513 161 596 160 Q 717 157 815 163 Q 914 167 998 158 Q 1098 153 1240 162 Q 1314 160 1381 157" fill="none" stroke="#C49B62" stroke-width="2.0" opacity="0.49"/><path d="M -20 182 Q 98 174 188 180 Q 329 186 469 181 Q 579 178 681 183 Q 766 180 904 182 Q 1047 178 1120 182 Q 1184 188 1301 179" fill="none" stroke="#A67C42" stroke-width="3.2" opacity="0.36"/><path d="M -20 209 Q 107 206 251 208 Q 311 207 393 211 Q 523 212 620 209 Q 703 208 824 208 Q 922 212 1021 211 Q 1105 205 1205 206 Q 1347 210 1421 209" fill="none" stroke="#C49B62" stroke-width="1.5" opacity="0.36"/><path d="M -20 227 Q 82 231 179 224 Q 269 224 411 228 Q 550 225 660 225 Q 763 228 848 226 Q 985 226 1129 225 Q 1202 226 1265 229 Q 1383 223 1487 225" fill="none" stroke="#C49B62" stroke-width="2.2" opacity="0.35"/><path d="M -20 245 Q 144 242 204 243 Q 286 250 416 247 Q 513 245 596 244 Q 717 240 815 247 Q 914 251 998 241 Q 1098 236 1240 245 Q 1314 244 1381 241" fill="none" stroke="#C49B62" stroke-width="2.0" opacity="0.49"/><path d="M -20 266 Q 98 258 188 264 Q 329 269 469 265 Q 579 261 681 267 Q 766 264 904 265 Q 1047 262 1120 265 Q 1184 271 1301 263" fill="none" stroke="#A67C42" stroke-width="3.2" opacity="0.36"/><path d="M -20 293 Q 107 289 251 292 Q 311 290 393 294 Q 523 296 620 293 Q 703 292 824 291 Q 922 296 1021 295 Q 1105 289 1205 290 Q 1347 294 1421 292" fill="none" stroke="#C49B62" stroke-width="1.5" opacity="0.36"/><path d="M -20 310 Q 82 314 179 308 Q 269 307 411 312 Q 550 309 660 309 Q 763 312 848 310 Q 985 309 1129 309 Q 1202 309 1265 312 Q 1383 306 1487 308" fill="none" stroke="#C49B62" stroke-width="2.2" opacity="0.35"/><path d="M -20 328 Q 144 326 204 326 Q 286 334 416 331 Q 513 328 596 327 Q 717 324 815 331 Q 914 334 998 325 Q 1098 320 1240 329 Q 1314 327 1381 324" fill="none" stroke="#C49B62" stroke-width="2.0" opacity="0.49"/><path d="M -20 350 Q 98 341 188 347 Q 329 353 469 348 Q 579 345 681 350 Q 766 347 904 349 Q 1047 345 1120 349 Q 1184 355 1301 347" fill="none" stroke="#A67C42" stroke-width="3.2" opacity="0.36"/><path d="M -20 376 Q 107 373 251 376 Q 311 374 393 378 Q 523 380 620 376 Q 703 375 824 375 Q 922 379 1021 378 Q 1105 372 1205 374 Q 1347 377 1421 376" fill="none" stroke="#C49B62" stroke-width="1.5" opacity="0.36"/><path d="M -20 394 Q 82 398 179 391 Q 269 391 411 395 Q 550 393 660 393 Q 763 395 848 393 Q 985 393 1129 393 Q 1202 393 1265 396 Q 1383 390 1487 392" fill="none" stroke="#C49B62" stroke-width="2.2" opacity="0.35"/><path d="M -20 412 Q 144 410 204 410 Q 286 417 416 414 Q 513 412 596 411 Q 717 407 815 414 Q 914 418 998 408 Q 1098 403 1240 412 Q 1314 411 1381 408" fill="none" stroke="#C49B62" stroke-width="2.0" opacity="0.49"/><ellipse cx="572" cy="130" rx="41" ry="26" fill="none" stroke="#A67C42" stroke-width="1.8" opacity="0.9"/><ellipse cx="572" cy="130" rx="20" ry="15" fill="none" stroke="#A67C42" stroke-width="2.5" opacity="0.7"/><ellipse cx="572" cy="130" rx="7" ry="5" fill="none" stroke="#A67C42" stroke-width="2.1" opacity="1"/><ellipse cx="572" cy="130" rx="5" ry="2" fill="#A67C42"/><rect x="24" y="348" width="145" height="46" rx="8" fill="#160F09" opacity="0.85"/><text x="40" y="378" font-family="Arial, sans-serif" font-size="22" font-weight="bold" fill="#E8A33D" letter-spacing="2">PINE WOOD</text></svg>