<svg xmlns="http://www.w3.org/2000/svg" viewBox="0 0 1200 420" width="1200" height="420" role="img" aria-label="Sheesham Wood"><rect width="1200" height="420" fill="#5C3A21"/><path d="M -20 14 Q 140 23 264 14 Q 346 14 422 5 Q 511 29 657 19 Q 773 -3 872 23 Q 1022 18 1123 14 Q 1192 31 1345 20" fill="none" stroke="#2A1A0D" stroke-width="4.3" opacity="0.60"/><path d="M -20 50 Q 133 53 278 52 Q 413 52 524 47 Q 635 44 697 48 Q 847 56 985 50 Q 1048 48 1204 53 Q 1325 48 1436 46" fill="none" stroke="#3E2614" stroke-width="4.1" opacity="0.71"/><path d="M -20 89 Q 128 109 255 94 Q 384 106 525 95 Q 649 90 731 89 Q 806 65 895 98 Q 1041 102 1157 77 Q 1256 111 1406 91" fill="none" stroke="#3E2614" stroke-width="4.8" opacity="0.66"/><path d="M -20 114 Q 145 124 227 117 Q 379 119 512 117 Q 656 124 791 117 Q 903 106 1013 109 Q 1076 108 1226 120 Q 1364 116 1427 113" fill="none" stroke="#2A1A0D" stroke-width="1.6" opacity="0.73"/><path d="M -20 153 Q 69 175 223 162 Q 365 140 493 163 Q 620 164 749 162 Q 889 165 1013 154 Q 1095 154 1171 142 Q 1260 172 1406 160" fill="none" stroke="#3E2614" stroke-width="3.8" opacity="0.45"/><path d="M -20 183 Q 120 182 231 181 Q 387 187 532 184 Q 614 185 766 184 Q 899 185 1044 184 Q 1178 184 1290 182 Q 1400 180 1463 182" fill="none" stroke="#2A1A0D" stroke-width="2.9" opacity="0.73"/><path d="M -20 220 Q 99 242 249 223 Q 350 221 420 231 Q 573 236 715 214 Q 843 240 970 226 Q 1099 236 1240 226 Q 1364 221 1445 220" fill="none" stroke="#3E2614" stroke-width="4.6" opacity="0.53"/><path d="M -20 240 Q 138 241 201 240 Q 357 244 478 240 Q 589 236 744 242 Q 889 243 971 241 Q 1123 242 1256 241 Q 1401 243 1536 241" fill="none" stroke="#2A1A0D" stroke-width="2.4" opacity="0.70"/><path d="M -20 269 Q 89 276 235 271 Q 351 260 450 273 Q 600 270 701 269 Q 770 277 924 272 Q 1065 264 1194 272 Q 1320 273 1450 272" fill="none" stroke="#3E2614" stroke-width="3.4" opacity="0.33"/><path d="M -20 304 Q 110 290 173 300 Q 323 319 461 305 Q 524 299 680 312 Q 800 300 911 296 Q 1067 322 1212 310 Q 1294 311 1446 307" fill="none" stroke="#3E2614" stroke-width="3.9" opacity="0.51"/><path d="M -20 337 Q 124 338 206 337 Q 282 319 370 345 Q 516 348 632 328 Q 731 355 882 339 Q 982 338 1052 346 Q 1205 351 1347 332" fill="none" stroke="#3E2614" stroke-width="4.8" opacity="0.65"/><path d="M -20 370 Q 145 384 280 373 Q 391 356 502 361 Q 564 359 714 379 Q 852 373 915 367 Q 1071 389 1192 368 Q 1303 350 1458 380" fill="none" stroke="#3E2614" stroke-width="4.1" opacity="0.61"/><path d="M -20 406 Q 127 416 256 414 Q 396 417 520 406 Q 602 406 678 396 Q 767 424 913 412 Q 1029 385 1128 416 Q 1278 411 1379 406" fill="none" stroke="#2A1A0D" stroke-width="2.2" opacity="0.59"/><ellipse cx="1016" cy="307" rx="41" ry="32" fill="none" stroke="#2A1A0D" stroke-width="2.5" opacity="0.9"/><ellipse cx="1016" cy="307" rx="18" ry="13" fill="none" stroke="#2A1A0D" stroke-width="2.5" opacity="0.7"/><ellipse cx="1016" cy="307" rx="11" ry="8" fill="none" stroke="#2A1A0D" stroke-width="2.7" opacity="1"/><ellipse cx="1016" cy="307" rx="5" ry="3" fill="#2A1A0D"/><ellipse cx="617" cy="131" rx="35" ry="22" fill="none" stroke="#2A1A0D" stroke-width="2.8" opacity="0.9"/><ellipse cx="617" cy="131" rx="18" ry="13" fill="none" stroke="#2A1A0D" stroke-width="2.7" opacity="0.7"/><ellipse cx="617" cy="131" rx="7" ry="5" fill="none" stroke="#2A1A0D" stroke-width="1.5" opacity="1"/><ellipse cx="617" cy="131" rx="4" ry="4" fill="#2A1A0D"/><ellipse cx="986" cy="239" rx="33" ry="26" fill="none" stroke="#2A1A0D" stroke-width="2.9" opacity="0.9"/><ellipse cx="986" cy="239" rx="21" ry="16" fill="none" stroke="#2A1A0D" stroke-width="2.7" opacity="0.7"/><ellipse cx="986" cy="239" rx="8" ry="5" fill="none" stroke="#2A1A0D" stroke-width="2.5" opacity="1"/><ellipse cx="986" cy="239" rx="6" ry="3" fill="#2A1A0D"/><rect x="24" y="348" width="197" height="46" rx="8" fill="#160F09" opacity="0.85"/><text x="40" y="378" font-family="Arial, sans-serif" font-size="22" font-weight="bold" fill="#E8A33D" letter-spacing="2">SHEESHAM WOOD</text></svg>