<svg xmlns="http://www.w3.org/2000/svg" viewBox="0 0 1200 420" width="1200" height="420" role="img" aria-label="Teak / Sagwan Wood"><rect width="1200" height="420" fill="#9A6A34"/><path d="M -20 14 Q 75 33 145 6 Q 236 -4 300 4 Q 451 7 542 9 Q 632 3 767 8 Q 888 32 989 8 Q 1124 35 1220 24 Q 1313 -6 1434 25" fill="none" stroke="#7A4E1F" stroke-width="2.3" opacity="0.50"/><path d="M -20 52 Q 149 44 224 50 Q 298 43 365 56 Q 460 49 548 50 Q 636 57 722 53 Q 868 51 954 55 Q 1107 50 1260 51 Q 1329 54 1486 56" fill="none" stroke="#7A4E1F" stroke-width="3.3" opacity="0.44"/><path d="M -20 74 Q 70 64 161 69 Q 225 62 375 72 Q 467 68 557 71 Q 692 67 813 80 Q 914 67 1048 81 Q 1144 87 1237 68 Q 1358 88 1511 71" fill="none" stroke="#5C3A12" stroke-width="2.9" opacity="0.33"/><path d="M -20 102 Q 76 98 149 96 Q 217 112 312 100 Q 399 97 487 105 Q 573 105 719 101 Q 805 108 959 100 Q 1111 98 1180 104 Q 1337 113 1423 102" fill="none" stroke="#7A4E1F" stroke-width="1.9" opacity="0.69"/><path d="M -20 127 Q 91 122 155 124 Q 305 125 397 126 Q 487 124 622 126 Q 743 133 844 126 Q 978 134 1075 131 Q 1167 121 1289 131 Q 1441 124 1550 127" fill="none" stroke="#7A4E1F" stroke-width="5.0" opacity="0.30"/><path d="M -20 147 Q 73 125 141 157 Q 236 139 324 142 Q 412 159 497 150 Q 644 143 729 153 Q 883 141 1036 143 Q 1105 152 1262 157 Q 1347 147 1446 139" fill="none" stroke="#7A4E1F" stroke-width="1.6" opacity="0.33"/><path d="M -20 184 Q 64 179 214 183 Q 306 182 396 183 Q 531 181 652 187 Q 753 181 887 187 Q 983 190 1076 182 Q 1197 190 1350 183" fill="none" stroke="#7A4E1F" stroke-width="1.9" opacity="0.41"/><path d="M -20 212 Q 76 207 149 206 Q 217 222 312 210 Q 399 207 487 215 Q 573 215 719 211 Q 805 218 959 210 Q 1111 208 1180 214 Q 1337 223 1423 212" fill="none" stroke="#7A4E1F" stroke-width="1.9" opacity="0.69"/><path d="M -20 237 Q 91 232 155 234 Q 305 235 397 236 Q 487 234 622 236 Q 743 243 844 236 Q 978 244 1075 240 Q 1167 231 1289 241 Q 1441 234 1550 236" fill="none" stroke="#7A4E1F" stroke-width="5.0" opacity="0.30"/><path d="M -20 257 Q 73 235 141 267 Q 236 248 324 252 Q 412 269 497 260 Q 644 253 729 263 Q 883 250 1036 253 Q 1105 262 1262 267 Q 1347 257 1446 249" fill="none" stroke="#7A4E1F" stroke-width="1.6" opacity="0.33"/><path d="M -20 294 Q 64 289 214 293 Q 306 292 396 293 Q 531 291 652 297 Q 753 291 887 297 Q 983 300 1076 292 Q 1197 300 1350 293" fill="none" stroke="#7A4E1F" stroke-width="1.9" opacity="0.41"/><path d="M -20 322 Q 76 317 149 316 Q 217 332 312 320 Q 399 317 487 325 Q 573 325 719 321 Q 805 328 959 320 Q 1111 318 1180 323 Q 1337 333 1423 322" fill="none" stroke="#7A4E1F" stroke-width="1.9" opacity="0.69"/><path d="M -20 347 Q 91 342 155 344 Q 305 345 397 346 Q 487 344 622 345 Q 743 353 844 345 Q 978 354 1075 350 Q 1167 341 1289 351 Q 1441 344 1550 346" fill="none" stroke="#7A4E1F" stroke-width="5.0" opacity="0.30"/><path d="M -20 367 Q 73 345 141 376 Q 236 358 324 362 Q 412 379 497 370 Q 644 363 729 373 Q 883 360 1036 363 Q 1105 372 1262 377 Q 1347 366 1446 359" fill="none" stroke="#7A4E1F" stroke-width="1.6" opacity="0.33"/><path d="M -20 404 Q 64 399 214 403 Q 306 401 396 403 Q 531 401 652 406 Q 753 401 887 407 Q 983 409 1076 402 Q 1197 410 1350 403" fill="none" stroke="#7A4E1F" stroke-width="1.9" opacity="0.41"/><ellipse cx="267" cy="318" rx="28" ry="16" fill="none" stroke="#5C3A12" stroke-width="1.6" opacity="0.9"/><ellipse cx="267" cy="318" rx="18" ry="10" fill="none" stroke="#5C3A12" stroke-width="2.9" opacity="0.7"/><ellipse cx="267" cy="318" rx="9" ry="6" fill="none" stroke="#5C3A12" stroke-width="2.0" opacity="1"/><ellipse cx="267" cy="318" rx="4" ry="3" fill="#5C3A12"/><ellipse cx="391" cy="280" rx="31" ry="20" fill="none" stroke="#5C3A12" stroke-width="1.9" opacity="0.9"/><ellipse cx="391" cy="280" rx="22" ry="16" fill="none" stroke="#5C3A12" stroke-width="2.9" opacity="0.7"/><ellipse cx="391" cy="280" rx="12" ry="8" fill="none" stroke="#5C3A12" stroke-width="2.9" opacity="1"/><ellipse cx="391" cy="280" rx="4" ry="2" fill="#5C3A12"/><rect x="24" y="348" width="262" height="46" rx="8" fill="#160F09" opacity="0.85"/><text x="40" y="378" font-family="Arial, sans-serif" font-size="22" font-weight="bold" fill="#E8A33D" letter-spacing="2">TEAK / SAGWAN WOOD</text></svg>