<svg xmlns="http://www.w3.org/2000/svg" viewBox="0 0 1200 420" width="1200" height="420" role="img" aria-label="White Oak Wood"><rect width="1200" height="420" fill="#D3B183"/><path d="M -20 14 Q 100 17 248 11 Q 396 8 515 14 Q 673 16 768 16 Q 880 8 1037 11 Q 1191 10 1261 16 Q 1405 14 1505 16" fill="none" stroke="#8F7040" stroke-width="5.0" opacity="0.46"/><path d="M -20 50 Q 148 47 303 48 Q 440 68 500 59 Q 561 55 675 62 Q 802 43 941 51 Q 1001 73 1061 61 Q 1136 32 1276 59 Q 1383 46 1530 59" fill="none" stroke="#B08D5A" stroke-width="5.2" opacity="0.34"/><path d="M -20 88 Q 103 110 203 94 Q 351 63 498 76 Q 618 89 775 92 Q 871 102 983 76 Q 1140 63 1293 79 Q 1364 103 1508 87" fill="none" stroke="#8F7040" stroke-width="2.0" opacity="0.30"/><path d="M -20 113 Q 78 95 227 112 Q 381 109 518 122 Q 578 131 640 116 Q 753 135 880 110 Q 1019 115 1080 124 Q 1140 134 1214 104 Q 1355 129 1461 111" fill="none" stroke="#8F7040" stroke-width="4.9" opacity="0.70"/><path d="M -20 150 Q 70 168 173 160 Q 273 163 421 139 Q 569 128 688 151 Q 845 158 941 157 Q 1053 128 1210 139 Q 1364 134 1434 157" fill="none" stroke="#B08D5A" stroke-width="5.0" opacity="0.72"/><path d="M -20 187 Q 149 199 227 181 Q 376 185 530 185 Q 667 197 727 192 Q 789 189 902 193 Q 1029 182 1168 187 Q 1229 200 1289 193 Q 1363 175 1504 191" fill="none" stroke="#8F7040" stroke-width="2.9" opacity="0.69"/><path d="M -20 214 Q 154 206 224 219 Q 327 225 427 217 Q 575 201 723 208 Q 842 215 1000 216 Q 1095 221 1207 207 Q 1364 201 1518 209" fill="none" stroke="#8F7040" stroke-width="5.0" opacity="0.68"/><path d="M -20 232 Q 147 247 296 242 Q 375 215 523 231 Q 678 228 815 240 Q 875 249 936 234 Q 1049 253 1177 229 Q 1316 233 1376 242" fill="none" stroke="#B08D5A" stroke-width="4.8" opacity="0.48"/><path d="M -20 248 Q 144 246 244 257 Q 389 267 544 240 Q 614 267 716 259 Q 817 261 964 236 Q 1112 224 1232 249 Q 1389 257 1484 255" fill="none" stroke="#8F7040" stroke-width="1.8" opacity="0.30"/><path d="M -20 277 Q 75 274 215 278 Q 322 276 469 278 Q 618 280 696 275 Q 845 276 999 276 Q 1136 280 1196 278 Q 1258 278 1371 279" fill="none" stroke="#8F7040" stroke-width="5.4" opacity="0.25"/><path d="M -20 309 Q 157 297 310 305 Q 380 316 525 309 Q 625 318 770 314 Q 924 302 994 313 Q 1097 319 1197 312 Q 1345 297 1493 303" fill="none" stroke="#B08D5A" stroke-width="4.6" opacity="0.51"/><path d="M -20 339 Q 139 340 199 347 Q 259 353 334 333 Q 475 350 581 338 Q 728 350 877 346 Q 956 327 1104 338 Q 1258 336 1395 345" fill="none" stroke="#B08D5A" stroke-width="5.4" opacity="0.59"/><path d="M -20 355 Q 157 363 253 362 Q 365 332 522 344 Q 675 339 745 362 Q 890 354 990 364 Q 1135 373 1289 348 Q 1359 373 1462 366" fill="none" stroke="#B08D5A" stroke-width="1.3" opacity="0.55"/><path d="M -20 381 Q 62 385 175 391 Q 302 375 441 381 Q 502 401 562 390 Q 636 364 777 388 Q 883 377 1031 388 Q 1180 399 1258 373 Q 1406 378 1561 379" fill="none" stroke="#8F7040" stroke-width="5.0" opacity="0.25"/><path d="M -20 415 Q 120 417 277 419 Q 372 429 485 404 Q 642 392 795 407 Q 865 430 1009 415 Q 1109 433 1255 424 Q 1409 401 1479 424" fill="none" stroke="#B08D5A" stroke-width="1.2" opacity="0.69"/><rect x="24" y="348" width="210" height="46" rx="8" fill="#160F09" opacity="0.85"/><text x="40" y="378" font-family="Arial, sans-serif" font-size="22" font-weight="bold" fill="#E8A33D" letter-spacing="2">WHITE OAK WOOD</text></svg>