<svg xmlns="http://www.w3.org/2000/svg" viewBox="0 0 1200 420" width="1200" height="420" role="img" aria-label="Beds &amp; Wardrobes"><rect width="1200" height="420" fill="#8A6A44"/><line x1="-10" y1="77" x2="1200" y2="74" stroke="#6A4E2E" stroke-width="0.8" opacity="0.16"/><line x1="-10" y1="84" x2="1200" y2="88" stroke="#6A4E2E" stroke-width="1.0" opacity="0.28"/><line x1="-10" y1="35" x2="1200" y2="38" stroke="#6A4E2E" stroke-width="1.1" opacity="0.22"/><line x1="-10" y1="367" x2="1200" y2="371" stroke="#6A4E2E" stroke-width="1.1" opacity="0.12"/><line x1="-10" y1="371" x2="1200" y2="369" stroke="#6A4E2E" stroke-width="0.6" opacity="0.23"/><line x1="-10" y1="240" x2="1200" y2="243" stroke="#6A4E2E" stroke-width="1.3" opacity="0.12"/><line x1="-10" y1="72" x2="1200" y2="72" stroke="#6A4E2E" stroke-width="0.8" opacity="0.12"/><line x1="-10" y1="87" x2="1200" y2="87" stroke="#6A4E2E" stroke-width="1.3" opacity="0.15"/><line x1="-10" y1="77" x2="1200" y2="74" stroke="#6A4E2E" stroke-width="0.8" opacity="0.16"/><line x1="-10" y1="84" x2="1200" y2="88" stroke="#6A4E2E" stroke-width="1.0" opacity="0.28"/><line x1="-10" y1="35" x2="1200" y2="38" stroke="#6A4E2E" stroke-width="1.1" opacity="0.22"/><line x1="-10" y1="367" x2="1200" y2="371" stroke="#6A4E2E" stroke-width="1.1" opacity="0.12"/><line x1="-10" y1="371" x2="1200" y2="369" stroke="#6A4E2E" stroke-width="0.6" opacity="0.23"/><line x1="-10" y1="240" x2="1200" y2="243" stroke="#6A4E2E" stroke-width="1.3" opacity="0.12"/><line x1="-10" y1="72" x2="1200" y2="72" stroke="#6A4E2E" stroke-width="0.8" opacity="0.12"/><line x1="-10" y1="87" x2="1200" y2="87" stroke="#6A4E2E" stroke-width="1.3" opacity="0.15"/><line x1="-10" y1="77" x2="1200" y2="74" stroke="#6A4E2E" stroke-width="0.8" opacity="0.16"/><line x1="-10" y1="84" x2="1200" y2="88" stroke="#6A4E2E" stroke-width="1.0" opacity="0.28"/><line x1="-10" y1="35" x2="1200" y2="38" stroke="#6A4E2E" stroke-width="1.1" opacity="0.22"/><line x1="-10" y1="367" x2="1200" y2="371" stroke="#6A4E2E" stroke-width="1.1" opacity="0.12"/><line x1="-10" y1="371" x2="1200" y2="369" stroke="#6A4E2E" stroke-width="0.6" opacity="0.23"/><line x1="-10" y1="240" x2="1200" y2="243" stroke="#6A4E2E" stroke-width="1.3" opacity="0.12"/><line x1="-10" y1="72" x2="1200" y2="72" stroke="#6A4E2E" stroke-width="0.8" opacity="0.12"/><line x1="-10" y1="87" x2="1200" y2="87" stroke="#6A4E2E" stroke-width="1.3" opacity="0.15"/><line x1="-10" y1="77" x2="1200" y2="74" stroke="#6A4E2E" stroke-width="0.8" opacity="0.16"/><line x1="-10" y1="84" x2="1200" y2="88" stroke="#6A4E2E" stroke-width="1.0" opacity="0.28"/><line x1="-10" y1="35" x2="1200" y2="38" stroke="#6A4E2E" stroke-width="1.1" opacity="0.22"/><line x1="-10" y1="367" x2="1200" y2="371" stroke="#6A4E2E" stroke-width="1.1" opacity="0.12"/><line x1="-10" y1="371" x2="1200" y2="369" stroke="#6A4E2E" stroke-width="0.6" opacity="0.23"/><line x1="-10" y1="240" x2="1200" y2="243" stroke="#6A4E2E" stroke-width="1.3" opacity="0.12"/><line x1="-10" y1="72" x2="1200" y2="72" stroke="#6A4E2E" stroke-width="0.8" opacity="0.12"/><line x1="-10" y1="87" x2="1200" y2="87" stroke="#6A4E2E" stroke-width="1.3" opacity="0.15"/><line x1="-10" y1="77" x2="1200" y2="74" stroke="#6A4E2E" stroke-width="0.8" opacity="0.16"/><line x1="-10" y1="84" x2="1200" y2="88" stroke="#6A4E2E" stroke-width="1.0" opacity="0.28"/><line x1="-10" y1="35" x2="1200" y2="38" stroke="#6A4E2E" stroke-width="1.1" opacity="0.22"/><line x1="-10" y1="367" x2="1200" y2="371" stroke="#6A4E2E" stroke-width="1.1" opacity="0.12"/><line x1="-10" y1="371" x2="1200" y2="369" stroke="#6A4E2E" stroke-width="0.6" opacity="0.23"/><line x1="-10" y1="240" x2="1200" y2="243" stroke="#6A4E2E" stroke-width="1.3" opacity="0.12"/><line x1="-10" y1="72" x2="1200" y2="72" stroke="#6A4E2E" stroke-width="0.8" opacity="0.12"/><line x1="-10" y1="87" x2="1200" y2="87" stroke="#6A4E2E" stroke-width="1.3" opacity="0.15"/><line x1="-10" y1="77" x2="1200" y2="74" stroke="#6A4E2E" stroke-width="0.8" opacity="0.16"/><line x1="-10" y1="84" x2="1200" y2="88" stroke="#6A4E2E" stroke-width="1.0" opacity="0.28"/><line x1="-10" y1="35" x2="1200" y2="38" stroke="#6A4E2E" stroke-width="1.1" opacity="0.22"/><line x1="-10" y1="367" x2="1200" y2="371" stroke="#6A4E2E" stroke-width="1.1" opacity="0.12"/><line x1="-10" y1="371" x2="1200" y2="369" stroke="#6A4E2E" stroke-width="0.6" opacity="0.23"/><line x1="-10" y1="240" x2="1200" y2="243" stroke="#6A4E2E" stroke-width="1.3" opacity="0.12"/><line x1="-10" y1="72" x2="1200" y2="72" stroke="#6A4E2E" stroke-width="0.8" opacity="0.12"/><line x1="-10" y1="87" x2="1200" y2="87" stroke="#6A4E2E" stroke-width="1.3" opacity="0.15"/><line x1="-10" y1="77" x2="1200" y2="74" stroke="#6A4E2E" stroke-width="0.8" opacity="0.16"/><line x1="-10" y1="84" x2="1200" y2="88" stroke="#6A4E2E" stroke-width="1.0" opacity="0.28"/><rect x="420" y="150" width="360" height="150" rx="10" fill="#3E2C18" opacity="0.5"/><rect x="420" y="120" width="360" height="40" rx="8" fill="#3E2C18" opacity="0.5"/><rect x="24" y="302" width="236" height="42" rx="8" fill="#160F09" opacity="0.85"/><text x="40" y="330" font-family="Arial" font-size="20" font-weight="bold" fill="#E8A33D" letter-spacing="2">BEDS &amp; WARDROBES</text></svg>