<svg xmlns="http://www.w3.org/2000/svg" viewBox="0 0 1200 420" width="1200" height="420" role="img" aria-label="Dining Tables &amp; Sets"><rect width="1200" height="420" fill="#9A6A34"/><line x1="-10" y1="308" x2="1200" y2="306" stroke="#7A4E1F" stroke-width="1.4" opacity="0.21"/><line x1="-10" y1="130" x2="1200" y2="130" stroke="#7A4E1F" stroke-width="0.8" opacity="0.11"/><line x1="-10" y1="362" x2="1200" y2="362" stroke="#7A4E1F" stroke-width="0.6" opacity="0.24"/><line x1="-10" y1="13" x2="1200" y2="15" stroke="#7A4E1F" stroke-width="0.6" opacity="0.12"/><line x1="-10" y1="247" x2="1200" y2="246" stroke="#7A4E1F" stroke-width="1.6" opacity="0.19"/><line x1="-10" y1="13" x2="1200" y2="13" stroke="#7A4E1F" stroke-width="1.5" opacity="0.19"/><line x1="-10" y1="315" x2="1200" y2="316" stroke="#7A4E1F" stroke-width="0.8" opacity="0.21"/><line x1="-10" y1="214" x2="1200" y2="214" stroke="#7A4E1F" stroke-width="0.6" opacity="0.23"/><line x1="-10" y1="308" x2="1200" y2="306" stroke="#7A4E1F" stroke-width="1.4" opacity="0.21"/><line x1="-10" y1="130" x2="1200" y2="130" stroke="#7A4E1F" stroke-width="0.8" opacity="0.11"/><line x1="-10" y1="362" x2="1200" y2="362" stroke="#7A4E1F" stroke-width="0.6" opacity="0.24"/><line x1="-10" y1="13" x2="1200" y2="15" stroke="#7A4E1F" stroke-width="0.6" opacity="0.12"/><line x1="-10" y1="247" x2="1200" y2="246" stroke="#7A4E1F" stroke-width="1.6" opacity="0.19"/><line x1="-10" y1="13" x2="1200" y2="13" stroke="#7A4E1F" stroke-width="1.5" opacity="0.19"/><line x1="-10" y1="315" x2="1200" y2="316" stroke="#7A4E1F" stroke-width="0.8" opacity="0.21"/><line x1="-10" y1="214" x2="1200" y2="214" stroke="#7A4E1F" stroke-width="0.6" opacity="0.23"/><line x1="-10" y1="308" x2="1200" y2="306" stroke="#7A4E1F" stroke-width="1.4" opacity="0.21"/><line x1="-10" y1="130" x2="1200" y2="130" stroke="#7A4E1F" stroke-width="0.8" opacity="0.11"/><line x1="-10" y1="362" x2="1200" y2="362" stroke="#7A4E1F" stroke-width="0.6" opacity="0.24"/><line x1="-10" y1="13" x2="1200" y2="15" stroke="#7A4E1F" stroke-width="0.6" opacity="0.12"/><line x1="-10" y1="247" x2="1200" y2="246" stroke="#7A4E1F" stroke-width="1.6" opacity="0.19"/><line x1="-10" y1="13" x2="1200" y2="13" stroke="#7A4E1F" stroke-width="1.5" opacity="0.19"/><line x1="-10" y1="315" x2="1200" y2="316" stroke="#7A4E1F" stroke-width="0.8" opacity="0.21"/><line x1="-10" y1="214" x2="1200" y2="214" stroke="#7A4E1F" stroke-width="0.6" opacity="0.23"/><line x1="-10" y1="308" x2="1200" y2="306" stroke="#7A4E1F" stroke-width="1.4" opacity="0.21"/><line x1="-10" y1="130" x2="1200" y2="130" stroke="#7A4E1F" stroke-width="0.8" opacity="0.11"/><line x1="-10" y1="362" x2="1200" y2="362" stroke="#7A4E1F" stroke-width="0.6" opacity="0.24"/><line x1="-10" y1="13" x2="1200" y2="15" stroke="#7A4E1F" stroke-width="0.6" opacity="0.12"/><line x1="-10" y1="247" x2="1200" y2="246" stroke="#7A4E1F" stroke-width="1.6" opacity="0.19"/><line x1="-10" y1="13" x2="1200" y2="13" stroke="#7A4E1F" stroke-width="1.5" opacity="0.19"/><line x1="-10" y1="315" x2="1200" y2="316" stroke="#7A4E1F" stroke-width="0.8" opacity="0.21"/><line x1="-10" y1="214" x2="1200" y2="214" stroke="#7A4E1F" stroke-width="0.6" opacity="0.23"/><line x1="-10" y1="308" x2="1200" y2="306" stroke="#7A4E1F" stroke-width="1.4" opacity="0.21"/><line x1="-10" y1="130" x2="1200" y2="130" stroke="#7A4E1F" stroke-width="0.8" opacity="0.11"/><line x1="-10" y1="362" x2="1200" y2="362" stroke="#7A4E1F" stroke-width="0.6" opacity="0.24"/><line x1="-10" y1="13" x2="1200" y2="15" stroke="#7A4E1F" stroke-width="0.6" opacity="0.12"/><line x1="-10" y1="247" x2="1200" y2="246" stroke="#7A4E1F" stroke-width="1.6" opacity="0.19"/><line x1="-10" y1="13" x2="1200" y2="13" stroke="#7A4E1F" stroke-width="1.5" opacity="0.19"/><line x1="-10" y1="315" x2="1200" y2="316" stroke="#7A4E1F" stroke-width="0.8" opacity="0.21"/><line x1="-10" y1="214" x2="1200" y2="214" stroke="#7A4E1F" stroke-width="0.6" opacity="0.23"/><line x1="-10" y1="308" x2="1200" y2="306" stroke="#7A4E1F" stroke-width="1.4" opacity="0.21"/><line x1="-10" y1="130" x2="1200" y2="130" stroke="#7A4E1F" stroke-width="0.8" opacity="0.11"/><line x1="-10" y1="362" x2="1200" y2="362" stroke="#7A4E1F" stroke-width="0.6" opacity="0.24"/><line x1="-10" y1="13" x2="1200" y2="15" stroke="#7A4E1F" stroke-width="0.6" opacity="0.12"/><line x1="-10" y1="247" x2="1200" y2="246" stroke="#7A4E1F" stroke-width="1.6" opacity="0.19"/><line x1="-10" y1="13" x2="1200" y2="13" stroke="#7A4E1F" stroke-width="1.5" opacity="0.19"/><line x1="-10" y1="315" x2="1200" y2="316" stroke="#7A4E1F" stroke-width="0.8" opacity="0.21"/><line x1="-10" y1="214" x2="1200" y2="214" stroke="#7A4E1F" stroke-width="0.6" opacity="0.23"/><line x1="-10" y1="308" x2="1200" y2="306" stroke="#7A4E1F" stroke-width="1.4" opacity="0.21"/><line x1="-10" y1="130" x2="1200" y2="130" stroke="#7A4E1F" stroke-width="0.8" opacity="0.11"/><rect x="440" y="180" width="320" height="26" rx="8" fill="#563715" opacity="0.55"/><rect x="460" y="206" width="14" height="90" fill="#563715" opacity="0.45"/><rect x="726" y="206" width="14" height="90" fill="#563715" opacity="0.45"/><rect x="24" y="302" width="288" height="42" rx="8" fill="#160F09" opacity="0.85"/><text x="40" y="330" font-family="Arial" font-size="20" font-weight="bold" fill="#E8A33D" letter-spacing="2">DINING TABLES &amp; SETS</text></svg>