<svg xmlns="http://www.w3.org/2000/svg" viewBox="0 0 1200 420" width="1200" height="420" role="img" aria-label="Live Edge Tables"><rect width="1200" height="420" fill="#8A5A30"/><line x1="-10" y1="21" x2="1200" y2="19" stroke="#67401D" stroke-width="0.7" opacity="0.29"/><line x1="-10" y1="86" x2="1200" y2="87" stroke="#67401D" stroke-width="1.6" opacity="0.23"/><line x1="-10" y1="178" x2="1200" y2="176" stroke="#67401D" stroke-width="0.6" opacity="0.19"/><line x1="-10" y1="143" x2="1200" y2="144" stroke="#67401D" stroke-width="0.9" opacity="0.15"/><line x1="-10" y1="301" x2="1200" y2="299" stroke="#67401D" stroke-width="1.6" opacity="0.11"/><line x1="-10" y1="394" x2="1200" y2="393" stroke="#67401D" stroke-width="1.4" opacity="0.18"/><line x1="-10" y1="5" x2="1200" y2="4" stroke="#67401D" stroke-width="0.6" opacity="0.27"/><line x1="-10" y1="311" x2="1200" y2="314" stroke="#67401D" stroke-width="0.9" opacity="0.24"/><line x1="-10" y1="21" x2="1200" y2="19" stroke="#67401D" stroke-width="0.7" opacity="0.29"/><line x1="-10" y1="86" x2="1200" y2="87" stroke="#67401D" stroke-width="1.6" opacity="0.23"/><line x1="-10" y1="178" x2="1200" y2="176" stroke="#67401D" stroke-width="0.6" opacity="0.19"/><line x1="-10" y1="143" x2="1200" y2="144" stroke="#67401D" stroke-width="0.9" opacity="0.15"/><line x1="-10" y1="301" x2="1200" y2="299" stroke="#67401D" stroke-width="1.6" opacity="0.11"/><line x1="-10" y1="394" x2="1200" y2="393" stroke="#67401D" stroke-width="1.4" opacity="0.18"/><line x1="-10" y1="5" x2="1200" y2="4" stroke="#67401D" stroke-width="0.6" opacity="0.27"/><line x1="-10" y1="311" x2="1200" y2="314" stroke="#67401D" stroke-width="0.9" opacity="0.24"/><line x1="-10" y1="21" x2="1200" y2="19" stroke="#67401D" stroke-width="0.7" opacity="0.29"/><line x1="-10" y1="86" x2="1200" y2="87" stroke="#67401D" stroke-width="1.6" opacity="0.23"/><line x1="-10" y1="178" x2="1200" y2="176" stroke="#67401D" stroke-width="0.6" opacity="0.19"/><line x1="-10" y1="143" x2="1200" y2="144" stroke="#67401D" stroke-width="0.9" opacity="0.15"/><line x1="-10" y1="301" x2="1200" y2="299" stroke="#67401D" stroke-width="1.6" opacity="0.11"/><line x1="-10" y1="394" x2="1200" y2="393" stroke="#67401D" stroke-width="1.4" opacity="0.18"/><line x1="-10" y1="5" x2="1200" y2="4" stroke="#67401D" stroke-width="0.6" opacity="0.27"/><line x1="-10" y1="311" x2="1200" y2="314" stroke="#67401D" stroke-width="0.9" opacity="0.24"/><line x1="-10" y1="21" x2="1200" y2="19" stroke="#67401D" stroke-width="0.7" opacity="0.29"/><line x1="-10" y1="86" x2="1200" y2="87" stroke="#67401D" stroke-width="1.6" opacity="0.23"/><line x1="-10" y1="178" x2="1200" y2="176" stroke="#67401D" stroke-width="0.6" opacity="0.19"/><line x1="-10" y1="143" x2="1200" y2="144" stroke="#67401D" stroke-width="0.9" opacity="0.15"/><line x1="-10" y1="301" x2="1200" y2="299" stroke="#67401D" stroke-width="1.6" opacity="0.11"/><line x1="-10" y1="394" x2="1200" y2="393" stroke="#67401D" stroke-width="1.4" opacity="0.18"/><line x1="-10" y1="5" x2="1200" y2="4" stroke="#67401D" stroke-width="0.6" opacity="0.27"/><line x1="-10" y1="311" x2="1200" y2="314" stroke="#67401D" stroke-width="0.9" opacity="0.24"/><line x1="-10" y1="21" x2="1200" y2="19" stroke="#67401D" stroke-width="0.7" opacity="0.29"/><line x1="-10" y1="86" x2="1200" y2="87" stroke="#67401D" stroke-width="1.6" opacity="0.23"/><line x1="-10" y1="178" x2="1200" y2="176" stroke="#67401D" stroke-width="0.6" opacity="0.19"/><line x1="-10" y1="143" x2="1200" y2="144" stroke="#67401D" stroke-width="0.9" opacity="0.15"/><line x1="-10" y1="301" x2="1200" y2="299" stroke="#67401D" stroke-width="1.6" opacity="0.11"/><line x1="-10" y1="394" x2="1200" y2="393" stroke="#67401D" stroke-width="1.4" opacity="0.18"/><line x1="-10" y1="5" x2="1200" y2="4" stroke="#67401D" stroke-width="0.6" opacity="0.27"/><line x1="-10" y1="311" x2="1200" y2="314" stroke="#67401D" stroke-width="0.9" opacity="0.24"/><line x1="-10" y1="21" x2="1200" y2="19" stroke="#67401D" stroke-width="0.7" opacity="0.29"/><line x1="-10" y1="86" x2="1200" y2="87" stroke="#67401D" stroke-width="1.6" opacity="0.23"/><line x1="-10" y1="178" x2="1200" y2="176" stroke="#67401D" stroke-width="0.6" opacity="0.19"/><line x1="-10" y1="143" x2="1200" y2="144" stroke="#67401D" stroke-width="0.9" opacity="0.15"/><line x1="-10" y1="301" x2="1200" y2="299" stroke="#67401D" stroke-width="1.6" opacity="0.11"/><line x1="-10" y1="394" x2="1200" y2="393" stroke="#67401D" stroke-width="1.4" opacity="0.18"/><line x1="-10" y1="5" x2="1200" y2="4" stroke="#67401D" stroke-width="0.6" opacity="0.27"/><line x1="-10" y1="311" x2="1200" y2="314" stroke="#67401D" stroke-width="0.9" opacity="0.24"/><line x1="-10" y1="21" x2="1200" y2="19" stroke="#67401D" stroke-width="0.7" opacity="0.29"/><line x1="-10" y1="86" x2="1200" y2="87" stroke="#67401D" stroke-width="1.6" opacity="0.23"/><rect x="440" y="180" width="320" height="26" rx="8" fill="#26160A" opacity="0.55"/><rect x="460" y="206" width="14" height="90" fill="#26160A" opacity="0.45"/><rect x="726" y="206" width="14" height="90" fill="#26160A" opacity="0.45"/><rect x="24" y="302" width="236" height="42" rx="8" fill="#160F09" opacity="0.85"/><text x="40" y="330" font-family="Arial" font-size="20" font-weight="bold" fill="#E8A33D" letter-spacing="2">LIVE EDGE TABLES</text></svg>