<svg xmlns="http://www.w3.org/2000/svg" viewBox="0 0 1200 420" width="1200" height="420" role="img" aria-label="Sofas &amp; Recliners"><rect width="1200" height="420" fill="#7A5A3A"/><line x1="-10" y1="16" x2="1200" y2="13" stroke="#5A4028" stroke-width="0.6" opacity="0.19"/><line x1="-10" y1="109" x2="1200" y2="107" stroke="#5A4028" stroke-width="0.9" opacity="0.17"/><line x1="-10" y1="272" x2="1200" y2="269" stroke="#5A4028" stroke-width="1.5" opacity="0.15"/><line x1="-10" y1="41" x2="1200" y2="40" stroke="#5A4028" stroke-width="0.7" opacity="0.21"/><line x1="-10" y1="239" x2="1200" y2="238" stroke="#5A4028" stroke-width="0.6" opacity="0.13"/><line x1="-10" y1="349" x2="1200" y2="347" stroke="#5A4028" stroke-width="1.4" opacity="0.15"/><line x1="-10" y1="224" x2="1200" y2="226" stroke="#5A4028" stroke-width="1.2" opacity="0.15"/><line x1="-10" y1="351" x2="1200" y2="349" stroke="#5A4028" stroke-width="0.6" opacity="0.19"/><line x1="-10" y1="16" x2="1200" y2="13" stroke="#5A4028" stroke-width="0.6" opacity="0.19"/><line x1="-10" y1="109" x2="1200" y2="107" stroke="#5A4028" stroke-width="0.9" opacity="0.17"/><line x1="-10" y1="272" x2="1200" y2="269" stroke="#5A4028" stroke-width="1.5" opacity="0.15"/><line x1="-10" y1="41" x2="1200" y2="40" stroke="#5A4028" stroke-width="0.7" opacity="0.21"/><line x1="-10" y1="239" x2="1200" y2="238" stroke="#5A4028" stroke-width="0.6" opacity="0.13"/><line x1="-10" y1="349" x2="1200" y2="347" stroke="#5A4028" stroke-width="1.4" opacity="0.15"/><line x1="-10" y1="224" x2="1200" y2="226" stroke="#5A4028" stroke-width="1.2" opacity="0.15"/><line x1="-10" y1="351" x2="1200" y2="349" stroke="#5A4028" stroke-width="0.6" opacity="0.19"/><line x1="-10" y1="16" x2="1200" y2="13" stroke="#5A4028" stroke-width="0.6" opacity="0.19"/><line x1="-10" y1="109" x2="1200" y2="107" stroke="#5A4028" stroke-width="0.9" opacity="0.17"/><line x1="-10" y1="272" x2="1200" y2="269" stroke="#5A4028" stroke-width="1.5" opacity="0.15"/><line x1="-10" y1="41" x2="1200" y2="40" stroke="#5A4028" stroke-width="0.7" opacity="0.21"/><line x1="-10" y1="239" x2="1200" y2="238" stroke="#5A4028" stroke-width="0.6" opacity="0.13"/><line x1="-10" y1="349" x2="1200" y2="347" stroke="#5A4028" stroke-width="1.4" opacity="0.15"/><line x1="-10" y1="224" x2="1200" y2="226" stroke="#5A4028" stroke-width="1.2" opacity="0.15"/><line x1="-10" y1="351" x2="1200" y2="349" stroke="#5A4028" stroke-width="0.6" opacity="0.19"/><line x1="-10" y1="16" x2="1200" y2="13" stroke="#5A4028" stroke-width="0.6" opacity="0.19"/><line x1="-10" y1="109" x2="1200" y2="107" stroke="#5A4028" stroke-width="0.9" opacity="0.17"/><line x1="-10" y1="272" x2="1200" y2="269" stroke="#5A4028" stroke-width="1.5" opacity="0.15"/><line x1="-10" y1="41" x2="1200" y2="40" stroke="#5A4028" stroke-width="0.7" opacity="0.21"/><line x1="-10" y1="239" x2="1200" y2="238" stroke="#5A4028" stroke-width="0.6" opacity="0.13"/><line x1="-10" y1="349" x2="1200" y2="347" stroke="#5A4028" stroke-width="1.4" opacity="0.15"/><line x1="-10" y1="224" x2="1200" y2="226" stroke="#5A4028" stroke-width="1.2" opacity="0.15"/><line x1="-10" y1="351" x2="1200" y2="349" stroke="#5A4028" stroke-width="0.6" opacity="0.19"/><line x1="-10" y1="16" x2="1200" y2="13" stroke="#5A4028" stroke-width="0.6" opacity="0.19"/><line x1="-10" y1="109" x2="1200" y2="107" stroke="#5A4028" stroke-width="0.9" opacity="0.17"/><line x1="-10" y1="272" x2="1200" y2="269" stroke="#5A4028" stroke-width="1.5" opacity="0.15"/><line x1="-10" y1="41" x2="1200" y2="40" stroke="#5A4028" stroke-width="0.7" opacity="0.21"/><line x1="-10" y1="239" x2="1200" y2="238" stroke="#5A4028" stroke-width="0.6" opacity="0.13"/><line x1="-10" y1="349" x2="1200" y2="347" stroke="#5A4028" stroke-width="1.4" opacity="0.15"/><line x1="-10" y1="224" x2="1200" y2="226" stroke="#5A4028" stroke-width="1.2" opacity="0.15"/><line x1="-10" y1="351" x2="1200" y2="349" stroke="#5A4028" stroke-width="0.6" opacity="0.19"/><line x1="-10" y1="16" x2="1200" y2="13" stroke="#5A4028" stroke-width="0.6" opacity="0.19"/><line x1="-10" y1="109" x2="1200" y2="107" stroke="#5A4028" stroke-width="0.9" opacity="0.17"/><line x1="-10" y1="272" x2="1200" y2="269" stroke="#5A4028" stroke-width="1.5" opacity="0.15"/><line x1="-10" y1="41" x2="1200" y2="40" stroke="#5A4028" stroke-width="0.7" opacity="0.21"/><line x1="-10" y1="239" x2="1200" y2="238" stroke="#5A4028" stroke-width="0.6" opacity="0.13"/><line x1="-10" y1="349" x2="1200" y2="347" stroke="#5A4028" stroke-width="1.4" opacity="0.15"/><line x1="-10" y1="224" x2="1200" y2="226" stroke="#5A4028" stroke-width="1.2" opacity="0.15"/><line x1="-10" y1="351" x2="1200" y2="349" stroke="#5A4028" stroke-width="0.6" opacity="0.19"/><line x1="-10" y1="16" x2="1200" y2="13" stroke="#5A4028" stroke-width="0.6" opacity="0.19"/><line x1="-10" y1="109" x2="1200" y2="107" stroke="#5A4028" stroke-width="0.9" opacity="0.17"/><rect x="430" y="180" width="340" height="90" rx="18" fill="#3A2818" opacity="0.5"/><rect x="430" y="140" width="60" height="130" rx="16" fill="#3A2818" opacity="0.5"/><rect x="710" y="140" width="60" height="130" rx="16" fill="#3A2818" opacity="0.5"/><rect x="24" y="302" width="249" height="42" rx="8" fill="#160F09" opacity="0.85"/><text x="40" y="330" font-family="Arial" font-size="20" font-weight="bold" fill="#E8A33D" letter-spacing="2">SOFAS &amp; RECLINERS</text></svg>