<svg xmlns="http://www.w3.org/2000/svg" viewBox="0 0 1200 420" width="1200" height="420" role="img" aria-label="TV Units &amp; Center Tables"><rect width="1200" height="420" fill="#6E5A44"/><line x1="-10" y1="315" x2="1200" y2="314" stroke="#4E3E2E" stroke-width="1.3" opacity="0.27"/><line x1="-10" y1="31" x2="1200" y2="34" stroke="#4E3E2E" stroke-width="1.5" opacity="0.23"/><line x1="-10" y1="104" x2="1200" y2="103" stroke="#4E3E2E" stroke-width="1.4" opacity="0.28"/><line x1="-10" y1="69" x2="1200" y2="67" stroke="#4E3E2E" stroke-width="1.5" opacity="0.25"/><line x1="-10" y1="40" x2="1200" y2="43" stroke="#4E3E2E" stroke-width="1.3" opacity="0.16"/><line x1="-10" y1="198" x2="1200" y2="200" stroke="#4E3E2E" stroke-width="0.8" opacity="0.23"/><line x1="-10" y1="418" x2="1200" y2="422" stroke="#4E3E2E" stroke-width="0.6" opacity="0.17"/><line x1="-10" y1="20" x2="1200" y2="19" stroke="#4E3E2E" stroke-width="1.4" opacity="0.27"/><line x1="-10" y1="315" x2="1200" y2="314" stroke="#4E3E2E" stroke-width="1.3" opacity="0.27"/><line x1="-10" y1="31" x2="1200" y2="34" stroke="#4E3E2E" stroke-width="1.5" opacity="0.23"/><line x1="-10" y1="104" x2="1200" y2="103" stroke="#4E3E2E" stroke-width="1.4" opacity="0.28"/><line x1="-10" y1="69" x2="1200" y2="67" stroke="#4E3E2E" stroke-width="1.5" opacity="0.25"/><line x1="-10" y1="40" x2="1200" y2="43" stroke="#4E3E2E" stroke-width="1.3" opacity="0.16"/><line x1="-10" y1="198" x2="1200" y2="200" stroke="#4E3E2E" stroke-width="0.8" opacity="0.23"/><line x1="-10" y1="418" x2="1200" y2="422" stroke="#4E3E2E" stroke-width="0.6" opacity="0.17"/><line x1="-10" y1="20" x2="1200" y2="19" stroke="#4E3E2E" stroke-width="1.4" opacity="0.27"/><line x1="-10" y1="315" x2="1200" y2="314" stroke="#4E3E2E" stroke-width="1.3" opacity="0.27"/><line x1="-10" y1="31" x2="1200" y2="34" stroke="#4E3E2E" stroke-width="1.5" opacity="0.23"/><line x1="-10" y1="104" x2="1200" y2="103" stroke="#4E3E2E" stroke-width="1.4" opacity="0.28"/><line x1="-10" y1="69" x2="1200" y2="67" stroke="#4E3E2E" stroke-width="1.5" opacity="0.25"/><line x1="-10" y1="40" x2="1200" y2="43" stroke="#4E3E2E" stroke-width="1.3" opacity="0.16"/><line x1="-10" y1="198" x2="1200" y2="200" stroke="#4E3E2E" stroke-width="0.8" opacity="0.23"/><line x1="-10" y1="418" x2="1200" y2="422" stroke="#4E3E2E" stroke-width="0.6" opacity="0.17"/><line x1="-10" y1="20" x2="1200" y2="19" stroke="#4E3E2E" stroke-width="1.4" opacity="0.27"/><line x1="-10" y1="315" x2="1200" y2="314" stroke="#4E3E2E" stroke-width="1.3" opacity="0.27"/><line x1="-10" y1="31" x2="1200" y2="34" stroke="#4E3E2E" stroke-width="1.5" opacity="0.23"/><line x1="-10" y1="104" x2="1200" y2="103" stroke="#4E3E2E" stroke-width="1.4" opacity="0.28"/><line x1="-10" y1="69" x2="1200" y2="67" stroke="#4E3E2E" stroke-width="1.5" opacity="0.25"/><line x1="-10" y1="40" x2="1200" y2="43" stroke="#4E3E2E" stroke-width="1.3" opacity="0.16"/><line x1="-10" y1="198" x2="1200" y2="200" stroke="#4E3E2E" stroke-width="0.8" opacity="0.23"/><line x1="-10" y1="418" x2="1200" y2="422" stroke="#4E3E2E" stroke-width="0.6" opacity="0.17"/><line x1="-10" y1="20" x2="1200" y2="19" stroke="#4E3E2E" stroke-width="1.4" opacity="0.27"/><line x1="-10" y1="315" x2="1200" y2="314" stroke="#4E3E2E" stroke-width="1.3" opacity="0.27"/><line x1="-10" y1="31" x2="1200" y2="34" stroke="#4E3E2E" stroke-width="1.5" opacity="0.23"/><line x1="-10" y1="104" x2="1200" y2="103" stroke="#4E3E2E" stroke-width="1.4" opacity="0.28"/><line x1="-10" y1="69" x2="1200" y2="67" stroke="#4E3E2E" stroke-width="1.5" opacity="0.25"/><line x1="-10" y1="40" x2="1200" y2="43" stroke="#4E3E2E" stroke-width="1.3" opacity="0.16"/><line x1="-10" y1="198" x2="1200" y2="200" stroke="#4E3E2E" stroke-width="0.8" opacity="0.23"/><line x1="-10" y1="418" x2="1200" y2="422" stroke="#4E3E2E" stroke-width="0.6" opacity="0.17"/><line x1="-10" y1="20" x2="1200" y2="19" stroke="#4E3E2E" stroke-width="1.4" opacity="0.27"/><line x1="-10" y1="315" x2="1200" y2="314" stroke="#4E3E2E" stroke-width="1.3" opacity="0.27"/><line x1="-10" y1="31" x2="1200" y2="34" stroke="#4E3E2E" stroke-width="1.5" opacity="0.23"/><line x1="-10" y1="104" x2="1200" y2="103" stroke="#4E3E2E" stroke-width="1.4" opacity="0.28"/><line x1="-10" y1="69" x2="1200" y2="67" stroke="#4E3E2E" stroke-width="1.5" opacity="0.25"/><line x1="-10" y1="40" x2="1200" y2="43" stroke="#4E3E2E" stroke-width="1.3" opacity="0.16"/><line x1="-10" y1="198" x2="1200" y2="200" stroke="#4E3E2E" stroke-width="0.8" opacity="0.23"/><line x1="-10" y1="418" x2="1200" y2="422" stroke="#4E3E2E" stroke-width="0.6" opacity="0.17"/><line x1="-10" y1="20" x2="1200" y2="19" stroke="#4E3E2E" stroke-width="1.4" opacity="0.27"/><line x1="-10" y1="315" x2="1200" y2="314" stroke="#4E3E2E" stroke-width="1.3" opacity="0.27"/><line x1="-10" y1="31" x2="1200" y2="34" stroke="#4E3E2E" stroke-width="1.5" opacity="0.23"/><rect x="440" y="170" width="320" height="110" rx="8" fill="#2E241A" opacity="0.5"/><rect x="24" y="302" width="340" height="42" rx="8" fill="#160F09" opacity="0.85"/><text x="40" y="330" font-family="Arial" font-size="20" font-weight="bold" fill="#E8A33D" letter-spacing="2">TV UNITS &amp; CENTER TABLES</text></svg>